G04 EAGLE Gerber RS-274X export*
G75*
%MOMM*%
%FSLAX34Y34*%
%LPD*%
%INTop Copper*%
%IPPOS*%
%AMOC8*
5,1,8,0,0,1.08239X$1,22.5*%
G01*
%ADD10C,1.524000*%
%ADD11P,1.649562X8X22.500000*%
%ADD12C,0.304800*%


D10*
X94298Y20955D02*
X79058Y20955D01*
X79058Y46355D02*
X94298Y46355D01*
X94298Y71755D02*
X79058Y71755D01*
X79058Y97155D02*
X94298Y97155D01*
X94298Y122555D02*
X79058Y122555D01*
X79058Y147955D02*
X94298Y147955D01*
X94298Y173355D02*
X79058Y173355D01*
X79058Y198755D02*
X94298Y198755D01*
X94298Y224155D02*
X79058Y224155D01*
X79058Y249555D02*
X94298Y249555D01*
X94298Y274955D02*
X79058Y274955D01*
X79058Y300355D02*
X94298Y300355D01*
X94298Y325755D02*
X79058Y325755D01*
D11*
X53340Y80010D03*
X53340Y53340D03*
X26670Y66675D03*
X26670Y93345D03*
X26670Y120015D03*
X26670Y146685D03*
X26670Y173355D03*
X26670Y200025D03*
X26670Y226695D03*
X26670Y253365D03*
X26670Y280035D03*
X53340Y293370D03*
X53340Y266700D03*
D12*
X53340Y80010D02*
X40005Y66675D01*
X40005Y45720D01*
X64770Y20955D02*
X86678Y20955D01*
X64770Y20955D02*
X40005Y45720D01*
X60325Y46355D02*
X86678Y46355D01*
X60325Y46355D02*
X53340Y53340D01*
X26670Y66675D02*
X26670Y73025D01*
X65088Y93345D02*
X86678Y71755D01*
X65088Y93345D02*
X46990Y93345D01*
X26670Y73025D01*
X26670Y93345D02*
X40005Y106680D01*
X77153Y106680D02*
X86678Y97155D01*
X77153Y106680D02*
X40005Y106680D01*
X29210Y122555D02*
X86678Y122555D01*
X29210Y122555D02*
X26670Y120015D01*
X27940Y147955D02*
X86678Y147955D01*
X27940Y147955D02*
X26670Y146685D01*
X26670Y173355D02*
X86678Y173355D01*
X86678Y198755D02*
X27940Y198755D01*
X26670Y200025D01*
X29210Y224155D02*
X86678Y224155D01*
X29210Y224155D02*
X26670Y226695D01*
X40005Y240030D02*
X26670Y253365D01*
X40005Y240030D02*
X77153Y240030D01*
X86678Y249555D01*
X65850Y254127D02*
X86678Y274955D01*
X26670Y273685D02*
X26670Y280035D01*
X26670Y273685D02*
X46228Y254127D01*
X65850Y254127D01*
X53340Y293370D02*
X60325Y300355D01*
X86678Y300355D01*
X53340Y266700D02*
X40005Y280035D01*
X40005Y306705D01*
X59055Y325755D01*
X86678Y325755D01*
M02*
