G04 EAGLE Gerber RS-274X export*
G75*
%MOMM*%
%FSLAX34Y34*%
%LPD*%
%INSilkscreen Top*%
%IPPOS*%
%AMOC8*
5,1,8,0,0,1.08239X$1,22.5*%
G01*
%ADD10C,0.152400*%


D10*
X80328Y287655D02*
X73978Y294005D01*
X73978Y306705D01*
X80328Y313055D01*
X93028Y313055D01*
X99378Y306705D01*
X99378Y294005D01*
X93028Y287655D01*
X73978Y255905D02*
X73978Y243205D01*
X73978Y255905D02*
X80328Y262255D01*
X93028Y262255D01*
X99378Y255905D01*
X80328Y262255D02*
X73978Y268605D01*
X73978Y281305D01*
X80328Y287655D01*
X93028Y287655D01*
X99378Y281305D01*
X99378Y268605D01*
X93028Y262255D01*
X73978Y217805D02*
X80328Y211455D01*
X73978Y217805D02*
X73978Y230505D01*
X80328Y236855D01*
X93028Y236855D01*
X99378Y230505D01*
X99378Y217805D01*
X93028Y211455D01*
X80328Y236855D02*
X73978Y243205D01*
X93028Y236855D02*
X99378Y243205D01*
X99378Y255905D01*
X73978Y179705D02*
X73978Y167005D01*
X73978Y179705D02*
X80328Y186055D01*
X93028Y186055D01*
X99378Y179705D01*
X80328Y186055D02*
X73978Y192405D01*
X73978Y205105D01*
X80328Y211455D01*
X93028Y211455D01*
X99378Y205105D01*
X99378Y192405D01*
X93028Y186055D01*
X73978Y141605D02*
X80328Y135255D01*
X73978Y141605D02*
X73978Y154305D01*
X80328Y160655D01*
X93028Y160655D01*
X99378Y154305D01*
X99378Y141605D01*
X93028Y135255D01*
X80328Y160655D02*
X73978Y167005D01*
X93028Y160655D02*
X99378Y167005D01*
X99378Y179705D01*
X73978Y103505D02*
X73978Y90805D01*
X73978Y103505D02*
X80328Y109855D01*
X93028Y109855D01*
X99378Y103505D01*
X80328Y109855D02*
X73978Y116205D01*
X73978Y128905D01*
X80328Y135255D01*
X93028Y135255D01*
X99378Y128905D01*
X99378Y116205D01*
X93028Y109855D01*
X73978Y65405D02*
X80328Y59055D01*
X73978Y65405D02*
X73978Y78105D01*
X80328Y84455D01*
X93028Y84455D01*
X99378Y78105D01*
X99378Y65405D01*
X93028Y59055D01*
X80328Y84455D02*
X73978Y90805D01*
X93028Y84455D02*
X99378Y90805D01*
X99378Y103505D01*
X73978Y27305D02*
X73978Y14605D01*
X73978Y27305D02*
X80328Y33655D01*
X93028Y33655D01*
X99378Y27305D01*
X80328Y33655D02*
X73978Y40005D01*
X73978Y52705D01*
X80328Y59055D01*
X93028Y59055D01*
X99378Y52705D01*
X99378Y40005D01*
X93028Y33655D01*
X93028Y8255D02*
X80328Y8255D01*
X73978Y14605D01*
X93028Y8255D02*
X99378Y14605D01*
X99378Y27305D01*
X80328Y313055D02*
X73978Y319405D01*
X73978Y332105D01*
X80328Y338455D01*
X93028Y338455D01*
X99378Y332105D01*
X99378Y319405D01*
X93028Y313055D01*
X59690Y92710D02*
X46990Y92710D01*
X59690Y92710D02*
X66040Y86360D01*
X66040Y73660D01*
X59690Y67310D01*
X40640Y73660D02*
X40640Y86360D01*
X46990Y92710D01*
X40640Y73660D02*
X46990Y67310D01*
X59690Y67310D01*
X59690Y66040D02*
X46990Y66040D01*
X59690Y66040D02*
X66040Y59690D01*
X66040Y46990D01*
X59690Y40640D01*
X40640Y46990D02*
X40640Y59690D01*
X46990Y66040D01*
X40640Y46990D02*
X46990Y40640D01*
X59690Y40640D01*
X33020Y79375D02*
X20320Y79375D01*
X33020Y79375D02*
X39370Y73025D01*
X39370Y60325D01*
X33020Y53975D01*
X13970Y60325D02*
X13970Y73025D01*
X20320Y79375D01*
X13970Y60325D02*
X20320Y53975D01*
X33020Y53975D01*
X33020Y106045D02*
X20320Y106045D01*
X33020Y106045D02*
X39370Y99695D01*
X39370Y86995D01*
X33020Y80645D01*
X13970Y86995D02*
X13970Y99695D01*
X20320Y106045D01*
X13970Y86995D02*
X20320Y80645D01*
X33020Y80645D01*
X33020Y132715D02*
X20320Y132715D01*
X33020Y132715D02*
X39370Y126365D01*
X39370Y113665D01*
X33020Y107315D01*
X13970Y113665D02*
X13970Y126365D01*
X20320Y132715D01*
X13970Y113665D02*
X20320Y107315D01*
X33020Y107315D01*
X33020Y159385D02*
X20320Y159385D01*
X33020Y159385D02*
X39370Y153035D01*
X39370Y140335D01*
X33020Y133985D01*
X13970Y140335D02*
X13970Y153035D01*
X20320Y159385D01*
X13970Y140335D02*
X20320Y133985D01*
X33020Y133985D01*
X33020Y186055D02*
X20320Y186055D01*
X33020Y186055D02*
X39370Y179705D01*
X39370Y167005D01*
X33020Y160655D01*
X13970Y167005D02*
X13970Y179705D01*
X20320Y186055D01*
X13970Y167005D02*
X20320Y160655D01*
X33020Y160655D01*
X33020Y212725D02*
X20320Y212725D01*
X33020Y212725D02*
X39370Y206375D01*
X39370Y193675D01*
X33020Y187325D01*
X13970Y193675D02*
X13970Y206375D01*
X20320Y212725D01*
X13970Y193675D02*
X20320Y187325D01*
X33020Y187325D01*
X33020Y239395D02*
X20320Y239395D01*
X33020Y239395D02*
X39370Y233045D01*
X39370Y220345D01*
X33020Y213995D01*
X13970Y220345D02*
X13970Y233045D01*
X20320Y239395D01*
X13970Y220345D02*
X20320Y213995D01*
X33020Y213995D01*
X33020Y266065D02*
X20320Y266065D01*
X33020Y266065D02*
X39370Y259715D01*
X39370Y247015D01*
X33020Y240665D01*
X13970Y247015D02*
X13970Y259715D01*
X20320Y266065D01*
X13970Y247015D02*
X20320Y240665D01*
X33020Y240665D01*
X33020Y292735D02*
X20320Y292735D01*
X33020Y292735D02*
X39370Y286385D01*
X39370Y273685D01*
X33020Y267335D01*
X13970Y273685D02*
X13970Y286385D01*
X20320Y292735D01*
X13970Y273685D02*
X20320Y267335D01*
X33020Y267335D01*
X46990Y306070D02*
X59690Y306070D01*
X66040Y299720D01*
X66040Y287020D01*
X59690Y280670D01*
X40640Y287020D02*
X40640Y299720D01*
X46990Y306070D01*
X40640Y287020D02*
X46990Y280670D01*
X59690Y280670D01*
X59690Y279400D02*
X46990Y279400D01*
X59690Y279400D02*
X66040Y273050D01*
X66040Y260350D01*
X59690Y254000D01*
X40640Y260350D02*
X40640Y273050D01*
X46990Y279400D01*
X40640Y260350D02*
X46990Y254000D01*
X59690Y254000D01*
M02*
