G04 EAGLE Gerber RS-274X export*
G75*
%MOMM*%
%FSLAX34Y34*%
%LPD*%
%INSilkscreen Top*%
%IPPOS*%
%AMOC8*
5,1,8,0,0,1.08239X$1,22.5*%
G01*
%ADD10C,0.152400*%
%ADD11C,0.100000*%
%ADD12C,0.101600*%


D10*
X86360Y92710D02*
X99060Y92710D01*
X105410Y86360D01*
X105410Y73660D01*
X99060Y67310D01*
X80010Y73660D02*
X80010Y86360D01*
X86360Y92710D01*
X80010Y73660D02*
X86360Y67310D01*
X99060Y67310D01*
X99060Y66040D02*
X86360Y66040D01*
X99060Y66040D02*
X105410Y59690D01*
X105410Y46990D01*
X99060Y40640D01*
X80010Y46990D02*
X80010Y59690D01*
X86360Y66040D01*
X80010Y46990D02*
X86360Y40640D01*
X99060Y40640D01*
X72390Y79375D02*
X59690Y79375D01*
X72390Y79375D02*
X78740Y73025D01*
X78740Y60325D01*
X72390Y53975D01*
X53340Y60325D02*
X53340Y73025D01*
X59690Y79375D01*
X53340Y60325D02*
X59690Y53975D01*
X72390Y53975D01*
X72390Y106045D02*
X59690Y106045D01*
X72390Y106045D02*
X78740Y99695D01*
X78740Y86995D01*
X72390Y80645D01*
X53340Y86995D02*
X53340Y99695D01*
X59690Y106045D01*
X53340Y86995D02*
X59690Y80645D01*
X72390Y80645D01*
X72390Y132715D02*
X59690Y132715D01*
X72390Y132715D02*
X78740Y126365D01*
X78740Y113665D01*
X72390Y107315D01*
X53340Y113665D02*
X53340Y126365D01*
X59690Y132715D01*
X53340Y113665D02*
X59690Y107315D01*
X72390Y107315D01*
X72390Y159385D02*
X59690Y159385D01*
X72390Y159385D02*
X78740Y153035D01*
X78740Y140335D01*
X72390Y133985D01*
X53340Y140335D02*
X53340Y153035D01*
X59690Y159385D01*
X53340Y140335D02*
X59690Y133985D01*
X72390Y133985D01*
X72390Y186055D02*
X59690Y186055D01*
X72390Y186055D02*
X78740Y179705D01*
X78740Y167005D01*
X72390Y160655D01*
X53340Y167005D02*
X53340Y179705D01*
X59690Y186055D01*
X53340Y167005D02*
X59690Y160655D01*
X72390Y160655D01*
X72390Y212725D02*
X59690Y212725D01*
X72390Y212725D02*
X78740Y206375D01*
X78740Y193675D01*
X72390Y187325D01*
X53340Y193675D02*
X53340Y206375D01*
X59690Y212725D01*
X53340Y193675D02*
X59690Y187325D01*
X72390Y187325D01*
X72390Y239395D02*
X59690Y239395D01*
X72390Y239395D02*
X78740Y233045D01*
X78740Y220345D01*
X72390Y213995D01*
X53340Y220345D02*
X53340Y233045D01*
X59690Y239395D01*
X53340Y220345D02*
X59690Y213995D01*
X72390Y213995D01*
X72390Y266065D02*
X59690Y266065D01*
X72390Y266065D02*
X78740Y259715D01*
X78740Y247015D01*
X72390Y240665D01*
X53340Y247015D02*
X53340Y259715D01*
X59690Y266065D01*
X53340Y247015D02*
X59690Y240665D01*
X72390Y240665D01*
X72390Y292735D02*
X59690Y292735D01*
X72390Y292735D02*
X78740Y286385D01*
X78740Y273685D01*
X72390Y267335D01*
X53340Y273685D02*
X53340Y286385D01*
X59690Y292735D01*
X53340Y273685D02*
X59690Y267335D01*
X72390Y267335D01*
X86360Y306070D02*
X99060Y306070D01*
X105410Y299720D01*
X105410Y287020D01*
X99060Y280670D01*
X80010Y287020D02*
X80010Y299720D01*
X86360Y306070D01*
X80010Y287020D02*
X86360Y280670D01*
X99060Y280670D01*
X99060Y279400D02*
X86360Y279400D01*
X99060Y279400D02*
X105410Y273050D01*
X105410Y260350D01*
X99060Y254000D01*
X80010Y260350D02*
X80010Y273050D01*
X86360Y279400D01*
X80010Y260350D02*
X86360Y254000D01*
X99060Y254000D01*
D11*
X118200Y338055D02*
X34200Y338055D01*
X34200Y8655D02*
X118200Y8655D01*
D12*
X52776Y169420D02*
X43688Y169420D01*
X52776Y169420D02*
X52875Y169418D01*
X52975Y169412D01*
X53074Y169403D01*
X53172Y169390D01*
X53270Y169373D01*
X53368Y169352D01*
X53464Y169327D01*
X53559Y169299D01*
X53653Y169267D01*
X53746Y169232D01*
X53838Y169193D01*
X53928Y169150D01*
X54016Y169105D01*
X54103Y169055D01*
X54187Y169003D01*
X54270Y168947D01*
X54350Y168889D01*
X54428Y168827D01*
X54503Y168762D01*
X54576Y168694D01*
X54646Y168624D01*
X54714Y168551D01*
X54779Y168476D01*
X54841Y168398D01*
X54899Y168318D01*
X54955Y168235D01*
X55007Y168151D01*
X55057Y168064D01*
X55102Y167976D01*
X55145Y167886D01*
X55184Y167794D01*
X55219Y167701D01*
X55251Y167607D01*
X55279Y167512D01*
X55304Y167416D01*
X55325Y167318D01*
X55342Y167220D01*
X55355Y167122D01*
X55364Y167023D01*
X55370Y166923D01*
X55372Y166824D01*
X55372Y165525D01*
X46284Y174694D02*
X43688Y177939D01*
X55372Y177939D01*
X55372Y174694D02*
X55372Y181185D01*
M02*
