G04 EAGLE Gerber RS-274X export*
G75*
%MOMM*%
%FSLAX34Y34*%
%LPD*%
%INSilkscreen Top*%
%IPPOS*%
%AMOC8*
5,1,8,0,0,1.08239X$1,22.5*%
G01*
%ADD10C,0.076200*%
%ADD11C,0.100000*%
%ADD12C,0.101600*%


D10*
X39116Y325642D02*
X41727Y325642D01*
X41727Y325643D02*
X41828Y325641D01*
X41929Y325635D01*
X42030Y325625D01*
X42130Y325612D01*
X42230Y325594D01*
X42329Y325573D01*
X42427Y325547D01*
X42524Y325518D01*
X42620Y325486D01*
X42714Y325449D01*
X42807Y325409D01*
X42899Y325365D01*
X42988Y325318D01*
X43076Y325267D01*
X43162Y325213D01*
X43245Y325156D01*
X43327Y325096D01*
X43405Y325032D01*
X43482Y324966D01*
X43555Y324896D01*
X43626Y324824D01*
X43694Y324749D01*
X43759Y324671D01*
X43821Y324591D01*
X43880Y324509D01*
X43936Y324424D01*
X43988Y324337D01*
X44037Y324249D01*
X44083Y324158D01*
X44124Y324066D01*
X44163Y323972D01*
X44197Y323877D01*
X44228Y323781D01*
X44255Y323683D01*
X44279Y323585D01*
X44298Y323485D01*
X44314Y323385D01*
X44326Y323285D01*
X44334Y323184D01*
X44338Y323083D01*
X44338Y322981D01*
X44334Y322880D01*
X44326Y322779D01*
X44314Y322679D01*
X44298Y322579D01*
X44279Y322479D01*
X44255Y322381D01*
X44228Y322283D01*
X44197Y322187D01*
X44163Y322092D01*
X44124Y321998D01*
X44083Y321906D01*
X44037Y321815D01*
X43988Y321727D01*
X43936Y321640D01*
X43880Y321555D01*
X43821Y321473D01*
X43759Y321393D01*
X43694Y321315D01*
X43626Y321240D01*
X43555Y321168D01*
X43482Y321098D01*
X43405Y321032D01*
X43327Y320968D01*
X43245Y320908D01*
X43162Y320851D01*
X43076Y320797D01*
X42988Y320746D01*
X42899Y320699D01*
X42807Y320655D01*
X42714Y320615D01*
X42620Y320578D01*
X42524Y320546D01*
X42427Y320517D01*
X42329Y320491D01*
X42230Y320470D01*
X42130Y320452D01*
X42030Y320439D01*
X41929Y320429D01*
X41828Y320423D01*
X41727Y320421D01*
X39116Y320421D01*
X39116Y329819D01*
X41727Y329819D01*
X41817Y329817D01*
X41906Y329811D01*
X41996Y329802D01*
X42085Y329788D01*
X42173Y329771D01*
X42260Y329750D01*
X42347Y329725D01*
X42432Y329696D01*
X42516Y329664D01*
X42598Y329629D01*
X42679Y329589D01*
X42758Y329547D01*
X42835Y329501D01*
X42910Y329451D01*
X42983Y329399D01*
X43054Y329343D01*
X43122Y329285D01*
X43187Y329223D01*
X43250Y329159D01*
X43310Y329092D01*
X43367Y329023D01*
X43421Y328951D01*
X43472Y328877D01*
X43520Y328801D01*
X43564Y328723D01*
X43605Y328643D01*
X43643Y328561D01*
X43677Y328478D01*
X43707Y328393D01*
X43734Y328307D01*
X43757Y328221D01*
X43776Y328133D01*
X43791Y328044D01*
X43803Y327955D01*
X43811Y327866D01*
X43815Y327776D01*
X43815Y327686D01*
X43811Y327596D01*
X43803Y327507D01*
X43791Y327418D01*
X43776Y327329D01*
X43757Y327241D01*
X43734Y327155D01*
X43707Y327069D01*
X43677Y326984D01*
X43643Y326901D01*
X43605Y326819D01*
X43564Y326739D01*
X43520Y326661D01*
X43472Y326585D01*
X43421Y326511D01*
X43367Y326439D01*
X43310Y326370D01*
X43250Y326303D01*
X43187Y326239D01*
X43122Y326177D01*
X43054Y326119D01*
X42983Y326063D01*
X42910Y326011D01*
X42835Y325961D01*
X42758Y325915D01*
X42679Y325873D01*
X42598Y325833D01*
X42516Y325798D01*
X42432Y325766D01*
X42347Y325737D01*
X42260Y325712D01*
X42173Y325691D01*
X42085Y325674D01*
X41996Y325660D01*
X41906Y325651D01*
X41817Y325645D01*
X41727Y325643D01*
X47824Y327731D02*
X50434Y329819D01*
X50434Y320421D01*
X47824Y320421D02*
X53045Y320421D01*
X62190Y327470D02*
X62188Y327565D01*
X62182Y327659D01*
X62173Y327753D01*
X62160Y327847D01*
X62143Y327940D01*
X62122Y328032D01*
X62097Y328124D01*
X62069Y328214D01*
X62037Y328303D01*
X62002Y328391D01*
X61963Y328477D01*
X61921Y328562D01*
X61875Y328645D01*
X61826Y328726D01*
X61774Y328805D01*
X61719Y328882D01*
X61660Y328956D01*
X61599Y329028D01*
X61535Y329098D01*
X61468Y329165D01*
X61398Y329229D01*
X61326Y329290D01*
X61252Y329349D01*
X61175Y329404D01*
X61096Y329456D01*
X61015Y329505D01*
X60932Y329551D01*
X60847Y329593D01*
X60761Y329632D01*
X60673Y329667D01*
X60584Y329699D01*
X60494Y329727D01*
X60402Y329752D01*
X60310Y329773D01*
X60217Y329790D01*
X60123Y329803D01*
X60029Y329812D01*
X59935Y329818D01*
X59840Y329820D01*
X59840Y329819D02*
X59732Y329817D01*
X59623Y329811D01*
X59515Y329801D01*
X59408Y329788D01*
X59301Y329770D01*
X59194Y329749D01*
X59089Y329724D01*
X58984Y329695D01*
X58881Y329663D01*
X58779Y329626D01*
X58678Y329586D01*
X58579Y329543D01*
X58481Y329496D01*
X58385Y329445D01*
X58291Y329391D01*
X58199Y329334D01*
X58109Y329273D01*
X58021Y329209D01*
X57936Y329143D01*
X57853Y329073D01*
X57773Y329000D01*
X57695Y328924D01*
X57620Y328846D01*
X57548Y328765D01*
X57479Y328681D01*
X57413Y328595D01*
X57350Y328507D01*
X57291Y328416D01*
X57234Y328324D01*
X57181Y328229D01*
X57132Y328133D01*
X57086Y328034D01*
X57043Y327935D01*
X57004Y327833D01*
X56969Y327731D01*
X61406Y325642D02*
X61475Y325711D01*
X61541Y325782D01*
X61605Y325855D01*
X61666Y325931D01*
X61724Y326010D01*
X61778Y326090D01*
X61830Y326173D01*
X61878Y326257D01*
X61924Y326343D01*
X61965Y326431D01*
X62004Y326521D01*
X62039Y326612D01*
X62070Y326704D01*
X62098Y326797D01*
X62122Y326891D01*
X62142Y326986D01*
X62159Y327082D01*
X62172Y327179D01*
X62181Y327276D01*
X62187Y327373D01*
X62189Y327470D01*
X61406Y325642D02*
X56968Y320421D01*
X62189Y320421D01*
X41727Y300242D02*
X39116Y300242D01*
X41727Y300243D02*
X41828Y300241D01*
X41929Y300235D01*
X42030Y300225D01*
X42130Y300212D01*
X42230Y300194D01*
X42329Y300173D01*
X42427Y300147D01*
X42524Y300118D01*
X42620Y300086D01*
X42714Y300049D01*
X42807Y300009D01*
X42899Y299965D01*
X42988Y299918D01*
X43076Y299867D01*
X43162Y299813D01*
X43245Y299756D01*
X43327Y299696D01*
X43405Y299632D01*
X43482Y299566D01*
X43555Y299496D01*
X43626Y299424D01*
X43694Y299349D01*
X43759Y299271D01*
X43821Y299191D01*
X43880Y299109D01*
X43936Y299024D01*
X43988Y298937D01*
X44037Y298849D01*
X44083Y298758D01*
X44124Y298666D01*
X44163Y298572D01*
X44197Y298477D01*
X44228Y298381D01*
X44255Y298283D01*
X44279Y298185D01*
X44298Y298085D01*
X44314Y297985D01*
X44326Y297885D01*
X44334Y297784D01*
X44338Y297683D01*
X44338Y297581D01*
X44334Y297480D01*
X44326Y297379D01*
X44314Y297279D01*
X44298Y297179D01*
X44279Y297079D01*
X44255Y296981D01*
X44228Y296883D01*
X44197Y296787D01*
X44163Y296692D01*
X44124Y296598D01*
X44083Y296506D01*
X44037Y296415D01*
X43988Y296327D01*
X43936Y296240D01*
X43880Y296155D01*
X43821Y296073D01*
X43759Y295993D01*
X43694Y295915D01*
X43626Y295840D01*
X43555Y295768D01*
X43482Y295698D01*
X43405Y295632D01*
X43327Y295568D01*
X43245Y295508D01*
X43162Y295451D01*
X43076Y295397D01*
X42988Y295346D01*
X42899Y295299D01*
X42807Y295255D01*
X42714Y295215D01*
X42620Y295178D01*
X42524Y295146D01*
X42427Y295117D01*
X42329Y295091D01*
X42230Y295070D01*
X42130Y295052D01*
X42030Y295039D01*
X41929Y295029D01*
X41828Y295023D01*
X41727Y295021D01*
X39116Y295021D01*
X39116Y304419D01*
X41727Y304419D01*
X41817Y304417D01*
X41906Y304411D01*
X41996Y304402D01*
X42085Y304388D01*
X42173Y304371D01*
X42260Y304350D01*
X42347Y304325D01*
X42432Y304296D01*
X42516Y304264D01*
X42598Y304229D01*
X42679Y304189D01*
X42758Y304147D01*
X42835Y304101D01*
X42910Y304051D01*
X42983Y303999D01*
X43054Y303943D01*
X43122Y303885D01*
X43187Y303823D01*
X43250Y303759D01*
X43310Y303692D01*
X43367Y303623D01*
X43421Y303551D01*
X43472Y303477D01*
X43520Y303401D01*
X43564Y303323D01*
X43605Y303243D01*
X43643Y303161D01*
X43677Y303078D01*
X43707Y302993D01*
X43734Y302907D01*
X43757Y302821D01*
X43776Y302733D01*
X43791Y302644D01*
X43803Y302555D01*
X43811Y302466D01*
X43815Y302376D01*
X43815Y302286D01*
X43811Y302196D01*
X43803Y302107D01*
X43791Y302018D01*
X43776Y301929D01*
X43757Y301841D01*
X43734Y301755D01*
X43707Y301669D01*
X43677Y301584D01*
X43643Y301501D01*
X43605Y301419D01*
X43564Y301339D01*
X43520Y301261D01*
X43472Y301185D01*
X43421Y301111D01*
X43367Y301039D01*
X43310Y300970D01*
X43250Y300903D01*
X43187Y300839D01*
X43122Y300777D01*
X43054Y300719D01*
X42983Y300663D01*
X42910Y300611D01*
X42835Y300561D01*
X42758Y300515D01*
X42679Y300473D01*
X42598Y300433D01*
X42516Y300398D01*
X42432Y300366D01*
X42347Y300337D01*
X42260Y300312D01*
X42173Y300291D01*
X42085Y300274D01*
X41996Y300260D01*
X41906Y300251D01*
X41817Y300245D01*
X41727Y300243D01*
X47824Y302331D02*
X50434Y304419D01*
X50434Y295021D01*
X47824Y295021D02*
X53045Y295021D01*
X56968Y299720D02*
X56970Y299905D01*
X56977Y300090D01*
X56988Y300274D01*
X57003Y300458D01*
X57023Y300642D01*
X57047Y300826D01*
X57076Y301008D01*
X57109Y301190D01*
X57146Y301371D01*
X57188Y301551D01*
X57234Y301731D01*
X57284Y301909D01*
X57338Y302085D01*
X57397Y302261D01*
X57459Y302435D01*
X57526Y302607D01*
X57597Y302778D01*
X57672Y302947D01*
X57751Y303114D01*
X57750Y303114D02*
X57780Y303194D01*
X57813Y303273D01*
X57850Y303350D01*
X57890Y303426D01*
X57933Y303500D01*
X57979Y303572D01*
X58029Y303641D01*
X58081Y303709D01*
X58137Y303774D01*
X58195Y303837D01*
X58257Y303896D01*
X58320Y303954D01*
X58387Y304008D01*
X58455Y304059D01*
X58526Y304107D01*
X58599Y304152D01*
X58673Y304194D01*
X58750Y304232D01*
X58828Y304267D01*
X58907Y304299D01*
X58988Y304327D01*
X59070Y304351D01*
X59154Y304372D01*
X59237Y304389D01*
X59322Y304402D01*
X59407Y304411D01*
X59492Y304417D01*
X59578Y304419D01*
X59664Y304417D01*
X59749Y304411D01*
X59834Y304402D01*
X59919Y304389D01*
X60002Y304372D01*
X60086Y304351D01*
X60168Y304327D01*
X60249Y304299D01*
X60328Y304267D01*
X60406Y304232D01*
X60483Y304194D01*
X60557Y304152D01*
X60630Y304107D01*
X60701Y304059D01*
X60769Y304008D01*
X60836Y303954D01*
X60899Y303896D01*
X60961Y303837D01*
X61019Y303774D01*
X61075Y303709D01*
X61127Y303641D01*
X61177Y303572D01*
X61223Y303500D01*
X61266Y303426D01*
X61306Y303350D01*
X61343Y303273D01*
X61376Y303194D01*
X61406Y303114D01*
X61485Y302947D01*
X61560Y302778D01*
X61631Y302607D01*
X61698Y302435D01*
X61760Y302261D01*
X61819Y302085D01*
X61873Y301909D01*
X61923Y301731D01*
X61969Y301551D01*
X62011Y301371D01*
X62048Y301190D01*
X62081Y301008D01*
X62110Y300826D01*
X62134Y300642D01*
X62154Y300458D01*
X62169Y300274D01*
X62180Y300090D01*
X62187Y299905D01*
X62189Y299720D01*
X56968Y299720D02*
X56970Y299535D01*
X56977Y299350D01*
X56988Y299166D01*
X57003Y298982D01*
X57023Y298798D01*
X57047Y298614D01*
X57076Y298432D01*
X57109Y298250D01*
X57146Y298069D01*
X57188Y297889D01*
X57234Y297709D01*
X57284Y297531D01*
X57338Y297355D01*
X57397Y297179D01*
X57459Y297005D01*
X57526Y296833D01*
X57597Y296662D01*
X57672Y296493D01*
X57751Y296326D01*
X57750Y296326D02*
X57780Y296246D01*
X57813Y296167D01*
X57850Y296090D01*
X57890Y296014D01*
X57933Y295940D01*
X57979Y295868D01*
X58029Y295799D01*
X58082Y295731D01*
X58137Y295666D01*
X58196Y295603D01*
X58257Y295544D01*
X58320Y295486D01*
X58387Y295432D01*
X58455Y295381D01*
X58526Y295333D01*
X58599Y295288D01*
X58673Y295246D01*
X58750Y295208D01*
X58828Y295173D01*
X58907Y295141D01*
X58988Y295113D01*
X59070Y295089D01*
X59154Y295068D01*
X59237Y295051D01*
X59322Y295038D01*
X59407Y295029D01*
X59492Y295023D01*
X59578Y295021D01*
X61406Y296326D02*
X61485Y296493D01*
X61560Y296662D01*
X61631Y296833D01*
X61698Y297005D01*
X61760Y297179D01*
X61819Y297355D01*
X61873Y297531D01*
X61923Y297709D01*
X61969Y297889D01*
X62011Y298069D01*
X62048Y298250D01*
X62081Y298432D01*
X62110Y298614D01*
X62134Y298798D01*
X62154Y298982D01*
X62169Y299166D01*
X62180Y299350D01*
X62187Y299535D01*
X62189Y299720D01*
X61406Y296326D02*
X61376Y296246D01*
X61343Y296167D01*
X61306Y296090D01*
X61266Y296014D01*
X61223Y295940D01*
X61177Y295868D01*
X61127Y295799D01*
X61075Y295731D01*
X61019Y295666D01*
X60961Y295603D01*
X60899Y295544D01*
X60836Y295486D01*
X60769Y295432D01*
X60701Y295381D01*
X60630Y295333D01*
X60557Y295288D01*
X60483Y295246D01*
X60406Y295208D01*
X60328Y295173D01*
X60249Y295141D01*
X60168Y295113D01*
X60086Y295089D01*
X60002Y295068D01*
X59919Y295051D01*
X59834Y295038D01*
X59749Y295029D01*
X59664Y295023D01*
X59578Y295021D01*
X57490Y297109D02*
X61667Y302331D01*
X41727Y268492D02*
X39116Y268492D01*
X41727Y268493D02*
X41828Y268491D01*
X41929Y268485D01*
X42030Y268475D01*
X42130Y268462D01*
X42230Y268444D01*
X42329Y268423D01*
X42427Y268397D01*
X42524Y268368D01*
X42620Y268336D01*
X42714Y268299D01*
X42807Y268259D01*
X42899Y268215D01*
X42988Y268168D01*
X43076Y268117D01*
X43162Y268063D01*
X43245Y268006D01*
X43327Y267946D01*
X43405Y267882D01*
X43482Y267816D01*
X43555Y267746D01*
X43626Y267674D01*
X43694Y267599D01*
X43759Y267521D01*
X43821Y267441D01*
X43880Y267359D01*
X43936Y267274D01*
X43988Y267187D01*
X44037Y267099D01*
X44083Y267008D01*
X44124Y266916D01*
X44163Y266822D01*
X44197Y266727D01*
X44228Y266631D01*
X44255Y266533D01*
X44279Y266435D01*
X44298Y266335D01*
X44314Y266235D01*
X44326Y266135D01*
X44334Y266034D01*
X44338Y265933D01*
X44338Y265831D01*
X44334Y265730D01*
X44326Y265629D01*
X44314Y265529D01*
X44298Y265429D01*
X44279Y265329D01*
X44255Y265231D01*
X44228Y265133D01*
X44197Y265037D01*
X44163Y264942D01*
X44124Y264848D01*
X44083Y264756D01*
X44037Y264665D01*
X43988Y264577D01*
X43936Y264490D01*
X43880Y264405D01*
X43821Y264323D01*
X43759Y264243D01*
X43694Y264165D01*
X43626Y264090D01*
X43555Y264018D01*
X43482Y263948D01*
X43405Y263882D01*
X43327Y263818D01*
X43245Y263758D01*
X43162Y263701D01*
X43076Y263647D01*
X42988Y263596D01*
X42899Y263549D01*
X42807Y263505D01*
X42714Y263465D01*
X42620Y263428D01*
X42524Y263396D01*
X42427Y263367D01*
X42329Y263341D01*
X42230Y263320D01*
X42130Y263302D01*
X42030Y263289D01*
X41929Y263279D01*
X41828Y263273D01*
X41727Y263271D01*
X39116Y263271D01*
X39116Y272669D01*
X41727Y272669D01*
X41817Y272667D01*
X41906Y272661D01*
X41996Y272652D01*
X42085Y272638D01*
X42173Y272621D01*
X42260Y272600D01*
X42347Y272575D01*
X42432Y272546D01*
X42516Y272514D01*
X42598Y272479D01*
X42679Y272439D01*
X42758Y272397D01*
X42835Y272351D01*
X42910Y272301D01*
X42983Y272249D01*
X43054Y272193D01*
X43122Y272135D01*
X43187Y272073D01*
X43250Y272009D01*
X43310Y271942D01*
X43367Y271873D01*
X43421Y271801D01*
X43472Y271727D01*
X43520Y271651D01*
X43564Y271573D01*
X43605Y271493D01*
X43643Y271411D01*
X43677Y271328D01*
X43707Y271243D01*
X43734Y271157D01*
X43757Y271071D01*
X43776Y270983D01*
X43791Y270894D01*
X43803Y270805D01*
X43811Y270716D01*
X43815Y270626D01*
X43815Y270536D01*
X43811Y270446D01*
X43803Y270357D01*
X43791Y270268D01*
X43776Y270179D01*
X43757Y270091D01*
X43734Y270005D01*
X43707Y269919D01*
X43677Y269834D01*
X43643Y269751D01*
X43605Y269669D01*
X43564Y269589D01*
X43520Y269511D01*
X43472Y269435D01*
X43421Y269361D01*
X43367Y269289D01*
X43310Y269220D01*
X43250Y269153D01*
X43187Y269089D01*
X43122Y269027D01*
X43054Y268969D01*
X42983Y268913D01*
X42910Y268861D01*
X42835Y268811D01*
X42758Y268765D01*
X42679Y268723D01*
X42598Y268683D01*
X42516Y268648D01*
X42432Y268616D01*
X42347Y268587D01*
X42260Y268562D01*
X42173Y268541D01*
X42085Y268524D01*
X41996Y268510D01*
X41906Y268501D01*
X41817Y268495D01*
X41727Y268493D01*
X47823Y265882D02*
X47825Y265983D01*
X47831Y266084D01*
X47841Y266185D01*
X47854Y266285D01*
X47872Y266385D01*
X47893Y266484D01*
X47919Y266582D01*
X47948Y266679D01*
X47980Y266775D01*
X48017Y266869D01*
X48057Y266962D01*
X48101Y267054D01*
X48148Y267143D01*
X48199Y267231D01*
X48253Y267317D01*
X48310Y267400D01*
X48370Y267482D01*
X48434Y267560D01*
X48500Y267637D01*
X48570Y267710D01*
X48642Y267781D01*
X48717Y267849D01*
X48795Y267914D01*
X48875Y267976D01*
X48957Y268035D01*
X49042Y268091D01*
X49129Y268143D01*
X49217Y268192D01*
X49308Y268238D01*
X49400Y268279D01*
X49494Y268318D01*
X49589Y268352D01*
X49685Y268383D01*
X49783Y268410D01*
X49881Y268434D01*
X49981Y268453D01*
X50081Y268469D01*
X50181Y268481D01*
X50282Y268489D01*
X50383Y268493D01*
X50485Y268493D01*
X50586Y268489D01*
X50687Y268481D01*
X50787Y268469D01*
X50887Y268453D01*
X50987Y268434D01*
X51085Y268410D01*
X51183Y268383D01*
X51279Y268352D01*
X51374Y268318D01*
X51468Y268279D01*
X51560Y268238D01*
X51651Y268192D01*
X51740Y268143D01*
X51826Y268091D01*
X51911Y268035D01*
X51993Y267976D01*
X52073Y267914D01*
X52151Y267849D01*
X52226Y267781D01*
X52298Y267710D01*
X52368Y267637D01*
X52434Y267560D01*
X52498Y267482D01*
X52558Y267400D01*
X52615Y267317D01*
X52669Y267231D01*
X52720Y267143D01*
X52767Y267054D01*
X52811Y266962D01*
X52851Y266869D01*
X52888Y266775D01*
X52920Y266679D01*
X52949Y266582D01*
X52975Y266484D01*
X52996Y266385D01*
X53014Y266285D01*
X53027Y266185D01*
X53037Y266084D01*
X53043Y265983D01*
X53045Y265882D01*
X53043Y265781D01*
X53037Y265680D01*
X53027Y265579D01*
X53014Y265479D01*
X52996Y265379D01*
X52975Y265280D01*
X52949Y265182D01*
X52920Y265085D01*
X52888Y264989D01*
X52851Y264895D01*
X52811Y264802D01*
X52767Y264710D01*
X52720Y264621D01*
X52669Y264533D01*
X52615Y264447D01*
X52558Y264364D01*
X52498Y264282D01*
X52434Y264204D01*
X52368Y264127D01*
X52298Y264054D01*
X52226Y263983D01*
X52151Y263915D01*
X52073Y263850D01*
X51993Y263788D01*
X51911Y263729D01*
X51826Y263673D01*
X51739Y263621D01*
X51651Y263572D01*
X51560Y263526D01*
X51468Y263485D01*
X51374Y263446D01*
X51279Y263412D01*
X51183Y263381D01*
X51085Y263354D01*
X50987Y263330D01*
X50887Y263311D01*
X50787Y263295D01*
X50687Y263283D01*
X50586Y263275D01*
X50485Y263271D01*
X50383Y263271D01*
X50282Y263275D01*
X50181Y263283D01*
X50081Y263295D01*
X49981Y263311D01*
X49881Y263330D01*
X49783Y263354D01*
X49685Y263381D01*
X49589Y263412D01*
X49494Y263446D01*
X49400Y263485D01*
X49308Y263526D01*
X49217Y263572D01*
X49128Y263621D01*
X49042Y263673D01*
X48957Y263729D01*
X48875Y263788D01*
X48795Y263850D01*
X48717Y263915D01*
X48642Y263983D01*
X48570Y264054D01*
X48500Y264127D01*
X48434Y264204D01*
X48370Y264282D01*
X48310Y264364D01*
X48253Y264447D01*
X48199Y264533D01*
X48148Y264621D01*
X48101Y264710D01*
X48057Y264802D01*
X48017Y264895D01*
X47980Y264989D01*
X47948Y265085D01*
X47919Y265182D01*
X47893Y265280D01*
X47872Y265379D01*
X47854Y265479D01*
X47841Y265579D01*
X47831Y265680D01*
X47825Y265781D01*
X47823Y265882D01*
X48346Y270581D02*
X48348Y270671D01*
X48354Y270760D01*
X48363Y270850D01*
X48377Y270939D01*
X48394Y271027D01*
X48415Y271114D01*
X48440Y271201D01*
X48469Y271286D01*
X48501Y271370D01*
X48536Y271452D01*
X48576Y271533D01*
X48618Y271612D01*
X48664Y271689D01*
X48714Y271764D01*
X48766Y271837D01*
X48822Y271908D01*
X48880Y271976D01*
X48942Y272041D01*
X49006Y272104D01*
X49073Y272164D01*
X49142Y272221D01*
X49214Y272275D01*
X49288Y272326D01*
X49364Y272374D01*
X49442Y272418D01*
X49522Y272459D01*
X49604Y272497D01*
X49687Y272531D01*
X49772Y272561D01*
X49858Y272588D01*
X49944Y272611D01*
X50032Y272630D01*
X50121Y272645D01*
X50210Y272657D01*
X50299Y272665D01*
X50389Y272669D01*
X50479Y272669D01*
X50569Y272665D01*
X50658Y272657D01*
X50747Y272645D01*
X50836Y272630D01*
X50924Y272611D01*
X51010Y272588D01*
X51096Y272561D01*
X51181Y272531D01*
X51264Y272497D01*
X51346Y272459D01*
X51426Y272418D01*
X51504Y272374D01*
X51580Y272326D01*
X51654Y272275D01*
X51726Y272221D01*
X51795Y272164D01*
X51862Y272104D01*
X51926Y272041D01*
X51988Y271976D01*
X52046Y271908D01*
X52102Y271837D01*
X52154Y271764D01*
X52204Y271689D01*
X52250Y271612D01*
X52292Y271533D01*
X52332Y271452D01*
X52367Y271370D01*
X52399Y271286D01*
X52428Y271201D01*
X52453Y271114D01*
X52474Y271027D01*
X52491Y270939D01*
X52505Y270850D01*
X52514Y270760D01*
X52520Y270671D01*
X52522Y270581D01*
X52520Y270491D01*
X52514Y270402D01*
X52505Y270312D01*
X52491Y270223D01*
X52474Y270135D01*
X52453Y270048D01*
X52428Y269961D01*
X52399Y269876D01*
X52367Y269792D01*
X52332Y269710D01*
X52292Y269629D01*
X52250Y269550D01*
X52204Y269473D01*
X52154Y269398D01*
X52102Y269325D01*
X52046Y269254D01*
X51988Y269186D01*
X51926Y269121D01*
X51862Y269058D01*
X51795Y268998D01*
X51726Y268941D01*
X51654Y268887D01*
X51580Y268836D01*
X51504Y268788D01*
X51426Y268744D01*
X51346Y268703D01*
X51264Y268665D01*
X51181Y268631D01*
X51096Y268601D01*
X51010Y268574D01*
X50924Y268551D01*
X50836Y268532D01*
X50747Y268517D01*
X50658Y268505D01*
X50569Y268497D01*
X50479Y268493D01*
X50389Y268493D01*
X50299Y268497D01*
X50210Y268505D01*
X50121Y268517D01*
X50032Y268532D01*
X49944Y268551D01*
X49858Y268574D01*
X49772Y268601D01*
X49687Y268631D01*
X49604Y268665D01*
X49522Y268703D01*
X49442Y268744D01*
X49364Y268788D01*
X49288Y268836D01*
X49214Y268887D01*
X49142Y268941D01*
X49073Y268998D01*
X49006Y269058D01*
X48942Y269121D01*
X48880Y269186D01*
X48822Y269254D01*
X48766Y269325D01*
X48714Y269398D01*
X48664Y269473D01*
X48618Y269550D01*
X48576Y269629D01*
X48536Y269710D01*
X48501Y269792D01*
X48469Y269876D01*
X48440Y269961D01*
X48415Y270048D01*
X48394Y270135D01*
X48377Y270223D01*
X48363Y270312D01*
X48354Y270402D01*
X48348Y270491D01*
X48346Y270581D01*
X41727Y241822D02*
X39116Y241822D01*
X41727Y241823D02*
X41828Y241821D01*
X41929Y241815D01*
X42030Y241805D01*
X42130Y241792D01*
X42230Y241774D01*
X42329Y241753D01*
X42427Y241727D01*
X42524Y241698D01*
X42620Y241666D01*
X42714Y241629D01*
X42807Y241589D01*
X42899Y241545D01*
X42988Y241498D01*
X43076Y241447D01*
X43162Y241393D01*
X43245Y241336D01*
X43327Y241276D01*
X43405Y241212D01*
X43482Y241146D01*
X43555Y241076D01*
X43626Y241004D01*
X43694Y240929D01*
X43759Y240851D01*
X43821Y240771D01*
X43880Y240689D01*
X43936Y240604D01*
X43988Y240517D01*
X44037Y240429D01*
X44083Y240338D01*
X44124Y240246D01*
X44163Y240152D01*
X44197Y240057D01*
X44228Y239961D01*
X44255Y239863D01*
X44279Y239765D01*
X44298Y239665D01*
X44314Y239565D01*
X44326Y239465D01*
X44334Y239364D01*
X44338Y239263D01*
X44338Y239161D01*
X44334Y239060D01*
X44326Y238959D01*
X44314Y238859D01*
X44298Y238759D01*
X44279Y238659D01*
X44255Y238561D01*
X44228Y238463D01*
X44197Y238367D01*
X44163Y238272D01*
X44124Y238178D01*
X44083Y238086D01*
X44037Y237995D01*
X43988Y237906D01*
X43936Y237820D01*
X43880Y237735D01*
X43821Y237653D01*
X43759Y237573D01*
X43694Y237495D01*
X43626Y237420D01*
X43555Y237348D01*
X43482Y237278D01*
X43405Y237212D01*
X43327Y237148D01*
X43245Y237088D01*
X43162Y237031D01*
X43076Y236977D01*
X42988Y236926D01*
X42899Y236879D01*
X42807Y236835D01*
X42714Y236795D01*
X42620Y236758D01*
X42524Y236726D01*
X42427Y236697D01*
X42329Y236671D01*
X42230Y236650D01*
X42130Y236632D01*
X42030Y236619D01*
X41929Y236609D01*
X41828Y236603D01*
X41727Y236601D01*
X39116Y236601D01*
X39116Y245999D01*
X41727Y245999D01*
X41817Y245997D01*
X41906Y245991D01*
X41996Y245982D01*
X42085Y245968D01*
X42173Y245951D01*
X42260Y245930D01*
X42347Y245905D01*
X42432Y245876D01*
X42516Y245844D01*
X42598Y245809D01*
X42679Y245769D01*
X42758Y245727D01*
X42835Y245681D01*
X42910Y245631D01*
X42983Y245579D01*
X43054Y245523D01*
X43122Y245465D01*
X43187Y245403D01*
X43250Y245339D01*
X43310Y245272D01*
X43367Y245203D01*
X43421Y245131D01*
X43472Y245057D01*
X43520Y244981D01*
X43564Y244903D01*
X43605Y244823D01*
X43643Y244741D01*
X43677Y244658D01*
X43707Y244573D01*
X43734Y244487D01*
X43757Y244401D01*
X43776Y244313D01*
X43791Y244224D01*
X43803Y244135D01*
X43811Y244046D01*
X43815Y243956D01*
X43815Y243866D01*
X43811Y243776D01*
X43803Y243687D01*
X43791Y243598D01*
X43776Y243509D01*
X43757Y243421D01*
X43734Y243335D01*
X43707Y243249D01*
X43677Y243164D01*
X43643Y243081D01*
X43605Y242999D01*
X43564Y242919D01*
X43520Y242841D01*
X43472Y242765D01*
X43421Y242691D01*
X43367Y242619D01*
X43310Y242550D01*
X43250Y242483D01*
X43187Y242419D01*
X43122Y242357D01*
X43054Y242299D01*
X42983Y242243D01*
X42910Y242191D01*
X42835Y242141D01*
X42758Y242095D01*
X42679Y242053D01*
X42598Y242013D01*
X42516Y241978D01*
X42432Y241946D01*
X42347Y241917D01*
X42260Y241892D01*
X42173Y241871D01*
X42085Y241854D01*
X41996Y241840D01*
X41906Y241831D01*
X41817Y241825D01*
X41727Y241823D01*
X47824Y241822D02*
X50957Y241822D01*
X51046Y241820D01*
X51134Y241814D01*
X51222Y241805D01*
X51310Y241792D01*
X51397Y241775D01*
X51483Y241755D01*
X51568Y241730D01*
X51653Y241703D01*
X51736Y241671D01*
X51817Y241637D01*
X51897Y241598D01*
X51975Y241557D01*
X52052Y241512D01*
X52126Y241464D01*
X52199Y241413D01*
X52269Y241359D01*
X52336Y241301D01*
X52402Y241241D01*
X52464Y241179D01*
X52524Y241113D01*
X52582Y241046D01*
X52636Y240976D01*
X52687Y240903D01*
X52735Y240829D01*
X52780Y240752D01*
X52821Y240674D01*
X52860Y240594D01*
X52894Y240513D01*
X52926Y240430D01*
X52953Y240345D01*
X52978Y240260D01*
X52998Y240174D01*
X53015Y240087D01*
X53028Y239999D01*
X53037Y239911D01*
X53043Y239823D01*
X53045Y239734D01*
X53045Y239212D01*
X53043Y239111D01*
X53037Y239010D01*
X53027Y238909D01*
X53014Y238809D01*
X52996Y238709D01*
X52975Y238610D01*
X52949Y238512D01*
X52920Y238415D01*
X52888Y238319D01*
X52851Y238225D01*
X52811Y238132D01*
X52767Y238040D01*
X52720Y237951D01*
X52669Y237863D01*
X52615Y237777D01*
X52558Y237694D01*
X52498Y237612D01*
X52434Y237534D01*
X52368Y237457D01*
X52298Y237384D01*
X52226Y237313D01*
X52151Y237245D01*
X52073Y237180D01*
X51993Y237118D01*
X51911Y237059D01*
X51826Y237003D01*
X51739Y236951D01*
X51651Y236902D01*
X51560Y236856D01*
X51468Y236815D01*
X51374Y236776D01*
X51279Y236742D01*
X51183Y236711D01*
X51085Y236684D01*
X50987Y236660D01*
X50887Y236641D01*
X50787Y236625D01*
X50687Y236613D01*
X50586Y236605D01*
X50485Y236601D01*
X50383Y236601D01*
X50282Y236605D01*
X50181Y236613D01*
X50081Y236625D01*
X49981Y236641D01*
X49881Y236660D01*
X49783Y236684D01*
X49685Y236711D01*
X49589Y236742D01*
X49494Y236776D01*
X49400Y236815D01*
X49308Y236856D01*
X49217Y236902D01*
X49128Y236951D01*
X49042Y237003D01*
X48957Y237059D01*
X48875Y237118D01*
X48795Y237180D01*
X48717Y237245D01*
X48642Y237313D01*
X48570Y237384D01*
X48500Y237457D01*
X48434Y237534D01*
X48370Y237612D01*
X48310Y237694D01*
X48253Y237777D01*
X48199Y237863D01*
X48148Y237951D01*
X48101Y238040D01*
X48057Y238132D01*
X48017Y238225D01*
X47980Y238319D01*
X47948Y238415D01*
X47919Y238512D01*
X47893Y238610D01*
X47872Y238709D01*
X47854Y238809D01*
X47841Y238909D01*
X47831Y239010D01*
X47825Y239111D01*
X47823Y239212D01*
X47824Y239212D02*
X47824Y241822D01*
X47826Y241951D01*
X47832Y242079D01*
X47842Y242207D01*
X47856Y242335D01*
X47873Y242463D01*
X47895Y242590D01*
X47921Y242716D01*
X47950Y242841D01*
X47983Y242965D01*
X48021Y243088D01*
X48061Y243210D01*
X48106Y243331D01*
X48154Y243450D01*
X48206Y243568D01*
X48262Y243684D01*
X48321Y243798D01*
X48384Y243910D01*
X48450Y244021D01*
X48519Y244129D01*
X48592Y244235D01*
X48668Y244339D01*
X48747Y244441D01*
X48829Y244540D01*
X48914Y244636D01*
X49002Y244730D01*
X49093Y244821D01*
X49187Y244909D01*
X49283Y244994D01*
X49382Y245076D01*
X49484Y245155D01*
X49588Y245231D01*
X49694Y245304D01*
X49802Y245373D01*
X49912Y245439D01*
X50025Y245502D01*
X50139Y245561D01*
X50255Y245617D01*
X50373Y245669D01*
X50492Y245717D01*
X50613Y245762D01*
X50735Y245802D01*
X50858Y245840D01*
X50982Y245873D01*
X51107Y245902D01*
X51233Y245928D01*
X51360Y245950D01*
X51488Y245967D01*
X51616Y245981D01*
X51744Y245991D01*
X51872Y245997D01*
X52001Y245999D01*
X41727Y217692D02*
X39116Y217692D01*
X41727Y217693D02*
X41828Y217691D01*
X41929Y217685D01*
X42030Y217675D01*
X42130Y217662D01*
X42230Y217644D01*
X42329Y217623D01*
X42427Y217597D01*
X42524Y217568D01*
X42620Y217536D01*
X42714Y217499D01*
X42807Y217459D01*
X42899Y217415D01*
X42988Y217368D01*
X43076Y217317D01*
X43162Y217263D01*
X43245Y217206D01*
X43327Y217146D01*
X43405Y217082D01*
X43482Y217016D01*
X43555Y216946D01*
X43626Y216874D01*
X43694Y216799D01*
X43759Y216721D01*
X43821Y216641D01*
X43880Y216559D01*
X43936Y216474D01*
X43988Y216387D01*
X44037Y216299D01*
X44083Y216208D01*
X44124Y216116D01*
X44163Y216022D01*
X44197Y215927D01*
X44228Y215831D01*
X44255Y215733D01*
X44279Y215635D01*
X44298Y215535D01*
X44314Y215435D01*
X44326Y215335D01*
X44334Y215234D01*
X44338Y215133D01*
X44338Y215031D01*
X44334Y214930D01*
X44326Y214829D01*
X44314Y214729D01*
X44298Y214629D01*
X44279Y214529D01*
X44255Y214431D01*
X44228Y214333D01*
X44197Y214237D01*
X44163Y214142D01*
X44124Y214048D01*
X44083Y213956D01*
X44037Y213865D01*
X43988Y213776D01*
X43936Y213690D01*
X43880Y213605D01*
X43821Y213523D01*
X43759Y213443D01*
X43694Y213365D01*
X43626Y213290D01*
X43555Y213218D01*
X43482Y213148D01*
X43405Y213082D01*
X43327Y213018D01*
X43245Y212958D01*
X43162Y212901D01*
X43076Y212847D01*
X42988Y212796D01*
X42899Y212749D01*
X42807Y212705D01*
X42714Y212665D01*
X42620Y212628D01*
X42524Y212596D01*
X42427Y212567D01*
X42329Y212541D01*
X42230Y212520D01*
X42130Y212502D01*
X42030Y212489D01*
X41929Y212479D01*
X41828Y212473D01*
X41727Y212471D01*
X39116Y212471D01*
X39116Y221869D01*
X41727Y221869D01*
X41817Y221867D01*
X41906Y221861D01*
X41996Y221852D01*
X42085Y221838D01*
X42173Y221821D01*
X42260Y221800D01*
X42347Y221775D01*
X42432Y221746D01*
X42516Y221714D01*
X42598Y221679D01*
X42679Y221639D01*
X42758Y221597D01*
X42835Y221551D01*
X42910Y221501D01*
X42983Y221449D01*
X43054Y221393D01*
X43122Y221335D01*
X43187Y221273D01*
X43250Y221209D01*
X43310Y221142D01*
X43367Y221073D01*
X43421Y221001D01*
X43472Y220927D01*
X43520Y220851D01*
X43564Y220773D01*
X43605Y220693D01*
X43643Y220611D01*
X43677Y220528D01*
X43707Y220443D01*
X43734Y220357D01*
X43757Y220271D01*
X43776Y220183D01*
X43791Y220094D01*
X43803Y220005D01*
X43811Y219916D01*
X43815Y219826D01*
X43815Y219736D01*
X43811Y219646D01*
X43803Y219557D01*
X43791Y219468D01*
X43776Y219379D01*
X43757Y219291D01*
X43734Y219205D01*
X43707Y219119D01*
X43677Y219034D01*
X43643Y218951D01*
X43605Y218869D01*
X43564Y218789D01*
X43520Y218711D01*
X43472Y218635D01*
X43421Y218561D01*
X43367Y218489D01*
X43310Y218420D01*
X43250Y218353D01*
X43187Y218289D01*
X43122Y218227D01*
X43054Y218169D01*
X42983Y218113D01*
X42910Y218061D01*
X42835Y218011D01*
X42758Y217965D01*
X42679Y217923D01*
X42598Y217883D01*
X42516Y217848D01*
X42432Y217816D01*
X42347Y217787D01*
X42260Y217762D01*
X42173Y217741D01*
X42085Y217724D01*
X41996Y217710D01*
X41906Y217701D01*
X41817Y217695D01*
X41727Y217693D01*
X47824Y214559D02*
X49912Y221869D01*
X47824Y214559D02*
X53045Y214559D01*
X51479Y216648D02*
X51479Y212471D01*
X41727Y192292D02*
X39116Y192292D01*
X41727Y192293D02*
X41828Y192291D01*
X41929Y192285D01*
X42030Y192275D01*
X42130Y192262D01*
X42230Y192244D01*
X42329Y192223D01*
X42427Y192197D01*
X42524Y192168D01*
X42620Y192136D01*
X42714Y192099D01*
X42807Y192059D01*
X42899Y192015D01*
X42988Y191968D01*
X43076Y191917D01*
X43162Y191863D01*
X43245Y191806D01*
X43327Y191746D01*
X43405Y191682D01*
X43482Y191616D01*
X43555Y191546D01*
X43626Y191474D01*
X43694Y191399D01*
X43759Y191321D01*
X43821Y191241D01*
X43880Y191159D01*
X43936Y191074D01*
X43988Y190987D01*
X44037Y190899D01*
X44083Y190808D01*
X44124Y190716D01*
X44163Y190622D01*
X44197Y190527D01*
X44228Y190431D01*
X44255Y190333D01*
X44279Y190235D01*
X44298Y190135D01*
X44314Y190035D01*
X44326Y189935D01*
X44334Y189834D01*
X44338Y189733D01*
X44338Y189631D01*
X44334Y189530D01*
X44326Y189429D01*
X44314Y189329D01*
X44298Y189229D01*
X44279Y189129D01*
X44255Y189031D01*
X44228Y188933D01*
X44197Y188837D01*
X44163Y188742D01*
X44124Y188648D01*
X44083Y188556D01*
X44037Y188465D01*
X43988Y188376D01*
X43936Y188290D01*
X43880Y188205D01*
X43821Y188123D01*
X43759Y188043D01*
X43694Y187965D01*
X43626Y187890D01*
X43555Y187818D01*
X43482Y187748D01*
X43405Y187682D01*
X43327Y187618D01*
X43245Y187558D01*
X43162Y187501D01*
X43076Y187447D01*
X42988Y187396D01*
X42899Y187349D01*
X42807Y187305D01*
X42714Y187265D01*
X42620Y187228D01*
X42524Y187196D01*
X42427Y187167D01*
X42329Y187141D01*
X42230Y187120D01*
X42130Y187102D01*
X42030Y187089D01*
X41929Y187079D01*
X41828Y187073D01*
X41727Y187071D01*
X39116Y187071D01*
X39116Y196469D01*
X41727Y196469D01*
X41817Y196467D01*
X41906Y196461D01*
X41996Y196452D01*
X42085Y196438D01*
X42173Y196421D01*
X42260Y196400D01*
X42347Y196375D01*
X42432Y196346D01*
X42516Y196314D01*
X42598Y196279D01*
X42679Y196239D01*
X42758Y196197D01*
X42835Y196151D01*
X42910Y196101D01*
X42983Y196049D01*
X43054Y195993D01*
X43122Y195935D01*
X43187Y195873D01*
X43250Y195809D01*
X43310Y195742D01*
X43367Y195673D01*
X43421Y195601D01*
X43472Y195527D01*
X43520Y195451D01*
X43564Y195373D01*
X43605Y195293D01*
X43643Y195211D01*
X43677Y195128D01*
X43707Y195043D01*
X43734Y194957D01*
X43757Y194871D01*
X43776Y194783D01*
X43791Y194694D01*
X43803Y194605D01*
X43811Y194516D01*
X43815Y194426D01*
X43815Y194336D01*
X43811Y194246D01*
X43803Y194157D01*
X43791Y194068D01*
X43776Y193979D01*
X43757Y193891D01*
X43734Y193805D01*
X43707Y193719D01*
X43677Y193634D01*
X43643Y193551D01*
X43605Y193469D01*
X43564Y193389D01*
X43520Y193311D01*
X43472Y193235D01*
X43421Y193161D01*
X43367Y193089D01*
X43310Y193020D01*
X43250Y192953D01*
X43187Y192889D01*
X43122Y192827D01*
X43054Y192769D01*
X42983Y192713D01*
X42910Y192661D01*
X42835Y192611D01*
X42758Y192565D01*
X42679Y192523D01*
X42598Y192483D01*
X42516Y192448D01*
X42432Y192416D01*
X42347Y192387D01*
X42260Y192362D01*
X42173Y192341D01*
X42085Y192324D01*
X41996Y192310D01*
X41906Y192301D01*
X41817Y192295D01*
X41727Y192293D01*
X50696Y196470D02*
X50791Y196468D01*
X50885Y196462D01*
X50979Y196453D01*
X51073Y196440D01*
X51166Y196423D01*
X51258Y196402D01*
X51350Y196377D01*
X51440Y196349D01*
X51529Y196317D01*
X51617Y196282D01*
X51703Y196243D01*
X51788Y196201D01*
X51871Y196155D01*
X51952Y196106D01*
X52031Y196054D01*
X52108Y195999D01*
X52182Y195940D01*
X52254Y195879D01*
X52324Y195815D01*
X52391Y195748D01*
X52455Y195678D01*
X52516Y195606D01*
X52575Y195532D01*
X52630Y195455D01*
X52682Y195376D01*
X52731Y195295D01*
X52777Y195212D01*
X52819Y195127D01*
X52858Y195041D01*
X52893Y194953D01*
X52925Y194864D01*
X52953Y194774D01*
X52978Y194682D01*
X52999Y194590D01*
X53016Y194497D01*
X53029Y194403D01*
X53038Y194309D01*
X53044Y194215D01*
X53046Y194120D01*
X50696Y196469D02*
X50588Y196467D01*
X50479Y196461D01*
X50371Y196451D01*
X50264Y196438D01*
X50157Y196420D01*
X50050Y196399D01*
X49945Y196374D01*
X49840Y196345D01*
X49737Y196313D01*
X49635Y196276D01*
X49534Y196236D01*
X49435Y196193D01*
X49337Y196146D01*
X49241Y196095D01*
X49147Y196041D01*
X49055Y195984D01*
X48965Y195923D01*
X48877Y195859D01*
X48792Y195793D01*
X48709Y195723D01*
X48629Y195650D01*
X48551Y195574D01*
X48476Y195496D01*
X48404Y195415D01*
X48335Y195331D01*
X48269Y195245D01*
X48206Y195157D01*
X48147Y195066D01*
X48090Y194974D01*
X48037Y194879D01*
X47988Y194783D01*
X47942Y194684D01*
X47899Y194585D01*
X47860Y194483D01*
X47825Y194381D01*
X52262Y192292D02*
X52331Y192361D01*
X52397Y192432D01*
X52461Y192505D01*
X52522Y192581D01*
X52580Y192660D01*
X52634Y192740D01*
X52686Y192823D01*
X52734Y192907D01*
X52780Y192993D01*
X52821Y193081D01*
X52860Y193171D01*
X52895Y193262D01*
X52926Y193354D01*
X52954Y193447D01*
X52978Y193541D01*
X52998Y193636D01*
X53015Y193732D01*
X53028Y193829D01*
X53037Y193926D01*
X53043Y194023D01*
X53045Y194120D01*
X52262Y192292D02*
X47824Y187071D01*
X53045Y187071D01*
X41727Y174512D02*
X39116Y174512D01*
X41727Y174513D02*
X41828Y174511D01*
X41929Y174505D01*
X42030Y174495D01*
X42130Y174482D01*
X42230Y174464D01*
X42329Y174443D01*
X42427Y174417D01*
X42524Y174388D01*
X42620Y174356D01*
X42714Y174319D01*
X42807Y174279D01*
X42899Y174235D01*
X42988Y174188D01*
X43076Y174137D01*
X43162Y174083D01*
X43245Y174026D01*
X43327Y173966D01*
X43405Y173902D01*
X43482Y173836D01*
X43555Y173766D01*
X43626Y173694D01*
X43694Y173619D01*
X43759Y173541D01*
X43821Y173461D01*
X43880Y173379D01*
X43936Y173294D01*
X43988Y173207D01*
X44037Y173119D01*
X44083Y173028D01*
X44124Y172936D01*
X44163Y172842D01*
X44197Y172747D01*
X44228Y172651D01*
X44255Y172553D01*
X44279Y172455D01*
X44298Y172355D01*
X44314Y172255D01*
X44326Y172155D01*
X44334Y172054D01*
X44338Y171953D01*
X44338Y171851D01*
X44334Y171750D01*
X44326Y171649D01*
X44314Y171549D01*
X44298Y171449D01*
X44279Y171349D01*
X44255Y171251D01*
X44228Y171153D01*
X44197Y171057D01*
X44163Y170962D01*
X44124Y170868D01*
X44083Y170776D01*
X44037Y170685D01*
X43988Y170596D01*
X43936Y170510D01*
X43880Y170425D01*
X43821Y170343D01*
X43759Y170263D01*
X43694Y170185D01*
X43626Y170110D01*
X43555Y170038D01*
X43482Y169968D01*
X43405Y169902D01*
X43327Y169838D01*
X43245Y169778D01*
X43162Y169721D01*
X43076Y169667D01*
X42988Y169616D01*
X42899Y169569D01*
X42807Y169525D01*
X42714Y169485D01*
X42620Y169448D01*
X42524Y169416D01*
X42427Y169387D01*
X42329Y169361D01*
X42230Y169340D01*
X42130Y169322D01*
X42030Y169309D01*
X41929Y169299D01*
X41828Y169293D01*
X41727Y169291D01*
X39116Y169291D01*
X39116Y178689D01*
X41727Y178689D01*
X41817Y178687D01*
X41906Y178681D01*
X41996Y178672D01*
X42085Y178658D01*
X42173Y178641D01*
X42260Y178620D01*
X42347Y178595D01*
X42432Y178566D01*
X42516Y178534D01*
X42598Y178499D01*
X42679Y178459D01*
X42758Y178417D01*
X42835Y178371D01*
X42910Y178321D01*
X42983Y178269D01*
X43054Y178213D01*
X43122Y178155D01*
X43187Y178093D01*
X43250Y178029D01*
X43310Y177962D01*
X43367Y177893D01*
X43421Y177821D01*
X43472Y177747D01*
X43520Y177671D01*
X43564Y177593D01*
X43605Y177513D01*
X43643Y177431D01*
X43677Y177348D01*
X43707Y177263D01*
X43734Y177177D01*
X43757Y177091D01*
X43776Y177003D01*
X43791Y176914D01*
X43803Y176825D01*
X43811Y176736D01*
X43815Y176646D01*
X43815Y176556D01*
X43811Y176466D01*
X43803Y176377D01*
X43791Y176288D01*
X43776Y176199D01*
X43757Y176111D01*
X43734Y176025D01*
X43707Y175939D01*
X43677Y175854D01*
X43643Y175771D01*
X43605Y175689D01*
X43564Y175609D01*
X43520Y175531D01*
X43472Y175455D01*
X43421Y175381D01*
X43367Y175309D01*
X43310Y175240D01*
X43250Y175173D01*
X43187Y175109D01*
X43122Y175047D01*
X43054Y174989D01*
X42983Y174933D01*
X42910Y174881D01*
X42835Y174831D01*
X42758Y174785D01*
X42679Y174743D01*
X42598Y174703D01*
X42516Y174668D01*
X42432Y174636D01*
X42347Y174607D01*
X42260Y174582D01*
X42173Y174561D01*
X42085Y174544D01*
X41996Y174530D01*
X41906Y174521D01*
X41817Y174515D01*
X41727Y174513D01*
X47911Y172946D02*
X54177Y172946D01*
X41727Y155462D02*
X39116Y155462D01*
X41727Y155463D02*
X41828Y155461D01*
X41929Y155455D01*
X42030Y155445D01*
X42130Y155432D01*
X42230Y155414D01*
X42329Y155393D01*
X42427Y155367D01*
X42524Y155338D01*
X42620Y155306D01*
X42714Y155269D01*
X42807Y155229D01*
X42899Y155185D01*
X42988Y155138D01*
X43076Y155087D01*
X43162Y155033D01*
X43245Y154976D01*
X43327Y154916D01*
X43405Y154852D01*
X43482Y154786D01*
X43555Y154716D01*
X43626Y154644D01*
X43694Y154569D01*
X43759Y154491D01*
X43821Y154411D01*
X43880Y154329D01*
X43936Y154244D01*
X43988Y154157D01*
X44037Y154069D01*
X44083Y153978D01*
X44124Y153886D01*
X44163Y153792D01*
X44197Y153697D01*
X44228Y153601D01*
X44255Y153503D01*
X44279Y153405D01*
X44298Y153305D01*
X44314Y153205D01*
X44326Y153105D01*
X44334Y153004D01*
X44338Y152903D01*
X44338Y152801D01*
X44334Y152700D01*
X44326Y152599D01*
X44314Y152499D01*
X44298Y152399D01*
X44279Y152299D01*
X44255Y152201D01*
X44228Y152103D01*
X44197Y152007D01*
X44163Y151912D01*
X44124Y151818D01*
X44083Y151726D01*
X44037Y151635D01*
X43988Y151546D01*
X43936Y151460D01*
X43880Y151375D01*
X43821Y151293D01*
X43759Y151213D01*
X43694Y151135D01*
X43626Y151060D01*
X43555Y150988D01*
X43482Y150918D01*
X43405Y150852D01*
X43327Y150788D01*
X43245Y150728D01*
X43162Y150671D01*
X43076Y150617D01*
X42988Y150566D01*
X42899Y150519D01*
X42807Y150475D01*
X42714Y150435D01*
X42620Y150398D01*
X42524Y150366D01*
X42427Y150337D01*
X42329Y150311D01*
X42230Y150290D01*
X42130Y150272D01*
X42030Y150259D01*
X41929Y150249D01*
X41828Y150243D01*
X41727Y150241D01*
X39116Y150241D01*
X39116Y159639D01*
X41727Y159639D01*
X41817Y159637D01*
X41906Y159631D01*
X41996Y159622D01*
X42085Y159608D01*
X42173Y159591D01*
X42260Y159570D01*
X42347Y159545D01*
X42432Y159516D01*
X42516Y159484D01*
X42598Y159449D01*
X42679Y159409D01*
X42758Y159367D01*
X42835Y159321D01*
X42910Y159271D01*
X42983Y159219D01*
X43054Y159163D01*
X43122Y159105D01*
X43187Y159043D01*
X43250Y158979D01*
X43310Y158912D01*
X43367Y158843D01*
X43421Y158771D01*
X43472Y158697D01*
X43520Y158621D01*
X43564Y158543D01*
X43605Y158463D01*
X43643Y158381D01*
X43677Y158298D01*
X43707Y158213D01*
X43734Y158127D01*
X43757Y158041D01*
X43776Y157953D01*
X43791Y157864D01*
X43803Y157775D01*
X43811Y157686D01*
X43815Y157596D01*
X43815Y157506D01*
X43811Y157416D01*
X43803Y157327D01*
X43791Y157238D01*
X43776Y157149D01*
X43757Y157061D01*
X43734Y156975D01*
X43707Y156889D01*
X43677Y156804D01*
X43643Y156721D01*
X43605Y156639D01*
X43564Y156559D01*
X43520Y156481D01*
X43472Y156405D01*
X43421Y156331D01*
X43367Y156259D01*
X43310Y156190D01*
X43250Y156123D01*
X43187Y156059D01*
X43122Y155997D01*
X43054Y155939D01*
X42983Y155883D01*
X42910Y155831D01*
X42835Y155781D01*
X42758Y155735D01*
X42679Y155693D01*
X42598Y155653D01*
X42516Y155618D01*
X42432Y155586D01*
X42347Y155557D01*
X42260Y155532D01*
X42173Y155511D01*
X42085Y155494D01*
X41996Y155480D01*
X41906Y155471D01*
X41817Y155465D01*
X41727Y155463D01*
X47824Y157551D02*
X50434Y159639D01*
X50434Y150241D01*
X47824Y150241D02*
X53045Y150241D01*
X41727Y130062D02*
X39116Y130062D01*
X41727Y130063D02*
X41828Y130061D01*
X41929Y130055D01*
X42030Y130045D01*
X42130Y130032D01*
X42230Y130014D01*
X42329Y129993D01*
X42427Y129967D01*
X42524Y129938D01*
X42620Y129906D01*
X42714Y129869D01*
X42807Y129829D01*
X42899Y129785D01*
X42988Y129738D01*
X43076Y129687D01*
X43162Y129633D01*
X43245Y129576D01*
X43327Y129516D01*
X43405Y129452D01*
X43482Y129386D01*
X43555Y129316D01*
X43626Y129244D01*
X43694Y129169D01*
X43759Y129091D01*
X43821Y129011D01*
X43880Y128929D01*
X43936Y128844D01*
X43988Y128757D01*
X44037Y128669D01*
X44083Y128578D01*
X44124Y128486D01*
X44163Y128392D01*
X44197Y128297D01*
X44228Y128201D01*
X44255Y128103D01*
X44279Y128005D01*
X44298Y127905D01*
X44314Y127805D01*
X44326Y127705D01*
X44334Y127604D01*
X44338Y127503D01*
X44338Y127401D01*
X44334Y127300D01*
X44326Y127199D01*
X44314Y127099D01*
X44298Y126999D01*
X44279Y126899D01*
X44255Y126801D01*
X44228Y126703D01*
X44197Y126607D01*
X44163Y126512D01*
X44124Y126418D01*
X44083Y126326D01*
X44037Y126235D01*
X43988Y126146D01*
X43936Y126060D01*
X43880Y125975D01*
X43821Y125893D01*
X43759Y125813D01*
X43694Y125735D01*
X43626Y125660D01*
X43555Y125588D01*
X43482Y125518D01*
X43405Y125452D01*
X43327Y125388D01*
X43245Y125328D01*
X43162Y125271D01*
X43076Y125217D01*
X42988Y125166D01*
X42899Y125119D01*
X42807Y125075D01*
X42714Y125035D01*
X42620Y124998D01*
X42524Y124966D01*
X42427Y124937D01*
X42329Y124911D01*
X42230Y124890D01*
X42130Y124872D01*
X42030Y124859D01*
X41929Y124849D01*
X41828Y124843D01*
X41727Y124841D01*
X39116Y124841D01*
X39116Y134239D01*
X41727Y134239D01*
X41817Y134237D01*
X41906Y134231D01*
X41996Y134222D01*
X42085Y134208D01*
X42173Y134191D01*
X42260Y134170D01*
X42347Y134145D01*
X42432Y134116D01*
X42516Y134084D01*
X42598Y134049D01*
X42679Y134009D01*
X42758Y133967D01*
X42835Y133921D01*
X42910Y133871D01*
X42983Y133819D01*
X43054Y133763D01*
X43122Y133705D01*
X43187Y133643D01*
X43250Y133579D01*
X43310Y133512D01*
X43367Y133443D01*
X43421Y133371D01*
X43472Y133297D01*
X43520Y133221D01*
X43564Y133143D01*
X43605Y133063D01*
X43643Y132981D01*
X43677Y132898D01*
X43707Y132813D01*
X43734Y132727D01*
X43757Y132641D01*
X43776Y132553D01*
X43791Y132464D01*
X43803Y132375D01*
X43811Y132286D01*
X43815Y132196D01*
X43815Y132106D01*
X43811Y132016D01*
X43803Y131927D01*
X43791Y131838D01*
X43776Y131749D01*
X43757Y131661D01*
X43734Y131575D01*
X43707Y131489D01*
X43677Y131404D01*
X43643Y131321D01*
X43605Y131239D01*
X43564Y131159D01*
X43520Y131081D01*
X43472Y131005D01*
X43421Y130931D01*
X43367Y130859D01*
X43310Y130790D01*
X43250Y130723D01*
X43187Y130659D01*
X43122Y130597D01*
X43054Y130539D01*
X42983Y130483D01*
X42910Y130431D01*
X42835Y130381D01*
X42758Y130335D01*
X42679Y130293D01*
X42598Y130253D01*
X42516Y130218D01*
X42432Y130186D01*
X42347Y130157D01*
X42260Y130132D01*
X42173Y130111D01*
X42085Y130094D01*
X41996Y130080D01*
X41906Y130071D01*
X41817Y130065D01*
X41727Y130063D01*
X47824Y124841D02*
X50434Y124841D01*
X50535Y124843D01*
X50636Y124849D01*
X50737Y124859D01*
X50837Y124872D01*
X50937Y124890D01*
X51036Y124911D01*
X51134Y124937D01*
X51231Y124966D01*
X51327Y124998D01*
X51421Y125035D01*
X51514Y125075D01*
X51606Y125119D01*
X51695Y125166D01*
X51783Y125217D01*
X51869Y125271D01*
X51952Y125328D01*
X52034Y125388D01*
X52112Y125452D01*
X52189Y125518D01*
X52262Y125588D01*
X52333Y125660D01*
X52401Y125735D01*
X52466Y125813D01*
X52528Y125893D01*
X52587Y125975D01*
X52643Y126060D01*
X52695Y126146D01*
X52744Y126235D01*
X52790Y126326D01*
X52831Y126418D01*
X52870Y126512D01*
X52904Y126607D01*
X52935Y126703D01*
X52962Y126801D01*
X52986Y126899D01*
X53005Y126999D01*
X53021Y127099D01*
X53033Y127199D01*
X53041Y127300D01*
X53045Y127401D01*
X53045Y127503D01*
X53041Y127604D01*
X53033Y127705D01*
X53021Y127805D01*
X53005Y127905D01*
X52986Y128005D01*
X52962Y128103D01*
X52935Y128201D01*
X52904Y128297D01*
X52870Y128392D01*
X52831Y128486D01*
X52790Y128578D01*
X52744Y128669D01*
X52695Y128757D01*
X52643Y128844D01*
X52587Y128929D01*
X52528Y129011D01*
X52466Y129091D01*
X52401Y129169D01*
X52333Y129244D01*
X52262Y129316D01*
X52189Y129386D01*
X52112Y129452D01*
X52034Y129516D01*
X51952Y129576D01*
X51869Y129633D01*
X51783Y129687D01*
X51695Y129738D01*
X51606Y129785D01*
X51514Y129829D01*
X51421Y129869D01*
X51327Y129906D01*
X51231Y129938D01*
X51134Y129967D01*
X51036Y129993D01*
X50937Y130014D01*
X50837Y130032D01*
X50737Y130045D01*
X50636Y130055D01*
X50535Y130061D01*
X50434Y130063D01*
X50957Y134239D02*
X47824Y134239D01*
X50957Y134239D02*
X51047Y134237D01*
X51136Y134231D01*
X51226Y134222D01*
X51315Y134208D01*
X51403Y134191D01*
X51490Y134170D01*
X51577Y134145D01*
X51662Y134116D01*
X51746Y134084D01*
X51828Y134049D01*
X51909Y134009D01*
X51988Y133967D01*
X52065Y133921D01*
X52140Y133871D01*
X52213Y133819D01*
X52284Y133763D01*
X52352Y133705D01*
X52417Y133643D01*
X52480Y133579D01*
X52540Y133512D01*
X52597Y133443D01*
X52651Y133371D01*
X52702Y133297D01*
X52750Y133221D01*
X52794Y133143D01*
X52835Y133063D01*
X52873Y132981D01*
X52907Y132898D01*
X52937Y132813D01*
X52964Y132727D01*
X52987Y132641D01*
X53006Y132553D01*
X53021Y132464D01*
X53033Y132375D01*
X53041Y132286D01*
X53045Y132196D01*
X53045Y132106D01*
X53041Y132016D01*
X53033Y131927D01*
X53021Y131838D01*
X53006Y131749D01*
X52987Y131661D01*
X52964Y131575D01*
X52937Y131489D01*
X52907Y131404D01*
X52873Y131321D01*
X52835Y131239D01*
X52794Y131159D01*
X52750Y131081D01*
X52702Y131005D01*
X52651Y130931D01*
X52597Y130859D01*
X52540Y130790D01*
X52480Y130723D01*
X52417Y130659D01*
X52352Y130597D01*
X52284Y130539D01*
X52213Y130483D01*
X52140Y130431D01*
X52065Y130381D01*
X51988Y130335D01*
X51909Y130293D01*
X51828Y130253D01*
X51746Y130218D01*
X51662Y130186D01*
X51577Y130157D01*
X51490Y130132D01*
X51403Y130111D01*
X51315Y130094D01*
X51226Y130080D01*
X51136Y130071D01*
X51047Y130065D01*
X50957Y130063D01*
X50957Y130062D02*
X48868Y130062D01*
X41727Y104662D02*
X39116Y104662D01*
X41727Y104663D02*
X41828Y104661D01*
X41929Y104655D01*
X42030Y104645D01*
X42130Y104632D01*
X42230Y104614D01*
X42329Y104593D01*
X42427Y104567D01*
X42524Y104538D01*
X42620Y104506D01*
X42714Y104469D01*
X42807Y104429D01*
X42899Y104385D01*
X42988Y104338D01*
X43076Y104287D01*
X43162Y104233D01*
X43245Y104176D01*
X43327Y104116D01*
X43405Y104052D01*
X43482Y103986D01*
X43555Y103916D01*
X43626Y103844D01*
X43694Y103769D01*
X43759Y103691D01*
X43821Y103611D01*
X43880Y103529D01*
X43936Y103444D01*
X43988Y103357D01*
X44037Y103269D01*
X44083Y103178D01*
X44124Y103086D01*
X44163Y102992D01*
X44197Y102897D01*
X44228Y102801D01*
X44255Y102703D01*
X44279Y102605D01*
X44298Y102505D01*
X44314Y102405D01*
X44326Y102305D01*
X44334Y102204D01*
X44338Y102103D01*
X44338Y102001D01*
X44334Y101900D01*
X44326Y101799D01*
X44314Y101699D01*
X44298Y101599D01*
X44279Y101499D01*
X44255Y101401D01*
X44228Y101303D01*
X44197Y101207D01*
X44163Y101112D01*
X44124Y101018D01*
X44083Y100926D01*
X44037Y100835D01*
X43988Y100746D01*
X43936Y100660D01*
X43880Y100575D01*
X43821Y100493D01*
X43759Y100413D01*
X43694Y100335D01*
X43626Y100260D01*
X43555Y100188D01*
X43482Y100118D01*
X43405Y100052D01*
X43327Y99988D01*
X43245Y99928D01*
X43162Y99871D01*
X43076Y99817D01*
X42988Y99766D01*
X42899Y99719D01*
X42807Y99675D01*
X42714Y99635D01*
X42620Y99598D01*
X42524Y99566D01*
X42427Y99537D01*
X42329Y99511D01*
X42230Y99490D01*
X42130Y99472D01*
X42030Y99459D01*
X41929Y99449D01*
X41828Y99443D01*
X41727Y99441D01*
X39116Y99441D01*
X39116Y108839D01*
X41727Y108839D01*
X41817Y108837D01*
X41906Y108831D01*
X41996Y108822D01*
X42085Y108808D01*
X42173Y108791D01*
X42260Y108770D01*
X42347Y108745D01*
X42432Y108716D01*
X42516Y108684D01*
X42598Y108649D01*
X42679Y108609D01*
X42758Y108567D01*
X42835Y108521D01*
X42910Y108471D01*
X42983Y108419D01*
X43054Y108363D01*
X43122Y108305D01*
X43187Y108243D01*
X43250Y108179D01*
X43310Y108112D01*
X43367Y108043D01*
X43421Y107971D01*
X43472Y107897D01*
X43520Y107821D01*
X43564Y107743D01*
X43605Y107663D01*
X43643Y107581D01*
X43677Y107498D01*
X43707Y107413D01*
X43734Y107327D01*
X43757Y107241D01*
X43776Y107153D01*
X43791Y107064D01*
X43803Y106975D01*
X43811Y106886D01*
X43815Y106796D01*
X43815Y106706D01*
X43811Y106616D01*
X43803Y106527D01*
X43791Y106438D01*
X43776Y106349D01*
X43757Y106261D01*
X43734Y106175D01*
X43707Y106089D01*
X43677Y106004D01*
X43643Y105921D01*
X43605Y105839D01*
X43564Y105759D01*
X43520Y105681D01*
X43472Y105605D01*
X43421Y105531D01*
X43367Y105459D01*
X43310Y105390D01*
X43250Y105323D01*
X43187Y105259D01*
X43122Y105197D01*
X43054Y105139D01*
X42983Y105083D01*
X42910Y105031D01*
X42835Y104981D01*
X42758Y104935D01*
X42679Y104893D01*
X42598Y104853D01*
X42516Y104818D01*
X42432Y104786D01*
X42347Y104757D01*
X42260Y104732D01*
X42173Y104711D01*
X42085Y104694D01*
X41996Y104680D01*
X41906Y104671D01*
X41817Y104665D01*
X41727Y104663D01*
X47824Y99441D02*
X50957Y99441D01*
X51046Y99443D01*
X51134Y99449D01*
X51222Y99458D01*
X51310Y99471D01*
X51397Y99488D01*
X51483Y99508D01*
X51568Y99533D01*
X51653Y99560D01*
X51736Y99592D01*
X51817Y99626D01*
X51897Y99665D01*
X51975Y99706D01*
X52052Y99751D01*
X52126Y99799D01*
X52199Y99850D01*
X52269Y99904D01*
X52336Y99962D01*
X52402Y100022D01*
X52464Y100084D01*
X52524Y100150D01*
X52582Y100217D01*
X52636Y100287D01*
X52687Y100360D01*
X52735Y100434D01*
X52780Y100511D01*
X52821Y100589D01*
X52860Y100669D01*
X52894Y100750D01*
X52926Y100833D01*
X52953Y100918D01*
X52978Y101003D01*
X52998Y101089D01*
X53015Y101176D01*
X53028Y101264D01*
X53037Y101352D01*
X53043Y101440D01*
X53045Y101529D01*
X53045Y102574D01*
X53043Y102663D01*
X53037Y102751D01*
X53028Y102839D01*
X53015Y102927D01*
X52998Y103014D01*
X52978Y103100D01*
X52953Y103185D01*
X52926Y103270D01*
X52894Y103353D01*
X52860Y103434D01*
X52821Y103514D01*
X52780Y103592D01*
X52735Y103669D01*
X52687Y103743D01*
X52636Y103816D01*
X52582Y103886D01*
X52524Y103953D01*
X52464Y104019D01*
X52402Y104081D01*
X52336Y104141D01*
X52269Y104199D01*
X52199Y104253D01*
X52126Y104304D01*
X52052Y104352D01*
X51975Y104397D01*
X51897Y104438D01*
X51817Y104477D01*
X51736Y104511D01*
X51653Y104543D01*
X51568Y104570D01*
X51483Y104595D01*
X51397Y104615D01*
X51310Y104632D01*
X51222Y104645D01*
X51134Y104654D01*
X51046Y104660D01*
X50957Y104662D01*
X47824Y104662D01*
X47824Y108839D01*
X53045Y108839D01*
X41727Y79262D02*
X39116Y79262D01*
X41727Y79263D02*
X41828Y79261D01*
X41929Y79255D01*
X42030Y79245D01*
X42130Y79232D01*
X42230Y79214D01*
X42329Y79193D01*
X42427Y79167D01*
X42524Y79138D01*
X42620Y79106D01*
X42714Y79069D01*
X42807Y79029D01*
X42899Y78985D01*
X42988Y78938D01*
X43076Y78887D01*
X43162Y78833D01*
X43245Y78776D01*
X43327Y78716D01*
X43405Y78652D01*
X43482Y78586D01*
X43555Y78516D01*
X43626Y78444D01*
X43694Y78369D01*
X43759Y78291D01*
X43821Y78211D01*
X43880Y78129D01*
X43936Y78044D01*
X43988Y77957D01*
X44037Y77869D01*
X44083Y77778D01*
X44124Y77686D01*
X44163Y77592D01*
X44197Y77497D01*
X44228Y77401D01*
X44255Y77303D01*
X44279Y77205D01*
X44298Y77105D01*
X44314Y77005D01*
X44326Y76905D01*
X44334Y76804D01*
X44338Y76703D01*
X44338Y76601D01*
X44334Y76500D01*
X44326Y76399D01*
X44314Y76299D01*
X44298Y76199D01*
X44279Y76099D01*
X44255Y76001D01*
X44228Y75903D01*
X44197Y75807D01*
X44163Y75712D01*
X44124Y75618D01*
X44083Y75526D01*
X44037Y75435D01*
X43988Y75346D01*
X43936Y75260D01*
X43880Y75175D01*
X43821Y75093D01*
X43759Y75013D01*
X43694Y74935D01*
X43626Y74860D01*
X43555Y74788D01*
X43482Y74718D01*
X43405Y74652D01*
X43327Y74588D01*
X43245Y74528D01*
X43162Y74471D01*
X43076Y74417D01*
X42988Y74366D01*
X42899Y74319D01*
X42807Y74275D01*
X42714Y74235D01*
X42620Y74198D01*
X42524Y74166D01*
X42427Y74137D01*
X42329Y74111D01*
X42230Y74090D01*
X42130Y74072D01*
X42030Y74059D01*
X41929Y74049D01*
X41828Y74043D01*
X41727Y74041D01*
X39116Y74041D01*
X39116Y83439D01*
X41727Y83439D01*
X41817Y83437D01*
X41906Y83431D01*
X41996Y83422D01*
X42085Y83408D01*
X42173Y83391D01*
X42260Y83370D01*
X42347Y83345D01*
X42432Y83316D01*
X42516Y83284D01*
X42598Y83249D01*
X42679Y83209D01*
X42758Y83167D01*
X42835Y83121D01*
X42910Y83071D01*
X42983Y83019D01*
X43054Y82963D01*
X43122Y82905D01*
X43187Y82843D01*
X43250Y82779D01*
X43310Y82712D01*
X43367Y82643D01*
X43421Y82571D01*
X43472Y82497D01*
X43520Y82421D01*
X43564Y82343D01*
X43605Y82263D01*
X43643Y82181D01*
X43677Y82098D01*
X43707Y82013D01*
X43734Y81927D01*
X43757Y81841D01*
X43776Y81753D01*
X43791Y81664D01*
X43803Y81575D01*
X43811Y81486D01*
X43815Y81396D01*
X43815Y81306D01*
X43811Y81216D01*
X43803Y81127D01*
X43791Y81038D01*
X43776Y80949D01*
X43757Y80861D01*
X43734Y80775D01*
X43707Y80689D01*
X43677Y80604D01*
X43643Y80521D01*
X43605Y80439D01*
X43564Y80359D01*
X43520Y80281D01*
X43472Y80205D01*
X43421Y80131D01*
X43367Y80059D01*
X43310Y79990D01*
X43250Y79923D01*
X43187Y79859D01*
X43122Y79797D01*
X43054Y79739D01*
X42983Y79683D01*
X42910Y79631D01*
X42835Y79581D01*
X42758Y79535D01*
X42679Y79493D01*
X42598Y79453D01*
X42516Y79418D01*
X42432Y79386D01*
X42347Y79357D01*
X42260Y79332D01*
X42173Y79311D01*
X42085Y79294D01*
X41996Y79280D01*
X41906Y79271D01*
X41817Y79265D01*
X41727Y79263D01*
X47824Y82395D02*
X47824Y83439D01*
X53045Y83439D01*
X50434Y74041D01*
X41727Y53862D02*
X39116Y53862D01*
X41727Y53863D02*
X41828Y53861D01*
X41929Y53855D01*
X42030Y53845D01*
X42130Y53832D01*
X42230Y53814D01*
X42329Y53793D01*
X42427Y53767D01*
X42524Y53738D01*
X42620Y53706D01*
X42714Y53669D01*
X42807Y53629D01*
X42899Y53585D01*
X42988Y53538D01*
X43076Y53487D01*
X43162Y53433D01*
X43245Y53376D01*
X43327Y53316D01*
X43405Y53252D01*
X43482Y53186D01*
X43555Y53116D01*
X43626Y53044D01*
X43694Y52969D01*
X43759Y52891D01*
X43821Y52811D01*
X43880Y52729D01*
X43936Y52644D01*
X43988Y52557D01*
X44037Y52469D01*
X44083Y52378D01*
X44124Y52286D01*
X44163Y52192D01*
X44197Y52097D01*
X44228Y52001D01*
X44255Y51903D01*
X44279Y51805D01*
X44298Y51705D01*
X44314Y51605D01*
X44326Y51505D01*
X44334Y51404D01*
X44338Y51303D01*
X44338Y51201D01*
X44334Y51100D01*
X44326Y50999D01*
X44314Y50899D01*
X44298Y50799D01*
X44279Y50699D01*
X44255Y50601D01*
X44228Y50503D01*
X44197Y50407D01*
X44163Y50312D01*
X44124Y50218D01*
X44083Y50126D01*
X44037Y50035D01*
X43988Y49946D01*
X43936Y49860D01*
X43880Y49775D01*
X43821Y49693D01*
X43759Y49613D01*
X43694Y49535D01*
X43626Y49460D01*
X43555Y49388D01*
X43482Y49318D01*
X43405Y49252D01*
X43327Y49188D01*
X43245Y49128D01*
X43162Y49071D01*
X43076Y49017D01*
X42988Y48966D01*
X42899Y48919D01*
X42807Y48875D01*
X42714Y48835D01*
X42620Y48798D01*
X42524Y48766D01*
X42427Y48737D01*
X42329Y48711D01*
X42230Y48690D01*
X42130Y48672D01*
X42030Y48659D01*
X41929Y48649D01*
X41828Y48643D01*
X41727Y48641D01*
X39116Y48641D01*
X39116Y58039D01*
X41727Y58039D01*
X41817Y58037D01*
X41906Y58031D01*
X41996Y58022D01*
X42085Y58008D01*
X42173Y57991D01*
X42260Y57970D01*
X42347Y57945D01*
X42432Y57916D01*
X42516Y57884D01*
X42598Y57849D01*
X42679Y57809D01*
X42758Y57767D01*
X42835Y57721D01*
X42910Y57671D01*
X42983Y57619D01*
X43054Y57563D01*
X43122Y57505D01*
X43187Y57443D01*
X43250Y57379D01*
X43310Y57312D01*
X43367Y57243D01*
X43421Y57171D01*
X43472Y57097D01*
X43520Y57021D01*
X43564Y56943D01*
X43605Y56863D01*
X43643Y56781D01*
X43677Y56698D01*
X43707Y56613D01*
X43734Y56527D01*
X43757Y56441D01*
X43776Y56353D01*
X43791Y56264D01*
X43803Y56175D01*
X43811Y56086D01*
X43815Y55996D01*
X43815Y55906D01*
X43811Y55816D01*
X43803Y55727D01*
X43791Y55638D01*
X43776Y55549D01*
X43757Y55461D01*
X43734Y55375D01*
X43707Y55289D01*
X43677Y55204D01*
X43643Y55121D01*
X43605Y55039D01*
X43564Y54959D01*
X43520Y54881D01*
X43472Y54805D01*
X43421Y54731D01*
X43367Y54659D01*
X43310Y54590D01*
X43250Y54523D01*
X43187Y54459D01*
X43122Y54397D01*
X43054Y54339D01*
X42983Y54283D01*
X42910Y54231D01*
X42835Y54181D01*
X42758Y54135D01*
X42679Y54093D01*
X42598Y54053D01*
X42516Y54018D01*
X42432Y53986D01*
X42347Y53957D01*
X42260Y53932D01*
X42173Y53911D01*
X42085Y53894D01*
X41996Y53880D01*
X41906Y53871D01*
X41817Y53865D01*
X41727Y53863D01*
X49912Y52818D02*
X53045Y52818D01*
X49912Y52818D02*
X49823Y52820D01*
X49735Y52826D01*
X49647Y52835D01*
X49559Y52848D01*
X49472Y52865D01*
X49386Y52885D01*
X49301Y52910D01*
X49216Y52937D01*
X49133Y52969D01*
X49052Y53003D01*
X48972Y53042D01*
X48894Y53083D01*
X48817Y53128D01*
X48743Y53176D01*
X48670Y53227D01*
X48600Y53281D01*
X48533Y53339D01*
X48467Y53399D01*
X48405Y53461D01*
X48345Y53527D01*
X48287Y53594D01*
X48233Y53664D01*
X48182Y53737D01*
X48134Y53811D01*
X48089Y53888D01*
X48048Y53966D01*
X48009Y54046D01*
X47975Y54127D01*
X47943Y54210D01*
X47916Y54295D01*
X47891Y54380D01*
X47871Y54466D01*
X47854Y54553D01*
X47841Y54641D01*
X47832Y54729D01*
X47826Y54817D01*
X47824Y54906D01*
X47824Y55428D01*
X47823Y55428D02*
X47825Y55529D01*
X47831Y55630D01*
X47841Y55731D01*
X47854Y55831D01*
X47872Y55931D01*
X47893Y56030D01*
X47919Y56128D01*
X47948Y56225D01*
X47980Y56321D01*
X48017Y56415D01*
X48057Y56508D01*
X48101Y56600D01*
X48148Y56689D01*
X48199Y56777D01*
X48253Y56863D01*
X48310Y56946D01*
X48370Y57028D01*
X48434Y57106D01*
X48500Y57183D01*
X48570Y57256D01*
X48642Y57327D01*
X48717Y57395D01*
X48795Y57460D01*
X48875Y57522D01*
X48957Y57581D01*
X49042Y57637D01*
X49129Y57689D01*
X49217Y57738D01*
X49308Y57784D01*
X49400Y57825D01*
X49494Y57864D01*
X49589Y57898D01*
X49685Y57929D01*
X49783Y57956D01*
X49881Y57980D01*
X49981Y57999D01*
X50081Y58015D01*
X50181Y58027D01*
X50282Y58035D01*
X50383Y58039D01*
X50485Y58039D01*
X50586Y58035D01*
X50687Y58027D01*
X50787Y58015D01*
X50887Y57999D01*
X50987Y57980D01*
X51085Y57956D01*
X51183Y57929D01*
X51279Y57898D01*
X51374Y57864D01*
X51468Y57825D01*
X51560Y57784D01*
X51651Y57738D01*
X51740Y57689D01*
X51826Y57637D01*
X51911Y57581D01*
X51993Y57522D01*
X52073Y57460D01*
X52151Y57395D01*
X52226Y57327D01*
X52298Y57256D01*
X52368Y57183D01*
X52434Y57106D01*
X52498Y57028D01*
X52558Y56946D01*
X52615Y56863D01*
X52669Y56777D01*
X52720Y56689D01*
X52767Y56600D01*
X52811Y56508D01*
X52851Y56415D01*
X52888Y56321D01*
X52920Y56225D01*
X52949Y56128D01*
X52975Y56030D01*
X52996Y55931D01*
X53014Y55831D01*
X53027Y55731D01*
X53037Y55630D01*
X53043Y55529D01*
X53045Y55428D01*
X53045Y52818D01*
X53043Y52692D01*
X53037Y52566D01*
X53028Y52440D01*
X53015Y52315D01*
X52997Y52190D01*
X52977Y52065D01*
X52952Y51941D01*
X52924Y51818D01*
X52892Y51696D01*
X52856Y51575D01*
X52817Y51455D01*
X52774Y51337D01*
X52727Y51220D01*
X52677Y51104D01*
X52623Y50989D01*
X52567Y50877D01*
X52506Y50766D01*
X52443Y50657D01*
X52376Y50550D01*
X52306Y50445D01*
X52232Y50342D01*
X52156Y50242D01*
X52077Y50144D01*
X51995Y50048D01*
X51909Y49955D01*
X51822Y49864D01*
X51731Y49777D01*
X51638Y49691D01*
X51542Y49609D01*
X51444Y49530D01*
X51344Y49454D01*
X51241Y49380D01*
X51136Y49310D01*
X51029Y49243D01*
X50920Y49180D01*
X50809Y49119D01*
X50697Y49063D01*
X50582Y49009D01*
X50466Y48959D01*
X50349Y48912D01*
X50231Y48869D01*
X50111Y48830D01*
X49990Y48794D01*
X49868Y48762D01*
X49745Y48734D01*
X49621Y48709D01*
X49496Y48689D01*
X49371Y48671D01*
X49246Y48658D01*
X49120Y48649D01*
X48994Y48643D01*
X48868Y48641D01*
X41727Y28462D02*
X39116Y28462D01*
X41727Y28463D02*
X41828Y28461D01*
X41929Y28455D01*
X42030Y28445D01*
X42130Y28432D01*
X42230Y28414D01*
X42329Y28393D01*
X42427Y28367D01*
X42524Y28338D01*
X42620Y28306D01*
X42714Y28269D01*
X42807Y28229D01*
X42899Y28185D01*
X42988Y28138D01*
X43076Y28087D01*
X43162Y28033D01*
X43245Y27976D01*
X43327Y27916D01*
X43405Y27852D01*
X43482Y27786D01*
X43555Y27716D01*
X43626Y27644D01*
X43694Y27569D01*
X43759Y27491D01*
X43821Y27411D01*
X43880Y27329D01*
X43936Y27244D01*
X43988Y27157D01*
X44037Y27069D01*
X44083Y26978D01*
X44124Y26886D01*
X44163Y26792D01*
X44197Y26697D01*
X44228Y26601D01*
X44255Y26503D01*
X44279Y26405D01*
X44298Y26305D01*
X44314Y26205D01*
X44326Y26105D01*
X44334Y26004D01*
X44338Y25903D01*
X44338Y25801D01*
X44334Y25700D01*
X44326Y25599D01*
X44314Y25499D01*
X44298Y25399D01*
X44279Y25299D01*
X44255Y25201D01*
X44228Y25103D01*
X44197Y25007D01*
X44163Y24912D01*
X44124Y24818D01*
X44083Y24726D01*
X44037Y24635D01*
X43988Y24546D01*
X43936Y24460D01*
X43880Y24375D01*
X43821Y24293D01*
X43759Y24213D01*
X43694Y24135D01*
X43626Y24060D01*
X43555Y23988D01*
X43482Y23918D01*
X43405Y23852D01*
X43327Y23788D01*
X43245Y23728D01*
X43162Y23671D01*
X43076Y23617D01*
X42988Y23566D01*
X42899Y23519D01*
X42807Y23475D01*
X42714Y23435D01*
X42620Y23398D01*
X42524Y23366D01*
X42427Y23337D01*
X42329Y23311D01*
X42230Y23290D01*
X42130Y23272D01*
X42030Y23259D01*
X41929Y23249D01*
X41828Y23243D01*
X41727Y23241D01*
X39116Y23241D01*
X39116Y32639D01*
X41727Y32639D01*
X41817Y32637D01*
X41906Y32631D01*
X41996Y32622D01*
X42085Y32608D01*
X42173Y32591D01*
X42260Y32570D01*
X42347Y32545D01*
X42432Y32516D01*
X42516Y32484D01*
X42598Y32449D01*
X42679Y32409D01*
X42758Y32367D01*
X42835Y32321D01*
X42910Y32271D01*
X42983Y32219D01*
X43054Y32163D01*
X43122Y32105D01*
X43187Y32043D01*
X43250Y31979D01*
X43310Y31912D01*
X43367Y31843D01*
X43421Y31771D01*
X43472Y31697D01*
X43520Y31621D01*
X43564Y31543D01*
X43605Y31463D01*
X43643Y31381D01*
X43677Y31298D01*
X43707Y31213D01*
X43734Y31127D01*
X43757Y31041D01*
X43776Y30953D01*
X43791Y30864D01*
X43803Y30775D01*
X43811Y30686D01*
X43815Y30596D01*
X43815Y30506D01*
X43811Y30416D01*
X43803Y30327D01*
X43791Y30238D01*
X43776Y30149D01*
X43757Y30061D01*
X43734Y29975D01*
X43707Y29889D01*
X43677Y29804D01*
X43643Y29721D01*
X43605Y29639D01*
X43564Y29559D01*
X43520Y29481D01*
X43472Y29405D01*
X43421Y29331D01*
X43367Y29259D01*
X43310Y29190D01*
X43250Y29123D01*
X43187Y29059D01*
X43122Y28997D01*
X43054Y28939D01*
X42983Y28883D01*
X42910Y28831D01*
X42835Y28781D01*
X42758Y28735D01*
X42679Y28693D01*
X42598Y28653D01*
X42516Y28618D01*
X42432Y28586D01*
X42347Y28557D01*
X42260Y28532D01*
X42173Y28511D01*
X42085Y28494D01*
X41996Y28480D01*
X41906Y28471D01*
X41817Y28465D01*
X41727Y28463D01*
X47824Y30551D02*
X50434Y32639D01*
X50434Y23241D01*
X47824Y23241D02*
X53045Y23241D01*
X56968Y30551D02*
X59578Y32639D01*
X59578Y23241D01*
X56968Y23241D02*
X62189Y23241D01*
D11*
X34200Y338055D02*
X118200Y338055D01*
X118200Y8655D02*
X34200Y8655D01*
D12*
X94171Y113407D02*
X95469Y113407D01*
X94171Y113407D02*
X94171Y119898D01*
X105855Y116652D01*
X96767Y124837D02*
X94171Y128082D01*
X105855Y128082D01*
X105855Y124837D02*
X105855Y131328D01*
X99363Y136267D02*
X99363Y140162D01*
X99364Y140162D02*
X99366Y140261D01*
X99372Y140361D01*
X99381Y140460D01*
X99394Y140558D01*
X99411Y140656D01*
X99432Y140754D01*
X99457Y140850D01*
X99485Y140945D01*
X99517Y141039D01*
X99552Y141132D01*
X99591Y141224D01*
X99634Y141314D01*
X99679Y141402D01*
X99729Y141489D01*
X99781Y141573D01*
X99837Y141656D01*
X99895Y141736D01*
X99957Y141814D01*
X100022Y141889D01*
X100090Y141962D01*
X100160Y142032D01*
X100233Y142100D01*
X100308Y142165D01*
X100386Y142227D01*
X100466Y142285D01*
X100549Y142341D01*
X100633Y142393D01*
X100720Y142443D01*
X100808Y142488D01*
X100898Y142531D01*
X100990Y142570D01*
X101083Y142605D01*
X101177Y142637D01*
X101272Y142665D01*
X101368Y142690D01*
X101466Y142711D01*
X101564Y142728D01*
X101662Y142741D01*
X101761Y142750D01*
X101861Y142756D01*
X101960Y142758D01*
X102609Y142758D01*
X102722Y142756D01*
X102835Y142750D01*
X102948Y142740D01*
X103061Y142726D01*
X103173Y142709D01*
X103284Y142687D01*
X103394Y142662D01*
X103504Y142632D01*
X103612Y142599D01*
X103719Y142562D01*
X103825Y142522D01*
X103929Y142477D01*
X104032Y142429D01*
X104133Y142378D01*
X104232Y142323D01*
X104329Y142265D01*
X104424Y142203D01*
X104517Y142138D01*
X104607Y142070D01*
X104695Y141999D01*
X104781Y141924D01*
X104864Y141847D01*
X104944Y141767D01*
X105021Y141684D01*
X105096Y141598D01*
X105167Y141510D01*
X105235Y141420D01*
X105300Y141327D01*
X105362Y141232D01*
X105420Y141135D01*
X105475Y141036D01*
X105526Y140935D01*
X105574Y140832D01*
X105619Y140728D01*
X105659Y140622D01*
X105696Y140515D01*
X105729Y140407D01*
X105759Y140297D01*
X105784Y140187D01*
X105806Y140076D01*
X105823Y139964D01*
X105837Y139851D01*
X105847Y139738D01*
X105853Y139625D01*
X105855Y139512D01*
X105853Y139399D01*
X105847Y139286D01*
X105837Y139173D01*
X105823Y139060D01*
X105806Y138948D01*
X105784Y138837D01*
X105759Y138727D01*
X105729Y138617D01*
X105696Y138509D01*
X105659Y138402D01*
X105619Y138296D01*
X105574Y138192D01*
X105526Y138089D01*
X105475Y137988D01*
X105420Y137889D01*
X105362Y137792D01*
X105300Y137697D01*
X105235Y137604D01*
X105167Y137514D01*
X105096Y137426D01*
X105021Y137340D01*
X104944Y137257D01*
X104864Y137177D01*
X104781Y137100D01*
X104695Y137025D01*
X104607Y136954D01*
X104517Y136886D01*
X104424Y136821D01*
X104329Y136759D01*
X104232Y136701D01*
X104133Y136646D01*
X104032Y136595D01*
X103929Y136547D01*
X103825Y136502D01*
X103719Y136462D01*
X103612Y136425D01*
X103504Y136392D01*
X103394Y136362D01*
X103284Y136337D01*
X103173Y136315D01*
X103061Y136298D01*
X102948Y136284D01*
X102835Y136274D01*
X102722Y136268D01*
X102609Y136266D01*
X102609Y136267D02*
X99363Y136267D01*
X99220Y136269D01*
X99077Y136275D01*
X98934Y136285D01*
X98792Y136299D01*
X98650Y136316D01*
X98508Y136338D01*
X98367Y136363D01*
X98227Y136393D01*
X98088Y136426D01*
X97950Y136463D01*
X97813Y136504D01*
X97677Y136548D01*
X97542Y136597D01*
X97409Y136649D01*
X97277Y136704D01*
X97147Y136764D01*
X97018Y136827D01*
X96891Y136893D01*
X96767Y136963D01*
X96644Y137036D01*
X96523Y137113D01*
X96404Y137192D01*
X96288Y137276D01*
X96173Y137362D01*
X96062Y137451D01*
X95953Y137544D01*
X95846Y137639D01*
X95742Y137738D01*
X95641Y137839D01*
X95542Y137943D01*
X95447Y138049D01*
X95354Y138159D01*
X95265Y138270D01*
X95179Y138384D01*
X95096Y138501D01*
X95016Y138620D01*
X94939Y138741D01*
X94866Y138863D01*
X94796Y138988D01*
X94730Y139115D01*
X94667Y139244D01*
X94607Y139374D01*
X94552Y139506D01*
X94500Y139639D01*
X94451Y139774D01*
X94407Y139910D01*
X94366Y140047D01*
X94329Y140185D01*
X94296Y140324D01*
X94266Y140464D01*
X94241Y140605D01*
X94219Y140747D01*
X94202Y140889D01*
X94188Y141031D01*
X94178Y141174D01*
X94172Y141317D01*
X94170Y141460D01*
X95794Y148670D02*
X96001Y148571D01*
X96212Y148478D01*
X96424Y148390D01*
X96638Y148307D01*
X96854Y148229D01*
X97072Y148156D01*
X97292Y148088D01*
X97513Y148026D01*
X97736Y147969D01*
X97960Y147917D01*
X98185Y147871D01*
X98411Y147830D01*
X98638Y147795D01*
X98866Y147765D01*
X99095Y147740D01*
X99324Y147721D01*
X99553Y147707D01*
X99783Y147699D01*
X100013Y147696D01*
X95793Y148670D02*
X95703Y148703D01*
X95614Y148739D01*
X95526Y148779D01*
X95441Y148823D01*
X95357Y148870D01*
X95275Y148920D01*
X95195Y148974D01*
X95118Y149030D01*
X95042Y149090D01*
X94969Y149153D01*
X94899Y149218D01*
X94831Y149287D01*
X94767Y149358D01*
X94705Y149431D01*
X94646Y149507D01*
X94590Y149585D01*
X94537Y149666D01*
X94488Y149748D01*
X94442Y149832D01*
X94399Y149919D01*
X94360Y150006D01*
X94324Y150096D01*
X94292Y150186D01*
X94264Y150278D01*
X94239Y150371D01*
X94218Y150465D01*
X94201Y150559D01*
X94187Y150654D01*
X94178Y150750D01*
X94172Y150846D01*
X94170Y150942D01*
X94172Y151038D01*
X94178Y151134D01*
X94187Y151230D01*
X94201Y151325D01*
X94218Y151419D01*
X94239Y151513D01*
X94264Y151606D01*
X94292Y151698D01*
X94324Y151788D01*
X94360Y151878D01*
X94399Y151966D01*
X94442Y152052D01*
X94488Y152136D01*
X94537Y152218D01*
X94590Y152299D01*
X94646Y152377D01*
X94705Y152453D01*
X94767Y152526D01*
X94831Y152597D01*
X94899Y152666D01*
X94969Y152731D01*
X95042Y152794D01*
X95118Y152854D01*
X95195Y152910D01*
X95275Y152964D01*
X95357Y153014D01*
X95441Y153061D01*
X95526Y153105D01*
X95614Y153145D01*
X95703Y153181D01*
X95793Y153214D01*
X95794Y153214D02*
X96001Y153313D01*
X96212Y153406D01*
X96424Y153494D01*
X96638Y153577D01*
X96854Y153655D01*
X97072Y153728D01*
X97292Y153796D01*
X97513Y153858D01*
X97736Y153915D01*
X97960Y153967D01*
X98185Y154013D01*
X98411Y154054D01*
X98638Y154089D01*
X98866Y154119D01*
X99095Y154144D01*
X99324Y154163D01*
X99553Y154177D01*
X99783Y154185D01*
X100013Y154188D01*
X100013Y147697D02*
X100243Y147700D01*
X100473Y147708D01*
X100702Y147722D01*
X100931Y147741D01*
X101160Y147766D01*
X101388Y147796D01*
X101615Y147831D01*
X101841Y147872D01*
X102066Y147918D01*
X102290Y147970D01*
X102513Y148027D01*
X102734Y148089D01*
X102954Y148157D01*
X103172Y148230D01*
X103388Y148308D01*
X103602Y148391D01*
X103814Y148479D01*
X104025Y148572D01*
X104232Y148671D01*
X104232Y148670D02*
X104322Y148703D01*
X104411Y148739D01*
X104499Y148780D01*
X104584Y148823D01*
X104668Y148870D01*
X104750Y148920D01*
X104830Y148974D01*
X104907Y149030D01*
X104983Y149090D01*
X105056Y149153D01*
X105126Y149218D01*
X105194Y149287D01*
X105258Y149358D01*
X105320Y149431D01*
X105379Y149507D01*
X105435Y149585D01*
X105488Y149666D01*
X105537Y149748D01*
X105583Y149832D01*
X105626Y149919D01*
X105665Y150006D01*
X105701Y150096D01*
X105733Y150186D01*
X105761Y150278D01*
X105786Y150371D01*
X105807Y150465D01*
X105824Y150559D01*
X105838Y150654D01*
X105847Y150750D01*
X105853Y150846D01*
X105855Y150942D01*
X104232Y153214D02*
X104025Y153313D01*
X103814Y153406D01*
X103602Y153494D01*
X103388Y153577D01*
X103172Y153655D01*
X102954Y153728D01*
X102734Y153796D01*
X102513Y153858D01*
X102290Y153915D01*
X102066Y153967D01*
X101841Y154013D01*
X101615Y154054D01*
X101388Y154089D01*
X101160Y154119D01*
X100931Y154144D01*
X100702Y154163D01*
X100473Y154177D01*
X100243Y154185D01*
X100013Y154188D01*
X104232Y153214D02*
X104322Y153181D01*
X104411Y153145D01*
X104499Y153105D01*
X104584Y153061D01*
X104668Y153014D01*
X104750Y152964D01*
X104830Y152910D01*
X104907Y152854D01*
X104983Y152794D01*
X105056Y152731D01*
X105126Y152666D01*
X105194Y152597D01*
X105258Y152526D01*
X105320Y152453D01*
X105379Y152377D01*
X105435Y152299D01*
X105488Y152218D01*
X105537Y152136D01*
X105583Y152052D01*
X105626Y151965D01*
X105665Y151878D01*
X105701Y151788D01*
X105733Y151698D01*
X105761Y151606D01*
X105786Y151513D01*
X105807Y151419D01*
X105824Y151325D01*
X105838Y151230D01*
X105847Y151134D01*
X105853Y151038D01*
X105855Y150942D01*
X103258Y148346D02*
X96767Y153539D01*
X95469Y159127D02*
X94171Y159127D01*
X94171Y165618D01*
X105855Y162372D01*
X101311Y170670D02*
X101311Y178459D01*
X105855Y183511D02*
X105855Y186756D01*
X105853Y186869D01*
X105847Y186982D01*
X105837Y187095D01*
X105823Y187208D01*
X105806Y187320D01*
X105784Y187431D01*
X105759Y187541D01*
X105729Y187651D01*
X105696Y187759D01*
X105659Y187866D01*
X105619Y187972D01*
X105574Y188076D01*
X105526Y188179D01*
X105475Y188280D01*
X105420Y188379D01*
X105362Y188476D01*
X105300Y188571D01*
X105235Y188664D01*
X105167Y188754D01*
X105096Y188842D01*
X105021Y188928D01*
X104944Y189011D01*
X104864Y189091D01*
X104781Y189168D01*
X104695Y189243D01*
X104607Y189314D01*
X104517Y189382D01*
X104424Y189447D01*
X104329Y189509D01*
X104232Y189567D01*
X104133Y189622D01*
X104032Y189673D01*
X103929Y189721D01*
X103825Y189766D01*
X103719Y189806D01*
X103612Y189843D01*
X103504Y189876D01*
X103394Y189906D01*
X103284Y189931D01*
X103173Y189953D01*
X103061Y189970D01*
X102948Y189984D01*
X102835Y189994D01*
X102722Y190000D01*
X102609Y190002D01*
X102496Y190000D01*
X102383Y189994D01*
X102270Y189984D01*
X102157Y189970D01*
X102045Y189953D01*
X101934Y189931D01*
X101824Y189906D01*
X101714Y189876D01*
X101606Y189843D01*
X101499Y189806D01*
X101393Y189766D01*
X101289Y189721D01*
X101186Y189673D01*
X101085Y189622D01*
X100986Y189567D01*
X100889Y189509D01*
X100794Y189447D01*
X100701Y189382D01*
X100611Y189314D01*
X100523Y189243D01*
X100437Y189168D01*
X100354Y189091D01*
X100274Y189011D01*
X100197Y188928D01*
X100122Y188842D01*
X100051Y188754D01*
X99983Y188664D01*
X99918Y188571D01*
X99856Y188476D01*
X99798Y188379D01*
X99743Y188280D01*
X99692Y188179D01*
X99644Y188076D01*
X99599Y187972D01*
X99559Y187866D01*
X99522Y187759D01*
X99489Y187651D01*
X99459Y187541D01*
X99434Y187431D01*
X99412Y187320D01*
X99395Y187208D01*
X99381Y187095D01*
X99371Y186982D01*
X99365Y186869D01*
X99363Y186756D01*
X94171Y187405D02*
X94171Y183511D01*
X94171Y187405D02*
X94173Y187506D01*
X94179Y187606D01*
X94189Y187706D01*
X94202Y187806D01*
X94220Y187905D01*
X94241Y188004D01*
X94266Y188101D01*
X94295Y188198D01*
X94328Y188293D01*
X94364Y188387D01*
X94404Y188479D01*
X94447Y188570D01*
X94494Y188659D01*
X94544Y188746D01*
X94598Y188832D01*
X94655Y188915D01*
X94715Y188995D01*
X94778Y189074D01*
X94845Y189150D01*
X94914Y189223D01*
X94986Y189293D01*
X95060Y189361D01*
X95137Y189426D01*
X95217Y189487D01*
X95299Y189546D01*
X95383Y189601D01*
X95469Y189653D01*
X95557Y189702D01*
X95647Y189747D01*
X95739Y189789D01*
X95832Y189827D01*
X95927Y189861D01*
X96022Y189892D01*
X96119Y189919D01*
X96217Y189942D01*
X96316Y189962D01*
X96416Y189977D01*
X96516Y189989D01*
X96616Y189997D01*
X96717Y190001D01*
X96817Y190001D01*
X96918Y189997D01*
X97018Y189989D01*
X97118Y189977D01*
X97218Y189962D01*
X97317Y189942D01*
X97415Y189919D01*
X97512Y189892D01*
X97607Y189861D01*
X97702Y189827D01*
X97795Y189789D01*
X97887Y189747D01*
X97977Y189702D01*
X98065Y189653D01*
X98151Y189601D01*
X98235Y189546D01*
X98317Y189487D01*
X98397Y189426D01*
X98474Y189361D01*
X98548Y189293D01*
X98620Y189223D01*
X98689Y189150D01*
X98756Y189074D01*
X98819Y188995D01*
X98879Y188915D01*
X98936Y188832D01*
X98990Y188746D01*
X99040Y188659D01*
X99087Y188570D01*
X99130Y188479D01*
X99170Y188387D01*
X99206Y188293D01*
X99239Y188198D01*
X99268Y188101D01*
X99293Y188004D01*
X99314Y187905D01*
X99332Y187806D01*
X99345Y187706D01*
X99355Y187606D01*
X99361Y187506D01*
X99363Y187405D01*
X99363Y184809D01*
X96767Y194941D02*
X94171Y198186D01*
X105855Y198186D01*
X105855Y194941D02*
X105855Y201432D01*
X105855Y206371D02*
X105855Y209616D01*
X105853Y209729D01*
X105847Y209842D01*
X105837Y209955D01*
X105823Y210068D01*
X105806Y210180D01*
X105784Y210291D01*
X105759Y210401D01*
X105729Y210511D01*
X105696Y210619D01*
X105659Y210726D01*
X105619Y210832D01*
X105574Y210936D01*
X105526Y211039D01*
X105475Y211140D01*
X105420Y211239D01*
X105362Y211336D01*
X105300Y211431D01*
X105235Y211524D01*
X105167Y211614D01*
X105096Y211702D01*
X105021Y211788D01*
X104944Y211871D01*
X104864Y211951D01*
X104781Y212028D01*
X104695Y212103D01*
X104607Y212174D01*
X104517Y212242D01*
X104424Y212307D01*
X104329Y212369D01*
X104232Y212427D01*
X104133Y212482D01*
X104032Y212533D01*
X103929Y212581D01*
X103825Y212626D01*
X103719Y212666D01*
X103612Y212703D01*
X103504Y212736D01*
X103394Y212766D01*
X103284Y212791D01*
X103173Y212813D01*
X103061Y212830D01*
X102948Y212844D01*
X102835Y212854D01*
X102722Y212860D01*
X102609Y212862D01*
X102496Y212860D01*
X102383Y212854D01*
X102270Y212844D01*
X102157Y212830D01*
X102045Y212813D01*
X101934Y212791D01*
X101824Y212766D01*
X101714Y212736D01*
X101606Y212703D01*
X101499Y212666D01*
X101393Y212626D01*
X101289Y212581D01*
X101186Y212533D01*
X101085Y212482D01*
X100986Y212427D01*
X100889Y212369D01*
X100794Y212307D01*
X100701Y212242D01*
X100611Y212174D01*
X100523Y212103D01*
X100437Y212028D01*
X100354Y211951D01*
X100274Y211871D01*
X100197Y211788D01*
X100122Y211702D01*
X100051Y211614D01*
X99983Y211524D01*
X99918Y211431D01*
X99856Y211336D01*
X99798Y211239D01*
X99743Y211140D01*
X99692Y211039D01*
X99644Y210936D01*
X99599Y210832D01*
X99559Y210726D01*
X99522Y210619D01*
X99489Y210511D01*
X99459Y210401D01*
X99434Y210291D01*
X99412Y210180D01*
X99395Y210068D01*
X99381Y209955D01*
X99371Y209842D01*
X99365Y209729D01*
X99363Y209616D01*
X94171Y210265D02*
X94171Y206371D01*
X94171Y210265D02*
X94173Y210366D01*
X94179Y210466D01*
X94189Y210566D01*
X94202Y210666D01*
X94220Y210765D01*
X94241Y210864D01*
X94266Y210961D01*
X94295Y211058D01*
X94328Y211153D01*
X94364Y211247D01*
X94404Y211339D01*
X94447Y211430D01*
X94494Y211519D01*
X94544Y211606D01*
X94598Y211692D01*
X94655Y211775D01*
X94715Y211855D01*
X94778Y211934D01*
X94845Y212010D01*
X94914Y212083D01*
X94986Y212153D01*
X95060Y212221D01*
X95137Y212286D01*
X95217Y212347D01*
X95299Y212406D01*
X95383Y212461D01*
X95469Y212513D01*
X95557Y212562D01*
X95647Y212607D01*
X95739Y212649D01*
X95832Y212687D01*
X95927Y212721D01*
X96022Y212752D01*
X96119Y212779D01*
X96217Y212802D01*
X96316Y212822D01*
X96416Y212837D01*
X96516Y212849D01*
X96616Y212857D01*
X96717Y212861D01*
X96817Y212861D01*
X96918Y212857D01*
X97018Y212849D01*
X97118Y212837D01*
X97218Y212822D01*
X97317Y212802D01*
X97415Y212779D01*
X97512Y212752D01*
X97607Y212721D01*
X97702Y212687D01*
X97795Y212649D01*
X97887Y212607D01*
X97977Y212562D01*
X98065Y212513D01*
X98151Y212461D01*
X98235Y212406D01*
X98317Y212347D01*
X98397Y212286D01*
X98474Y212221D01*
X98548Y212153D01*
X98620Y212083D01*
X98689Y212010D01*
X98756Y211934D01*
X98819Y211855D01*
X98879Y211775D01*
X98936Y211692D01*
X98990Y211606D01*
X99040Y211519D01*
X99087Y211430D01*
X99130Y211339D01*
X99170Y211247D01*
X99206Y211153D01*
X99239Y211058D01*
X99268Y210961D01*
X99293Y210864D01*
X99314Y210765D01*
X99332Y210666D01*
X99345Y210566D01*
X99355Y210466D01*
X99361Y210366D01*
X99363Y210265D01*
X99363Y207669D01*
X94171Y218204D02*
X105855Y218204D01*
X105855Y223397D01*
X105855Y228110D02*
X94171Y228110D01*
X94171Y233303D01*
X99363Y233303D02*
X99363Y228110D01*
M02*
