G04 EAGLE Gerber RS-274X export*
G75*
%MOMM*%
%FSLAX34Y34*%
%LPD*%
%INBottom Copper*%
%IPPOS*%
%AMOC8*
5,1,8,0,0,1.08239X$1,22.5*%
G01*
%ADD10C,1.524000*%
%ADD11C,0.756400*%
%ADD12C,0.304800*%

G36*
X342920Y514862D02*
X342920Y514862D01*
X342939Y514860D01*
X343041Y514882D01*
X343143Y514899D01*
X343160Y514908D01*
X343180Y514912D01*
X343269Y514965D01*
X343360Y515014D01*
X343374Y515028D01*
X343391Y515038D01*
X343458Y515117D01*
X343530Y515192D01*
X343538Y515210D01*
X343551Y515225D01*
X343590Y515321D01*
X343633Y515415D01*
X343635Y515435D01*
X343643Y515453D01*
X343661Y515620D01*
X343661Y556260D01*
X343658Y556280D01*
X343660Y556299D01*
X343638Y556401D01*
X343622Y556503D01*
X343612Y556520D01*
X343608Y556540D01*
X343555Y556629D01*
X343506Y556720D01*
X343492Y556734D01*
X343482Y556751D01*
X343403Y556818D01*
X343328Y556890D01*
X343310Y556898D01*
X343295Y556911D01*
X343199Y556950D01*
X343105Y556993D01*
X343085Y556995D01*
X343067Y557003D01*
X342900Y557021D01*
X276860Y557021D01*
X276840Y557018D01*
X276821Y557020D01*
X276719Y556998D01*
X276617Y556982D01*
X276600Y556972D01*
X276580Y556968D01*
X276491Y556915D01*
X276400Y556866D01*
X276386Y556852D01*
X276369Y556842D01*
X276302Y556763D01*
X276231Y556688D01*
X276222Y556670D01*
X276209Y556655D01*
X276170Y556559D01*
X276127Y556465D01*
X276125Y556445D01*
X276117Y556427D01*
X276099Y556260D01*
X276099Y515620D01*
X276102Y515600D01*
X276100Y515581D01*
X276122Y515479D01*
X276139Y515377D01*
X276148Y515360D01*
X276152Y515340D01*
X276205Y515251D01*
X276254Y515160D01*
X276268Y515146D01*
X276278Y515129D01*
X276357Y515062D01*
X276432Y514991D01*
X276450Y514982D01*
X276465Y514969D01*
X276561Y514930D01*
X276655Y514887D01*
X276675Y514885D01*
X276693Y514877D01*
X276860Y514859D01*
X342900Y514859D01*
X342920Y514862D01*
G37*
G36*
X342920Y469142D02*
X342920Y469142D01*
X342939Y469140D01*
X343041Y469162D01*
X343143Y469179D01*
X343160Y469188D01*
X343180Y469192D01*
X343269Y469245D01*
X343360Y469294D01*
X343374Y469308D01*
X343391Y469318D01*
X343458Y469397D01*
X343530Y469472D01*
X343538Y469490D01*
X343551Y469505D01*
X343590Y469601D01*
X343633Y469695D01*
X343635Y469715D01*
X343643Y469733D01*
X343661Y469900D01*
X343661Y510540D01*
X343658Y510560D01*
X343660Y510579D01*
X343638Y510681D01*
X343622Y510783D01*
X343612Y510800D01*
X343608Y510820D01*
X343555Y510909D01*
X343506Y511000D01*
X343492Y511014D01*
X343482Y511031D01*
X343403Y511098D01*
X343328Y511170D01*
X343310Y511178D01*
X343295Y511191D01*
X343199Y511230D01*
X343105Y511273D01*
X343085Y511275D01*
X343067Y511283D01*
X342900Y511301D01*
X276860Y511301D01*
X276840Y511298D01*
X276821Y511300D01*
X276719Y511278D01*
X276617Y511262D01*
X276600Y511252D01*
X276580Y511248D01*
X276491Y511195D01*
X276400Y511146D01*
X276386Y511132D01*
X276369Y511122D01*
X276302Y511043D01*
X276231Y510968D01*
X276222Y510950D01*
X276209Y510935D01*
X276170Y510839D01*
X276127Y510745D01*
X276125Y510725D01*
X276117Y510707D01*
X276099Y510540D01*
X276099Y469900D01*
X276102Y469880D01*
X276100Y469861D01*
X276122Y469759D01*
X276139Y469657D01*
X276148Y469640D01*
X276152Y469620D01*
X276205Y469531D01*
X276254Y469440D01*
X276268Y469426D01*
X276278Y469409D01*
X276357Y469342D01*
X276432Y469271D01*
X276450Y469262D01*
X276465Y469249D01*
X276561Y469210D01*
X276655Y469167D01*
X276675Y469165D01*
X276693Y469157D01*
X276860Y469139D01*
X342900Y469139D01*
X342920Y469142D01*
G37*
G36*
X342920Y423422D02*
X342920Y423422D01*
X342939Y423420D01*
X343041Y423442D01*
X343143Y423459D01*
X343160Y423468D01*
X343180Y423472D01*
X343269Y423525D01*
X343360Y423574D01*
X343374Y423588D01*
X343391Y423598D01*
X343458Y423677D01*
X343530Y423752D01*
X343538Y423770D01*
X343551Y423785D01*
X343590Y423881D01*
X343633Y423975D01*
X343635Y423995D01*
X343643Y424013D01*
X343661Y424180D01*
X343661Y464820D01*
X343658Y464840D01*
X343660Y464859D01*
X343638Y464961D01*
X343622Y465063D01*
X343612Y465080D01*
X343608Y465100D01*
X343555Y465189D01*
X343506Y465280D01*
X343492Y465294D01*
X343482Y465311D01*
X343403Y465378D01*
X343328Y465450D01*
X343310Y465458D01*
X343295Y465471D01*
X343199Y465510D01*
X343105Y465553D01*
X343085Y465555D01*
X343067Y465563D01*
X342900Y465581D01*
X276860Y465581D01*
X276840Y465578D01*
X276821Y465580D01*
X276719Y465558D01*
X276617Y465542D01*
X276600Y465532D01*
X276580Y465528D01*
X276491Y465475D01*
X276400Y465426D01*
X276386Y465412D01*
X276369Y465402D01*
X276302Y465323D01*
X276231Y465248D01*
X276222Y465230D01*
X276209Y465215D01*
X276170Y465119D01*
X276127Y465025D01*
X276125Y465005D01*
X276117Y464987D01*
X276099Y464820D01*
X276099Y424180D01*
X276102Y424160D01*
X276100Y424141D01*
X276122Y424039D01*
X276139Y423937D01*
X276148Y423920D01*
X276152Y423900D01*
X276205Y423811D01*
X276254Y423720D01*
X276268Y423706D01*
X276278Y423689D01*
X276357Y423622D01*
X276432Y423551D01*
X276450Y423542D01*
X276465Y423529D01*
X276561Y423490D01*
X276655Y423447D01*
X276675Y423445D01*
X276693Y423437D01*
X276860Y423419D01*
X342900Y423419D01*
X342920Y423422D01*
G37*
G36*
X342920Y377702D02*
X342920Y377702D01*
X342939Y377700D01*
X343041Y377722D01*
X343143Y377739D01*
X343160Y377748D01*
X343180Y377752D01*
X343269Y377805D01*
X343360Y377854D01*
X343374Y377868D01*
X343391Y377878D01*
X343458Y377957D01*
X343530Y378032D01*
X343538Y378050D01*
X343551Y378065D01*
X343590Y378161D01*
X343633Y378255D01*
X343635Y378275D01*
X343643Y378293D01*
X343661Y378460D01*
X343661Y419100D01*
X343658Y419120D01*
X343660Y419139D01*
X343638Y419241D01*
X343622Y419343D01*
X343612Y419360D01*
X343608Y419380D01*
X343555Y419469D01*
X343506Y419560D01*
X343492Y419574D01*
X343482Y419591D01*
X343403Y419658D01*
X343328Y419730D01*
X343310Y419738D01*
X343295Y419751D01*
X343199Y419790D01*
X343105Y419833D01*
X343085Y419835D01*
X343067Y419843D01*
X342900Y419861D01*
X276860Y419861D01*
X276840Y419858D01*
X276821Y419860D01*
X276719Y419838D01*
X276617Y419822D01*
X276600Y419812D01*
X276580Y419808D01*
X276491Y419755D01*
X276400Y419706D01*
X276386Y419692D01*
X276369Y419682D01*
X276302Y419603D01*
X276231Y419528D01*
X276222Y419510D01*
X276209Y419495D01*
X276170Y419399D01*
X276127Y419305D01*
X276125Y419285D01*
X276117Y419267D01*
X276099Y419100D01*
X276099Y378460D01*
X276102Y378440D01*
X276100Y378421D01*
X276122Y378319D01*
X276139Y378217D01*
X276148Y378200D01*
X276152Y378180D01*
X276205Y378091D01*
X276254Y378000D01*
X276268Y377986D01*
X276278Y377969D01*
X276357Y377902D01*
X276432Y377831D01*
X276450Y377822D01*
X276465Y377809D01*
X276561Y377770D01*
X276655Y377727D01*
X276675Y377725D01*
X276693Y377717D01*
X276860Y377699D01*
X342900Y377699D01*
X342920Y377702D01*
G37*
G36*
X342920Y331982D02*
X342920Y331982D01*
X342939Y331980D01*
X343041Y332002D01*
X343143Y332019D01*
X343160Y332028D01*
X343180Y332032D01*
X343269Y332085D01*
X343360Y332134D01*
X343374Y332148D01*
X343391Y332158D01*
X343458Y332237D01*
X343530Y332312D01*
X343538Y332330D01*
X343551Y332345D01*
X343590Y332441D01*
X343633Y332535D01*
X343635Y332555D01*
X343643Y332573D01*
X343661Y332740D01*
X343661Y373380D01*
X343658Y373400D01*
X343660Y373419D01*
X343638Y373521D01*
X343622Y373623D01*
X343612Y373640D01*
X343608Y373660D01*
X343555Y373749D01*
X343506Y373840D01*
X343492Y373854D01*
X343482Y373871D01*
X343403Y373938D01*
X343328Y374010D01*
X343310Y374018D01*
X343295Y374031D01*
X343199Y374070D01*
X343105Y374113D01*
X343085Y374115D01*
X343067Y374123D01*
X342900Y374141D01*
X276860Y374141D01*
X276840Y374138D01*
X276821Y374140D01*
X276719Y374118D01*
X276617Y374102D01*
X276600Y374092D01*
X276580Y374088D01*
X276491Y374035D01*
X276400Y373986D01*
X276386Y373972D01*
X276369Y373962D01*
X276302Y373883D01*
X276231Y373808D01*
X276222Y373790D01*
X276209Y373775D01*
X276170Y373679D01*
X276127Y373585D01*
X276125Y373565D01*
X276117Y373547D01*
X276099Y373380D01*
X276099Y332740D01*
X276102Y332720D01*
X276100Y332701D01*
X276122Y332599D01*
X276139Y332497D01*
X276148Y332480D01*
X276152Y332460D01*
X276205Y332371D01*
X276254Y332280D01*
X276268Y332266D01*
X276278Y332249D01*
X276357Y332182D01*
X276432Y332111D01*
X276450Y332102D01*
X276465Y332089D01*
X276561Y332050D01*
X276655Y332007D01*
X276675Y332005D01*
X276693Y331997D01*
X276860Y331979D01*
X342900Y331979D01*
X342920Y331982D01*
G37*
G36*
X342920Y286262D02*
X342920Y286262D01*
X342939Y286260D01*
X343041Y286282D01*
X343143Y286299D01*
X343160Y286308D01*
X343180Y286312D01*
X343269Y286365D01*
X343360Y286414D01*
X343374Y286428D01*
X343391Y286438D01*
X343458Y286517D01*
X343530Y286592D01*
X343538Y286610D01*
X343551Y286625D01*
X343590Y286721D01*
X343633Y286815D01*
X343635Y286835D01*
X343643Y286853D01*
X343661Y287020D01*
X343661Y327660D01*
X343658Y327680D01*
X343660Y327699D01*
X343638Y327801D01*
X343622Y327903D01*
X343612Y327920D01*
X343608Y327940D01*
X343555Y328029D01*
X343506Y328120D01*
X343492Y328134D01*
X343482Y328151D01*
X343403Y328218D01*
X343328Y328290D01*
X343310Y328298D01*
X343295Y328311D01*
X343199Y328350D01*
X343105Y328393D01*
X343085Y328395D01*
X343067Y328403D01*
X342900Y328421D01*
X276860Y328421D01*
X276840Y328418D01*
X276821Y328420D01*
X276719Y328398D01*
X276617Y328382D01*
X276600Y328372D01*
X276580Y328368D01*
X276491Y328315D01*
X276400Y328266D01*
X276386Y328252D01*
X276369Y328242D01*
X276302Y328163D01*
X276231Y328088D01*
X276222Y328070D01*
X276209Y328055D01*
X276170Y327959D01*
X276127Y327865D01*
X276125Y327845D01*
X276117Y327827D01*
X276099Y327660D01*
X276099Y287020D01*
X276102Y287000D01*
X276100Y286981D01*
X276122Y286879D01*
X276139Y286777D01*
X276148Y286760D01*
X276152Y286740D01*
X276205Y286651D01*
X276254Y286560D01*
X276268Y286546D01*
X276278Y286529D01*
X276357Y286462D01*
X276432Y286391D01*
X276450Y286382D01*
X276465Y286369D01*
X276561Y286330D01*
X276655Y286287D01*
X276675Y286285D01*
X276693Y286277D01*
X276860Y286259D01*
X342900Y286259D01*
X342920Y286262D01*
G37*
G36*
X342920Y240542D02*
X342920Y240542D01*
X342939Y240540D01*
X343041Y240562D01*
X343143Y240579D01*
X343160Y240588D01*
X343180Y240592D01*
X343269Y240645D01*
X343360Y240694D01*
X343374Y240708D01*
X343391Y240718D01*
X343458Y240797D01*
X343530Y240872D01*
X343538Y240890D01*
X343551Y240905D01*
X343590Y241001D01*
X343633Y241095D01*
X343635Y241115D01*
X343643Y241133D01*
X343661Y241300D01*
X343661Y281940D01*
X343658Y281960D01*
X343660Y281979D01*
X343638Y282081D01*
X343622Y282183D01*
X343612Y282200D01*
X343608Y282220D01*
X343555Y282309D01*
X343506Y282400D01*
X343492Y282414D01*
X343482Y282431D01*
X343403Y282498D01*
X343328Y282570D01*
X343310Y282578D01*
X343295Y282591D01*
X343199Y282630D01*
X343105Y282673D01*
X343085Y282675D01*
X343067Y282683D01*
X342900Y282701D01*
X276860Y282701D01*
X276840Y282698D01*
X276821Y282700D01*
X276719Y282678D01*
X276617Y282662D01*
X276600Y282652D01*
X276580Y282648D01*
X276491Y282595D01*
X276400Y282546D01*
X276386Y282532D01*
X276369Y282522D01*
X276302Y282443D01*
X276231Y282368D01*
X276222Y282350D01*
X276209Y282335D01*
X276170Y282239D01*
X276127Y282145D01*
X276125Y282125D01*
X276117Y282107D01*
X276099Y281940D01*
X276099Y241300D01*
X276102Y241280D01*
X276100Y241261D01*
X276122Y241159D01*
X276139Y241057D01*
X276148Y241040D01*
X276152Y241020D01*
X276205Y240931D01*
X276254Y240840D01*
X276268Y240826D01*
X276278Y240809D01*
X276357Y240742D01*
X276432Y240671D01*
X276450Y240662D01*
X276465Y240649D01*
X276561Y240610D01*
X276655Y240567D01*
X276675Y240565D01*
X276693Y240557D01*
X276860Y240539D01*
X342900Y240539D01*
X342920Y240542D01*
G37*
G36*
X342920Y194822D02*
X342920Y194822D01*
X342939Y194820D01*
X343041Y194842D01*
X343143Y194859D01*
X343160Y194868D01*
X343180Y194872D01*
X343269Y194925D01*
X343360Y194974D01*
X343374Y194988D01*
X343391Y194998D01*
X343458Y195077D01*
X343530Y195152D01*
X343538Y195170D01*
X343551Y195185D01*
X343590Y195281D01*
X343633Y195375D01*
X343635Y195395D01*
X343643Y195413D01*
X343661Y195580D01*
X343661Y236220D01*
X343658Y236240D01*
X343660Y236259D01*
X343638Y236361D01*
X343622Y236463D01*
X343612Y236480D01*
X343608Y236500D01*
X343555Y236589D01*
X343506Y236680D01*
X343492Y236694D01*
X343482Y236711D01*
X343403Y236778D01*
X343328Y236850D01*
X343310Y236858D01*
X343295Y236871D01*
X343199Y236910D01*
X343105Y236953D01*
X343085Y236955D01*
X343067Y236963D01*
X342900Y236981D01*
X276860Y236981D01*
X276840Y236978D01*
X276821Y236980D01*
X276719Y236958D01*
X276617Y236942D01*
X276600Y236932D01*
X276580Y236928D01*
X276491Y236875D01*
X276400Y236826D01*
X276386Y236812D01*
X276369Y236802D01*
X276302Y236723D01*
X276231Y236648D01*
X276222Y236630D01*
X276209Y236615D01*
X276170Y236519D01*
X276127Y236425D01*
X276125Y236405D01*
X276117Y236387D01*
X276099Y236220D01*
X276099Y195580D01*
X276102Y195560D01*
X276100Y195541D01*
X276122Y195439D01*
X276139Y195337D01*
X276148Y195320D01*
X276152Y195300D01*
X276205Y195211D01*
X276254Y195120D01*
X276268Y195106D01*
X276278Y195089D01*
X276357Y195022D01*
X276432Y194951D01*
X276450Y194942D01*
X276465Y194929D01*
X276561Y194890D01*
X276655Y194847D01*
X276675Y194845D01*
X276693Y194837D01*
X276860Y194819D01*
X342900Y194819D01*
X342920Y194822D01*
G37*
G36*
X342920Y149102D02*
X342920Y149102D01*
X342939Y149100D01*
X343041Y149122D01*
X343143Y149139D01*
X343160Y149148D01*
X343180Y149152D01*
X343269Y149205D01*
X343360Y149254D01*
X343374Y149268D01*
X343391Y149278D01*
X343458Y149357D01*
X343530Y149432D01*
X343538Y149450D01*
X343551Y149465D01*
X343590Y149561D01*
X343633Y149655D01*
X343635Y149675D01*
X343643Y149693D01*
X343661Y149860D01*
X343661Y190500D01*
X343658Y190520D01*
X343660Y190539D01*
X343638Y190641D01*
X343622Y190743D01*
X343612Y190760D01*
X343608Y190780D01*
X343555Y190869D01*
X343506Y190960D01*
X343492Y190974D01*
X343482Y190991D01*
X343403Y191058D01*
X343328Y191130D01*
X343310Y191138D01*
X343295Y191151D01*
X343199Y191190D01*
X343105Y191233D01*
X343085Y191235D01*
X343067Y191243D01*
X342900Y191261D01*
X276860Y191261D01*
X276840Y191258D01*
X276821Y191260D01*
X276719Y191238D01*
X276617Y191222D01*
X276600Y191212D01*
X276580Y191208D01*
X276491Y191155D01*
X276400Y191106D01*
X276386Y191092D01*
X276369Y191082D01*
X276302Y191003D01*
X276231Y190928D01*
X276222Y190910D01*
X276209Y190895D01*
X276170Y190799D01*
X276127Y190705D01*
X276125Y190685D01*
X276117Y190667D01*
X276099Y190500D01*
X276099Y149860D01*
X276102Y149840D01*
X276100Y149821D01*
X276122Y149719D01*
X276139Y149617D01*
X276148Y149600D01*
X276152Y149580D01*
X276205Y149491D01*
X276254Y149400D01*
X276268Y149386D01*
X276278Y149369D01*
X276357Y149302D01*
X276432Y149231D01*
X276450Y149222D01*
X276465Y149209D01*
X276561Y149170D01*
X276655Y149127D01*
X276675Y149125D01*
X276693Y149117D01*
X276860Y149099D01*
X342900Y149099D01*
X342920Y149102D01*
G37*
G36*
X342920Y103382D02*
X342920Y103382D01*
X342939Y103380D01*
X343041Y103402D01*
X343143Y103419D01*
X343160Y103428D01*
X343180Y103432D01*
X343269Y103485D01*
X343360Y103534D01*
X343374Y103548D01*
X343391Y103558D01*
X343458Y103637D01*
X343530Y103712D01*
X343538Y103730D01*
X343551Y103745D01*
X343590Y103841D01*
X343633Y103935D01*
X343635Y103955D01*
X343643Y103973D01*
X343661Y104140D01*
X343661Y144780D01*
X343658Y144800D01*
X343660Y144819D01*
X343638Y144921D01*
X343622Y145023D01*
X343612Y145040D01*
X343608Y145060D01*
X343555Y145149D01*
X343506Y145240D01*
X343492Y145254D01*
X343482Y145271D01*
X343403Y145338D01*
X343328Y145410D01*
X343310Y145418D01*
X343295Y145431D01*
X343199Y145470D01*
X343105Y145513D01*
X343085Y145515D01*
X343067Y145523D01*
X342900Y145541D01*
X276860Y145541D01*
X276840Y145538D01*
X276821Y145540D01*
X276719Y145518D01*
X276617Y145502D01*
X276600Y145492D01*
X276580Y145488D01*
X276491Y145435D01*
X276400Y145386D01*
X276386Y145372D01*
X276369Y145362D01*
X276302Y145283D01*
X276231Y145208D01*
X276222Y145190D01*
X276209Y145175D01*
X276170Y145079D01*
X276127Y144985D01*
X276125Y144965D01*
X276117Y144947D01*
X276099Y144780D01*
X276099Y104140D01*
X276102Y104120D01*
X276100Y104101D01*
X276122Y103999D01*
X276139Y103897D01*
X276148Y103880D01*
X276152Y103860D01*
X276205Y103771D01*
X276254Y103680D01*
X276268Y103666D01*
X276278Y103649D01*
X276357Y103582D01*
X276432Y103511D01*
X276450Y103502D01*
X276465Y103489D01*
X276561Y103450D01*
X276655Y103407D01*
X276675Y103405D01*
X276693Y103397D01*
X276860Y103379D01*
X342900Y103379D01*
X342920Y103382D01*
G37*
G36*
X342920Y57662D02*
X342920Y57662D01*
X342939Y57660D01*
X343041Y57682D01*
X343143Y57699D01*
X343160Y57708D01*
X343180Y57712D01*
X343269Y57765D01*
X343360Y57814D01*
X343374Y57828D01*
X343391Y57838D01*
X343458Y57917D01*
X343530Y57992D01*
X343538Y58010D01*
X343551Y58025D01*
X343590Y58121D01*
X343633Y58215D01*
X343635Y58235D01*
X343643Y58253D01*
X343661Y58420D01*
X343661Y99060D01*
X343658Y99080D01*
X343660Y99099D01*
X343638Y99201D01*
X343622Y99303D01*
X343612Y99320D01*
X343608Y99340D01*
X343555Y99429D01*
X343506Y99520D01*
X343492Y99534D01*
X343482Y99551D01*
X343403Y99618D01*
X343328Y99690D01*
X343310Y99698D01*
X343295Y99711D01*
X343199Y99750D01*
X343105Y99793D01*
X343085Y99795D01*
X343067Y99803D01*
X342900Y99821D01*
X276860Y99821D01*
X276840Y99818D01*
X276821Y99820D01*
X276719Y99798D01*
X276617Y99782D01*
X276600Y99772D01*
X276580Y99768D01*
X276491Y99715D01*
X276400Y99666D01*
X276386Y99652D01*
X276369Y99642D01*
X276302Y99563D01*
X276231Y99488D01*
X276222Y99470D01*
X276209Y99455D01*
X276170Y99359D01*
X276127Y99265D01*
X276125Y99245D01*
X276117Y99227D01*
X276099Y99060D01*
X276099Y58420D01*
X276102Y58400D01*
X276100Y58381D01*
X276122Y58279D01*
X276139Y58177D01*
X276148Y58160D01*
X276152Y58140D01*
X276205Y58051D01*
X276254Y57960D01*
X276268Y57946D01*
X276278Y57929D01*
X276357Y57862D01*
X276432Y57791D01*
X276450Y57782D01*
X276465Y57769D01*
X276561Y57730D01*
X276655Y57687D01*
X276675Y57685D01*
X276693Y57677D01*
X276860Y57659D01*
X342900Y57659D01*
X342920Y57662D01*
G37*
G36*
X342920Y11942D02*
X342920Y11942D01*
X342939Y11940D01*
X343041Y11962D01*
X343143Y11979D01*
X343160Y11988D01*
X343180Y11992D01*
X343269Y12045D01*
X343360Y12094D01*
X343374Y12108D01*
X343391Y12118D01*
X343458Y12197D01*
X343530Y12272D01*
X343538Y12290D01*
X343551Y12305D01*
X343590Y12401D01*
X343633Y12495D01*
X343635Y12515D01*
X343643Y12533D01*
X343661Y12700D01*
X343661Y53340D01*
X343658Y53360D01*
X343660Y53379D01*
X343638Y53481D01*
X343622Y53583D01*
X343612Y53600D01*
X343608Y53620D01*
X343555Y53709D01*
X343506Y53800D01*
X343492Y53814D01*
X343482Y53831D01*
X343403Y53898D01*
X343328Y53970D01*
X343310Y53978D01*
X343295Y53991D01*
X343199Y54030D01*
X343105Y54073D01*
X343085Y54075D01*
X343067Y54083D01*
X342900Y54101D01*
X276860Y54101D01*
X276840Y54098D01*
X276821Y54100D01*
X276719Y54078D01*
X276617Y54062D01*
X276600Y54052D01*
X276580Y54048D01*
X276491Y53995D01*
X276400Y53946D01*
X276386Y53932D01*
X276369Y53922D01*
X276302Y53843D01*
X276231Y53768D01*
X276222Y53750D01*
X276209Y53735D01*
X276170Y53639D01*
X276127Y53545D01*
X276125Y53525D01*
X276117Y53507D01*
X276099Y53340D01*
X276099Y12700D01*
X276102Y12680D01*
X276100Y12661D01*
X276122Y12559D01*
X276139Y12457D01*
X276148Y12440D01*
X276152Y12420D01*
X276205Y12331D01*
X276254Y12240D01*
X276268Y12226D01*
X276278Y12209D01*
X276357Y12142D01*
X276432Y12071D01*
X276450Y12062D01*
X276465Y12049D01*
X276561Y12010D01*
X276655Y11967D01*
X276675Y11965D01*
X276693Y11957D01*
X276860Y11939D01*
X342900Y11939D01*
X342920Y11942D01*
G37*
D10*
X25400Y576580D02*
X25400Y591820D01*
X50800Y591820D02*
X50800Y576580D01*
X76200Y576580D02*
X76200Y591820D01*
X101600Y591820D02*
X101600Y576580D01*
X127000Y576580D02*
X127000Y591820D01*
X152400Y591820D02*
X152400Y576580D01*
X177800Y576580D02*
X177800Y591820D01*
X203200Y591820D02*
X203200Y576580D01*
X228600Y576580D02*
X228600Y591820D01*
X254000Y591820D02*
X254000Y576580D01*
X279400Y576580D02*
X279400Y591820D01*
X304800Y591820D02*
X304800Y576580D01*
X330200Y576580D02*
X330200Y591820D01*
D11*
X309880Y78740D03*
X309880Y91440D03*
X297180Y91440D03*
X322580Y91440D03*
X322580Y66040D03*
X309880Y66040D03*
X297180Y66040D03*
X284480Y66040D03*
X284480Y91440D03*
X335280Y91440D03*
X335280Y66040D03*
D12*
X203200Y152400D02*
X203200Y584200D01*
X203200Y152400D02*
X276860Y78740D01*
X309880Y78740D01*
D11*
X309880Y33020D03*
X309880Y45720D03*
X297180Y45720D03*
X322580Y45720D03*
X322580Y20320D03*
X309880Y20320D03*
X297180Y20320D03*
X284480Y20320D03*
X284480Y45720D03*
X335280Y45720D03*
X335280Y20320D03*
D12*
X177800Y132080D02*
X177800Y584200D01*
X177800Y132080D02*
X276860Y33020D01*
X309880Y33020D01*
D11*
X309880Y124460D03*
X309880Y137160D03*
X297180Y137160D03*
X322580Y137160D03*
X322580Y111760D03*
X309880Y111760D03*
X297180Y111760D03*
X284480Y111760D03*
X284480Y137160D03*
X335280Y137160D03*
X335280Y111760D03*
D12*
X152400Y198120D02*
X152400Y584200D01*
X152400Y198120D02*
X50800Y96520D01*
D11*
X50800Y96520D03*
X309880Y170180D03*
X309880Y182880D03*
X297180Y182880D03*
X322580Y182880D03*
X322580Y157480D03*
X309880Y157480D03*
X297180Y157480D03*
X284480Y157480D03*
X284480Y182880D03*
X335280Y182880D03*
X335280Y157480D03*
D12*
X228600Y218440D02*
X228600Y584200D01*
X228600Y218440D02*
X276860Y170180D01*
X309880Y170180D01*
D11*
X309880Y215900D03*
X309880Y228600D03*
X297180Y228600D03*
X322580Y228600D03*
X322580Y203200D03*
X309880Y203200D03*
X297180Y203200D03*
X284480Y203200D03*
X284480Y228600D03*
X335280Y228600D03*
X335280Y203200D03*
D12*
X127000Y264160D02*
X127000Y584200D01*
X127000Y264160D02*
X50800Y187960D01*
D11*
X50800Y187960D03*
X309880Y261620D03*
X309880Y274320D03*
X297180Y274320D03*
X322580Y274320D03*
X322580Y248920D03*
X309880Y248920D03*
X297180Y248920D03*
X284480Y248920D03*
X284480Y274320D03*
X335280Y274320D03*
X335280Y248920D03*
D12*
X276860Y261620D02*
X241300Y297180D01*
X276860Y261620D02*
X309880Y261620D01*
X254000Y574040D02*
X254000Y584200D01*
X254000Y574040D02*
X241300Y561340D01*
X241300Y297180D01*
D11*
X309880Y307340D03*
X309880Y320040D03*
X297180Y320040D03*
X322580Y320040D03*
X322580Y294640D03*
X309880Y294640D03*
X297180Y294640D03*
X284480Y294640D03*
X284480Y320040D03*
X335280Y320040D03*
X335280Y294640D03*
D12*
X101600Y330200D02*
X101600Y584200D01*
X101600Y330200D02*
X50800Y279400D01*
D11*
X50800Y279400D03*
X309880Y353060D03*
X309880Y365760D03*
X297180Y365760D03*
X322580Y365760D03*
X322580Y340360D03*
X309880Y340360D03*
X297180Y340360D03*
X284480Y340360D03*
X284480Y365760D03*
X335280Y365760D03*
X335280Y340360D03*
D12*
X309880Y353060D02*
X276860Y353060D01*
X254000Y375920D02*
X254000Y556260D01*
X279400Y581660D01*
X279400Y584200D01*
X254000Y375920D02*
X276860Y353060D01*
D11*
X309880Y398780D03*
X309880Y411480D03*
X297180Y411480D03*
X322580Y411480D03*
X322580Y386080D03*
X309880Y386080D03*
X297180Y386080D03*
X284480Y386080D03*
X284480Y411480D03*
X335280Y411480D03*
X335280Y386080D03*
D12*
X76200Y396240D02*
X76200Y584200D01*
X76200Y396240D02*
X50800Y370840D01*
D11*
X50800Y370840D03*
X309880Y444500D03*
X309880Y457200D03*
X297180Y457200D03*
X322580Y457200D03*
X322580Y431800D03*
X309880Y431800D03*
X297180Y431800D03*
X284480Y431800D03*
X284480Y457200D03*
X335280Y457200D03*
X335280Y431800D03*
D12*
X309880Y444500D02*
X279400Y444500D01*
X266700Y457200D01*
X266700Y556260D01*
X273812Y563372D01*
X286359Y563372D01*
X304800Y581813D02*
X304800Y584200D01*
X304800Y581813D02*
X286359Y563372D01*
D11*
X309880Y490220D03*
X309880Y502920D03*
X297180Y502920D03*
X322580Y502920D03*
X322580Y477520D03*
X309880Y477520D03*
X297180Y477520D03*
X284480Y477520D03*
X284480Y502920D03*
X335280Y502920D03*
X335280Y477520D03*
D12*
X50800Y462280D02*
X50800Y584200D01*
D11*
X50800Y462280D03*
X309880Y535940D03*
X309880Y548640D03*
X297180Y548640D03*
X322580Y548640D03*
X322580Y523240D03*
X309880Y523240D03*
X297180Y523240D03*
X284480Y523240D03*
X284480Y548640D03*
X335280Y548640D03*
X335280Y523240D03*
M02*
