G04 EAGLE Gerber RS-274X export*
G75*
%MOMM*%
%FSLAX34Y34*%
%LPD*%
%INBottom Copper*%
%IPPOS*%
%AMOC8*
5,1,8,0,0,1.08239X$1,22.5*%
G01*
%ADD10C,1.524000*%
%ADD11C,0.756400*%
%ADD12C,0.304800*%

G36*
X342920Y514862D02*
X342920Y514862D01*
X342939Y514860D01*
X343041Y514882D01*
X343143Y514899D01*
X343160Y514908D01*
X343180Y514912D01*
X343269Y514965D01*
X343360Y515014D01*
X343374Y515028D01*
X343391Y515038D01*
X343458Y515117D01*
X343530Y515192D01*
X343538Y515210D01*
X343551Y515225D01*
X343590Y515321D01*
X343633Y515415D01*
X343635Y515435D01*
X343643Y515453D01*
X343661Y515620D01*
X343661Y556260D01*
X343658Y556280D01*
X343660Y556299D01*
X343638Y556401D01*
X343622Y556503D01*
X343612Y556520D01*
X343608Y556540D01*
X343555Y556629D01*
X343506Y556720D01*
X343492Y556734D01*
X343482Y556751D01*
X343403Y556818D01*
X343328Y556890D01*
X343310Y556898D01*
X343295Y556911D01*
X343199Y556950D01*
X343105Y556993D01*
X343085Y556995D01*
X343067Y557003D01*
X342900Y557021D01*
X279400Y557021D01*
X279380Y557018D01*
X279361Y557020D01*
X279259Y556998D01*
X279157Y556982D01*
X279140Y556972D01*
X279120Y556968D01*
X279031Y556915D01*
X278940Y556866D01*
X278926Y556852D01*
X278909Y556842D01*
X278842Y556763D01*
X278771Y556688D01*
X278762Y556670D01*
X278749Y556655D01*
X278710Y556559D01*
X278667Y556465D01*
X278665Y556445D01*
X278657Y556427D01*
X278639Y556260D01*
X278639Y515620D01*
X278642Y515600D01*
X278640Y515581D01*
X278662Y515479D01*
X278679Y515377D01*
X278688Y515360D01*
X278692Y515340D01*
X278745Y515251D01*
X278794Y515160D01*
X278808Y515146D01*
X278818Y515129D01*
X278897Y515062D01*
X278972Y514991D01*
X278990Y514982D01*
X279005Y514969D01*
X279101Y514930D01*
X279195Y514887D01*
X279215Y514885D01*
X279233Y514877D01*
X279400Y514859D01*
X342900Y514859D01*
X342920Y514862D01*
G37*
G36*
X342920Y469142D02*
X342920Y469142D01*
X342939Y469140D01*
X343041Y469162D01*
X343143Y469179D01*
X343160Y469188D01*
X343180Y469192D01*
X343269Y469245D01*
X343360Y469294D01*
X343374Y469308D01*
X343391Y469318D01*
X343458Y469397D01*
X343530Y469472D01*
X343538Y469490D01*
X343551Y469505D01*
X343590Y469601D01*
X343633Y469695D01*
X343635Y469715D01*
X343643Y469733D01*
X343661Y469900D01*
X343661Y510540D01*
X343658Y510560D01*
X343660Y510579D01*
X343638Y510681D01*
X343622Y510783D01*
X343612Y510800D01*
X343608Y510820D01*
X343555Y510909D01*
X343506Y511000D01*
X343492Y511014D01*
X343482Y511031D01*
X343403Y511098D01*
X343328Y511170D01*
X343310Y511178D01*
X343295Y511191D01*
X343199Y511230D01*
X343105Y511273D01*
X343085Y511275D01*
X343067Y511283D01*
X342900Y511301D01*
X279400Y511301D01*
X279380Y511298D01*
X279361Y511300D01*
X279259Y511278D01*
X279157Y511262D01*
X279140Y511252D01*
X279120Y511248D01*
X279031Y511195D01*
X278940Y511146D01*
X278926Y511132D01*
X278909Y511122D01*
X278842Y511043D01*
X278771Y510968D01*
X278762Y510950D01*
X278749Y510935D01*
X278710Y510839D01*
X278667Y510745D01*
X278665Y510725D01*
X278657Y510707D01*
X278639Y510540D01*
X278639Y469900D01*
X278642Y469880D01*
X278640Y469861D01*
X278662Y469759D01*
X278679Y469657D01*
X278688Y469640D01*
X278692Y469620D01*
X278745Y469531D01*
X278794Y469440D01*
X278808Y469426D01*
X278818Y469409D01*
X278897Y469342D01*
X278972Y469271D01*
X278990Y469262D01*
X279005Y469249D01*
X279101Y469210D01*
X279195Y469167D01*
X279215Y469165D01*
X279233Y469157D01*
X279400Y469139D01*
X342900Y469139D01*
X342920Y469142D01*
G37*
G36*
X342920Y423422D02*
X342920Y423422D01*
X342939Y423420D01*
X343041Y423442D01*
X343143Y423459D01*
X343160Y423468D01*
X343180Y423472D01*
X343269Y423525D01*
X343360Y423574D01*
X343374Y423588D01*
X343391Y423598D01*
X343458Y423677D01*
X343530Y423752D01*
X343538Y423770D01*
X343551Y423785D01*
X343590Y423881D01*
X343633Y423975D01*
X343635Y423995D01*
X343643Y424013D01*
X343661Y424180D01*
X343661Y464820D01*
X343658Y464840D01*
X343660Y464859D01*
X343638Y464961D01*
X343622Y465063D01*
X343612Y465080D01*
X343608Y465100D01*
X343555Y465189D01*
X343506Y465280D01*
X343492Y465294D01*
X343482Y465311D01*
X343403Y465378D01*
X343328Y465450D01*
X343310Y465458D01*
X343295Y465471D01*
X343199Y465510D01*
X343105Y465553D01*
X343085Y465555D01*
X343067Y465563D01*
X342900Y465581D01*
X279400Y465581D01*
X279380Y465578D01*
X279361Y465580D01*
X279259Y465558D01*
X279157Y465542D01*
X279140Y465532D01*
X279120Y465528D01*
X279031Y465475D01*
X278940Y465426D01*
X278926Y465412D01*
X278909Y465402D01*
X278842Y465323D01*
X278771Y465248D01*
X278762Y465230D01*
X278749Y465215D01*
X278710Y465119D01*
X278667Y465025D01*
X278665Y465005D01*
X278657Y464987D01*
X278639Y464820D01*
X278639Y424180D01*
X278642Y424160D01*
X278640Y424141D01*
X278662Y424039D01*
X278679Y423937D01*
X278688Y423920D01*
X278692Y423900D01*
X278745Y423811D01*
X278794Y423720D01*
X278808Y423706D01*
X278818Y423689D01*
X278897Y423622D01*
X278972Y423551D01*
X278990Y423542D01*
X279005Y423529D01*
X279101Y423490D01*
X279195Y423447D01*
X279215Y423445D01*
X279233Y423437D01*
X279400Y423419D01*
X342900Y423419D01*
X342920Y423422D01*
G37*
G36*
X342920Y377702D02*
X342920Y377702D01*
X342939Y377700D01*
X343041Y377722D01*
X343143Y377739D01*
X343160Y377748D01*
X343180Y377752D01*
X343269Y377805D01*
X343360Y377854D01*
X343374Y377868D01*
X343391Y377878D01*
X343458Y377957D01*
X343530Y378032D01*
X343538Y378050D01*
X343551Y378065D01*
X343590Y378161D01*
X343633Y378255D01*
X343635Y378275D01*
X343643Y378293D01*
X343661Y378460D01*
X343661Y419100D01*
X343658Y419120D01*
X343660Y419139D01*
X343638Y419241D01*
X343622Y419343D01*
X343612Y419360D01*
X343608Y419380D01*
X343555Y419469D01*
X343506Y419560D01*
X343492Y419574D01*
X343482Y419591D01*
X343403Y419658D01*
X343328Y419730D01*
X343310Y419738D01*
X343295Y419751D01*
X343199Y419790D01*
X343105Y419833D01*
X343085Y419835D01*
X343067Y419843D01*
X342900Y419861D01*
X279400Y419861D01*
X279380Y419858D01*
X279361Y419860D01*
X279259Y419838D01*
X279157Y419822D01*
X279140Y419812D01*
X279120Y419808D01*
X279031Y419755D01*
X278940Y419706D01*
X278926Y419692D01*
X278909Y419682D01*
X278842Y419603D01*
X278771Y419528D01*
X278762Y419510D01*
X278749Y419495D01*
X278710Y419399D01*
X278667Y419305D01*
X278665Y419285D01*
X278657Y419267D01*
X278639Y419100D01*
X278639Y378460D01*
X278642Y378440D01*
X278640Y378421D01*
X278662Y378319D01*
X278679Y378217D01*
X278688Y378200D01*
X278692Y378180D01*
X278745Y378091D01*
X278794Y378000D01*
X278808Y377986D01*
X278818Y377969D01*
X278897Y377902D01*
X278972Y377831D01*
X278990Y377822D01*
X279005Y377809D01*
X279101Y377770D01*
X279195Y377727D01*
X279215Y377725D01*
X279233Y377717D01*
X279400Y377699D01*
X342900Y377699D01*
X342920Y377702D01*
G37*
G36*
X342920Y331982D02*
X342920Y331982D01*
X342939Y331980D01*
X343041Y332002D01*
X343143Y332019D01*
X343160Y332028D01*
X343180Y332032D01*
X343269Y332085D01*
X343360Y332134D01*
X343374Y332148D01*
X343391Y332158D01*
X343458Y332237D01*
X343530Y332312D01*
X343538Y332330D01*
X343551Y332345D01*
X343590Y332441D01*
X343633Y332535D01*
X343635Y332555D01*
X343643Y332573D01*
X343661Y332740D01*
X343661Y373380D01*
X343658Y373400D01*
X343660Y373419D01*
X343638Y373521D01*
X343622Y373623D01*
X343612Y373640D01*
X343608Y373660D01*
X343555Y373749D01*
X343506Y373840D01*
X343492Y373854D01*
X343482Y373871D01*
X343403Y373938D01*
X343328Y374010D01*
X343310Y374018D01*
X343295Y374031D01*
X343199Y374070D01*
X343105Y374113D01*
X343085Y374115D01*
X343067Y374123D01*
X342900Y374141D01*
X279400Y374141D01*
X279380Y374138D01*
X279361Y374140D01*
X279259Y374118D01*
X279157Y374102D01*
X279140Y374092D01*
X279120Y374088D01*
X279031Y374035D01*
X278940Y373986D01*
X278926Y373972D01*
X278909Y373962D01*
X278842Y373883D01*
X278771Y373808D01*
X278762Y373790D01*
X278749Y373775D01*
X278710Y373679D01*
X278667Y373585D01*
X278665Y373565D01*
X278657Y373547D01*
X278639Y373380D01*
X278639Y332740D01*
X278642Y332720D01*
X278640Y332701D01*
X278662Y332599D01*
X278679Y332497D01*
X278688Y332480D01*
X278692Y332460D01*
X278745Y332371D01*
X278794Y332280D01*
X278808Y332266D01*
X278818Y332249D01*
X278897Y332182D01*
X278972Y332111D01*
X278990Y332102D01*
X279005Y332089D01*
X279101Y332050D01*
X279195Y332007D01*
X279215Y332005D01*
X279233Y331997D01*
X279400Y331979D01*
X342900Y331979D01*
X342920Y331982D01*
G37*
G36*
X342920Y286262D02*
X342920Y286262D01*
X342939Y286260D01*
X343041Y286282D01*
X343143Y286299D01*
X343160Y286308D01*
X343180Y286312D01*
X343269Y286365D01*
X343360Y286414D01*
X343374Y286428D01*
X343391Y286438D01*
X343458Y286517D01*
X343530Y286592D01*
X343538Y286610D01*
X343551Y286625D01*
X343590Y286721D01*
X343633Y286815D01*
X343635Y286835D01*
X343643Y286853D01*
X343661Y287020D01*
X343661Y327660D01*
X343658Y327680D01*
X343660Y327699D01*
X343638Y327801D01*
X343622Y327903D01*
X343612Y327920D01*
X343608Y327940D01*
X343555Y328029D01*
X343506Y328120D01*
X343492Y328134D01*
X343482Y328151D01*
X343403Y328218D01*
X343328Y328290D01*
X343310Y328298D01*
X343295Y328311D01*
X343199Y328350D01*
X343105Y328393D01*
X343085Y328395D01*
X343067Y328403D01*
X342900Y328421D01*
X279400Y328421D01*
X279380Y328418D01*
X279361Y328420D01*
X279259Y328398D01*
X279157Y328382D01*
X279140Y328372D01*
X279120Y328368D01*
X279031Y328315D01*
X278940Y328266D01*
X278926Y328252D01*
X278909Y328242D01*
X278842Y328163D01*
X278771Y328088D01*
X278762Y328070D01*
X278749Y328055D01*
X278710Y327959D01*
X278667Y327865D01*
X278665Y327845D01*
X278657Y327827D01*
X278639Y327660D01*
X278639Y287020D01*
X278642Y287000D01*
X278640Y286981D01*
X278662Y286879D01*
X278679Y286777D01*
X278688Y286760D01*
X278692Y286740D01*
X278745Y286651D01*
X278794Y286560D01*
X278808Y286546D01*
X278818Y286529D01*
X278897Y286462D01*
X278972Y286391D01*
X278990Y286382D01*
X279005Y286369D01*
X279101Y286330D01*
X279195Y286287D01*
X279215Y286285D01*
X279233Y286277D01*
X279400Y286259D01*
X342900Y286259D01*
X342920Y286262D01*
G37*
G36*
X342920Y240542D02*
X342920Y240542D01*
X342939Y240540D01*
X343041Y240562D01*
X343143Y240579D01*
X343160Y240588D01*
X343180Y240592D01*
X343269Y240645D01*
X343360Y240694D01*
X343374Y240708D01*
X343391Y240718D01*
X343458Y240797D01*
X343530Y240872D01*
X343538Y240890D01*
X343551Y240905D01*
X343590Y241001D01*
X343633Y241095D01*
X343635Y241115D01*
X343643Y241133D01*
X343661Y241300D01*
X343661Y281940D01*
X343658Y281960D01*
X343660Y281979D01*
X343638Y282081D01*
X343622Y282183D01*
X343612Y282200D01*
X343608Y282220D01*
X343555Y282309D01*
X343506Y282400D01*
X343492Y282414D01*
X343482Y282431D01*
X343403Y282498D01*
X343328Y282570D01*
X343310Y282578D01*
X343295Y282591D01*
X343199Y282630D01*
X343105Y282673D01*
X343085Y282675D01*
X343067Y282683D01*
X342900Y282701D01*
X279400Y282701D01*
X279380Y282698D01*
X279361Y282700D01*
X279259Y282678D01*
X279157Y282662D01*
X279140Y282652D01*
X279120Y282648D01*
X279031Y282595D01*
X278940Y282546D01*
X278926Y282532D01*
X278909Y282522D01*
X278842Y282443D01*
X278771Y282368D01*
X278762Y282350D01*
X278749Y282335D01*
X278710Y282239D01*
X278667Y282145D01*
X278665Y282125D01*
X278657Y282107D01*
X278639Y281940D01*
X278639Y241300D01*
X278642Y241280D01*
X278640Y241261D01*
X278662Y241159D01*
X278679Y241057D01*
X278688Y241040D01*
X278692Y241020D01*
X278745Y240931D01*
X278794Y240840D01*
X278808Y240826D01*
X278818Y240809D01*
X278897Y240742D01*
X278972Y240671D01*
X278990Y240662D01*
X279005Y240649D01*
X279101Y240610D01*
X279195Y240567D01*
X279215Y240565D01*
X279233Y240557D01*
X279400Y240539D01*
X342900Y240539D01*
X342920Y240542D01*
G37*
G36*
X342920Y194822D02*
X342920Y194822D01*
X342939Y194820D01*
X343041Y194842D01*
X343143Y194859D01*
X343160Y194868D01*
X343180Y194872D01*
X343269Y194925D01*
X343360Y194974D01*
X343374Y194988D01*
X343391Y194998D01*
X343458Y195077D01*
X343530Y195152D01*
X343538Y195170D01*
X343551Y195185D01*
X343590Y195281D01*
X343633Y195375D01*
X343635Y195395D01*
X343643Y195413D01*
X343661Y195580D01*
X343661Y236220D01*
X343658Y236240D01*
X343660Y236259D01*
X343638Y236361D01*
X343622Y236463D01*
X343612Y236480D01*
X343608Y236500D01*
X343555Y236589D01*
X343506Y236680D01*
X343492Y236694D01*
X343482Y236711D01*
X343403Y236778D01*
X343328Y236850D01*
X343310Y236858D01*
X343295Y236871D01*
X343199Y236910D01*
X343105Y236953D01*
X343085Y236955D01*
X343067Y236963D01*
X342900Y236981D01*
X279400Y236981D01*
X279380Y236978D01*
X279361Y236980D01*
X279259Y236958D01*
X279157Y236942D01*
X279140Y236932D01*
X279120Y236928D01*
X279031Y236875D01*
X278940Y236826D01*
X278926Y236812D01*
X278909Y236802D01*
X278842Y236723D01*
X278771Y236648D01*
X278762Y236630D01*
X278749Y236615D01*
X278710Y236519D01*
X278667Y236425D01*
X278665Y236405D01*
X278657Y236387D01*
X278639Y236220D01*
X278639Y195580D01*
X278642Y195560D01*
X278640Y195541D01*
X278662Y195439D01*
X278679Y195337D01*
X278688Y195320D01*
X278692Y195300D01*
X278745Y195211D01*
X278794Y195120D01*
X278808Y195106D01*
X278818Y195089D01*
X278897Y195022D01*
X278972Y194951D01*
X278990Y194942D01*
X279005Y194929D01*
X279101Y194890D01*
X279195Y194847D01*
X279215Y194845D01*
X279233Y194837D01*
X279400Y194819D01*
X342900Y194819D01*
X342920Y194822D01*
G37*
G36*
X342920Y149102D02*
X342920Y149102D01*
X342939Y149100D01*
X343041Y149122D01*
X343143Y149139D01*
X343160Y149148D01*
X343180Y149152D01*
X343269Y149205D01*
X343360Y149254D01*
X343374Y149268D01*
X343391Y149278D01*
X343458Y149357D01*
X343530Y149432D01*
X343538Y149450D01*
X343551Y149465D01*
X343590Y149561D01*
X343633Y149655D01*
X343635Y149675D01*
X343643Y149693D01*
X343661Y149860D01*
X343661Y190500D01*
X343658Y190520D01*
X343660Y190539D01*
X343638Y190641D01*
X343622Y190743D01*
X343612Y190760D01*
X343608Y190780D01*
X343555Y190869D01*
X343506Y190960D01*
X343492Y190974D01*
X343482Y190991D01*
X343403Y191058D01*
X343328Y191130D01*
X343310Y191138D01*
X343295Y191151D01*
X343199Y191190D01*
X343105Y191233D01*
X343085Y191235D01*
X343067Y191243D01*
X342900Y191261D01*
X279400Y191261D01*
X279380Y191258D01*
X279361Y191260D01*
X279259Y191238D01*
X279157Y191222D01*
X279140Y191212D01*
X279120Y191208D01*
X279031Y191155D01*
X278940Y191106D01*
X278926Y191092D01*
X278909Y191082D01*
X278842Y191003D01*
X278771Y190928D01*
X278762Y190910D01*
X278749Y190895D01*
X278710Y190799D01*
X278667Y190705D01*
X278665Y190685D01*
X278657Y190667D01*
X278639Y190500D01*
X278639Y149860D01*
X278642Y149840D01*
X278640Y149821D01*
X278662Y149719D01*
X278679Y149617D01*
X278688Y149600D01*
X278692Y149580D01*
X278745Y149491D01*
X278794Y149400D01*
X278808Y149386D01*
X278818Y149369D01*
X278897Y149302D01*
X278972Y149231D01*
X278990Y149222D01*
X279005Y149209D01*
X279101Y149170D01*
X279195Y149127D01*
X279215Y149125D01*
X279233Y149117D01*
X279400Y149099D01*
X342900Y149099D01*
X342920Y149102D01*
G37*
G36*
X342920Y103382D02*
X342920Y103382D01*
X342939Y103380D01*
X343041Y103402D01*
X343143Y103419D01*
X343160Y103428D01*
X343180Y103432D01*
X343269Y103485D01*
X343360Y103534D01*
X343374Y103548D01*
X343391Y103558D01*
X343458Y103637D01*
X343530Y103712D01*
X343538Y103730D01*
X343551Y103745D01*
X343590Y103841D01*
X343633Y103935D01*
X343635Y103955D01*
X343643Y103973D01*
X343661Y104140D01*
X343661Y144780D01*
X343658Y144800D01*
X343660Y144819D01*
X343638Y144921D01*
X343622Y145023D01*
X343612Y145040D01*
X343608Y145060D01*
X343555Y145149D01*
X343506Y145240D01*
X343492Y145254D01*
X343482Y145271D01*
X343403Y145338D01*
X343328Y145410D01*
X343310Y145418D01*
X343295Y145431D01*
X343199Y145470D01*
X343105Y145513D01*
X343085Y145515D01*
X343067Y145523D01*
X342900Y145541D01*
X279400Y145541D01*
X279380Y145538D01*
X279361Y145540D01*
X279259Y145518D01*
X279157Y145502D01*
X279140Y145492D01*
X279120Y145488D01*
X279031Y145435D01*
X278940Y145386D01*
X278926Y145372D01*
X278909Y145362D01*
X278842Y145283D01*
X278771Y145208D01*
X278762Y145190D01*
X278749Y145175D01*
X278710Y145079D01*
X278667Y144985D01*
X278665Y144965D01*
X278657Y144947D01*
X278639Y144780D01*
X278639Y104140D01*
X278642Y104120D01*
X278640Y104101D01*
X278662Y103999D01*
X278679Y103897D01*
X278688Y103880D01*
X278692Y103860D01*
X278745Y103771D01*
X278794Y103680D01*
X278808Y103666D01*
X278818Y103649D01*
X278897Y103582D01*
X278972Y103511D01*
X278990Y103502D01*
X279005Y103489D01*
X279101Y103450D01*
X279195Y103407D01*
X279215Y103405D01*
X279233Y103397D01*
X279400Y103379D01*
X342900Y103379D01*
X342920Y103382D01*
G37*
G36*
X342920Y57662D02*
X342920Y57662D01*
X342939Y57660D01*
X343041Y57682D01*
X343143Y57699D01*
X343160Y57708D01*
X343180Y57712D01*
X343269Y57765D01*
X343360Y57814D01*
X343374Y57828D01*
X343391Y57838D01*
X343458Y57917D01*
X343530Y57992D01*
X343538Y58010D01*
X343551Y58025D01*
X343590Y58121D01*
X343633Y58215D01*
X343635Y58235D01*
X343643Y58253D01*
X343661Y58420D01*
X343661Y99060D01*
X343658Y99080D01*
X343660Y99099D01*
X343638Y99201D01*
X343622Y99303D01*
X343612Y99320D01*
X343608Y99340D01*
X343555Y99429D01*
X343506Y99520D01*
X343492Y99534D01*
X343482Y99551D01*
X343403Y99618D01*
X343328Y99690D01*
X343310Y99698D01*
X343295Y99711D01*
X343199Y99750D01*
X343105Y99793D01*
X343085Y99795D01*
X343067Y99803D01*
X342900Y99821D01*
X279400Y99821D01*
X279380Y99818D01*
X279361Y99820D01*
X279259Y99798D01*
X279157Y99782D01*
X279140Y99772D01*
X279120Y99768D01*
X279031Y99715D01*
X278940Y99666D01*
X278926Y99652D01*
X278909Y99642D01*
X278842Y99563D01*
X278771Y99488D01*
X278762Y99470D01*
X278749Y99455D01*
X278710Y99359D01*
X278667Y99265D01*
X278665Y99245D01*
X278657Y99227D01*
X278639Y99060D01*
X278639Y58420D01*
X278642Y58400D01*
X278640Y58381D01*
X278662Y58279D01*
X278679Y58177D01*
X278688Y58160D01*
X278692Y58140D01*
X278745Y58051D01*
X278794Y57960D01*
X278808Y57946D01*
X278818Y57929D01*
X278897Y57862D01*
X278972Y57791D01*
X278990Y57782D01*
X279005Y57769D01*
X279101Y57730D01*
X279195Y57687D01*
X279215Y57685D01*
X279233Y57677D01*
X279400Y57659D01*
X342900Y57659D01*
X342920Y57662D01*
G37*
G36*
X342920Y11942D02*
X342920Y11942D01*
X342939Y11940D01*
X343041Y11962D01*
X343143Y11979D01*
X343160Y11988D01*
X343180Y11992D01*
X343269Y12045D01*
X343360Y12094D01*
X343374Y12108D01*
X343391Y12118D01*
X343458Y12197D01*
X343530Y12272D01*
X343538Y12290D01*
X343551Y12305D01*
X343590Y12401D01*
X343633Y12495D01*
X343635Y12515D01*
X343643Y12533D01*
X343661Y12700D01*
X343661Y53340D01*
X343658Y53360D01*
X343660Y53379D01*
X343638Y53481D01*
X343622Y53583D01*
X343612Y53600D01*
X343608Y53620D01*
X343555Y53709D01*
X343506Y53800D01*
X343492Y53814D01*
X343482Y53831D01*
X343403Y53898D01*
X343328Y53970D01*
X343310Y53978D01*
X343295Y53991D01*
X343199Y54030D01*
X343105Y54073D01*
X343085Y54075D01*
X343067Y54083D01*
X342900Y54101D01*
X279400Y54101D01*
X279380Y54098D01*
X279361Y54100D01*
X279259Y54078D01*
X279157Y54062D01*
X279140Y54052D01*
X279120Y54048D01*
X279031Y53995D01*
X278940Y53946D01*
X278926Y53932D01*
X278909Y53922D01*
X278842Y53843D01*
X278771Y53768D01*
X278762Y53750D01*
X278749Y53735D01*
X278710Y53639D01*
X278667Y53545D01*
X278665Y53525D01*
X278657Y53507D01*
X278639Y53340D01*
X278639Y12700D01*
X278642Y12680D01*
X278640Y12661D01*
X278662Y12559D01*
X278679Y12457D01*
X278688Y12440D01*
X278692Y12420D01*
X278745Y12331D01*
X278794Y12240D01*
X278808Y12226D01*
X278818Y12209D01*
X278897Y12142D01*
X278972Y12071D01*
X278990Y12062D01*
X279005Y12049D01*
X279101Y12010D01*
X279195Y11967D01*
X279215Y11965D01*
X279233Y11957D01*
X279400Y11939D01*
X342900Y11939D01*
X342920Y11942D01*
G37*
D10*
X25400Y589280D02*
X25400Y604520D01*
X50800Y604520D02*
X50800Y589280D01*
X76200Y589280D02*
X76200Y604520D01*
X101600Y604520D02*
X101600Y589280D01*
X127000Y589280D02*
X127000Y604520D01*
X152400Y604520D02*
X152400Y589280D01*
X177800Y589280D02*
X177800Y604520D01*
X203200Y604520D02*
X203200Y589280D01*
X228600Y589280D02*
X228600Y604520D01*
X254000Y604520D02*
X254000Y589280D01*
X279400Y589280D02*
X279400Y604520D01*
X304800Y604520D02*
X304800Y589280D01*
X330200Y589280D02*
X330200Y604520D01*
D11*
X302260Y78740D03*
X302260Y91440D03*
X289560Y91440D03*
X314960Y91440D03*
X314960Y66040D03*
X302260Y66040D03*
X289560Y66040D03*
X314960Y78740D03*
X289560Y78740D03*
D12*
X203200Y152400D02*
X203200Y596900D01*
X203200Y152400D02*
X276860Y78740D01*
X302260Y78740D01*
D11*
X302260Y33020D03*
X302260Y45720D03*
X289560Y45720D03*
X314960Y45720D03*
X314960Y20320D03*
X302260Y20320D03*
X289560Y20320D03*
X314960Y33020D03*
X289560Y33020D03*
D12*
X177800Y132080D02*
X177800Y596900D01*
X177800Y132080D02*
X276860Y33020D01*
X302260Y33020D01*
D11*
X302260Y124460D03*
X302260Y137160D03*
X289560Y137160D03*
X314960Y137160D03*
X314960Y111760D03*
X302260Y111760D03*
X289560Y111760D03*
X314960Y124460D03*
X289560Y124460D03*
D12*
X152400Y198120D02*
X152400Y596900D01*
X152400Y198120D02*
X50800Y96520D01*
D11*
X50800Y96520D03*
X302260Y170180D03*
X302260Y182880D03*
X289560Y182880D03*
X314960Y182880D03*
X314960Y157480D03*
X302260Y157480D03*
X289560Y157480D03*
X314960Y170180D03*
X289560Y170180D03*
D12*
X228600Y218440D02*
X228600Y596900D01*
X228600Y218440D02*
X276860Y170180D01*
X302260Y170180D01*
D11*
X302260Y215900D03*
X302260Y228600D03*
X289560Y228600D03*
X314960Y228600D03*
X314960Y203200D03*
X302260Y203200D03*
X289560Y203200D03*
X314960Y215900D03*
X289560Y215900D03*
D12*
X127000Y264160D02*
X127000Y596900D01*
X127000Y264160D02*
X50800Y187960D01*
D11*
X50800Y187960D03*
X302260Y261620D03*
X302260Y274320D03*
X289560Y274320D03*
X314960Y274320D03*
X314960Y248920D03*
X302260Y248920D03*
X289560Y248920D03*
X314960Y261620D03*
X289560Y261620D03*
D12*
X276860Y261620D02*
X241300Y297180D01*
X276860Y261620D02*
X302260Y261620D01*
X254000Y581660D02*
X254000Y596900D01*
X254000Y581660D02*
X241300Y568960D01*
X241300Y297180D01*
D11*
X302260Y307340D03*
X302260Y320040D03*
X289560Y320040D03*
X314960Y320040D03*
X314960Y294640D03*
X302260Y294640D03*
X289560Y294640D03*
X314960Y307340D03*
X289560Y307340D03*
D12*
X101600Y330200D02*
X101600Y596900D01*
X101600Y330200D02*
X50800Y279400D01*
D11*
X50800Y279400D03*
X302260Y353060D03*
X302260Y365760D03*
X289560Y365760D03*
X314960Y365760D03*
X314960Y340360D03*
X302260Y340360D03*
X289560Y340360D03*
X314960Y353060D03*
X289560Y353060D03*
D12*
X302260Y353060D02*
X276860Y353060D01*
X254000Y375920D02*
X254000Y563880D01*
X279400Y589280D01*
X279400Y596900D01*
X254000Y375920D02*
X276860Y353060D01*
D11*
X302260Y398780D03*
X302260Y411480D03*
X289560Y411480D03*
X314960Y411480D03*
X314960Y386080D03*
X302260Y386080D03*
X289560Y386080D03*
X314960Y398780D03*
X289560Y398780D03*
D12*
X76200Y396240D02*
X76200Y596900D01*
X76200Y396240D02*
X50800Y370840D01*
D11*
X50800Y370840D03*
X302260Y444500D03*
X302260Y457200D03*
X289560Y457200D03*
X314960Y457200D03*
X314960Y431800D03*
X302260Y431800D03*
X289560Y431800D03*
X314960Y444500D03*
X289560Y444500D03*
D12*
X279400Y444500D02*
X302260Y444500D01*
X279400Y444500D02*
X266700Y457200D01*
X266700Y558800D01*
X279400Y571500D01*
X292100Y571500D01*
X304800Y584200D01*
X304800Y596900D01*
D11*
X302260Y490220D03*
X302260Y502920D03*
X289560Y502920D03*
X314960Y502920D03*
X314960Y477520D03*
X302260Y477520D03*
X289560Y477520D03*
X314960Y490220D03*
X289560Y490220D03*
D12*
X50800Y462280D02*
X50800Y596900D01*
D11*
X50800Y462280D03*
X302260Y535940D03*
X302260Y548640D03*
X289560Y548640D03*
X314960Y548640D03*
X314960Y523240D03*
X302260Y523240D03*
X289560Y523240D03*
X314960Y535940D03*
X289560Y535940D03*
D12*
X330200Y584200D02*
X330200Y596900D01*
X302260Y556260D02*
X302260Y535940D01*
X302260Y556260D02*
X330200Y584200D01*
M02*
