G04 EAGLE Gerber RS-274X export*
G75*
%MOMM*%
%FSLAX34Y34*%
%LPD*%
%INBottom Copper*%
%IPPOS*%
%AMOC8*
5,1,8,0,0,1.08239X$1,22.5*%
G01*
%ADD10C,1.524000*%
%ADD11C,0.756400*%
%ADD12C,0.609600*%

G36*
X344698Y565662D02*
X344698Y565662D01*
X344717Y565660D01*
X344819Y565682D01*
X344921Y565699D01*
X344938Y565708D01*
X344958Y565712D01*
X345047Y565765D01*
X345138Y565814D01*
X345152Y565828D01*
X345169Y565838D01*
X345236Y565917D01*
X345308Y565992D01*
X345316Y566010D01*
X345329Y566025D01*
X345368Y566121D01*
X345411Y566215D01*
X345413Y566235D01*
X345421Y566253D01*
X345439Y566420D01*
X345439Y612140D01*
X345436Y612160D01*
X345438Y612179D01*
X345416Y612281D01*
X345400Y612383D01*
X345390Y612400D01*
X345386Y612420D01*
X345333Y612509D01*
X345284Y612600D01*
X345270Y612614D01*
X345260Y612631D01*
X345181Y612698D01*
X345106Y612770D01*
X345088Y612778D01*
X345073Y612791D01*
X344977Y612830D01*
X344883Y612873D01*
X344863Y612875D01*
X344845Y612883D01*
X344678Y612901D01*
X284480Y612901D01*
X284460Y612898D01*
X284441Y612900D01*
X284339Y612878D01*
X284237Y612862D01*
X284220Y612852D01*
X284200Y612848D01*
X284111Y612795D01*
X284020Y612746D01*
X284006Y612732D01*
X283989Y612722D01*
X283922Y612643D01*
X283851Y612568D01*
X283842Y612550D01*
X283829Y612535D01*
X283790Y612439D01*
X283747Y612345D01*
X283745Y612325D01*
X283737Y612307D01*
X283719Y612140D01*
X283719Y566420D01*
X283722Y566400D01*
X283720Y566381D01*
X283742Y566279D01*
X283759Y566177D01*
X283768Y566160D01*
X283772Y566140D01*
X283825Y566051D01*
X283874Y565960D01*
X283888Y565946D01*
X283898Y565929D01*
X283977Y565862D01*
X284052Y565791D01*
X284070Y565782D01*
X284085Y565769D01*
X284181Y565730D01*
X284275Y565687D01*
X284295Y565685D01*
X284313Y565677D01*
X284480Y565659D01*
X344678Y565659D01*
X344698Y565662D01*
G37*
G36*
X344698Y514862D02*
X344698Y514862D01*
X344717Y514860D01*
X344819Y514882D01*
X344921Y514899D01*
X344938Y514908D01*
X344958Y514912D01*
X345047Y514965D01*
X345138Y515014D01*
X345152Y515028D01*
X345169Y515038D01*
X345236Y515117D01*
X345308Y515192D01*
X345316Y515210D01*
X345329Y515225D01*
X345368Y515321D01*
X345411Y515415D01*
X345413Y515435D01*
X345421Y515453D01*
X345439Y515620D01*
X345439Y561340D01*
X345436Y561360D01*
X345438Y561379D01*
X345416Y561481D01*
X345400Y561583D01*
X345390Y561600D01*
X345386Y561620D01*
X345333Y561709D01*
X345284Y561800D01*
X345270Y561814D01*
X345260Y561831D01*
X345181Y561898D01*
X345106Y561970D01*
X345088Y561978D01*
X345073Y561991D01*
X344977Y562030D01*
X344883Y562073D01*
X344863Y562075D01*
X344845Y562083D01*
X344678Y562101D01*
X284480Y562101D01*
X284460Y562098D01*
X284441Y562100D01*
X284339Y562078D01*
X284237Y562062D01*
X284220Y562052D01*
X284200Y562048D01*
X284111Y561995D01*
X284020Y561946D01*
X284006Y561932D01*
X283989Y561922D01*
X283922Y561843D01*
X283851Y561768D01*
X283842Y561750D01*
X283829Y561735D01*
X283790Y561639D01*
X283747Y561545D01*
X283745Y561525D01*
X283737Y561507D01*
X283719Y561340D01*
X283719Y515620D01*
X283722Y515600D01*
X283720Y515581D01*
X283742Y515479D01*
X283759Y515377D01*
X283768Y515360D01*
X283772Y515340D01*
X283825Y515251D01*
X283874Y515160D01*
X283888Y515146D01*
X283898Y515129D01*
X283977Y515062D01*
X284052Y514991D01*
X284070Y514982D01*
X284085Y514969D01*
X284181Y514930D01*
X284275Y514887D01*
X284295Y514885D01*
X284313Y514877D01*
X284480Y514859D01*
X344678Y514859D01*
X344698Y514862D01*
G37*
G36*
X344698Y464062D02*
X344698Y464062D01*
X344717Y464060D01*
X344819Y464082D01*
X344921Y464099D01*
X344938Y464108D01*
X344958Y464112D01*
X345047Y464165D01*
X345138Y464214D01*
X345152Y464228D01*
X345169Y464238D01*
X345236Y464317D01*
X345308Y464392D01*
X345316Y464410D01*
X345329Y464425D01*
X345368Y464521D01*
X345411Y464615D01*
X345413Y464635D01*
X345421Y464653D01*
X345439Y464820D01*
X345439Y510540D01*
X345436Y510560D01*
X345438Y510579D01*
X345416Y510681D01*
X345400Y510783D01*
X345390Y510800D01*
X345386Y510820D01*
X345333Y510909D01*
X345284Y511000D01*
X345270Y511014D01*
X345260Y511031D01*
X345181Y511098D01*
X345106Y511170D01*
X345088Y511178D01*
X345073Y511191D01*
X344977Y511230D01*
X344883Y511273D01*
X344863Y511275D01*
X344845Y511283D01*
X344678Y511301D01*
X284480Y511301D01*
X284460Y511298D01*
X284441Y511300D01*
X284339Y511278D01*
X284237Y511262D01*
X284220Y511252D01*
X284200Y511248D01*
X284111Y511195D01*
X284020Y511146D01*
X284006Y511132D01*
X283989Y511122D01*
X283922Y511043D01*
X283851Y510968D01*
X283842Y510950D01*
X283829Y510935D01*
X283790Y510839D01*
X283747Y510745D01*
X283745Y510725D01*
X283737Y510707D01*
X283719Y510540D01*
X283719Y464820D01*
X283722Y464800D01*
X283720Y464781D01*
X283742Y464679D01*
X283759Y464577D01*
X283768Y464560D01*
X283772Y464540D01*
X283825Y464451D01*
X283874Y464360D01*
X283888Y464346D01*
X283898Y464329D01*
X283977Y464262D01*
X284052Y464191D01*
X284070Y464182D01*
X284085Y464169D01*
X284181Y464130D01*
X284275Y464087D01*
X284295Y464085D01*
X284313Y464077D01*
X284480Y464059D01*
X344678Y464059D01*
X344698Y464062D01*
G37*
G36*
X344698Y413262D02*
X344698Y413262D01*
X344717Y413260D01*
X344819Y413282D01*
X344921Y413299D01*
X344938Y413308D01*
X344958Y413312D01*
X345047Y413365D01*
X345138Y413414D01*
X345152Y413428D01*
X345169Y413438D01*
X345236Y413517D01*
X345308Y413592D01*
X345316Y413610D01*
X345329Y413625D01*
X345368Y413721D01*
X345411Y413815D01*
X345413Y413835D01*
X345421Y413853D01*
X345439Y414020D01*
X345439Y459740D01*
X345436Y459760D01*
X345438Y459779D01*
X345416Y459881D01*
X345400Y459983D01*
X345390Y460000D01*
X345386Y460020D01*
X345333Y460109D01*
X345284Y460200D01*
X345270Y460214D01*
X345260Y460231D01*
X345181Y460298D01*
X345106Y460370D01*
X345088Y460378D01*
X345073Y460391D01*
X344977Y460430D01*
X344883Y460473D01*
X344863Y460475D01*
X344845Y460483D01*
X344678Y460501D01*
X284480Y460501D01*
X284460Y460498D01*
X284441Y460500D01*
X284339Y460478D01*
X284237Y460462D01*
X284220Y460452D01*
X284200Y460448D01*
X284111Y460395D01*
X284020Y460346D01*
X284006Y460332D01*
X283989Y460322D01*
X283922Y460243D01*
X283851Y460168D01*
X283842Y460150D01*
X283829Y460135D01*
X283790Y460039D01*
X283747Y459945D01*
X283745Y459925D01*
X283737Y459907D01*
X283719Y459740D01*
X283719Y414020D01*
X283722Y414000D01*
X283720Y413981D01*
X283742Y413879D01*
X283759Y413777D01*
X283768Y413760D01*
X283772Y413740D01*
X283825Y413651D01*
X283874Y413560D01*
X283888Y413546D01*
X283898Y413529D01*
X283977Y413462D01*
X284052Y413391D01*
X284070Y413382D01*
X284085Y413369D01*
X284181Y413330D01*
X284275Y413287D01*
X284295Y413285D01*
X284313Y413277D01*
X284480Y413259D01*
X344678Y413259D01*
X344698Y413262D01*
G37*
G36*
X344698Y362462D02*
X344698Y362462D01*
X344717Y362460D01*
X344819Y362482D01*
X344921Y362499D01*
X344938Y362508D01*
X344958Y362512D01*
X345047Y362565D01*
X345138Y362614D01*
X345152Y362628D01*
X345169Y362638D01*
X345236Y362717D01*
X345308Y362792D01*
X345316Y362810D01*
X345329Y362825D01*
X345368Y362921D01*
X345411Y363015D01*
X345413Y363035D01*
X345421Y363053D01*
X345439Y363220D01*
X345439Y408940D01*
X345436Y408960D01*
X345438Y408979D01*
X345416Y409081D01*
X345400Y409183D01*
X345390Y409200D01*
X345386Y409220D01*
X345333Y409309D01*
X345284Y409400D01*
X345270Y409414D01*
X345260Y409431D01*
X345181Y409498D01*
X345106Y409570D01*
X345088Y409578D01*
X345073Y409591D01*
X344977Y409630D01*
X344883Y409673D01*
X344863Y409675D01*
X344845Y409683D01*
X344678Y409701D01*
X284480Y409701D01*
X284460Y409698D01*
X284441Y409700D01*
X284339Y409678D01*
X284237Y409662D01*
X284220Y409652D01*
X284200Y409648D01*
X284111Y409595D01*
X284020Y409546D01*
X284006Y409532D01*
X283989Y409522D01*
X283922Y409443D01*
X283851Y409368D01*
X283842Y409350D01*
X283829Y409335D01*
X283790Y409239D01*
X283747Y409145D01*
X283745Y409125D01*
X283737Y409107D01*
X283719Y408940D01*
X283719Y363220D01*
X283722Y363200D01*
X283720Y363181D01*
X283742Y363079D01*
X283759Y362977D01*
X283768Y362960D01*
X283772Y362940D01*
X283825Y362851D01*
X283874Y362760D01*
X283888Y362746D01*
X283898Y362729D01*
X283977Y362662D01*
X284052Y362591D01*
X284070Y362582D01*
X284085Y362569D01*
X284181Y362530D01*
X284275Y362487D01*
X284295Y362485D01*
X284313Y362477D01*
X284480Y362459D01*
X344678Y362459D01*
X344698Y362462D01*
G37*
G36*
X344698Y311662D02*
X344698Y311662D01*
X344717Y311660D01*
X344819Y311682D01*
X344921Y311699D01*
X344938Y311708D01*
X344958Y311712D01*
X345047Y311765D01*
X345138Y311814D01*
X345152Y311828D01*
X345169Y311838D01*
X345236Y311917D01*
X345308Y311992D01*
X345316Y312010D01*
X345329Y312025D01*
X345368Y312121D01*
X345411Y312215D01*
X345413Y312235D01*
X345421Y312253D01*
X345439Y312420D01*
X345439Y358140D01*
X345436Y358160D01*
X345438Y358179D01*
X345416Y358281D01*
X345400Y358383D01*
X345390Y358400D01*
X345386Y358420D01*
X345333Y358509D01*
X345284Y358600D01*
X345270Y358614D01*
X345260Y358631D01*
X345181Y358698D01*
X345106Y358770D01*
X345088Y358778D01*
X345073Y358791D01*
X344977Y358830D01*
X344883Y358873D01*
X344863Y358875D01*
X344845Y358883D01*
X344678Y358901D01*
X284480Y358901D01*
X284460Y358898D01*
X284441Y358900D01*
X284339Y358878D01*
X284237Y358862D01*
X284220Y358852D01*
X284200Y358848D01*
X284111Y358795D01*
X284020Y358746D01*
X284006Y358732D01*
X283989Y358722D01*
X283922Y358643D01*
X283851Y358568D01*
X283842Y358550D01*
X283829Y358535D01*
X283790Y358439D01*
X283747Y358345D01*
X283745Y358325D01*
X283737Y358307D01*
X283719Y358140D01*
X283719Y312420D01*
X283722Y312400D01*
X283720Y312381D01*
X283742Y312279D01*
X283759Y312177D01*
X283768Y312160D01*
X283772Y312140D01*
X283825Y312051D01*
X283874Y311960D01*
X283888Y311946D01*
X283898Y311929D01*
X283977Y311862D01*
X284052Y311791D01*
X284070Y311782D01*
X284085Y311769D01*
X284181Y311730D01*
X284275Y311687D01*
X284295Y311685D01*
X284313Y311677D01*
X284480Y311659D01*
X344678Y311659D01*
X344698Y311662D01*
G37*
G36*
X344698Y260862D02*
X344698Y260862D01*
X344717Y260860D01*
X344819Y260882D01*
X344921Y260899D01*
X344938Y260908D01*
X344958Y260912D01*
X345047Y260965D01*
X345138Y261014D01*
X345152Y261028D01*
X345169Y261038D01*
X345236Y261117D01*
X345308Y261192D01*
X345316Y261210D01*
X345329Y261225D01*
X345368Y261321D01*
X345411Y261415D01*
X345413Y261435D01*
X345421Y261453D01*
X345439Y261620D01*
X345439Y307340D01*
X345436Y307360D01*
X345438Y307379D01*
X345416Y307481D01*
X345400Y307583D01*
X345390Y307600D01*
X345386Y307620D01*
X345333Y307709D01*
X345284Y307800D01*
X345270Y307814D01*
X345260Y307831D01*
X345181Y307898D01*
X345106Y307970D01*
X345088Y307978D01*
X345073Y307991D01*
X344977Y308030D01*
X344883Y308073D01*
X344863Y308075D01*
X344845Y308083D01*
X344678Y308101D01*
X284480Y308101D01*
X284460Y308098D01*
X284441Y308100D01*
X284339Y308078D01*
X284237Y308062D01*
X284220Y308052D01*
X284200Y308048D01*
X284111Y307995D01*
X284020Y307946D01*
X284006Y307932D01*
X283989Y307922D01*
X283922Y307843D01*
X283851Y307768D01*
X283842Y307750D01*
X283829Y307735D01*
X283790Y307639D01*
X283747Y307545D01*
X283745Y307525D01*
X283737Y307507D01*
X283719Y307340D01*
X283719Y261620D01*
X283722Y261600D01*
X283720Y261581D01*
X283742Y261479D01*
X283759Y261377D01*
X283768Y261360D01*
X283772Y261340D01*
X283825Y261251D01*
X283874Y261160D01*
X283888Y261146D01*
X283898Y261129D01*
X283977Y261062D01*
X284052Y260991D01*
X284070Y260982D01*
X284085Y260969D01*
X284181Y260930D01*
X284275Y260887D01*
X284295Y260885D01*
X284313Y260877D01*
X284480Y260859D01*
X344678Y260859D01*
X344698Y260862D01*
G37*
G36*
X344698Y210062D02*
X344698Y210062D01*
X344717Y210060D01*
X344819Y210082D01*
X344921Y210099D01*
X344938Y210108D01*
X344958Y210112D01*
X345047Y210165D01*
X345138Y210214D01*
X345152Y210228D01*
X345169Y210238D01*
X345236Y210317D01*
X345308Y210392D01*
X345316Y210410D01*
X345329Y210425D01*
X345368Y210521D01*
X345411Y210615D01*
X345413Y210635D01*
X345421Y210653D01*
X345439Y210820D01*
X345439Y256540D01*
X345436Y256560D01*
X345438Y256579D01*
X345416Y256681D01*
X345400Y256783D01*
X345390Y256800D01*
X345386Y256820D01*
X345333Y256909D01*
X345284Y257000D01*
X345270Y257014D01*
X345260Y257031D01*
X345181Y257098D01*
X345106Y257170D01*
X345088Y257178D01*
X345073Y257191D01*
X344977Y257230D01*
X344883Y257273D01*
X344863Y257275D01*
X344845Y257283D01*
X344678Y257301D01*
X284480Y257301D01*
X284460Y257298D01*
X284441Y257300D01*
X284339Y257278D01*
X284237Y257262D01*
X284220Y257252D01*
X284200Y257248D01*
X284111Y257195D01*
X284020Y257146D01*
X284006Y257132D01*
X283989Y257122D01*
X283922Y257043D01*
X283851Y256968D01*
X283842Y256950D01*
X283829Y256935D01*
X283790Y256839D01*
X283747Y256745D01*
X283745Y256725D01*
X283737Y256707D01*
X283719Y256540D01*
X283719Y210820D01*
X283722Y210800D01*
X283720Y210781D01*
X283742Y210679D01*
X283759Y210577D01*
X283768Y210560D01*
X283772Y210540D01*
X283825Y210451D01*
X283874Y210360D01*
X283888Y210346D01*
X283898Y210329D01*
X283977Y210262D01*
X284052Y210191D01*
X284070Y210182D01*
X284085Y210169D01*
X284181Y210130D01*
X284275Y210087D01*
X284295Y210085D01*
X284313Y210077D01*
X284480Y210059D01*
X344678Y210059D01*
X344698Y210062D01*
G37*
G36*
X344698Y159262D02*
X344698Y159262D01*
X344717Y159260D01*
X344819Y159282D01*
X344921Y159299D01*
X344938Y159308D01*
X344958Y159312D01*
X345047Y159365D01*
X345138Y159414D01*
X345152Y159428D01*
X345169Y159438D01*
X345236Y159517D01*
X345308Y159592D01*
X345316Y159610D01*
X345329Y159625D01*
X345368Y159721D01*
X345411Y159815D01*
X345413Y159835D01*
X345421Y159853D01*
X345439Y160020D01*
X345439Y205740D01*
X345436Y205760D01*
X345438Y205779D01*
X345416Y205881D01*
X345400Y205983D01*
X345390Y206000D01*
X345386Y206020D01*
X345333Y206109D01*
X345284Y206200D01*
X345270Y206214D01*
X345260Y206231D01*
X345181Y206298D01*
X345106Y206370D01*
X345088Y206378D01*
X345073Y206391D01*
X344977Y206430D01*
X344883Y206473D01*
X344863Y206475D01*
X344845Y206483D01*
X344678Y206501D01*
X284480Y206501D01*
X284460Y206498D01*
X284441Y206500D01*
X284339Y206478D01*
X284237Y206462D01*
X284220Y206452D01*
X284200Y206448D01*
X284111Y206395D01*
X284020Y206346D01*
X284006Y206332D01*
X283989Y206322D01*
X283922Y206243D01*
X283851Y206168D01*
X283842Y206150D01*
X283829Y206135D01*
X283790Y206039D01*
X283747Y205945D01*
X283745Y205925D01*
X283737Y205907D01*
X283719Y205740D01*
X283719Y160020D01*
X283722Y160000D01*
X283720Y159981D01*
X283742Y159879D01*
X283759Y159777D01*
X283768Y159760D01*
X283772Y159740D01*
X283825Y159651D01*
X283874Y159560D01*
X283888Y159546D01*
X283898Y159529D01*
X283977Y159462D01*
X284052Y159391D01*
X284070Y159382D01*
X284085Y159369D01*
X284181Y159330D01*
X284275Y159287D01*
X284295Y159285D01*
X284313Y159277D01*
X284480Y159259D01*
X344678Y159259D01*
X344698Y159262D01*
G37*
G36*
X344698Y108462D02*
X344698Y108462D01*
X344717Y108460D01*
X344819Y108482D01*
X344921Y108499D01*
X344938Y108508D01*
X344958Y108512D01*
X345047Y108565D01*
X345138Y108614D01*
X345152Y108628D01*
X345169Y108638D01*
X345236Y108717D01*
X345308Y108792D01*
X345316Y108810D01*
X345329Y108825D01*
X345368Y108921D01*
X345411Y109015D01*
X345413Y109035D01*
X345421Y109053D01*
X345439Y109220D01*
X345439Y154940D01*
X345436Y154960D01*
X345438Y154979D01*
X345416Y155081D01*
X345400Y155183D01*
X345390Y155200D01*
X345386Y155220D01*
X345333Y155309D01*
X345284Y155400D01*
X345270Y155414D01*
X345260Y155431D01*
X345181Y155498D01*
X345106Y155570D01*
X345088Y155578D01*
X345073Y155591D01*
X344977Y155630D01*
X344883Y155673D01*
X344863Y155675D01*
X344845Y155683D01*
X344678Y155701D01*
X284480Y155701D01*
X284460Y155698D01*
X284441Y155700D01*
X284339Y155678D01*
X284237Y155662D01*
X284220Y155652D01*
X284200Y155648D01*
X284111Y155595D01*
X284020Y155546D01*
X284006Y155532D01*
X283989Y155522D01*
X283922Y155443D01*
X283851Y155368D01*
X283842Y155350D01*
X283829Y155335D01*
X283790Y155239D01*
X283747Y155145D01*
X283745Y155125D01*
X283737Y155107D01*
X283719Y154940D01*
X283719Y109220D01*
X283722Y109200D01*
X283720Y109181D01*
X283742Y109079D01*
X283759Y108977D01*
X283768Y108960D01*
X283772Y108940D01*
X283825Y108851D01*
X283874Y108760D01*
X283888Y108746D01*
X283898Y108729D01*
X283977Y108662D01*
X284052Y108591D01*
X284070Y108582D01*
X284085Y108569D01*
X284181Y108530D01*
X284275Y108487D01*
X284295Y108485D01*
X284313Y108477D01*
X284480Y108459D01*
X344678Y108459D01*
X344698Y108462D01*
G37*
G36*
X344698Y57662D02*
X344698Y57662D01*
X344717Y57660D01*
X344819Y57682D01*
X344921Y57699D01*
X344938Y57708D01*
X344958Y57712D01*
X345047Y57765D01*
X345138Y57814D01*
X345152Y57828D01*
X345169Y57838D01*
X345236Y57917D01*
X345308Y57992D01*
X345316Y58010D01*
X345329Y58025D01*
X345368Y58121D01*
X345411Y58215D01*
X345413Y58235D01*
X345421Y58253D01*
X345439Y58420D01*
X345439Y104140D01*
X345436Y104160D01*
X345438Y104179D01*
X345416Y104281D01*
X345400Y104383D01*
X345390Y104400D01*
X345386Y104420D01*
X345333Y104509D01*
X345284Y104600D01*
X345270Y104614D01*
X345260Y104631D01*
X345181Y104698D01*
X345106Y104770D01*
X345088Y104778D01*
X345073Y104791D01*
X344977Y104830D01*
X344883Y104873D01*
X344863Y104875D01*
X344845Y104883D01*
X344678Y104901D01*
X284480Y104901D01*
X284460Y104898D01*
X284441Y104900D01*
X284339Y104878D01*
X284237Y104862D01*
X284220Y104852D01*
X284200Y104848D01*
X284111Y104795D01*
X284020Y104746D01*
X284006Y104732D01*
X283989Y104722D01*
X283922Y104643D01*
X283851Y104568D01*
X283842Y104550D01*
X283829Y104535D01*
X283790Y104439D01*
X283747Y104345D01*
X283745Y104325D01*
X283737Y104307D01*
X283719Y104140D01*
X283719Y58420D01*
X283722Y58400D01*
X283720Y58381D01*
X283742Y58279D01*
X283759Y58177D01*
X283768Y58160D01*
X283772Y58140D01*
X283825Y58051D01*
X283874Y57960D01*
X283888Y57946D01*
X283898Y57929D01*
X283977Y57862D01*
X284052Y57791D01*
X284070Y57782D01*
X284085Y57769D01*
X284181Y57730D01*
X284275Y57687D01*
X284295Y57685D01*
X284313Y57677D01*
X284480Y57659D01*
X344678Y57659D01*
X344698Y57662D01*
G37*
G36*
X344698Y10164D02*
X344698Y10164D01*
X344717Y10162D01*
X344819Y10184D01*
X344921Y10200D01*
X344938Y10210D01*
X344958Y10214D01*
X345047Y10267D01*
X345138Y10316D01*
X345152Y10330D01*
X345169Y10340D01*
X345236Y10419D01*
X345308Y10494D01*
X345316Y10512D01*
X345329Y10527D01*
X345368Y10623D01*
X345411Y10717D01*
X345413Y10737D01*
X345421Y10755D01*
X345439Y10922D01*
X345439Y53340D01*
X345436Y53360D01*
X345438Y53379D01*
X345416Y53481D01*
X345400Y53583D01*
X345390Y53600D01*
X345386Y53620D01*
X345333Y53709D01*
X345284Y53800D01*
X345270Y53814D01*
X345260Y53831D01*
X345181Y53898D01*
X345106Y53970D01*
X345088Y53978D01*
X345073Y53991D01*
X344977Y54030D01*
X344883Y54073D01*
X344863Y54075D01*
X344845Y54083D01*
X344678Y54101D01*
X284480Y54101D01*
X284460Y54098D01*
X284441Y54100D01*
X284339Y54078D01*
X284237Y54062D01*
X284220Y54052D01*
X284200Y54048D01*
X284111Y53995D01*
X284020Y53946D01*
X284006Y53932D01*
X283989Y53922D01*
X283922Y53843D01*
X283851Y53768D01*
X283842Y53750D01*
X283829Y53735D01*
X283790Y53639D01*
X283747Y53545D01*
X283745Y53525D01*
X283737Y53507D01*
X283719Y53340D01*
X283719Y10922D01*
X283722Y10902D01*
X283720Y10883D01*
X283742Y10781D01*
X283759Y10679D01*
X283768Y10662D01*
X283772Y10642D01*
X283825Y10553D01*
X283874Y10462D01*
X283888Y10448D01*
X283898Y10431D01*
X283977Y10364D01*
X284052Y10292D01*
X284070Y10284D01*
X284085Y10271D01*
X284181Y10232D01*
X284275Y10189D01*
X284295Y10187D01*
X284313Y10179D01*
X284480Y10161D01*
X344678Y10161D01*
X344698Y10164D01*
G37*
D10*
X25400Y665480D02*
X25400Y680720D01*
X50800Y680720D02*
X50800Y665480D01*
X76200Y665480D02*
X76200Y680720D01*
X101600Y680720D02*
X101600Y665480D01*
X127000Y665480D02*
X127000Y680720D01*
X152400Y680720D02*
X152400Y665480D01*
X177800Y665480D02*
X177800Y680720D01*
X203200Y680720D02*
X203200Y665480D01*
X228600Y665480D02*
X228600Y680720D01*
X254000Y680720D02*
X254000Y665480D01*
X279400Y665480D02*
X279400Y680720D01*
X304800Y680720D02*
X304800Y665480D01*
X330200Y665480D02*
X330200Y680720D01*
D11*
X304800Y86360D03*
X304800Y99060D03*
X292100Y99060D03*
X317500Y99060D03*
X317500Y73660D03*
X304800Y73660D03*
X292100Y73660D03*
X317500Y86360D03*
X292100Y86360D03*
D12*
X203200Y657860D02*
X203200Y673100D01*
X203200Y657860D02*
X195580Y650240D01*
X195580Y172720D01*
X281940Y86360D02*
X304800Y86360D01*
X281940Y86360D02*
X195580Y172720D01*
D11*
X304800Y35560D03*
X304800Y48260D03*
X292100Y48260D03*
X317500Y48260D03*
X317500Y22860D03*
X304800Y22860D03*
X292100Y22860D03*
X317500Y35560D03*
X292100Y35560D03*
D12*
X177800Y139700D02*
X177800Y673100D01*
X177800Y139700D02*
X281940Y35560D01*
X304800Y35560D01*
D11*
X304800Y137160D03*
X304800Y149860D03*
X292100Y149860D03*
X317500Y149860D03*
X317500Y124460D03*
X304800Y124460D03*
X292100Y124460D03*
X317500Y137160D03*
X292100Y137160D03*
D12*
X152400Y114300D02*
X152400Y673100D01*
D11*
X152400Y114300D03*
X304800Y187960D03*
X304800Y200660D03*
X292100Y200660D03*
X317500Y200660D03*
X317500Y175260D03*
X304800Y175260D03*
X292100Y175260D03*
X317500Y187960D03*
X292100Y187960D03*
D12*
X228600Y657860D02*
X228600Y673100D01*
X228600Y657860D02*
X213360Y642620D01*
X213360Y256540D01*
X281940Y187960D01*
X304800Y187960D01*
D11*
X304800Y238760D03*
X304800Y251460D03*
X292100Y251460D03*
X317500Y251460D03*
X317500Y226060D03*
X304800Y226060D03*
X292100Y226060D03*
X317500Y238760D03*
X292100Y238760D03*
D12*
X127000Y215900D02*
X127000Y673100D01*
D11*
X127000Y215900D03*
X304800Y289560D03*
X304800Y302260D03*
X292100Y302260D03*
X317500Y302260D03*
X317500Y276860D03*
X304800Y276860D03*
X292100Y276860D03*
X317500Y289560D03*
X292100Y289560D03*
D12*
X281940Y289560D02*
X231140Y340360D01*
X281940Y289560D02*
X304800Y289560D01*
X254000Y657860D02*
X254000Y673100D01*
X254000Y657860D02*
X231140Y635000D01*
X231140Y340360D01*
D11*
X304800Y340360D03*
X304800Y353060D03*
X292100Y353060D03*
X317500Y353060D03*
X317500Y327660D03*
X304800Y327660D03*
X292100Y327660D03*
X317500Y340360D03*
X292100Y340360D03*
D12*
X101600Y317500D02*
X101600Y673100D01*
D11*
X101600Y317500D03*
X304800Y391160D03*
X304800Y403860D03*
X292100Y403860D03*
X317500Y403860D03*
X317500Y378460D03*
X304800Y378460D03*
X292100Y378460D03*
X317500Y391160D03*
X292100Y391160D03*
D12*
X281940Y391160D02*
X304800Y391160D01*
X281940Y391160D02*
X248920Y424180D01*
X248920Y627380D01*
X279400Y657860D01*
X279400Y673100D01*
D11*
X304800Y441960D03*
X304800Y454660D03*
X292100Y454660D03*
X317500Y454660D03*
X317500Y429260D03*
X304800Y429260D03*
X292100Y429260D03*
X317500Y441960D03*
X292100Y441960D03*
D12*
X76200Y419100D02*
X76200Y673100D01*
D11*
X76200Y419100D03*
X304800Y492760D03*
X304800Y505460D03*
X292100Y505460D03*
X317500Y505460D03*
X317500Y480060D03*
X304800Y480060D03*
X292100Y480060D03*
X317500Y492760D03*
X292100Y492760D03*
D12*
X281940Y492760D02*
X304800Y492760D01*
X281940Y492760D02*
X266700Y508000D01*
X266700Y619760D01*
X304800Y657860D01*
X304800Y673100D01*
D11*
X304800Y543560D03*
X304800Y556260D03*
X292100Y556260D03*
X317500Y556260D03*
X317500Y530860D03*
X304800Y530860D03*
X292100Y530860D03*
X317500Y543560D03*
X292100Y543560D03*
D12*
X50800Y520700D02*
X50800Y673100D01*
D11*
X50800Y520700D03*
X304800Y594360D03*
X304800Y607060D03*
X292100Y607060D03*
X317500Y607060D03*
X317500Y581660D03*
X304800Y581660D03*
X292100Y581660D03*
X317500Y594360D03*
X292100Y594360D03*
D12*
X304800Y594360D02*
X304800Y632460D01*
X330200Y657860D01*
X330200Y673100D01*
M02*
