G04 EAGLE Gerber RS-274X export*
G75*
%MOMM*%
%FSLAX34Y34*%
%LPD*%
%INSilkscreen Bottom*%
%IPPOS*%
%AMOC8*
5,1,8,0,0,1.08239X$1,22.5*%
G01*
%ADD10C,0.152400*%


D10*
X13462Y13462D02*
X29718Y13462D01*
X24299Y13462D02*
X24299Y17978D01*
X24297Y18079D01*
X24291Y18180D01*
X24282Y18281D01*
X24269Y18382D01*
X24252Y18482D01*
X24231Y18581D01*
X24207Y18679D01*
X24179Y18776D01*
X24147Y18873D01*
X24112Y18968D01*
X24073Y19061D01*
X24031Y19153D01*
X23985Y19244D01*
X23936Y19333D01*
X23884Y19419D01*
X23828Y19504D01*
X23770Y19587D01*
X23708Y19667D01*
X23643Y19745D01*
X23576Y19821D01*
X23506Y19894D01*
X23433Y19964D01*
X23357Y20031D01*
X23279Y20096D01*
X23199Y20158D01*
X23116Y20216D01*
X23031Y20272D01*
X22945Y20324D01*
X22856Y20373D01*
X22765Y20419D01*
X22673Y20461D01*
X22580Y20500D01*
X22485Y20535D01*
X22388Y20567D01*
X22291Y20595D01*
X22193Y20619D01*
X22094Y20640D01*
X21994Y20657D01*
X21893Y20670D01*
X21792Y20679D01*
X21691Y20685D01*
X21590Y20687D01*
X13462Y20687D01*
X24299Y26233D02*
X24299Y31651D01*
X29718Y28039D02*
X16171Y28039D01*
X16070Y28041D01*
X15969Y28047D01*
X15868Y28056D01*
X15767Y28069D01*
X15667Y28086D01*
X15568Y28107D01*
X15470Y28131D01*
X15373Y28159D01*
X15276Y28191D01*
X15181Y28226D01*
X15088Y28265D01*
X14996Y28307D01*
X14905Y28353D01*
X14817Y28402D01*
X14730Y28454D01*
X14645Y28510D01*
X14562Y28568D01*
X14482Y28630D01*
X14404Y28695D01*
X14328Y28762D01*
X14255Y28832D01*
X14185Y28905D01*
X14118Y28981D01*
X14053Y29059D01*
X13991Y29139D01*
X13933Y29222D01*
X13877Y29307D01*
X13825Y29393D01*
X13776Y29482D01*
X13730Y29573D01*
X13688Y29665D01*
X13649Y29758D01*
X13614Y29853D01*
X13582Y29950D01*
X13554Y30047D01*
X13530Y30145D01*
X13509Y30244D01*
X13492Y30344D01*
X13479Y30445D01*
X13470Y30546D01*
X13464Y30647D01*
X13462Y30748D01*
X13462Y31651D01*
X24299Y36133D02*
X24299Y41551D01*
X29718Y37939D02*
X16171Y37939D01*
X16070Y37941D01*
X15969Y37947D01*
X15868Y37956D01*
X15767Y37969D01*
X15667Y37986D01*
X15568Y38007D01*
X15470Y38031D01*
X15373Y38059D01*
X15276Y38091D01*
X15181Y38126D01*
X15088Y38165D01*
X14996Y38207D01*
X14905Y38253D01*
X14817Y38302D01*
X14730Y38354D01*
X14645Y38410D01*
X14562Y38468D01*
X14482Y38530D01*
X14404Y38595D01*
X14328Y38662D01*
X14255Y38732D01*
X14185Y38805D01*
X14118Y38881D01*
X14053Y38959D01*
X13991Y39039D01*
X13933Y39122D01*
X13877Y39207D01*
X13825Y39293D01*
X13776Y39382D01*
X13730Y39473D01*
X13688Y39565D01*
X13649Y39658D01*
X13614Y39753D01*
X13582Y39850D01*
X13554Y39947D01*
X13530Y40045D01*
X13509Y40144D01*
X13492Y40244D01*
X13479Y40345D01*
X13470Y40446D01*
X13464Y40547D01*
X13462Y40648D01*
X13462Y41551D01*
X8043Y47924D02*
X24299Y47924D01*
X24299Y52439D01*
X24297Y52540D01*
X24291Y52641D01*
X24282Y52742D01*
X24269Y52843D01*
X24252Y52943D01*
X24231Y53042D01*
X24207Y53140D01*
X24179Y53237D01*
X24147Y53334D01*
X24112Y53429D01*
X24073Y53522D01*
X24031Y53614D01*
X23985Y53705D01*
X23936Y53794D01*
X23884Y53880D01*
X23828Y53965D01*
X23770Y54048D01*
X23708Y54128D01*
X23643Y54206D01*
X23576Y54282D01*
X23506Y54355D01*
X23433Y54425D01*
X23357Y54492D01*
X23279Y54557D01*
X23199Y54619D01*
X23116Y54677D01*
X23031Y54733D01*
X22945Y54785D01*
X22856Y54834D01*
X22765Y54880D01*
X22673Y54922D01*
X22580Y54961D01*
X22485Y54996D01*
X22388Y55028D01*
X22291Y55056D01*
X22193Y55080D01*
X22094Y55101D01*
X21994Y55118D01*
X21893Y55131D01*
X21792Y55140D01*
X21691Y55146D01*
X21590Y55148D01*
X21590Y55149D02*
X16171Y55149D01*
X16171Y55148D02*
X16070Y55146D01*
X15969Y55140D01*
X15868Y55131D01*
X15767Y55118D01*
X15667Y55101D01*
X15568Y55080D01*
X15470Y55056D01*
X15373Y55028D01*
X15276Y54996D01*
X15181Y54961D01*
X15088Y54922D01*
X14996Y54880D01*
X14905Y54834D01*
X14817Y54785D01*
X14730Y54733D01*
X14645Y54677D01*
X14562Y54619D01*
X14482Y54557D01*
X14404Y54492D01*
X14328Y54425D01*
X14255Y54355D01*
X14185Y54282D01*
X14118Y54206D01*
X14053Y54128D01*
X13991Y54048D01*
X13933Y53965D01*
X13877Y53880D01*
X13825Y53794D01*
X13776Y53705D01*
X13730Y53614D01*
X13688Y53522D01*
X13649Y53429D01*
X13614Y53334D01*
X13582Y53237D01*
X13554Y53140D01*
X13530Y53042D01*
X13509Y52943D01*
X13492Y52843D01*
X13479Y52742D01*
X13470Y52641D01*
X13464Y52540D01*
X13462Y52439D01*
X13462Y47924D01*
X19784Y62752D02*
X17978Y67268D01*
X19784Y62752D02*
X19821Y62664D01*
X19862Y62578D01*
X19906Y62493D01*
X19954Y62410D01*
X20005Y62330D01*
X20059Y62251D01*
X20117Y62175D01*
X20177Y62101D01*
X20241Y62029D01*
X20307Y61961D01*
X20377Y61895D01*
X20448Y61832D01*
X20523Y61771D01*
X20599Y61714D01*
X20678Y61661D01*
X20759Y61610D01*
X20842Y61563D01*
X20927Y61519D01*
X21014Y61479D01*
X21102Y61442D01*
X21192Y61409D01*
X21283Y61379D01*
X21375Y61354D01*
X21468Y61332D01*
X21562Y61314D01*
X21656Y61299D01*
X21751Y61289D01*
X21847Y61283D01*
X21942Y61280D01*
X22038Y61281D01*
X22133Y61287D01*
X22229Y61296D01*
X22323Y61309D01*
X22417Y61325D01*
X22511Y61346D01*
X22603Y61371D01*
X22694Y61399D01*
X22784Y61431D01*
X22873Y61466D01*
X22960Y61505D01*
X23046Y61548D01*
X23130Y61594D01*
X23211Y61644D01*
X23291Y61696D01*
X23369Y61752D01*
X23444Y61812D01*
X23516Y61874D01*
X23586Y61939D01*
X23654Y62007D01*
X23718Y62077D01*
X23780Y62150D01*
X23838Y62226D01*
X23894Y62304D01*
X23946Y62384D01*
X23995Y62466D01*
X24040Y62550D01*
X24082Y62636D01*
X24121Y62723D01*
X24156Y62812D01*
X24187Y62903D01*
X24214Y62994D01*
X24238Y63087D01*
X24258Y63180D01*
X24274Y63274D01*
X24286Y63369D01*
X24295Y63464D01*
X24299Y63560D01*
X24300Y63655D01*
X24293Y63902D01*
X24281Y64148D01*
X24263Y64394D01*
X24238Y64640D01*
X24208Y64884D01*
X24172Y65128D01*
X24131Y65371D01*
X24083Y65613D01*
X24029Y65854D01*
X23970Y66093D01*
X23905Y66331D01*
X23834Y66567D01*
X23758Y66802D01*
X23676Y67035D01*
X23588Y67265D01*
X23495Y67493D01*
X23397Y67720D01*
X17977Y67268D02*
X17940Y67356D01*
X17899Y67442D01*
X17855Y67527D01*
X17807Y67610D01*
X17756Y67690D01*
X17702Y67769D01*
X17644Y67845D01*
X17584Y67919D01*
X17520Y67991D01*
X17454Y68059D01*
X17384Y68125D01*
X17313Y68188D01*
X17238Y68249D01*
X17162Y68306D01*
X17083Y68359D01*
X17002Y68410D01*
X16919Y68457D01*
X16834Y68501D01*
X16747Y68541D01*
X16659Y68578D01*
X16569Y68611D01*
X16478Y68641D01*
X16386Y68666D01*
X16293Y68688D01*
X16199Y68706D01*
X16105Y68721D01*
X16010Y68731D01*
X15914Y68737D01*
X15819Y68740D01*
X15723Y68739D01*
X15628Y68733D01*
X15532Y68724D01*
X15438Y68711D01*
X15344Y68695D01*
X15250Y68674D01*
X15158Y68649D01*
X15067Y68621D01*
X14977Y68589D01*
X14888Y68554D01*
X14801Y68515D01*
X14715Y68472D01*
X14631Y68426D01*
X14550Y68376D01*
X14470Y68324D01*
X14392Y68268D01*
X14317Y68208D01*
X14245Y68146D01*
X14175Y68081D01*
X14107Y68013D01*
X14043Y67943D01*
X13981Y67870D01*
X13923Y67794D01*
X13867Y67716D01*
X13815Y67636D01*
X13766Y67554D01*
X13721Y67470D01*
X13679Y67384D01*
X13640Y67297D01*
X13605Y67208D01*
X13574Y67117D01*
X13547Y67026D01*
X13523Y66933D01*
X13503Y66840D01*
X13487Y66746D01*
X13475Y66651D01*
X13466Y66556D01*
X13462Y66460D01*
X13461Y66365D01*
X13462Y66365D02*
X13471Y66003D01*
X13489Y65641D01*
X13516Y65280D01*
X13551Y64920D01*
X13594Y64560D01*
X13646Y64201D01*
X13707Y63844D01*
X13776Y63489D01*
X13853Y63135D01*
X13939Y62783D01*
X14033Y62433D01*
X14136Y62085D01*
X14246Y61740D01*
X14365Y61398D01*
X14817Y74979D02*
X15720Y74979D01*
X15720Y75882D01*
X14817Y75882D01*
X14817Y74979D01*
X22042Y74979D02*
X22945Y74979D01*
X22945Y75882D01*
X22042Y75882D01*
X22042Y74979D01*
X11656Y81718D02*
X31524Y88943D01*
X31524Y101448D02*
X11656Y94223D01*
X24299Y105952D02*
X24299Y111371D01*
X29718Y107758D02*
X16171Y107758D01*
X16070Y107760D01*
X15969Y107766D01*
X15868Y107775D01*
X15767Y107788D01*
X15667Y107805D01*
X15568Y107826D01*
X15470Y107850D01*
X15373Y107878D01*
X15276Y107910D01*
X15181Y107945D01*
X15088Y107984D01*
X14996Y108026D01*
X14905Y108072D01*
X14817Y108121D01*
X14730Y108173D01*
X14645Y108229D01*
X14562Y108287D01*
X14482Y108349D01*
X14404Y108414D01*
X14328Y108481D01*
X14255Y108551D01*
X14185Y108624D01*
X14118Y108700D01*
X14053Y108778D01*
X13991Y108858D01*
X13933Y108941D01*
X13877Y109026D01*
X13825Y109113D01*
X13776Y109201D01*
X13730Y109292D01*
X13688Y109384D01*
X13649Y109477D01*
X13614Y109572D01*
X13582Y109669D01*
X13554Y109766D01*
X13530Y109864D01*
X13509Y109963D01*
X13492Y110063D01*
X13479Y110164D01*
X13470Y110265D01*
X13464Y110366D01*
X13462Y110467D01*
X13462Y111371D01*
X13462Y117114D02*
X24299Y117114D01*
X28815Y116663D02*
X29718Y116663D01*
X29718Y117566D01*
X28815Y117566D01*
X28815Y116663D01*
X24299Y123922D02*
X13462Y123922D01*
X24299Y123922D02*
X24299Y128438D01*
X24297Y128539D01*
X24291Y128640D01*
X24282Y128741D01*
X24269Y128842D01*
X24252Y128942D01*
X24231Y129041D01*
X24207Y129139D01*
X24179Y129236D01*
X24147Y129333D01*
X24112Y129428D01*
X24073Y129521D01*
X24031Y129613D01*
X23985Y129704D01*
X23936Y129793D01*
X23884Y129879D01*
X23828Y129964D01*
X23770Y130047D01*
X23708Y130127D01*
X23643Y130205D01*
X23576Y130281D01*
X23506Y130354D01*
X23433Y130424D01*
X23357Y130491D01*
X23279Y130556D01*
X23199Y130618D01*
X23116Y130676D01*
X23031Y130732D01*
X22945Y130784D01*
X22856Y130833D01*
X22765Y130879D01*
X22673Y130921D01*
X22580Y130960D01*
X22485Y130995D01*
X22388Y131027D01*
X22291Y131055D01*
X22193Y131079D01*
X22094Y131100D01*
X21994Y131117D01*
X21893Y131130D01*
X21792Y131139D01*
X21691Y131145D01*
X21590Y131147D01*
X13462Y131147D01*
X8043Y137469D02*
X8043Y139276D01*
X24299Y144694D01*
X24299Y137469D02*
X13462Y141082D01*
X16171Y151016D02*
X24299Y151016D01*
X16171Y151017D02*
X16070Y151019D01*
X15969Y151025D01*
X15868Y151034D01*
X15767Y151047D01*
X15667Y151064D01*
X15568Y151085D01*
X15470Y151109D01*
X15373Y151137D01*
X15276Y151169D01*
X15181Y151204D01*
X15088Y151243D01*
X14996Y151285D01*
X14905Y151331D01*
X14817Y151380D01*
X14730Y151432D01*
X14645Y151488D01*
X14562Y151546D01*
X14482Y151608D01*
X14404Y151673D01*
X14328Y151740D01*
X14255Y151810D01*
X14185Y151883D01*
X14118Y151959D01*
X14053Y152037D01*
X13991Y152117D01*
X13933Y152200D01*
X13877Y152285D01*
X13825Y152372D01*
X13776Y152460D01*
X13730Y152551D01*
X13688Y152643D01*
X13649Y152736D01*
X13614Y152831D01*
X13582Y152928D01*
X13554Y153025D01*
X13530Y153123D01*
X13509Y153222D01*
X13492Y153322D01*
X13479Y153423D01*
X13470Y153524D01*
X13464Y153625D01*
X13462Y153726D01*
X13462Y158241D01*
X24299Y158241D01*
X24299Y165690D02*
X13462Y165690D01*
X24299Y165690D02*
X24299Y171109D01*
X22493Y171109D01*
X16171Y176263D02*
X29718Y176263D01*
X16171Y176264D02*
X16070Y176266D01*
X15969Y176272D01*
X15868Y176281D01*
X15767Y176294D01*
X15667Y176311D01*
X15568Y176332D01*
X15470Y176356D01*
X15373Y176384D01*
X15276Y176416D01*
X15181Y176451D01*
X15088Y176490D01*
X14996Y176532D01*
X14905Y176578D01*
X14817Y176627D01*
X14730Y176679D01*
X14645Y176735D01*
X14562Y176793D01*
X14482Y176855D01*
X14404Y176920D01*
X14328Y176987D01*
X14255Y177057D01*
X14185Y177130D01*
X14118Y177206D01*
X14053Y177284D01*
X13991Y177364D01*
X13933Y177447D01*
X13877Y177532D01*
X13825Y177619D01*
X13776Y177707D01*
X13730Y177798D01*
X13688Y177890D01*
X13649Y177983D01*
X13614Y178078D01*
X13582Y178175D01*
X13554Y178272D01*
X13530Y178370D01*
X13509Y178469D01*
X13492Y178569D01*
X13479Y178670D01*
X13470Y178771D01*
X13464Y178872D01*
X13462Y178973D01*
X13462Y183877D02*
X14365Y183877D01*
X14365Y184780D01*
X13462Y184780D01*
X13462Y183877D01*
X13462Y193342D02*
X13462Y196955D01*
X13462Y193342D02*
X13464Y193241D01*
X13470Y193140D01*
X13479Y193039D01*
X13492Y192938D01*
X13509Y192838D01*
X13530Y192739D01*
X13554Y192641D01*
X13582Y192544D01*
X13614Y192447D01*
X13649Y192352D01*
X13688Y192259D01*
X13730Y192167D01*
X13776Y192076D01*
X13825Y191988D01*
X13877Y191901D01*
X13933Y191816D01*
X13991Y191733D01*
X14053Y191653D01*
X14118Y191575D01*
X14185Y191499D01*
X14255Y191426D01*
X14328Y191356D01*
X14404Y191289D01*
X14482Y191224D01*
X14562Y191162D01*
X14645Y191104D01*
X14730Y191048D01*
X14817Y190996D01*
X14905Y190947D01*
X14996Y190901D01*
X15088Y190859D01*
X15181Y190820D01*
X15276Y190785D01*
X15373Y190753D01*
X15470Y190725D01*
X15568Y190701D01*
X15667Y190680D01*
X15767Y190663D01*
X15868Y190650D01*
X15969Y190641D01*
X16070Y190635D01*
X16171Y190633D01*
X21590Y190633D01*
X21691Y190635D01*
X21792Y190641D01*
X21893Y190650D01*
X21994Y190663D01*
X22094Y190680D01*
X22193Y190701D01*
X22291Y190725D01*
X22388Y190753D01*
X22485Y190785D01*
X22580Y190820D01*
X22673Y190859D01*
X22765Y190901D01*
X22856Y190947D01*
X22944Y190996D01*
X23031Y191048D01*
X23116Y191104D01*
X23199Y191162D01*
X23279Y191224D01*
X23357Y191289D01*
X23433Y191356D01*
X23506Y191426D01*
X23576Y191499D01*
X23643Y191575D01*
X23708Y191653D01*
X23770Y191733D01*
X23828Y191816D01*
X23884Y191901D01*
X23936Y191987D01*
X23985Y192076D01*
X24031Y192167D01*
X24073Y192259D01*
X24112Y192352D01*
X24147Y192447D01*
X24179Y192544D01*
X24207Y192641D01*
X24231Y192739D01*
X24252Y192838D01*
X24269Y192938D01*
X24282Y193039D01*
X24291Y193140D01*
X24297Y193241D01*
X24299Y193342D01*
X24299Y196955D01*
X20687Y202600D02*
X17074Y202600D01*
X20687Y202600D02*
X20806Y202602D01*
X20926Y202608D01*
X21045Y202618D01*
X21163Y202632D01*
X21282Y202649D01*
X21399Y202671D01*
X21516Y202696D01*
X21631Y202726D01*
X21746Y202759D01*
X21860Y202796D01*
X21972Y202836D01*
X22083Y202881D01*
X22192Y202929D01*
X22300Y202980D01*
X22406Y203035D01*
X22510Y203094D01*
X22612Y203156D01*
X22712Y203221D01*
X22810Y203290D01*
X22906Y203362D01*
X22999Y203437D01*
X23089Y203514D01*
X23177Y203595D01*
X23262Y203679D01*
X23344Y203766D01*
X23424Y203855D01*
X23500Y203947D01*
X23574Y204041D01*
X23644Y204138D01*
X23711Y204236D01*
X23775Y204337D01*
X23835Y204441D01*
X23892Y204546D01*
X23945Y204653D01*
X23995Y204761D01*
X24041Y204871D01*
X24083Y204983D01*
X24122Y205096D01*
X24157Y205210D01*
X24188Y205325D01*
X24216Y205442D01*
X24239Y205559D01*
X24259Y205676D01*
X24275Y205795D01*
X24287Y205914D01*
X24295Y206033D01*
X24299Y206152D01*
X24299Y206272D01*
X24295Y206391D01*
X24287Y206510D01*
X24275Y206629D01*
X24259Y206748D01*
X24239Y206865D01*
X24216Y206982D01*
X24188Y207099D01*
X24157Y207214D01*
X24122Y207328D01*
X24083Y207441D01*
X24041Y207553D01*
X23995Y207663D01*
X23945Y207771D01*
X23892Y207878D01*
X23835Y207983D01*
X23775Y208087D01*
X23711Y208188D01*
X23644Y208286D01*
X23574Y208383D01*
X23500Y208477D01*
X23424Y208569D01*
X23344Y208658D01*
X23262Y208745D01*
X23177Y208829D01*
X23089Y208910D01*
X22999Y208987D01*
X22906Y209062D01*
X22810Y209134D01*
X22712Y209203D01*
X22612Y209268D01*
X22510Y209330D01*
X22406Y209389D01*
X22300Y209444D01*
X22192Y209495D01*
X22083Y209543D01*
X21972Y209588D01*
X21860Y209628D01*
X21746Y209665D01*
X21631Y209698D01*
X21516Y209728D01*
X21399Y209753D01*
X21282Y209775D01*
X21163Y209792D01*
X21045Y209806D01*
X20926Y209816D01*
X20806Y209822D01*
X20687Y209824D01*
X17074Y209824D01*
X16955Y209822D01*
X16835Y209816D01*
X16716Y209806D01*
X16598Y209792D01*
X16479Y209775D01*
X16362Y209753D01*
X16245Y209728D01*
X16130Y209698D01*
X16015Y209665D01*
X15901Y209628D01*
X15789Y209588D01*
X15678Y209543D01*
X15569Y209495D01*
X15461Y209444D01*
X15355Y209389D01*
X15251Y209330D01*
X15149Y209268D01*
X15049Y209203D01*
X14951Y209134D01*
X14855Y209062D01*
X14762Y208987D01*
X14672Y208910D01*
X14584Y208829D01*
X14499Y208745D01*
X14417Y208658D01*
X14337Y208569D01*
X14261Y208477D01*
X14187Y208383D01*
X14117Y208286D01*
X14050Y208188D01*
X13986Y208087D01*
X13926Y207983D01*
X13869Y207878D01*
X13816Y207771D01*
X13766Y207663D01*
X13720Y207553D01*
X13678Y207441D01*
X13639Y207328D01*
X13604Y207214D01*
X13573Y207099D01*
X13545Y206982D01*
X13522Y206865D01*
X13502Y206748D01*
X13486Y206629D01*
X13474Y206510D01*
X13466Y206391D01*
X13462Y206272D01*
X13462Y206152D01*
X13466Y206033D01*
X13474Y205914D01*
X13486Y205795D01*
X13502Y205676D01*
X13522Y205559D01*
X13545Y205442D01*
X13573Y205325D01*
X13604Y205210D01*
X13639Y205096D01*
X13678Y204983D01*
X13720Y204871D01*
X13766Y204761D01*
X13816Y204653D01*
X13869Y204546D01*
X13926Y204441D01*
X13986Y204337D01*
X14050Y204236D01*
X14117Y204138D01*
X14187Y204041D01*
X14261Y203947D01*
X14337Y203855D01*
X14417Y203766D01*
X14499Y203679D01*
X14584Y203595D01*
X14672Y203514D01*
X14762Y203437D01*
X14855Y203362D01*
X14951Y203290D01*
X15049Y203221D01*
X15149Y203156D01*
X15251Y203094D01*
X15355Y203035D01*
X15461Y202980D01*
X15569Y202929D01*
X15678Y202881D01*
X15789Y202836D01*
X15901Y202796D01*
X16015Y202759D01*
X16130Y202726D01*
X16245Y202696D01*
X16362Y202671D01*
X16479Y202649D01*
X16598Y202632D01*
X16716Y202618D01*
X16835Y202608D01*
X16955Y202602D01*
X17074Y202600D01*
X13462Y216946D02*
X24299Y216946D01*
X24299Y225074D01*
X24297Y225175D01*
X24291Y225276D01*
X24282Y225377D01*
X24269Y225478D01*
X24252Y225578D01*
X24231Y225677D01*
X24207Y225775D01*
X24179Y225872D01*
X24147Y225969D01*
X24112Y226064D01*
X24073Y226157D01*
X24031Y226249D01*
X23985Y226340D01*
X23936Y226429D01*
X23884Y226515D01*
X23828Y226600D01*
X23770Y226683D01*
X23708Y226763D01*
X23643Y226841D01*
X23576Y226917D01*
X23506Y226990D01*
X23433Y227060D01*
X23357Y227127D01*
X23279Y227192D01*
X23199Y227254D01*
X23116Y227312D01*
X23031Y227368D01*
X22945Y227420D01*
X22856Y227469D01*
X22765Y227515D01*
X22673Y227557D01*
X22580Y227596D01*
X22485Y227631D01*
X22388Y227663D01*
X22291Y227691D01*
X22193Y227715D01*
X22094Y227736D01*
X21994Y227753D01*
X21893Y227766D01*
X21792Y227775D01*
X21691Y227781D01*
X21590Y227783D01*
X13462Y227783D01*
X13462Y222364D02*
X24299Y222364D01*
X11656Y234383D02*
X31524Y241608D01*
X29718Y248099D02*
X13462Y248099D01*
X13462Y255324D01*
X13462Y264569D02*
X29718Y264569D01*
X29718Y269084D02*
X29718Y260053D01*
X25202Y274642D02*
X17978Y274642D01*
X25202Y274642D02*
X25335Y274644D01*
X25467Y274650D01*
X25599Y274660D01*
X25731Y274673D01*
X25863Y274691D01*
X25993Y274712D01*
X26124Y274737D01*
X26253Y274766D01*
X26381Y274799D01*
X26509Y274835D01*
X26635Y274875D01*
X26760Y274919D01*
X26884Y274967D01*
X27006Y275018D01*
X27127Y275073D01*
X27246Y275131D01*
X27364Y275193D01*
X27479Y275258D01*
X27593Y275327D01*
X27704Y275398D01*
X27813Y275474D01*
X27920Y275552D01*
X28025Y275633D01*
X28127Y275718D01*
X28227Y275805D01*
X28324Y275895D01*
X28419Y275988D01*
X28510Y276084D01*
X28599Y276182D01*
X28685Y276283D01*
X28768Y276387D01*
X28848Y276493D01*
X28924Y276601D01*
X28998Y276711D01*
X29068Y276824D01*
X29135Y276938D01*
X29198Y277055D01*
X29258Y277173D01*
X29315Y277293D01*
X29368Y277415D01*
X29417Y277538D01*
X29463Y277662D01*
X29505Y277788D01*
X29543Y277915D01*
X29578Y278043D01*
X29609Y278172D01*
X29636Y278301D01*
X29659Y278432D01*
X29679Y278563D01*
X29694Y278695D01*
X29706Y278827D01*
X29714Y278959D01*
X29718Y279092D01*
X29718Y279224D01*
X29714Y279357D01*
X29706Y279489D01*
X29694Y279621D01*
X29679Y279753D01*
X29659Y279884D01*
X29636Y280015D01*
X29609Y280144D01*
X29578Y280273D01*
X29543Y280401D01*
X29505Y280528D01*
X29463Y280654D01*
X29417Y280778D01*
X29368Y280901D01*
X29315Y281023D01*
X29258Y281143D01*
X29198Y281261D01*
X29135Y281378D01*
X29068Y281492D01*
X28998Y281605D01*
X28924Y281715D01*
X28848Y281823D01*
X28768Y281929D01*
X28685Y282033D01*
X28599Y282134D01*
X28510Y282232D01*
X28419Y282328D01*
X28324Y282421D01*
X28227Y282511D01*
X28127Y282598D01*
X28025Y282683D01*
X27920Y282764D01*
X27813Y282842D01*
X27704Y282918D01*
X27593Y282989D01*
X27479Y283058D01*
X27364Y283123D01*
X27246Y283185D01*
X27127Y283243D01*
X27006Y283298D01*
X26884Y283349D01*
X26760Y283397D01*
X26635Y283441D01*
X26509Y283481D01*
X26381Y283517D01*
X26253Y283550D01*
X26124Y283579D01*
X25993Y283604D01*
X25863Y283625D01*
X25731Y283643D01*
X25599Y283656D01*
X25467Y283666D01*
X25335Y283672D01*
X25202Y283674D01*
X25202Y283673D02*
X17978Y283673D01*
X17978Y283674D02*
X17845Y283672D01*
X17713Y283666D01*
X17581Y283656D01*
X17449Y283643D01*
X17317Y283625D01*
X17187Y283604D01*
X17056Y283579D01*
X16927Y283550D01*
X16799Y283517D01*
X16671Y283481D01*
X16545Y283441D01*
X16420Y283397D01*
X16296Y283349D01*
X16174Y283298D01*
X16053Y283243D01*
X15934Y283185D01*
X15816Y283123D01*
X15701Y283058D01*
X15587Y282989D01*
X15476Y282918D01*
X15367Y282842D01*
X15260Y282764D01*
X15155Y282683D01*
X15053Y282598D01*
X14953Y282511D01*
X14856Y282421D01*
X14761Y282328D01*
X14670Y282232D01*
X14581Y282134D01*
X14495Y282033D01*
X14412Y281929D01*
X14332Y281823D01*
X14256Y281715D01*
X14182Y281605D01*
X14112Y281492D01*
X14045Y281378D01*
X13982Y281261D01*
X13922Y281143D01*
X13865Y281023D01*
X13812Y280901D01*
X13763Y280778D01*
X13717Y280654D01*
X13675Y280528D01*
X13637Y280401D01*
X13602Y280273D01*
X13571Y280144D01*
X13544Y280015D01*
X13521Y279884D01*
X13501Y279753D01*
X13486Y279621D01*
X13474Y279489D01*
X13466Y279357D01*
X13462Y279224D01*
X13462Y279092D01*
X13466Y278959D01*
X13474Y278827D01*
X13486Y278695D01*
X13501Y278563D01*
X13521Y278432D01*
X13544Y278301D01*
X13571Y278172D01*
X13602Y278043D01*
X13637Y277915D01*
X13675Y277788D01*
X13717Y277662D01*
X13763Y277538D01*
X13812Y277415D01*
X13865Y277293D01*
X13922Y277173D01*
X13982Y277055D01*
X14045Y276938D01*
X14112Y276824D01*
X14182Y276711D01*
X14256Y276601D01*
X14332Y276493D01*
X14412Y276387D01*
X14495Y276283D01*
X14581Y276182D01*
X14670Y276084D01*
X14761Y275988D01*
X14856Y275895D01*
X14953Y275805D01*
X15053Y275718D01*
X15155Y275633D01*
X15260Y275552D01*
X15367Y275474D01*
X15476Y275398D01*
X15587Y275327D01*
X15701Y275258D01*
X15816Y275193D01*
X15934Y275131D01*
X16053Y275073D01*
X16174Y275018D01*
X16296Y274967D01*
X16420Y274919D01*
X16545Y274875D01*
X16671Y274835D01*
X16799Y274799D01*
X16927Y274766D01*
X17056Y274737D01*
X17187Y274712D01*
X17317Y274691D01*
X17449Y274673D01*
X17581Y274660D01*
X17713Y274650D01*
X17845Y274644D01*
X17978Y274642D01*
X22493Y291005D02*
X22493Y295521D01*
X22494Y295521D02*
X22492Y295654D01*
X22486Y295786D01*
X22476Y295918D01*
X22463Y296050D01*
X22445Y296182D01*
X22424Y296312D01*
X22399Y296443D01*
X22370Y296572D01*
X22337Y296700D01*
X22301Y296828D01*
X22261Y296954D01*
X22217Y297079D01*
X22169Y297203D01*
X22118Y297325D01*
X22063Y297446D01*
X22005Y297565D01*
X21943Y297683D01*
X21878Y297798D01*
X21809Y297912D01*
X21738Y298023D01*
X21662Y298132D01*
X21584Y298239D01*
X21503Y298344D01*
X21418Y298446D01*
X21331Y298546D01*
X21241Y298643D01*
X21148Y298738D01*
X21052Y298829D01*
X20954Y298918D01*
X20853Y299004D01*
X20749Y299087D01*
X20643Y299167D01*
X20535Y299243D01*
X20425Y299317D01*
X20312Y299387D01*
X20198Y299454D01*
X20081Y299517D01*
X19963Y299577D01*
X19843Y299634D01*
X19721Y299687D01*
X19598Y299736D01*
X19474Y299782D01*
X19348Y299824D01*
X19221Y299862D01*
X19093Y299897D01*
X18964Y299928D01*
X18835Y299955D01*
X18704Y299978D01*
X18573Y299998D01*
X18441Y300013D01*
X18309Y300025D01*
X18177Y300033D01*
X18044Y300037D01*
X17912Y300037D01*
X17779Y300033D01*
X17647Y300025D01*
X17515Y300013D01*
X17383Y299998D01*
X17252Y299978D01*
X17121Y299955D01*
X16992Y299928D01*
X16863Y299897D01*
X16735Y299862D01*
X16608Y299824D01*
X16482Y299782D01*
X16358Y299736D01*
X16235Y299687D01*
X16113Y299634D01*
X15993Y299577D01*
X15875Y299517D01*
X15758Y299454D01*
X15644Y299387D01*
X15531Y299317D01*
X15421Y299243D01*
X15313Y299167D01*
X15207Y299087D01*
X15103Y299004D01*
X15002Y298918D01*
X14904Y298829D01*
X14808Y298738D01*
X14715Y298643D01*
X14625Y298546D01*
X14538Y298446D01*
X14453Y298344D01*
X14372Y298239D01*
X14294Y298132D01*
X14218Y298023D01*
X14147Y297912D01*
X14078Y297798D01*
X14013Y297683D01*
X13951Y297565D01*
X13893Y297446D01*
X13838Y297325D01*
X13787Y297203D01*
X13739Y297079D01*
X13695Y296954D01*
X13655Y296828D01*
X13619Y296700D01*
X13586Y296572D01*
X13557Y296443D01*
X13532Y296312D01*
X13511Y296182D01*
X13493Y296050D01*
X13480Y295918D01*
X13470Y295786D01*
X13464Y295654D01*
X13462Y295521D01*
X13462Y291005D01*
X29718Y291005D01*
X29718Y295521D01*
X29716Y295640D01*
X29710Y295760D01*
X29700Y295879D01*
X29686Y295997D01*
X29669Y296116D01*
X29647Y296233D01*
X29622Y296350D01*
X29592Y296465D01*
X29559Y296580D01*
X29522Y296694D01*
X29482Y296806D01*
X29437Y296917D01*
X29389Y297026D01*
X29338Y297134D01*
X29283Y297240D01*
X29224Y297344D01*
X29162Y297446D01*
X29097Y297546D01*
X29028Y297644D01*
X28956Y297740D01*
X28881Y297833D01*
X28804Y297923D01*
X28723Y298011D01*
X28639Y298096D01*
X28552Y298178D01*
X28463Y298258D01*
X28371Y298334D01*
X28277Y298408D01*
X28180Y298478D01*
X28082Y298545D01*
X27981Y298609D01*
X27877Y298669D01*
X27772Y298726D01*
X27665Y298779D01*
X27557Y298829D01*
X27447Y298875D01*
X27335Y298917D01*
X27222Y298956D01*
X27108Y298991D01*
X26993Y299022D01*
X26876Y299050D01*
X26759Y299073D01*
X26642Y299093D01*
X26523Y299109D01*
X26404Y299121D01*
X26285Y299129D01*
X26166Y299133D01*
X26046Y299133D01*
X25927Y299129D01*
X25808Y299121D01*
X25689Y299109D01*
X25570Y299093D01*
X25453Y299073D01*
X25336Y299050D01*
X25219Y299022D01*
X25104Y298991D01*
X24990Y298956D01*
X24877Y298917D01*
X24765Y298875D01*
X24655Y298829D01*
X24547Y298779D01*
X24440Y298726D01*
X24335Y298669D01*
X24231Y298609D01*
X24130Y298545D01*
X24032Y298478D01*
X23935Y298408D01*
X23841Y298334D01*
X23749Y298258D01*
X23660Y298178D01*
X23573Y298096D01*
X23489Y298011D01*
X23408Y297923D01*
X23331Y297833D01*
X23256Y297740D01*
X23184Y297644D01*
X23115Y297546D01*
X23050Y297446D01*
X22988Y297344D01*
X22929Y297240D01*
X22874Y297134D01*
X22823Y297026D01*
X22775Y296917D01*
X22730Y296806D01*
X22690Y296694D01*
X22653Y296580D01*
X22620Y296465D01*
X22590Y296350D01*
X22565Y296233D01*
X22543Y296116D01*
X22526Y295997D01*
X22512Y295879D01*
X22502Y295760D01*
X22496Y295640D01*
X22494Y295521D01*
X19784Y308853D02*
X19784Y312917D01*
X19784Y308853D02*
X19782Y308741D01*
X19776Y308630D01*
X19766Y308519D01*
X19753Y308408D01*
X19735Y308298D01*
X19713Y308189D01*
X19688Y308080D01*
X19659Y307972D01*
X19626Y307866D01*
X19589Y307760D01*
X19549Y307656D01*
X19505Y307554D01*
X19457Y307453D01*
X19406Y307354D01*
X19351Y307256D01*
X19293Y307161D01*
X19232Y307068D01*
X19167Y306977D01*
X19099Y306888D01*
X19028Y306802D01*
X18955Y306719D01*
X18878Y306638D01*
X18798Y306559D01*
X18716Y306484D01*
X18631Y306412D01*
X18544Y306342D01*
X18454Y306276D01*
X18362Y306213D01*
X18267Y306153D01*
X18171Y306097D01*
X18073Y306044D01*
X17973Y305995D01*
X17871Y305949D01*
X17768Y305907D01*
X17663Y305868D01*
X17557Y305833D01*
X17450Y305802D01*
X17342Y305775D01*
X17233Y305751D01*
X17123Y305732D01*
X17013Y305716D01*
X16902Y305704D01*
X16790Y305696D01*
X16679Y305692D01*
X16567Y305692D01*
X16456Y305696D01*
X16344Y305704D01*
X16233Y305716D01*
X16123Y305732D01*
X16013Y305751D01*
X15904Y305775D01*
X15796Y305802D01*
X15689Y305833D01*
X15583Y305868D01*
X15478Y305907D01*
X15375Y305949D01*
X15273Y305995D01*
X15173Y306044D01*
X15075Y306097D01*
X14979Y306153D01*
X14884Y306213D01*
X14792Y306276D01*
X14702Y306342D01*
X14615Y306412D01*
X14530Y306484D01*
X14448Y306559D01*
X14368Y306638D01*
X14291Y306719D01*
X14218Y306802D01*
X14147Y306888D01*
X14079Y306977D01*
X14014Y307068D01*
X13953Y307161D01*
X13895Y307256D01*
X13840Y307354D01*
X13789Y307453D01*
X13741Y307554D01*
X13697Y307656D01*
X13657Y307760D01*
X13620Y307866D01*
X13587Y307972D01*
X13558Y308080D01*
X13533Y308189D01*
X13511Y308298D01*
X13493Y308408D01*
X13480Y308519D01*
X13470Y308630D01*
X13464Y308741D01*
X13462Y308853D01*
X13462Y312917D01*
X21590Y312917D01*
X21691Y312915D01*
X21792Y312909D01*
X21893Y312900D01*
X21994Y312887D01*
X22094Y312870D01*
X22193Y312849D01*
X22291Y312825D01*
X22388Y312797D01*
X22485Y312765D01*
X22580Y312730D01*
X22673Y312691D01*
X22765Y312649D01*
X22856Y312603D01*
X22945Y312554D01*
X23031Y312502D01*
X23116Y312446D01*
X23199Y312388D01*
X23279Y312326D01*
X23357Y312261D01*
X23433Y312194D01*
X23506Y312124D01*
X23576Y312051D01*
X23643Y311975D01*
X23708Y311897D01*
X23770Y311817D01*
X23828Y311734D01*
X23884Y311649D01*
X23936Y311563D01*
X23985Y311474D01*
X24031Y311383D01*
X24073Y311291D01*
X24112Y311198D01*
X24147Y311103D01*
X24179Y311006D01*
X24207Y310909D01*
X24231Y310811D01*
X24252Y310712D01*
X24269Y310612D01*
X24282Y310511D01*
X24291Y310410D01*
X24297Y310309D01*
X24299Y310208D01*
X24299Y306595D01*
X29718Y320071D02*
X16171Y320071D01*
X16070Y320073D01*
X15969Y320079D01*
X15868Y320088D01*
X15767Y320101D01*
X15667Y320118D01*
X15568Y320139D01*
X15470Y320163D01*
X15373Y320191D01*
X15276Y320223D01*
X15181Y320258D01*
X15088Y320297D01*
X14996Y320339D01*
X14905Y320385D01*
X14817Y320434D01*
X14730Y320486D01*
X14645Y320542D01*
X14562Y320600D01*
X14482Y320662D01*
X14404Y320727D01*
X14328Y320794D01*
X14255Y320864D01*
X14185Y320937D01*
X14118Y321013D01*
X14053Y321091D01*
X13991Y321171D01*
X13933Y321254D01*
X13877Y321339D01*
X13825Y321426D01*
X13776Y321514D01*
X13730Y321605D01*
X13688Y321697D01*
X13649Y321790D01*
X13614Y321885D01*
X13582Y321982D01*
X13554Y322079D01*
X13530Y322177D01*
X13509Y322276D01*
X13492Y322376D01*
X13479Y322477D01*
X13470Y322578D01*
X13464Y322679D01*
X13462Y322780D01*
X19784Y331258D02*
X19784Y335322D01*
X19784Y331258D02*
X19782Y331146D01*
X19776Y331035D01*
X19766Y330924D01*
X19753Y330813D01*
X19735Y330703D01*
X19713Y330594D01*
X19688Y330485D01*
X19659Y330377D01*
X19626Y330271D01*
X19589Y330165D01*
X19549Y330061D01*
X19505Y329959D01*
X19457Y329858D01*
X19406Y329759D01*
X19351Y329661D01*
X19293Y329566D01*
X19232Y329473D01*
X19167Y329382D01*
X19099Y329293D01*
X19028Y329207D01*
X18955Y329124D01*
X18878Y329043D01*
X18798Y328964D01*
X18716Y328889D01*
X18631Y328817D01*
X18544Y328747D01*
X18454Y328681D01*
X18362Y328618D01*
X18267Y328558D01*
X18171Y328502D01*
X18073Y328449D01*
X17973Y328400D01*
X17871Y328354D01*
X17768Y328312D01*
X17663Y328273D01*
X17557Y328238D01*
X17450Y328207D01*
X17342Y328180D01*
X17233Y328156D01*
X17123Y328137D01*
X17013Y328121D01*
X16902Y328109D01*
X16790Y328101D01*
X16679Y328097D01*
X16567Y328097D01*
X16456Y328101D01*
X16344Y328109D01*
X16233Y328121D01*
X16123Y328137D01*
X16013Y328156D01*
X15904Y328180D01*
X15796Y328207D01*
X15689Y328238D01*
X15583Y328273D01*
X15478Y328312D01*
X15375Y328354D01*
X15273Y328400D01*
X15173Y328449D01*
X15075Y328502D01*
X14979Y328558D01*
X14884Y328618D01*
X14792Y328681D01*
X14702Y328747D01*
X14615Y328817D01*
X14530Y328889D01*
X14448Y328964D01*
X14368Y329043D01*
X14291Y329124D01*
X14218Y329207D01*
X14147Y329293D01*
X14079Y329382D01*
X14014Y329473D01*
X13953Y329566D01*
X13895Y329661D01*
X13840Y329759D01*
X13789Y329858D01*
X13741Y329959D01*
X13697Y330061D01*
X13657Y330165D01*
X13620Y330271D01*
X13587Y330377D01*
X13558Y330485D01*
X13533Y330594D01*
X13511Y330703D01*
X13493Y330813D01*
X13480Y330924D01*
X13470Y331035D01*
X13464Y331146D01*
X13462Y331258D01*
X13462Y335322D01*
X21590Y335322D01*
X21691Y335320D01*
X21792Y335314D01*
X21893Y335305D01*
X21994Y335292D01*
X22094Y335275D01*
X22193Y335254D01*
X22291Y335230D01*
X22388Y335202D01*
X22485Y335170D01*
X22580Y335135D01*
X22673Y335096D01*
X22765Y335054D01*
X22856Y335008D01*
X22945Y334959D01*
X23031Y334907D01*
X23116Y334851D01*
X23199Y334793D01*
X23279Y334731D01*
X23357Y334666D01*
X23433Y334599D01*
X23506Y334529D01*
X23576Y334456D01*
X23643Y334380D01*
X23708Y334302D01*
X23770Y334222D01*
X23828Y334139D01*
X23884Y334054D01*
X23936Y333968D01*
X23985Y333879D01*
X24031Y333788D01*
X24073Y333696D01*
X24112Y333603D01*
X24147Y333508D01*
X24179Y333411D01*
X24207Y333314D01*
X24231Y333216D01*
X24252Y333117D01*
X24269Y333017D01*
X24282Y332916D01*
X24291Y332815D01*
X24297Y332714D01*
X24299Y332613D01*
X24299Y329000D01*
X24299Y342760D02*
X13462Y342760D01*
X24299Y342760D02*
X24299Y347275D01*
X24297Y347376D01*
X24291Y347477D01*
X24282Y347578D01*
X24269Y347679D01*
X24252Y347779D01*
X24231Y347878D01*
X24207Y347976D01*
X24179Y348073D01*
X24147Y348170D01*
X24112Y348265D01*
X24073Y348358D01*
X24031Y348450D01*
X23985Y348541D01*
X23936Y348630D01*
X23884Y348716D01*
X23828Y348801D01*
X23770Y348884D01*
X23708Y348964D01*
X23643Y349042D01*
X23576Y349118D01*
X23506Y349191D01*
X23433Y349261D01*
X23357Y349328D01*
X23279Y349393D01*
X23199Y349455D01*
X23116Y349513D01*
X23031Y349569D01*
X22945Y349621D01*
X22856Y349670D01*
X22765Y349716D01*
X22673Y349758D01*
X22580Y349797D01*
X22485Y349832D01*
X22388Y349864D01*
X22291Y349892D01*
X22193Y349916D01*
X22094Y349937D01*
X21994Y349954D01*
X21893Y349967D01*
X21792Y349976D01*
X21691Y349982D01*
X21590Y349984D01*
X13462Y349984D01*
X13462Y359555D02*
X13462Y363167D01*
X13462Y359555D02*
X13464Y359454D01*
X13470Y359353D01*
X13479Y359252D01*
X13492Y359151D01*
X13509Y359051D01*
X13530Y358952D01*
X13554Y358854D01*
X13582Y358757D01*
X13614Y358660D01*
X13649Y358565D01*
X13688Y358472D01*
X13730Y358380D01*
X13776Y358289D01*
X13825Y358201D01*
X13877Y358114D01*
X13933Y358029D01*
X13991Y357946D01*
X14053Y357866D01*
X14118Y357788D01*
X14185Y357712D01*
X14255Y357639D01*
X14328Y357569D01*
X14404Y357502D01*
X14482Y357437D01*
X14562Y357375D01*
X14645Y357317D01*
X14730Y357261D01*
X14817Y357209D01*
X14905Y357160D01*
X14996Y357114D01*
X15088Y357072D01*
X15181Y357033D01*
X15276Y356998D01*
X15373Y356966D01*
X15470Y356938D01*
X15568Y356914D01*
X15667Y356893D01*
X15767Y356876D01*
X15868Y356863D01*
X15969Y356854D01*
X16070Y356848D01*
X16171Y356846D01*
X16171Y356845D02*
X21590Y356845D01*
X21590Y356846D02*
X21691Y356848D01*
X21792Y356854D01*
X21893Y356863D01*
X21994Y356876D01*
X22094Y356893D01*
X22193Y356914D01*
X22291Y356938D01*
X22388Y356966D01*
X22485Y356998D01*
X22580Y357033D01*
X22673Y357072D01*
X22765Y357114D01*
X22856Y357160D01*
X22944Y357209D01*
X23031Y357261D01*
X23116Y357317D01*
X23199Y357375D01*
X23279Y357437D01*
X23357Y357502D01*
X23433Y357569D01*
X23506Y357639D01*
X23576Y357712D01*
X23643Y357788D01*
X23708Y357866D01*
X23770Y357946D01*
X23828Y358029D01*
X23884Y358114D01*
X23936Y358201D01*
X23985Y358289D01*
X24031Y358380D01*
X24073Y358472D01*
X24112Y358565D01*
X24147Y358660D01*
X24179Y358757D01*
X24207Y358854D01*
X24231Y358952D01*
X24252Y359051D01*
X24269Y359151D01*
X24282Y359252D01*
X24291Y359353D01*
X24297Y359454D01*
X24299Y359555D01*
X24299Y363167D01*
X13462Y371521D02*
X13462Y376036D01*
X13462Y371521D02*
X13464Y371420D01*
X13470Y371319D01*
X13479Y371218D01*
X13492Y371117D01*
X13509Y371017D01*
X13530Y370918D01*
X13554Y370820D01*
X13582Y370723D01*
X13614Y370626D01*
X13649Y370531D01*
X13688Y370438D01*
X13730Y370346D01*
X13776Y370255D01*
X13825Y370167D01*
X13877Y370080D01*
X13933Y369995D01*
X13991Y369912D01*
X14053Y369832D01*
X14118Y369754D01*
X14185Y369678D01*
X14255Y369605D01*
X14328Y369535D01*
X14404Y369468D01*
X14482Y369403D01*
X14562Y369341D01*
X14645Y369283D01*
X14730Y369227D01*
X14817Y369175D01*
X14905Y369126D01*
X14996Y369080D01*
X15088Y369038D01*
X15181Y368999D01*
X15276Y368964D01*
X15373Y368932D01*
X15470Y368904D01*
X15568Y368880D01*
X15667Y368859D01*
X15767Y368842D01*
X15868Y368829D01*
X15969Y368820D01*
X16070Y368814D01*
X16171Y368812D01*
X20687Y368812D01*
X20806Y368814D01*
X20926Y368820D01*
X21045Y368830D01*
X21163Y368844D01*
X21282Y368861D01*
X21399Y368883D01*
X21516Y368908D01*
X21631Y368938D01*
X21746Y368971D01*
X21860Y369008D01*
X21972Y369048D01*
X22083Y369093D01*
X22192Y369141D01*
X22300Y369192D01*
X22406Y369247D01*
X22510Y369306D01*
X22612Y369368D01*
X22712Y369433D01*
X22810Y369502D01*
X22906Y369574D01*
X22999Y369649D01*
X23089Y369726D01*
X23177Y369807D01*
X23262Y369891D01*
X23344Y369978D01*
X23424Y370067D01*
X23500Y370159D01*
X23574Y370253D01*
X23644Y370350D01*
X23711Y370448D01*
X23775Y370549D01*
X23835Y370653D01*
X23892Y370758D01*
X23945Y370865D01*
X23995Y370973D01*
X24041Y371083D01*
X24083Y371195D01*
X24122Y371308D01*
X24157Y371422D01*
X24188Y371537D01*
X24216Y371654D01*
X24239Y371771D01*
X24259Y371888D01*
X24275Y372007D01*
X24287Y372126D01*
X24295Y372245D01*
X24299Y372364D01*
X24299Y372484D01*
X24295Y372603D01*
X24287Y372722D01*
X24275Y372841D01*
X24259Y372960D01*
X24239Y373077D01*
X24216Y373194D01*
X24188Y373311D01*
X24157Y373426D01*
X24122Y373540D01*
X24083Y373653D01*
X24041Y373765D01*
X23995Y373875D01*
X23945Y373983D01*
X23892Y374090D01*
X23835Y374195D01*
X23775Y374299D01*
X23711Y374400D01*
X23644Y374498D01*
X23574Y374595D01*
X23500Y374689D01*
X23424Y374781D01*
X23344Y374870D01*
X23262Y374957D01*
X23177Y375041D01*
X23089Y375122D01*
X22999Y375199D01*
X22906Y375274D01*
X22810Y375346D01*
X22712Y375415D01*
X22612Y375480D01*
X22510Y375542D01*
X22406Y375601D01*
X22300Y375656D01*
X22192Y375707D01*
X22083Y375755D01*
X21972Y375800D01*
X21860Y375840D01*
X21746Y375877D01*
X21631Y375910D01*
X21516Y375940D01*
X21399Y375965D01*
X21282Y375987D01*
X21163Y376004D01*
X21045Y376018D01*
X20926Y376028D01*
X20806Y376034D01*
X20687Y376036D01*
X18881Y376036D01*
X18881Y368812D01*
X254762Y283774D02*
X265599Y280162D01*
X265599Y287387D02*
X254762Y283774D01*
X262890Y293327D02*
X263210Y293331D01*
X263529Y293342D01*
X263849Y293361D01*
X264167Y293388D01*
X264485Y293422D01*
X264802Y293464D01*
X265118Y293514D01*
X265433Y293571D01*
X265746Y293635D01*
X266058Y293707D01*
X266368Y293786D01*
X266675Y293873D01*
X266981Y293967D01*
X267284Y294068D01*
X267585Y294177D01*
X267883Y294292D01*
X268179Y294415D01*
X268471Y294545D01*
X268760Y294682D01*
X268761Y294682D02*
X268869Y294721D01*
X268976Y294764D01*
X269081Y294810D01*
X269185Y294861D01*
X269287Y294914D01*
X269387Y294971D01*
X269485Y295032D01*
X269580Y295096D01*
X269674Y295163D01*
X269765Y295234D01*
X269854Y295307D01*
X269940Y295384D01*
X270023Y295463D01*
X270104Y295545D01*
X270182Y295630D01*
X270256Y295718D01*
X270328Y295808D01*
X270396Y295900D01*
X270462Y295995D01*
X270524Y296092D01*
X270582Y296191D01*
X270638Y296293D01*
X270689Y296395D01*
X270737Y296500D01*
X270782Y296606D01*
X270823Y296714D01*
X270860Y296823D01*
X270893Y296933D01*
X270922Y297045D01*
X270948Y297157D01*
X270970Y297270D01*
X270987Y297384D01*
X271001Y297498D01*
X271011Y297613D01*
X271017Y297728D01*
X271019Y297843D01*
X271018Y297843D02*
X271016Y297958D01*
X271010Y298073D01*
X271000Y298188D01*
X270986Y298302D01*
X270969Y298416D01*
X270947Y298529D01*
X270921Y298641D01*
X270892Y298753D01*
X270859Y298863D01*
X270822Y298972D01*
X270781Y299080D01*
X270736Y299186D01*
X270688Y299291D01*
X270637Y299393D01*
X270581Y299494D01*
X270523Y299594D01*
X270461Y299691D01*
X270396Y299785D01*
X270327Y299878D01*
X270255Y299968D01*
X270181Y300056D01*
X270103Y300141D01*
X270022Y300223D01*
X269939Y300302D01*
X269853Y300379D01*
X269764Y300452D01*
X269673Y300523D01*
X269579Y300590D01*
X269484Y300654D01*
X269386Y300715D01*
X269286Y300772D01*
X269184Y300825D01*
X269080Y300876D01*
X268975Y300922D01*
X268868Y300965D01*
X268760Y301004D01*
X268760Y301003D02*
X268471Y301140D01*
X268179Y301270D01*
X267883Y301393D01*
X267585Y301508D01*
X267284Y301617D01*
X266981Y301718D01*
X266675Y301812D01*
X266368Y301899D01*
X266058Y301978D01*
X265746Y302050D01*
X265433Y302114D01*
X265118Y302171D01*
X264802Y302221D01*
X264485Y302263D01*
X264167Y302297D01*
X263849Y302324D01*
X263529Y302343D01*
X263210Y302354D01*
X262890Y302358D01*
X262890Y293327D02*
X262570Y293331D01*
X262251Y293342D01*
X261931Y293361D01*
X261613Y293388D01*
X261295Y293422D01*
X260978Y293464D01*
X260662Y293514D01*
X260347Y293571D01*
X260034Y293635D01*
X259722Y293707D01*
X259412Y293786D01*
X259105Y293873D01*
X258799Y293967D01*
X258496Y294068D01*
X258195Y294177D01*
X257897Y294292D01*
X257601Y294415D01*
X257309Y294545D01*
X257020Y294682D01*
X256912Y294721D01*
X256805Y294764D01*
X256700Y294810D01*
X256596Y294861D01*
X256494Y294914D01*
X256394Y294971D01*
X256296Y295032D01*
X256201Y295096D01*
X256107Y295163D01*
X256016Y295234D01*
X255927Y295307D01*
X255841Y295384D01*
X255758Y295463D01*
X255677Y295545D01*
X255599Y295630D01*
X255525Y295718D01*
X255453Y295808D01*
X255384Y295901D01*
X255319Y295995D01*
X255257Y296092D01*
X255199Y296192D01*
X255143Y296293D01*
X255092Y296395D01*
X255044Y296500D01*
X254999Y296606D01*
X254958Y296714D01*
X254921Y296823D01*
X254888Y296933D01*
X254859Y297045D01*
X254833Y297157D01*
X254811Y297270D01*
X254794Y297384D01*
X254780Y297498D01*
X254770Y297613D01*
X254764Y297728D01*
X254762Y297843D01*
X257020Y301003D02*
X257309Y301140D01*
X257601Y301270D01*
X257897Y301393D01*
X258195Y301508D01*
X258496Y301617D01*
X258799Y301718D01*
X259105Y301812D01*
X259412Y301899D01*
X259722Y301978D01*
X260034Y302050D01*
X260347Y302114D01*
X260662Y302171D01*
X260978Y302221D01*
X261295Y302263D01*
X261613Y302297D01*
X261931Y302324D01*
X262251Y302343D01*
X262570Y302354D01*
X262890Y302358D01*
X257020Y301004D02*
X256912Y300965D01*
X256805Y300922D01*
X256700Y300876D01*
X256596Y300825D01*
X256494Y300772D01*
X256394Y300715D01*
X256296Y300654D01*
X256201Y300590D01*
X256107Y300523D01*
X256016Y300452D01*
X255927Y300379D01*
X255841Y300302D01*
X255758Y300223D01*
X255677Y300141D01*
X255599Y300056D01*
X255525Y299968D01*
X255453Y299878D01*
X255384Y299785D01*
X255319Y299691D01*
X255257Y299594D01*
X255199Y299494D01*
X255143Y299393D01*
X255092Y299290D01*
X255044Y299186D01*
X254999Y299080D01*
X254958Y298972D01*
X254921Y298863D01*
X254888Y298753D01*
X254859Y298641D01*
X254833Y298529D01*
X254811Y298416D01*
X254794Y298302D01*
X254780Y298188D01*
X254770Y298073D01*
X254764Y297958D01*
X254762Y297843D01*
X258374Y294230D02*
X267406Y301455D01*
X255665Y308333D02*
X254762Y308333D01*
X255665Y308333D02*
X255665Y309236D01*
X254762Y309236D01*
X254762Y308333D01*
X262890Y315211D02*
X263210Y315215D01*
X263529Y315226D01*
X263849Y315245D01*
X264167Y315272D01*
X264485Y315306D01*
X264802Y315348D01*
X265118Y315398D01*
X265433Y315455D01*
X265746Y315519D01*
X266058Y315591D01*
X266368Y315670D01*
X266675Y315757D01*
X266981Y315851D01*
X267284Y315952D01*
X267585Y316061D01*
X267883Y316176D01*
X268179Y316299D01*
X268471Y316429D01*
X268760Y316566D01*
X268761Y316565D02*
X268869Y316604D01*
X268976Y316647D01*
X269081Y316693D01*
X269185Y316744D01*
X269287Y316797D01*
X269387Y316854D01*
X269485Y316915D01*
X269580Y316979D01*
X269674Y317046D01*
X269765Y317117D01*
X269854Y317190D01*
X269940Y317267D01*
X270023Y317346D01*
X270104Y317428D01*
X270182Y317513D01*
X270256Y317601D01*
X270328Y317691D01*
X270396Y317783D01*
X270462Y317878D01*
X270524Y317975D01*
X270582Y318074D01*
X270638Y318176D01*
X270689Y318278D01*
X270737Y318383D01*
X270782Y318489D01*
X270823Y318597D01*
X270860Y318706D01*
X270893Y318816D01*
X270922Y318928D01*
X270948Y319040D01*
X270970Y319153D01*
X270987Y319267D01*
X271001Y319381D01*
X271011Y319496D01*
X271017Y319611D01*
X271019Y319726D01*
X271018Y319726D02*
X271016Y319841D01*
X271010Y319956D01*
X271000Y320071D01*
X270986Y320185D01*
X270969Y320299D01*
X270947Y320412D01*
X270921Y320524D01*
X270892Y320636D01*
X270859Y320746D01*
X270822Y320855D01*
X270781Y320963D01*
X270736Y321069D01*
X270688Y321174D01*
X270637Y321276D01*
X270581Y321377D01*
X270523Y321477D01*
X270461Y321574D01*
X270396Y321668D01*
X270327Y321761D01*
X270255Y321851D01*
X270181Y321939D01*
X270103Y322024D01*
X270022Y322106D01*
X269939Y322185D01*
X269853Y322262D01*
X269764Y322335D01*
X269673Y322406D01*
X269579Y322473D01*
X269484Y322537D01*
X269386Y322598D01*
X269286Y322655D01*
X269184Y322708D01*
X269080Y322759D01*
X268975Y322805D01*
X268868Y322848D01*
X268760Y322887D01*
X268471Y323024D01*
X268179Y323154D01*
X267883Y323277D01*
X267585Y323392D01*
X267284Y323501D01*
X266981Y323602D01*
X266675Y323696D01*
X266368Y323783D01*
X266058Y323862D01*
X265746Y323934D01*
X265433Y323998D01*
X265118Y324055D01*
X264802Y324105D01*
X264485Y324147D01*
X264167Y324181D01*
X263849Y324208D01*
X263529Y324227D01*
X263210Y324238D01*
X262890Y324242D01*
X262890Y315211D02*
X262570Y315215D01*
X262251Y315226D01*
X261931Y315245D01*
X261613Y315272D01*
X261295Y315306D01*
X260978Y315348D01*
X260662Y315398D01*
X260347Y315455D01*
X260034Y315519D01*
X259722Y315591D01*
X259412Y315670D01*
X259105Y315757D01*
X258799Y315851D01*
X258496Y315952D01*
X258195Y316061D01*
X257897Y316176D01*
X257601Y316299D01*
X257309Y316429D01*
X257020Y316566D01*
X257020Y316565D02*
X256912Y316604D01*
X256805Y316647D01*
X256700Y316693D01*
X256596Y316744D01*
X256494Y316797D01*
X256394Y316854D01*
X256296Y316915D01*
X256201Y316979D01*
X256107Y317046D01*
X256016Y317117D01*
X255927Y317190D01*
X255841Y317267D01*
X255758Y317346D01*
X255677Y317428D01*
X255599Y317513D01*
X255525Y317601D01*
X255453Y317691D01*
X255384Y317784D01*
X255319Y317878D01*
X255257Y317975D01*
X255199Y318075D01*
X255143Y318176D01*
X255092Y318278D01*
X255044Y318383D01*
X254999Y318489D01*
X254958Y318597D01*
X254921Y318706D01*
X254888Y318816D01*
X254859Y318928D01*
X254833Y319040D01*
X254811Y319153D01*
X254794Y319267D01*
X254780Y319381D01*
X254770Y319496D01*
X254764Y319611D01*
X254762Y319726D01*
X257020Y322886D02*
X257309Y323023D01*
X257601Y323153D01*
X257897Y323276D01*
X258195Y323391D01*
X258496Y323500D01*
X258799Y323601D01*
X259105Y323695D01*
X259412Y323782D01*
X259722Y323861D01*
X260034Y323933D01*
X260347Y323997D01*
X260662Y324054D01*
X260978Y324104D01*
X261295Y324146D01*
X261613Y324180D01*
X261931Y324207D01*
X262251Y324226D01*
X262570Y324237D01*
X262890Y324241D01*
X257020Y322887D02*
X256912Y322848D01*
X256805Y322805D01*
X256700Y322759D01*
X256596Y322708D01*
X256494Y322655D01*
X256394Y322598D01*
X256296Y322537D01*
X256201Y322473D01*
X256107Y322406D01*
X256016Y322335D01*
X255927Y322262D01*
X255841Y322185D01*
X255758Y322106D01*
X255677Y322024D01*
X255599Y321939D01*
X255525Y321851D01*
X255453Y321761D01*
X255384Y321668D01*
X255319Y321574D01*
X255257Y321477D01*
X255199Y321377D01*
X255143Y321276D01*
X255092Y321173D01*
X255044Y321069D01*
X254999Y320963D01*
X254958Y320855D01*
X254921Y320746D01*
X254888Y320636D01*
X254859Y320524D01*
X254833Y320412D01*
X254811Y320299D01*
X254794Y320185D01*
X254780Y320071D01*
X254770Y319956D01*
X254764Y319841D01*
X254762Y319726D01*
X258374Y316114D02*
X267406Y323339D01*
X254762Y330842D02*
X254762Y335357D01*
X254764Y335490D01*
X254770Y335622D01*
X254780Y335754D01*
X254793Y335886D01*
X254811Y336018D01*
X254832Y336148D01*
X254857Y336279D01*
X254886Y336408D01*
X254919Y336536D01*
X254955Y336664D01*
X254995Y336790D01*
X255039Y336915D01*
X255087Y337039D01*
X255138Y337161D01*
X255193Y337282D01*
X255251Y337401D01*
X255313Y337519D01*
X255378Y337634D01*
X255447Y337748D01*
X255518Y337859D01*
X255594Y337968D01*
X255672Y338075D01*
X255753Y338180D01*
X255838Y338282D01*
X255925Y338382D01*
X256015Y338479D01*
X256108Y338574D01*
X256204Y338665D01*
X256302Y338754D01*
X256403Y338840D01*
X256507Y338923D01*
X256613Y339003D01*
X256721Y339079D01*
X256831Y339153D01*
X256944Y339223D01*
X257058Y339290D01*
X257175Y339353D01*
X257293Y339413D01*
X257413Y339470D01*
X257535Y339523D01*
X257658Y339572D01*
X257782Y339618D01*
X257908Y339660D01*
X258035Y339698D01*
X258163Y339733D01*
X258292Y339764D01*
X258421Y339791D01*
X258552Y339814D01*
X258683Y339834D01*
X258815Y339849D01*
X258947Y339861D01*
X259079Y339869D01*
X259212Y339873D01*
X259344Y339873D01*
X259477Y339869D01*
X259609Y339861D01*
X259741Y339849D01*
X259873Y339834D01*
X260004Y339814D01*
X260135Y339791D01*
X260264Y339764D01*
X260393Y339733D01*
X260521Y339698D01*
X260648Y339660D01*
X260774Y339618D01*
X260898Y339572D01*
X261021Y339523D01*
X261143Y339470D01*
X261263Y339413D01*
X261381Y339353D01*
X261498Y339290D01*
X261612Y339223D01*
X261725Y339153D01*
X261835Y339079D01*
X261943Y339003D01*
X262049Y338923D01*
X262153Y338840D01*
X262254Y338754D01*
X262352Y338665D01*
X262448Y338574D01*
X262541Y338479D01*
X262631Y338382D01*
X262718Y338282D01*
X262803Y338180D01*
X262884Y338075D01*
X262962Y337968D01*
X263038Y337859D01*
X263109Y337748D01*
X263178Y337634D01*
X263243Y337519D01*
X263305Y337401D01*
X263363Y337282D01*
X263418Y337161D01*
X263469Y337039D01*
X263517Y336915D01*
X263561Y336790D01*
X263601Y336664D01*
X263637Y336536D01*
X263670Y336408D01*
X263699Y336279D01*
X263724Y336148D01*
X263745Y336018D01*
X263763Y335886D01*
X263776Y335754D01*
X263786Y335622D01*
X263792Y335490D01*
X263794Y335357D01*
X271018Y336261D02*
X271018Y330842D01*
X271018Y336261D02*
X271016Y336380D01*
X271010Y336500D01*
X271000Y336619D01*
X270986Y336737D01*
X270969Y336856D01*
X270947Y336973D01*
X270922Y337090D01*
X270892Y337205D01*
X270859Y337320D01*
X270822Y337434D01*
X270782Y337546D01*
X270737Y337657D01*
X270689Y337766D01*
X270638Y337874D01*
X270583Y337980D01*
X270524Y338084D01*
X270462Y338186D01*
X270397Y338286D01*
X270328Y338384D01*
X270256Y338480D01*
X270181Y338573D01*
X270104Y338663D01*
X270023Y338751D01*
X269939Y338836D01*
X269852Y338918D01*
X269763Y338998D01*
X269671Y339074D01*
X269577Y339148D01*
X269480Y339218D01*
X269382Y339285D01*
X269281Y339349D01*
X269177Y339409D01*
X269072Y339466D01*
X268965Y339519D01*
X268857Y339569D01*
X268747Y339615D01*
X268635Y339657D01*
X268522Y339696D01*
X268408Y339731D01*
X268293Y339762D01*
X268176Y339790D01*
X268059Y339813D01*
X267942Y339833D01*
X267823Y339849D01*
X267704Y339861D01*
X267585Y339869D01*
X267466Y339873D01*
X267346Y339873D01*
X267227Y339869D01*
X267108Y339861D01*
X266989Y339849D01*
X266870Y339833D01*
X266753Y339813D01*
X266636Y339790D01*
X266519Y339762D01*
X266404Y339731D01*
X266290Y339696D01*
X266177Y339657D01*
X266065Y339615D01*
X265955Y339569D01*
X265847Y339519D01*
X265740Y339466D01*
X265635Y339409D01*
X265531Y339349D01*
X265430Y339285D01*
X265332Y339218D01*
X265235Y339148D01*
X265141Y339074D01*
X265049Y338998D01*
X264960Y338918D01*
X264873Y338836D01*
X264789Y338751D01*
X264708Y338663D01*
X264631Y338573D01*
X264556Y338480D01*
X264484Y338384D01*
X264415Y338286D01*
X264350Y338186D01*
X264288Y338084D01*
X264229Y337980D01*
X264174Y337874D01*
X264123Y337766D01*
X264075Y337657D01*
X264030Y337546D01*
X263990Y337434D01*
X263953Y337320D01*
X263920Y337205D01*
X263890Y337090D01*
X263865Y336973D01*
X263843Y336856D01*
X263826Y336737D01*
X263812Y336619D01*
X263802Y336500D01*
X263796Y336380D01*
X263794Y336261D01*
X263793Y336261D02*
X263793Y332648D01*
X263793Y17978D02*
X263793Y13462D01*
X263794Y17978D02*
X263792Y18111D01*
X263786Y18243D01*
X263776Y18375D01*
X263763Y18507D01*
X263745Y18639D01*
X263724Y18769D01*
X263699Y18900D01*
X263670Y19029D01*
X263637Y19157D01*
X263601Y19285D01*
X263561Y19411D01*
X263517Y19536D01*
X263469Y19660D01*
X263418Y19782D01*
X263363Y19903D01*
X263305Y20022D01*
X263243Y20140D01*
X263178Y20255D01*
X263109Y20369D01*
X263038Y20480D01*
X262962Y20589D01*
X262884Y20696D01*
X262803Y20801D01*
X262718Y20903D01*
X262631Y21003D01*
X262541Y21100D01*
X262448Y21195D01*
X262352Y21286D01*
X262254Y21375D01*
X262153Y21461D01*
X262049Y21544D01*
X261943Y21624D01*
X261835Y21700D01*
X261725Y21774D01*
X261612Y21844D01*
X261498Y21911D01*
X261381Y21974D01*
X261263Y22034D01*
X261143Y22091D01*
X261021Y22144D01*
X260898Y22193D01*
X260774Y22239D01*
X260648Y22281D01*
X260521Y22319D01*
X260393Y22354D01*
X260264Y22385D01*
X260135Y22412D01*
X260004Y22435D01*
X259873Y22455D01*
X259741Y22470D01*
X259609Y22482D01*
X259477Y22490D01*
X259344Y22494D01*
X259212Y22494D01*
X259079Y22490D01*
X258947Y22482D01*
X258815Y22470D01*
X258683Y22455D01*
X258552Y22435D01*
X258421Y22412D01*
X258292Y22385D01*
X258163Y22354D01*
X258035Y22319D01*
X257908Y22281D01*
X257782Y22239D01*
X257658Y22193D01*
X257535Y22144D01*
X257413Y22091D01*
X257293Y22034D01*
X257175Y21974D01*
X257058Y21911D01*
X256944Y21844D01*
X256831Y21774D01*
X256721Y21700D01*
X256613Y21624D01*
X256507Y21544D01*
X256403Y21461D01*
X256302Y21375D01*
X256204Y21286D01*
X256108Y21195D01*
X256015Y21100D01*
X255925Y21003D01*
X255838Y20903D01*
X255753Y20801D01*
X255672Y20696D01*
X255594Y20589D01*
X255518Y20480D01*
X255447Y20369D01*
X255378Y20255D01*
X255313Y20140D01*
X255251Y20022D01*
X255193Y19903D01*
X255138Y19782D01*
X255087Y19660D01*
X255039Y19536D01*
X254995Y19411D01*
X254955Y19285D01*
X254919Y19157D01*
X254886Y19029D01*
X254857Y18900D01*
X254832Y18769D01*
X254811Y18639D01*
X254793Y18507D01*
X254780Y18375D01*
X254770Y18243D01*
X254764Y18111D01*
X254762Y17978D01*
X254762Y13462D01*
X271018Y13462D01*
X271018Y17978D01*
X271016Y18097D01*
X271010Y18217D01*
X271000Y18336D01*
X270986Y18454D01*
X270969Y18573D01*
X270947Y18690D01*
X270922Y18807D01*
X270892Y18922D01*
X270859Y19037D01*
X270822Y19151D01*
X270782Y19263D01*
X270737Y19374D01*
X270689Y19483D01*
X270638Y19591D01*
X270583Y19697D01*
X270524Y19801D01*
X270462Y19903D01*
X270397Y20003D01*
X270328Y20101D01*
X270256Y20197D01*
X270181Y20290D01*
X270104Y20380D01*
X270023Y20468D01*
X269939Y20553D01*
X269852Y20635D01*
X269763Y20715D01*
X269671Y20791D01*
X269577Y20865D01*
X269480Y20935D01*
X269382Y21002D01*
X269281Y21066D01*
X269177Y21126D01*
X269072Y21183D01*
X268965Y21236D01*
X268857Y21286D01*
X268747Y21332D01*
X268635Y21374D01*
X268522Y21413D01*
X268408Y21448D01*
X268293Y21479D01*
X268176Y21507D01*
X268059Y21530D01*
X267942Y21550D01*
X267823Y21566D01*
X267704Y21578D01*
X267585Y21586D01*
X267466Y21590D01*
X267346Y21590D01*
X267227Y21586D01*
X267108Y21578D01*
X266989Y21566D01*
X266870Y21550D01*
X266753Y21530D01*
X266636Y21507D01*
X266519Y21479D01*
X266404Y21448D01*
X266290Y21413D01*
X266177Y21374D01*
X266065Y21332D01*
X265955Y21286D01*
X265847Y21236D01*
X265740Y21183D01*
X265635Y21126D01*
X265531Y21066D01*
X265430Y21002D01*
X265332Y20935D01*
X265235Y20865D01*
X265141Y20791D01*
X265049Y20715D01*
X264960Y20635D01*
X264873Y20553D01*
X264789Y20468D01*
X264708Y20380D01*
X264631Y20290D01*
X264556Y20197D01*
X264484Y20101D01*
X264415Y20003D01*
X264350Y19903D01*
X264288Y19801D01*
X264229Y19697D01*
X264174Y19591D01*
X264123Y19483D01*
X264075Y19374D01*
X264030Y19263D01*
X263990Y19151D01*
X263953Y19037D01*
X263920Y18922D01*
X263890Y18807D01*
X263865Y18690D01*
X263843Y18573D01*
X263826Y18454D01*
X263812Y18336D01*
X263802Y18217D01*
X263796Y18097D01*
X263794Y17978D01*
X271018Y27736D02*
X254762Y31349D01*
X265599Y34961D01*
X254762Y38573D01*
X271018Y42186D01*
X263793Y48161D02*
X263793Y53579D01*
X263791Y53697D01*
X263785Y53815D01*
X263776Y53933D01*
X263762Y54050D01*
X263745Y54167D01*
X263724Y54284D01*
X263699Y54399D01*
X263670Y54514D01*
X263637Y54628D01*
X263601Y54740D01*
X263561Y54851D01*
X263518Y54961D01*
X263471Y55070D01*
X263421Y55177D01*
X263366Y55282D01*
X263309Y55385D01*
X263248Y55486D01*
X263184Y55586D01*
X263117Y55683D01*
X263047Y55778D01*
X262973Y55870D01*
X262897Y55961D01*
X262817Y56048D01*
X262735Y56133D01*
X262650Y56215D01*
X262563Y56295D01*
X262472Y56371D01*
X262380Y56445D01*
X262285Y56515D01*
X262188Y56582D01*
X262088Y56646D01*
X261987Y56707D01*
X261884Y56764D01*
X261779Y56819D01*
X261672Y56869D01*
X261563Y56916D01*
X261453Y56959D01*
X261342Y56999D01*
X261230Y57035D01*
X261116Y57068D01*
X261001Y57097D01*
X260886Y57122D01*
X260769Y57143D01*
X260652Y57160D01*
X260535Y57174D01*
X260417Y57183D01*
X260299Y57189D01*
X260181Y57191D01*
X260181Y57192D02*
X259278Y57192D01*
X259145Y57190D01*
X259013Y57184D01*
X258881Y57174D01*
X258749Y57161D01*
X258617Y57143D01*
X258487Y57122D01*
X258356Y57097D01*
X258227Y57068D01*
X258099Y57035D01*
X257971Y56999D01*
X257845Y56959D01*
X257720Y56915D01*
X257596Y56867D01*
X257474Y56816D01*
X257353Y56761D01*
X257234Y56703D01*
X257116Y56641D01*
X257001Y56576D01*
X256887Y56507D01*
X256776Y56436D01*
X256667Y56360D01*
X256560Y56282D01*
X256455Y56201D01*
X256353Y56116D01*
X256253Y56029D01*
X256156Y55939D01*
X256061Y55846D01*
X255970Y55750D01*
X255881Y55652D01*
X255795Y55551D01*
X255712Y55447D01*
X255632Y55341D01*
X255556Y55233D01*
X255482Y55123D01*
X255412Y55010D01*
X255345Y54896D01*
X255282Y54779D01*
X255222Y54661D01*
X255165Y54541D01*
X255112Y54419D01*
X255063Y54296D01*
X255017Y54172D01*
X254975Y54046D01*
X254937Y53919D01*
X254902Y53791D01*
X254871Y53662D01*
X254844Y53533D01*
X254821Y53402D01*
X254801Y53271D01*
X254786Y53139D01*
X254774Y53007D01*
X254766Y52875D01*
X254762Y52742D01*
X254762Y52610D01*
X254766Y52477D01*
X254774Y52345D01*
X254786Y52213D01*
X254801Y52081D01*
X254821Y51950D01*
X254844Y51819D01*
X254871Y51690D01*
X254902Y51561D01*
X254937Y51433D01*
X254975Y51306D01*
X255017Y51180D01*
X255063Y51056D01*
X255112Y50933D01*
X255165Y50811D01*
X255222Y50691D01*
X255282Y50573D01*
X255345Y50456D01*
X255412Y50342D01*
X255482Y50229D01*
X255556Y50119D01*
X255632Y50011D01*
X255712Y49905D01*
X255795Y49801D01*
X255881Y49700D01*
X255970Y49602D01*
X256061Y49506D01*
X256156Y49413D01*
X256253Y49323D01*
X256353Y49236D01*
X256455Y49151D01*
X256560Y49070D01*
X256667Y48992D01*
X256776Y48916D01*
X256887Y48845D01*
X257001Y48776D01*
X257116Y48711D01*
X257234Y48649D01*
X257353Y48591D01*
X257474Y48536D01*
X257596Y48485D01*
X257720Y48437D01*
X257845Y48393D01*
X257971Y48353D01*
X258099Y48317D01*
X258227Y48284D01*
X258356Y48255D01*
X258487Y48230D01*
X258617Y48209D01*
X258749Y48191D01*
X258881Y48178D01*
X259013Y48168D01*
X259145Y48162D01*
X259278Y48160D01*
X259278Y48161D02*
X263793Y48161D01*
X263968Y48163D01*
X264142Y48169D01*
X264316Y48180D01*
X264490Y48195D01*
X264664Y48214D01*
X264837Y48237D01*
X265009Y48264D01*
X265181Y48296D01*
X265352Y48331D01*
X265522Y48371D01*
X265691Y48415D01*
X265859Y48463D01*
X266026Y48515D01*
X266191Y48571D01*
X266355Y48631D01*
X266518Y48694D01*
X266678Y48762D01*
X266838Y48834D01*
X266995Y48909D01*
X267151Y48989D01*
X267304Y49072D01*
X267456Y49158D01*
X267605Y49249D01*
X267752Y49343D01*
X267897Y49440D01*
X268040Y49541D01*
X268180Y49645D01*
X268317Y49753D01*
X268452Y49864D01*
X268584Y49978D01*
X268713Y50095D01*
X268840Y50216D01*
X268963Y50339D01*
X269084Y50466D01*
X269201Y50595D01*
X269315Y50727D01*
X269426Y50862D01*
X269534Y50999D01*
X269638Y51139D01*
X269739Y51282D01*
X269836Y51427D01*
X269930Y51574D01*
X270021Y51723D01*
X270107Y51875D01*
X270190Y52028D01*
X270270Y52184D01*
X270345Y52341D01*
X270417Y52501D01*
X270485Y52661D01*
X270548Y52824D01*
X270608Y52988D01*
X270664Y53153D01*
X270716Y53320D01*
X270764Y53488D01*
X270808Y53657D01*
X270848Y53827D01*
X270883Y53998D01*
X270915Y54170D01*
X270942Y54342D01*
X270965Y54515D01*
X270984Y54689D01*
X270999Y54863D01*
X271010Y55037D01*
X271016Y55211D01*
X271018Y55386D01*
X267406Y63792D02*
X271018Y68308D01*
X254762Y68308D01*
X254762Y72823D02*
X254762Y63792D01*
X262890Y79423D02*
X263210Y79427D01*
X263529Y79438D01*
X263849Y79457D01*
X264167Y79484D01*
X264485Y79518D01*
X264802Y79560D01*
X265118Y79610D01*
X265433Y79667D01*
X265746Y79731D01*
X266058Y79803D01*
X266368Y79882D01*
X266675Y79969D01*
X266981Y80063D01*
X267284Y80164D01*
X267585Y80273D01*
X267883Y80388D01*
X268179Y80511D01*
X268471Y80641D01*
X268760Y80778D01*
X268761Y80778D02*
X268869Y80817D01*
X268976Y80860D01*
X269081Y80906D01*
X269185Y80957D01*
X269287Y81010D01*
X269387Y81067D01*
X269485Y81128D01*
X269580Y81192D01*
X269674Y81259D01*
X269765Y81330D01*
X269854Y81403D01*
X269940Y81480D01*
X270023Y81559D01*
X270104Y81641D01*
X270182Y81726D01*
X270256Y81814D01*
X270328Y81904D01*
X270396Y81996D01*
X270462Y82091D01*
X270524Y82188D01*
X270582Y82287D01*
X270638Y82389D01*
X270689Y82491D01*
X270737Y82596D01*
X270782Y82702D01*
X270823Y82810D01*
X270860Y82919D01*
X270893Y83029D01*
X270922Y83141D01*
X270948Y83253D01*
X270970Y83366D01*
X270987Y83480D01*
X271001Y83594D01*
X271011Y83709D01*
X271017Y83824D01*
X271019Y83939D01*
X271018Y83939D02*
X271016Y84054D01*
X271010Y84169D01*
X271000Y84284D01*
X270986Y84398D01*
X270969Y84512D01*
X270947Y84625D01*
X270921Y84737D01*
X270892Y84849D01*
X270859Y84959D01*
X270822Y85068D01*
X270781Y85176D01*
X270736Y85282D01*
X270688Y85387D01*
X270637Y85489D01*
X270581Y85590D01*
X270523Y85690D01*
X270461Y85787D01*
X270396Y85881D01*
X270327Y85974D01*
X270255Y86064D01*
X270181Y86152D01*
X270103Y86237D01*
X270022Y86319D01*
X269939Y86398D01*
X269853Y86475D01*
X269764Y86548D01*
X269673Y86619D01*
X269579Y86686D01*
X269484Y86750D01*
X269386Y86811D01*
X269286Y86868D01*
X269184Y86921D01*
X269080Y86972D01*
X268975Y87018D01*
X268868Y87061D01*
X268760Y87100D01*
X268760Y87099D02*
X268471Y87236D01*
X268179Y87366D01*
X267883Y87489D01*
X267585Y87604D01*
X267284Y87713D01*
X266981Y87814D01*
X266675Y87908D01*
X266368Y87995D01*
X266058Y88074D01*
X265746Y88146D01*
X265433Y88210D01*
X265118Y88267D01*
X264802Y88317D01*
X264485Y88359D01*
X264167Y88393D01*
X263849Y88420D01*
X263529Y88439D01*
X263210Y88450D01*
X262890Y88454D01*
X262890Y79424D02*
X262570Y79428D01*
X262251Y79439D01*
X261931Y79458D01*
X261613Y79485D01*
X261295Y79519D01*
X260978Y79561D01*
X260662Y79611D01*
X260347Y79668D01*
X260034Y79732D01*
X259722Y79804D01*
X259412Y79883D01*
X259105Y79970D01*
X258799Y80064D01*
X258496Y80165D01*
X258195Y80274D01*
X257897Y80389D01*
X257601Y80512D01*
X257309Y80642D01*
X257020Y80779D01*
X257020Y80778D02*
X256912Y80817D01*
X256805Y80860D01*
X256700Y80906D01*
X256596Y80957D01*
X256494Y81010D01*
X256394Y81067D01*
X256296Y81128D01*
X256201Y81192D01*
X256107Y81259D01*
X256016Y81330D01*
X255927Y81403D01*
X255841Y81480D01*
X255758Y81559D01*
X255677Y81641D01*
X255599Y81726D01*
X255525Y81814D01*
X255453Y81904D01*
X255384Y81997D01*
X255319Y82091D01*
X255257Y82188D01*
X255199Y82288D01*
X255143Y82389D01*
X255092Y82491D01*
X255044Y82596D01*
X254999Y82702D01*
X254958Y82810D01*
X254921Y82919D01*
X254888Y83029D01*
X254859Y83141D01*
X254833Y83253D01*
X254811Y83366D01*
X254794Y83480D01*
X254780Y83594D01*
X254770Y83709D01*
X254764Y83824D01*
X254762Y83939D01*
X257020Y87099D02*
X257309Y87236D01*
X257601Y87366D01*
X257897Y87489D01*
X258195Y87604D01*
X258496Y87713D01*
X258799Y87814D01*
X259105Y87908D01*
X259412Y87995D01*
X259722Y88074D01*
X260034Y88146D01*
X260347Y88210D01*
X260662Y88267D01*
X260978Y88317D01*
X261295Y88359D01*
X261613Y88393D01*
X261931Y88420D01*
X262251Y88439D01*
X262570Y88450D01*
X262890Y88454D01*
X257020Y87100D02*
X256912Y87061D01*
X256805Y87018D01*
X256700Y86972D01*
X256596Y86921D01*
X256494Y86868D01*
X256394Y86811D01*
X256296Y86750D01*
X256201Y86686D01*
X256107Y86619D01*
X256016Y86548D01*
X255927Y86475D01*
X255841Y86398D01*
X255758Y86319D01*
X255677Y86237D01*
X255599Y86152D01*
X255525Y86064D01*
X255453Y85974D01*
X255384Y85881D01*
X255319Y85787D01*
X255257Y85690D01*
X255199Y85590D01*
X255143Y85489D01*
X255092Y85386D01*
X255044Y85282D01*
X254999Y85176D01*
X254958Y85068D01*
X254921Y84959D01*
X254888Y84849D01*
X254859Y84737D01*
X254833Y84625D01*
X254811Y84512D01*
X254794Y84398D01*
X254780Y84284D01*
X254770Y84169D01*
X254764Y84054D01*
X254762Y83939D01*
X258374Y80326D02*
X267406Y87551D01*
X267406Y95054D02*
X271018Y99570D01*
X254762Y99570D01*
X254762Y95054D02*
X254762Y104086D01*
X254762Y119543D02*
X271018Y119543D01*
X271018Y124059D01*
X271016Y124190D01*
X271010Y124322D01*
X271001Y124453D01*
X270987Y124583D01*
X270970Y124714D01*
X270949Y124843D01*
X270925Y124972D01*
X270896Y125100D01*
X270864Y125228D01*
X270828Y125354D01*
X270789Y125479D01*
X270746Y125604D01*
X270699Y125726D01*
X270649Y125848D01*
X270595Y125968D01*
X270538Y126086D01*
X270477Y126202D01*
X270413Y126317D01*
X270346Y126430D01*
X270275Y126541D01*
X270201Y126649D01*
X270124Y126756D01*
X270044Y126860D01*
X269961Y126962D01*
X269876Y127061D01*
X269787Y127158D01*
X269695Y127252D01*
X269601Y127344D01*
X269504Y127433D01*
X269405Y127518D01*
X269303Y127601D01*
X269199Y127681D01*
X269092Y127758D01*
X268984Y127832D01*
X268873Y127903D01*
X268760Y127970D01*
X268645Y128034D01*
X268529Y128095D01*
X268411Y128152D01*
X268291Y128206D01*
X268169Y128256D01*
X268047Y128303D01*
X267922Y128346D01*
X267797Y128385D01*
X267671Y128421D01*
X267543Y128453D01*
X267415Y128482D01*
X267286Y128506D01*
X267157Y128527D01*
X267026Y128544D01*
X266896Y128558D01*
X266765Y128567D01*
X266633Y128573D01*
X266502Y128575D01*
X266502Y128574D02*
X259278Y128574D01*
X259278Y128575D02*
X259147Y128573D01*
X259015Y128567D01*
X258884Y128558D01*
X258754Y128544D01*
X258623Y128527D01*
X258494Y128506D01*
X258365Y128482D01*
X258237Y128453D01*
X258109Y128421D01*
X257983Y128385D01*
X257858Y128346D01*
X257733Y128303D01*
X257611Y128256D01*
X257489Y128206D01*
X257369Y128152D01*
X257251Y128095D01*
X257135Y128034D01*
X257020Y127970D01*
X256907Y127903D01*
X256796Y127832D01*
X256688Y127758D01*
X256581Y127681D01*
X256477Y127601D01*
X256375Y127518D01*
X256276Y127433D01*
X256179Y127344D01*
X256085Y127252D01*
X255993Y127158D01*
X255904Y127061D01*
X255819Y126962D01*
X255736Y126860D01*
X255656Y126756D01*
X255579Y126649D01*
X255505Y126541D01*
X255434Y126430D01*
X255367Y126317D01*
X255303Y126202D01*
X255242Y126086D01*
X255185Y125968D01*
X255131Y125848D01*
X255081Y125726D01*
X255034Y125604D01*
X254991Y125479D01*
X254952Y125354D01*
X254916Y125228D01*
X254884Y125100D01*
X254855Y124972D01*
X254831Y124843D01*
X254810Y124714D01*
X254793Y124583D01*
X254779Y124453D01*
X254770Y124322D01*
X254764Y124190D01*
X254762Y124059D01*
X254762Y119543D01*
X254762Y135522D02*
X265599Y135522D01*
X270115Y135070D02*
X271018Y135070D01*
X271018Y135973D01*
X270115Y135973D01*
X270115Y135070D01*
X261084Y143164D02*
X259278Y147679D01*
X261084Y143163D02*
X261121Y143075D01*
X261162Y142989D01*
X261206Y142904D01*
X261254Y142821D01*
X261305Y142741D01*
X261359Y142662D01*
X261417Y142586D01*
X261477Y142512D01*
X261541Y142440D01*
X261607Y142372D01*
X261677Y142306D01*
X261748Y142243D01*
X261823Y142182D01*
X261899Y142125D01*
X261978Y142072D01*
X262059Y142021D01*
X262142Y141974D01*
X262227Y141930D01*
X262314Y141890D01*
X262402Y141853D01*
X262492Y141820D01*
X262583Y141790D01*
X262675Y141765D01*
X262768Y141743D01*
X262862Y141725D01*
X262956Y141710D01*
X263051Y141700D01*
X263147Y141694D01*
X263242Y141691D01*
X263338Y141692D01*
X263433Y141698D01*
X263529Y141707D01*
X263623Y141720D01*
X263717Y141736D01*
X263811Y141757D01*
X263903Y141782D01*
X263994Y141810D01*
X264084Y141842D01*
X264173Y141877D01*
X264260Y141916D01*
X264346Y141959D01*
X264430Y142005D01*
X264511Y142055D01*
X264591Y142107D01*
X264669Y142163D01*
X264744Y142223D01*
X264816Y142285D01*
X264886Y142350D01*
X264954Y142418D01*
X265018Y142488D01*
X265080Y142561D01*
X265138Y142637D01*
X265194Y142715D01*
X265246Y142795D01*
X265295Y142877D01*
X265340Y142961D01*
X265382Y143047D01*
X265421Y143134D01*
X265456Y143223D01*
X265487Y143314D01*
X265514Y143405D01*
X265538Y143498D01*
X265558Y143591D01*
X265574Y143685D01*
X265586Y143780D01*
X265595Y143875D01*
X265599Y143971D01*
X265600Y144066D01*
X265593Y144313D01*
X265581Y144559D01*
X265563Y144805D01*
X265538Y145051D01*
X265508Y145295D01*
X265472Y145539D01*
X265431Y145782D01*
X265383Y146024D01*
X265329Y146265D01*
X265270Y146504D01*
X265205Y146742D01*
X265134Y146978D01*
X265058Y147213D01*
X264976Y147446D01*
X264888Y147676D01*
X264795Y147904D01*
X264697Y148131D01*
X259277Y147680D02*
X259240Y147768D01*
X259199Y147854D01*
X259155Y147939D01*
X259107Y148022D01*
X259056Y148102D01*
X259002Y148181D01*
X258944Y148257D01*
X258884Y148331D01*
X258820Y148403D01*
X258754Y148471D01*
X258684Y148537D01*
X258613Y148600D01*
X258538Y148661D01*
X258462Y148718D01*
X258383Y148771D01*
X258302Y148822D01*
X258219Y148869D01*
X258134Y148913D01*
X258047Y148953D01*
X257959Y148990D01*
X257869Y149023D01*
X257778Y149053D01*
X257686Y149078D01*
X257593Y149100D01*
X257499Y149118D01*
X257405Y149133D01*
X257310Y149143D01*
X257214Y149149D01*
X257119Y149152D01*
X257023Y149151D01*
X256928Y149145D01*
X256832Y149136D01*
X256738Y149123D01*
X256644Y149107D01*
X256550Y149086D01*
X256458Y149061D01*
X256367Y149033D01*
X256277Y149001D01*
X256188Y148966D01*
X256101Y148927D01*
X256015Y148884D01*
X255931Y148838D01*
X255850Y148788D01*
X255770Y148736D01*
X255692Y148680D01*
X255617Y148620D01*
X255545Y148558D01*
X255475Y148493D01*
X255407Y148425D01*
X255343Y148355D01*
X255281Y148282D01*
X255223Y148206D01*
X255167Y148128D01*
X255115Y148048D01*
X255066Y147966D01*
X255021Y147882D01*
X254979Y147796D01*
X254940Y147709D01*
X254905Y147620D01*
X254874Y147529D01*
X254847Y147438D01*
X254823Y147345D01*
X254803Y147252D01*
X254787Y147158D01*
X254775Y147063D01*
X254766Y146968D01*
X254762Y146872D01*
X254761Y146777D01*
X254762Y146776D02*
X254771Y146414D01*
X254789Y146052D01*
X254816Y145691D01*
X254851Y145331D01*
X254894Y144971D01*
X254946Y144612D01*
X255007Y144255D01*
X255076Y143900D01*
X255153Y143546D01*
X255239Y143194D01*
X255333Y142844D01*
X255436Y142496D01*
X255546Y142151D01*
X255665Y141809D01*
X254762Y158083D02*
X254762Y161696D01*
X254762Y158083D02*
X254764Y157982D01*
X254770Y157881D01*
X254779Y157780D01*
X254792Y157679D01*
X254809Y157579D01*
X254830Y157480D01*
X254854Y157382D01*
X254882Y157285D01*
X254914Y157188D01*
X254949Y157093D01*
X254988Y157000D01*
X255030Y156908D01*
X255076Y156817D01*
X255125Y156729D01*
X255177Y156642D01*
X255233Y156557D01*
X255291Y156474D01*
X255353Y156394D01*
X255418Y156316D01*
X255485Y156240D01*
X255555Y156167D01*
X255628Y156097D01*
X255704Y156030D01*
X255782Y155965D01*
X255862Y155903D01*
X255945Y155845D01*
X256030Y155789D01*
X256117Y155737D01*
X256205Y155688D01*
X256296Y155642D01*
X256388Y155600D01*
X256481Y155561D01*
X256576Y155526D01*
X256673Y155494D01*
X256770Y155466D01*
X256868Y155442D01*
X256967Y155421D01*
X257067Y155404D01*
X257168Y155391D01*
X257269Y155382D01*
X257370Y155376D01*
X257471Y155374D01*
X262890Y155374D01*
X262991Y155376D01*
X263092Y155382D01*
X263193Y155391D01*
X263294Y155404D01*
X263394Y155421D01*
X263493Y155442D01*
X263591Y155466D01*
X263688Y155494D01*
X263785Y155526D01*
X263880Y155561D01*
X263973Y155600D01*
X264065Y155642D01*
X264156Y155688D01*
X264245Y155737D01*
X264331Y155789D01*
X264416Y155845D01*
X264499Y155903D01*
X264579Y155965D01*
X264657Y156030D01*
X264733Y156097D01*
X264806Y156167D01*
X264876Y156240D01*
X264943Y156316D01*
X265008Y156394D01*
X265070Y156474D01*
X265128Y156557D01*
X265184Y156642D01*
X265236Y156728D01*
X265285Y156817D01*
X265331Y156908D01*
X265373Y157000D01*
X265412Y157093D01*
X265447Y157188D01*
X265479Y157285D01*
X265507Y157382D01*
X265531Y157480D01*
X265552Y157579D01*
X265569Y157679D01*
X265582Y157780D01*
X265591Y157881D01*
X265597Y157982D01*
X265599Y158083D01*
X265599Y161696D01*
X271018Y167861D02*
X254762Y167861D01*
X265599Y167861D02*
X265599Y172377D01*
X265597Y172478D01*
X265591Y172579D01*
X265582Y172680D01*
X265569Y172781D01*
X265552Y172881D01*
X265531Y172980D01*
X265507Y173078D01*
X265479Y173175D01*
X265447Y173272D01*
X265412Y173367D01*
X265373Y173460D01*
X265331Y173552D01*
X265285Y173643D01*
X265236Y173732D01*
X265184Y173818D01*
X265128Y173903D01*
X265070Y173986D01*
X265008Y174066D01*
X264943Y174144D01*
X264876Y174220D01*
X264806Y174293D01*
X264733Y174363D01*
X264657Y174430D01*
X264579Y174495D01*
X264499Y174557D01*
X264416Y174615D01*
X264331Y174671D01*
X264245Y174723D01*
X264156Y174772D01*
X264065Y174818D01*
X263973Y174860D01*
X263880Y174899D01*
X263785Y174934D01*
X263688Y174966D01*
X263591Y174994D01*
X263493Y175018D01*
X263394Y175039D01*
X263294Y175056D01*
X263193Y175069D01*
X263092Y175078D01*
X262991Y175084D01*
X262890Y175086D01*
X254762Y175086D01*
X261084Y185017D02*
X261084Y189081D01*
X261084Y185017D02*
X261082Y184905D01*
X261076Y184794D01*
X261066Y184683D01*
X261053Y184572D01*
X261035Y184462D01*
X261013Y184353D01*
X260988Y184244D01*
X260959Y184136D01*
X260926Y184030D01*
X260889Y183924D01*
X260849Y183820D01*
X260805Y183718D01*
X260757Y183617D01*
X260706Y183518D01*
X260651Y183420D01*
X260593Y183325D01*
X260532Y183232D01*
X260467Y183141D01*
X260399Y183052D01*
X260328Y182966D01*
X260255Y182883D01*
X260178Y182802D01*
X260098Y182723D01*
X260016Y182648D01*
X259931Y182576D01*
X259844Y182506D01*
X259754Y182440D01*
X259662Y182377D01*
X259567Y182317D01*
X259471Y182261D01*
X259373Y182208D01*
X259273Y182159D01*
X259171Y182113D01*
X259068Y182071D01*
X258963Y182032D01*
X258857Y181997D01*
X258750Y181966D01*
X258642Y181939D01*
X258533Y181915D01*
X258423Y181896D01*
X258313Y181880D01*
X258202Y181868D01*
X258090Y181860D01*
X257979Y181856D01*
X257867Y181856D01*
X257756Y181860D01*
X257644Y181868D01*
X257533Y181880D01*
X257423Y181896D01*
X257313Y181915D01*
X257204Y181939D01*
X257096Y181966D01*
X256989Y181997D01*
X256883Y182032D01*
X256778Y182071D01*
X256675Y182113D01*
X256573Y182159D01*
X256473Y182208D01*
X256375Y182261D01*
X256279Y182317D01*
X256184Y182377D01*
X256092Y182440D01*
X256002Y182506D01*
X255915Y182576D01*
X255830Y182648D01*
X255748Y182723D01*
X255668Y182802D01*
X255591Y182883D01*
X255518Y182966D01*
X255447Y183052D01*
X255379Y183141D01*
X255314Y183232D01*
X255253Y183325D01*
X255195Y183420D01*
X255140Y183518D01*
X255089Y183617D01*
X255041Y183718D01*
X254997Y183820D01*
X254957Y183924D01*
X254920Y184030D01*
X254887Y184136D01*
X254858Y184244D01*
X254833Y184353D01*
X254811Y184462D01*
X254793Y184572D01*
X254780Y184683D01*
X254770Y184794D01*
X254764Y184905D01*
X254762Y185017D01*
X254762Y189081D01*
X262890Y189081D01*
X262991Y189079D01*
X263092Y189073D01*
X263193Y189064D01*
X263294Y189051D01*
X263394Y189034D01*
X263493Y189013D01*
X263591Y188989D01*
X263688Y188961D01*
X263785Y188929D01*
X263880Y188894D01*
X263973Y188855D01*
X264065Y188813D01*
X264156Y188767D01*
X264245Y188718D01*
X264331Y188666D01*
X264416Y188610D01*
X264499Y188552D01*
X264579Y188490D01*
X264657Y188425D01*
X264733Y188358D01*
X264806Y188288D01*
X264876Y188215D01*
X264943Y188139D01*
X265008Y188061D01*
X265070Y187981D01*
X265128Y187898D01*
X265184Y187813D01*
X265236Y187727D01*
X265285Y187638D01*
X265331Y187547D01*
X265373Y187455D01*
X265412Y187362D01*
X265447Y187267D01*
X265479Y187170D01*
X265507Y187073D01*
X265531Y186975D01*
X265552Y186876D01*
X265569Y186776D01*
X265582Y186675D01*
X265591Y186574D01*
X265597Y186473D01*
X265599Y186372D01*
X265599Y182759D01*
X265599Y196603D02*
X254762Y196603D01*
X265599Y196603D02*
X265599Y202022D01*
X263793Y202022D01*
X254762Y209575D02*
X254762Y214091D01*
X254762Y209575D02*
X254764Y209474D01*
X254770Y209373D01*
X254779Y209272D01*
X254792Y209171D01*
X254809Y209071D01*
X254830Y208972D01*
X254854Y208874D01*
X254882Y208777D01*
X254914Y208680D01*
X254949Y208585D01*
X254988Y208492D01*
X255030Y208400D01*
X255076Y208309D01*
X255125Y208221D01*
X255177Y208134D01*
X255233Y208049D01*
X255291Y207966D01*
X255353Y207886D01*
X255418Y207808D01*
X255485Y207732D01*
X255555Y207659D01*
X255628Y207589D01*
X255704Y207522D01*
X255782Y207457D01*
X255862Y207395D01*
X255945Y207337D01*
X256030Y207281D01*
X256117Y207229D01*
X256205Y207180D01*
X256296Y207134D01*
X256388Y207092D01*
X256481Y207053D01*
X256576Y207018D01*
X256673Y206986D01*
X256770Y206958D01*
X256868Y206934D01*
X256967Y206913D01*
X257067Y206896D01*
X257168Y206883D01*
X257269Y206874D01*
X257370Y206868D01*
X257471Y206866D01*
X262890Y206866D01*
X262991Y206868D01*
X263092Y206874D01*
X263193Y206883D01*
X263294Y206896D01*
X263394Y206913D01*
X263493Y206934D01*
X263591Y206958D01*
X263688Y206986D01*
X263785Y207018D01*
X263880Y207053D01*
X263973Y207092D01*
X264065Y207134D01*
X264156Y207180D01*
X264245Y207229D01*
X264331Y207281D01*
X264416Y207337D01*
X264499Y207395D01*
X264579Y207457D01*
X264657Y207522D01*
X264733Y207589D01*
X264806Y207659D01*
X264876Y207732D01*
X264943Y207808D01*
X265008Y207886D01*
X265070Y207966D01*
X265128Y208049D01*
X265184Y208134D01*
X265236Y208220D01*
X265285Y208309D01*
X265331Y208400D01*
X265373Y208492D01*
X265412Y208585D01*
X265447Y208680D01*
X265479Y208777D01*
X265507Y208874D01*
X265531Y208972D01*
X265552Y209071D01*
X265569Y209171D01*
X265582Y209272D01*
X265591Y209373D01*
X265597Y209474D01*
X265599Y209575D01*
X265599Y214091D01*
X252053Y214091D01*
X252053Y214090D02*
X251949Y214088D01*
X251846Y214082D01*
X251742Y214072D01*
X251639Y214058D01*
X251537Y214040D01*
X251436Y214019D01*
X251335Y213993D01*
X251236Y213964D01*
X251137Y213931D01*
X251040Y213894D01*
X250945Y213853D01*
X250851Y213809D01*
X250759Y213761D01*
X250669Y213710D01*
X250580Y213655D01*
X250494Y213597D01*
X250411Y213535D01*
X250329Y213471D01*
X250251Y213403D01*
X250175Y213333D01*
X250101Y213260D01*
X250031Y213183D01*
X249963Y213105D01*
X249899Y213023D01*
X249837Y212940D01*
X249779Y212854D01*
X249724Y212765D01*
X249673Y212675D01*
X249625Y212583D01*
X249581Y212489D01*
X249540Y212394D01*
X249503Y212297D01*
X249470Y212198D01*
X249441Y212099D01*
X249415Y211998D01*
X249394Y211897D01*
X249376Y211795D01*
X249362Y211692D01*
X249352Y211588D01*
X249346Y211485D01*
X249344Y211381D01*
X249343Y211381D02*
X249343Y207769D01*
X254762Y223717D02*
X254762Y228232D01*
X254762Y223717D02*
X254764Y223616D01*
X254770Y223515D01*
X254779Y223414D01*
X254792Y223313D01*
X254809Y223213D01*
X254830Y223114D01*
X254854Y223016D01*
X254882Y222919D01*
X254914Y222822D01*
X254949Y222727D01*
X254988Y222634D01*
X255030Y222542D01*
X255076Y222451D01*
X255125Y222363D01*
X255177Y222276D01*
X255233Y222191D01*
X255291Y222108D01*
X255353Y222028D01*
X255418Y221950D01*
X255485Y221874D01*
X255555Y221801D01*
X255628Y221731D01*
X255704Y221664D01*
X255782Y221599D01*
X255862Y221537D01*
X255945Y221479D01*
X256030Y221423D01*
X256117Y221371D01*
X256205Y221322D01*
X256296Y221276D01*
X256388Y221234D01*
X256481Y221195D01*
X256576Y221160D01*
X256673Y221128D01*
X256770Y221100D01*
X256868Y221076D01*
X256967Y221055D01*
X257067Y221038D01*
X257168Y221025D01*
X257269Y221016D01*
X257370Y221010D01*
X257471Y221008D01*
X257471Y221007D02*
X261987Y221007D01*
X261987Y221008D02*
X262106Y221010D01*
X262226Y221016D01*
X262345Y221026D01*
X262463Y221040D01*
X262582Y221057D01*
X262699Y221079D01*
X262816Y221104D01*
X262931Y221134D01*
X263046Y221167D01*
X263160Y221204D01*
X263272Y221244D01*
X263383Y221289D01*
X263492Y221337D01*
X263600Y221388D01*
X263706Y221443D01*
X263810Y221502D01*
X263912Y221564D01*
X264012Y221629D01*
X264110Y221698D01*
X264206Y221770D01*
X264299Y221845D01*
X264389Y221922D01*
X264477Y222003D01*
X264562Y222087D01*
X264644Y222174D01*
X264724Y222263D01*
X264800Y222355D01*
X264874Y222449D01*
X264944Y222546D01*
X265011Y222644D01*
X265075Y222745D01*
X265135Y222849D01*
X265192Y222954D01*
X265245Y223061D01*
X265295Y223169D01*
X265341Y223279D01*
X265383Y223391D01*
X265422Y223504D01*
X265457Y223618D01*
X265488Y223733D01*
X265516Y223850D01*
X265539Y223967D01*
X265559Y224084D01*
X265575Y224203D01*
X265587Y224322D01*
X265595Y224441D01*
X265599Y224560D01*
X265599Y224680D01*
X265595Y224799D01*
X265587Y224918D01*
X265575Y225037D01*
X265559Y225156D01*
X265539Y225273D01*
X265516Y225390D01*
X265488Y225507D01*
X265457Y225622D01*
X265422Y225736D01*
X265383Y225849D01*
X265341Y225961D01*
X265295Y226071D01*
X265245Y226179D01*
X265192Y226286D01*
X265135Y226391D01*
X265075Y226495D01*
X265011Y226596D01*
X264944Y226694D01*
X264874Y226791D01*
X264800Y226885D01*
X264724Y226977D01*
X264644Y227066D01*
X264562Y227153D01*
X264477Y227237D01*
X264389Y227318D01*
X264299Y227395D01*
X264206Y227470D01*
X264110Y227542D01*
X264012Y227611D01*
X263912Y227676D01*
X263810Y227738D01*
X263706Y227797D01*
X263600Y227852D01*
X263492Y227903D01*
X263383Y227951D01*
X263272Y227996D01*
X263160Y228036D01*
X263046Y228073D01*
X262931Y228106D01*
X262816Y228136D01*
X262699Y228161D01*
X262582Y228183D01*
X262463Y228200D01*
X262345Y228214D01*
X262226Y228224D01*
X262106Y228230D01*
X261987Y228232D01*
X260181Y228232D01*
X260181Y221007D01*
X254762Y235160D02*
X265599Y235160D01*
X265599Y240579D01*
X263793Y240579D01*
X27573Y602742D02*
X27573Y607258D01*
X27574Y607258D02*
X27572Y607391D01*
X27566Y607523D01*
X27556Y607655D01*
X27543Y607787D01*
X27525Y607919D01*
X27504Y608049D01*
X27479Y608180D01*
X27450Y608309D01*
X27417Y608437D01*
X27381Y608565D01*
X27341Y608691D01*
X27297Y608816D01*
X27249Y608940D01*
X27198Y609062D01*
X27143Y609183D01*
X27085Y609302D01*
X27023Y609420D01*
X26958Y609535D01*
X26889Y609649D01*
X26818Y609760D01*
X26742Y609869D01*
X26664Y609976D01*
X26583Y610081D01*
X26498Y610183D01*
X26411Y610283D01*
X26321Y610380D01*
X26228Y610475D01*
X26132Y610566D01*
X26034Y610655D01*
X25933Y610741D01*
X25829Y610824D01*
X25723Y610904D01*
X25615Y610980D01*
X25505Y611054D01*
X25392Y611124D01*
X25278Y611191D01*
X25161Y611254D01*
X25043Y611314D01*
X24923Y611371D01*
X24801Y611424D01*
X24678Y611473D01*
X24554Y611519D01*
X24428Y611561D01*
X24301Y611599D01*
X24173Y611634D01*
X24044Y611665D01*
X23915Y611692D01*
X23784Y611715D01*
X23653Y611735D01*
X23521Y611750D01*
X23389Y611762D01*
X23257Y611770D01*
X23124Y611774D01*
X22992Y611774D01*
X22859Y611770D01*
X22727Y611762D01*
X22595Y611750D01*
X22463Y611735D01*
X22332Y611715D01*
X22201Y611692D01*
X22072Y611665D01*
X21943Y611634D01*
X21815Y611599D01*
X21688Y611561D01*
X21562Y611519D01*
X21438Y611473D01*
X21315Y611424D01*
X21193Y611371D01*
X21073Y611314D01*
X20955Y611254D01*
X20838Y611191D01*
X20724Y611124D01*
X20611Y611054D01*
X20501Y610980D01*
X20393Y610904D01*
X20287Y610824D01*
X20183Y610741D01*
X20082Y610655D01*
X19984Y610566D01*
X19888Y610475D01*
X19795Y610380D01*
X19705Y610283D01*
X19618Y610183D01*
X19533Y610081D01*
X19452Y609976D01*
X19374Y609869D01*
X19298Y609760D01*
X19227Y609649D01*
X19158Y609535D01*
X19093Y609420D01*
X19031Y609302D01*
X18973Y609183D01*
X18918Y609062D01*
X18867Y608940D01*
X18819Y608816D01*
X18775Y608691D01*
X18735Y608565D01*
X18699Y608437D01*
X18666Y608309D01*
X18637Y608180D01*
X18612Y608049D01*
X18591Y607919D01*
X18573Y607787D01*
X18560Y607655D01*
X18550Y607523D01*
X18544Y607391D01*
X18542Y607258D01*
X18542Y602742D01*
X34798Y602742D01*
X34798Y607258D01*
X34796Y607377D01*
X34790Y607497D01*
X34780Y607616D01*
X34766Y607734D01*
X34749Y607853D01*
X34727Y607970D01*
X34702Y608087D01*
X34672Y608202D01*
X34639Y608317D01*
X34602Y608431D01*
X34562Y608543D01*
X34517Y608654D01*
X34469Y608763D01*
X34418Y608871D01*
X34363Y608977D01*
X34304Y609081D01*
X34242Y609183D01*
X34177Y609283D01*
X34108Y609381D01*
X34036Y609477D01*
X33961Y609570D01*
X33884Y609660D01*
X33803Y609748D01*
X33719Y609833D01*
X33632Y609915D01*
X33543Y609995D01*
X33451Y610071D01*
X33357Y610145D01*
X33260Y610215D01*
X33162Y610282D01*
X33061Y610346D01*
X32957Y610406D01*
X32852Y610463D01*
X32745Y610516D01*
X32637Y610566D01*
X32527Y610612D01*
X32415Y610654D01*
X32302Y610693D01*
X32188Y610728D01*
X32073Y610759D01*
X31956Y610787D01*
X31839Y610810D01*
X31722Y610830D01*
X31603Y610846D01*
X31484Y610858D01*
X31365Y610866D01*
X31246Y610870D01*
X31126Y610870D01*
X31007Y610866D01*
X30888Y610858D01*
X30769Y610846D01*
X30650Y610830D01*
X30533Y610810D01*
X30416Y610787D01*
X30299Y610759D01*
X30184Y610728D01*
X30070Y610693D01*
X29957Y610654D01*
X29845Y610612D01*
X29735Y610566D01*
X29627Y610516D01*
X29520Y610463D01*
X29415Y610406D01*
X29311Y610346D01*
X29210Y610282D01*
X29112Y610215D01*
X29015Y610145D01*
X28921Y610071D01*
X28829Y609995D01*
X28740Y609915D01*
X28653Y609833D01*
X28569Y609748D01*
X28488Y609660D01*
X28411Y609570D01*
X28336Y609477D01*
X28264Y609381D01*
X28195Y609283D01*
X28130Y609183D01*
X28068Y609081D01*
X28009Y608977D01*
X27954Y608871D01*
X27903Y608763D01*
X27855Y608654D01*
X27810Y608543D01*
X27770Y608431D01*
X27733Y608317D01*
X27700Y608202D01*
X27670Y608087D01*
X27645Y607970D01*
X27623Y607853D01*
X27606Y607734D01*
X27592Y607616D01*
X27582Y607497D01*
X27576Y607377D01*
X27574Y607258D01*
X31186Y617641D02*
X34798Y622157D01*
X18542Y622157D01*
X18542Y626672D02*
X18542Y617641D01*
X34798Y638240D02*
X34796Y638365D01*
X34790Y638490D01*
X34781Y638615D01*
X34767Y638739D01*
X34750Y638863D01*
X34729Y638987D01*
X34704Y639109D01*
X34675Y639231D01*
X34643Y639352D01*
X34607Y639472D01*
X34567Y639591D01*
X34524Y639708D01*
X34477Y639824D01*
X34426Y639939D01*
X34372Y640051D01*
X34314Y640163D01*
X34254Y640272D01*
X34189Y640379D01*
X34122Y640485D01*
X34051Y640588D01*
X33977Y640689D01*
X33900Y640788D01*
X33820Y640884D01*
X33737Y640978D01*
X33652Y641069D01*
X33563Y641158D01*
X33472Y641243D01*
X33378Y641326D01*
X33282Y641406D01*
X33183Y641483D01*
X33082Y641557D01*
X32979Y641628D01*
X32873Y641695D01*
X32766Y641760D01*
X32657Y641820D01*
X32545Y641878D01*
X32433Y641932D01*
X32318Y641983D01*
X32202Y642030D01*
X32085Y642073D01*
X31966Y642113D01*
X31846Y642149D01*
X31725Y642181D01*
X31603Y642210D01*
X31481Y642235D01*
X31357Y642256D01*
X31233Y642273D01*
X31109Y642287D01*
X30984Y642296D01*
X30859Y642302D01*
X30734Y642304D01*
X34798Y638240D02*
X34796Y638097D01*
X34790Y637955D01*
X34780Y637812D01*
X34767Y637670D01*
X34749Y637529D01*
X34728Y637387D01*
X34703Y637247D01*
X34674Y637107D01*
X34641Y636968D01*
X34604Y636830D01*
X34564Y636693D01*
X34520Y636558D01*
X34472Y636423D01*
X34420Y636290D01*
X34365Y636158D01*
X34306Y636028D01*
X34244Y635900D01*
X34178Y635773D01*
X34109Y635648D01*
X34037Y635525D01*
X33961Y635405D01*
X33882Y635286D01*
X33799Y635169D01*
X33714Y635055D01*
X33625Y634943D01*
X33534Y634834D01*
X33439Y634727D01*
X33342Y634622D01*
X33241Y634521D01*
X33138Y634422D01*
X33033Y634326D01*
X32924Y634233D01*
X32813Y634143D01*
X32700Y634056D01*
X32585Y633972D01*
X32467Y633892D01*
X32347Y633814D01*
X32225Y633740D01*
X32101Y633670D01*
X31975Y633602D01*
X31847Y633539D01*
X31718Y633478D01*
X31587Y633421D01*
X31455Y633368D01*
X31321Y633319D01*
X31186Y633273D01*
X27573Y640948D02*
X27665Y641042D01*
X27759Y641132D01*
X27856Y641220D01*
X27956Y641305D01*
X28058Y641387D01*
X28163Y641466D01*
X28270Y641541D01*
X28379Y641613D01*
X28490Y641682D01*
X28604Y641748D01*
X28719Y641810D01*
X28836Y641869D01*
X28955Y641924D01*
X29075Y641975D01*
X29197Y642023D01*
X29320Y642068D01*
X29444Y642108D01*
X29570Y642145D01*
X29697Y642178D01*
X29824Y642207D01*
X29953Y642233D01*
X30082Y642254D01*
X30212Y642272D01*
X30342Y642285D01*
X30472Y642295D01*
X30603Y642301D01*
X30734Y642303D01*
X27573Y640949D02*
X18542Y633272D01*
X18542Y642304D01*
X52973Y609798D02*
X52973Y605282D01*
X52974Y609798D02*
X52972Y609931D01*
X52966Y610063D01*
X52956Y610195D01*
X52943Y610327D01*
X52925Y610459D01*
X52904Y610589D01*
X52879Y610720D01*
X52850Y610849D01*
X52817Y610977D01*
X52781Y611105D01*
X52741Y611231D01*
X52697Y611356D01*
X52649Y611480D01*
X52598Y611602D01*
X52543Y611723D01*
X52485Y611842D01*
X52423Y611960D01*
X52358Y612075D01*
X52289Y612189D01*
X52218Y612300D01*
X52142Y612409D01*
X52064Y612516D01*
X51983Y612621D01*
X51898Y612723D01*
X51811Y612823D01*
X51721Y612920D01*
X51628Y613015D01*
X51532Y613106D01*
X51434Y613195D01*
X51333Y613281D01*
X51229Y613364D01*
X51123Y613444D01*
X51015Y613520D01*
X50905Y613594D01*
X50792Y613664D01*
X50678Y613731D01*
X50561Y613794D01*
X50443Y613854D01*
X50323Y613911D01*
X50201Y613964D01*
X50078Y614013D01*
X49954Y614059D01*
X49828Y614101D01*
X49701Y614139D01*
X49573Y614174D01*
X49444Y614205D01*
X49315Y614232D01*
X49184Y614255D01*
X49053Y614275D01*
X48921Y614290D01*
X48789Y614302D01*
X48657Y614310D01*
X48524Y614314D01*
X48392Y614314D01*
X48259Y614310D01*
X48127Y614302D01*
X47995Y614290D01*
X47863Y614275D01*
X47732Y614255D01*
X47601Y614232D01*
X47472Y614205D01*
X47343Y614174D01*
X47215Y614139D01*
X47088Y614101D01*
X46962Y614059D01*
X46838Y614013D01*
X46715Y613964D01*
X46593Y613911D01*
X46473Y613854D01*
X46355Y613794D01*
X46238Y613731D01*
X46124Y613664D01*
X46011Y613594D01*
X45901Y613520D01*
X45793Y613444D01*
X45687Y613364D01*
X45583Y613281D01*
X45482Y613195D01*
X45384Y613106D01*
X45288Y613015D01*
X45195Y612920D01*
X45105Y612823D01*
X45018Y612723D01*
X44933Y612621D01*
X44852Y612516D01*
X44774Y612409D01*
X44698Y612300D01*
X44627Y612189D01*
X44558Y612075D01*
X44493Y611960D01*
X44431Y611842D01*
X44373Y611723D01*
X44318Y611602D01*
X44267Y611480D01*
X44219Y611356D01*
X44175Y611231D01*
X44135Y611105D01*
X44099Y610977D01*
X44066Y610849D01*
X44037Y610720D01*
X44012Y610589D01*
X43991Y610459D01*
X43973Y610327D01*
X43960Y610195D01*
X43950Y610063D01*
X43944Y609931D01*
X43942Y609798D01*
X43942Y605282D01*
X60198Y605282D01*
X60198Y609798D01*
X60196Y609917D01*
X60190Y610037D01*
X60180Y610156D01*
X60166Y610274D01*
X60149Y610393D01*
X60127Y610510D01*
X60102Y610627D01*
X60072Y610742D01*
X60039Y610857D01*
X60002Y610971D01*
X59962Y611083D01*
X59917Y611194D01*
X59869Y611303D01*
X59818Y611411D01*
X59763Y611517D01*
X59704Y611621D01*
X59642Y611723D01*
X59577Y611823D01*
X59508Y611921D01*
X59436Y612017D01*
X59361Y612110D01*
X59284Y612200D01*
X59203Y612288D01*
X59119Y612373D01*
X59032Y612455D01*
X58943Y612535D01*
X58851Y612611D01*
X58757Y612685D01*
X58660Y612755D01*
X58562Y612822D01*
X58461Y612886D01*
X58357Y612946D01*
X58252Y613003D01*
X58145Y613056D01*
X58037Y613106D01*
X57927Y613152D01*
X57815Y613194D01*
X57702Y613233D01*
X57588Y613268D01*
X57473Y613299D01*
X57356Y613327D01*
X57239Y613350D01*
X57122Y613370D01*
X57003Y613386D01*
X56884Y613398D01*
X56765Y613406D01*
X56646Y613410D01*
X56526Y613410D01*
X56407Y613406D01*
X56288Y613398D01*
X56169Y613386D01*
X56050Y613370D01*
X55933Y613350D01*
X55816Y613327D01*
X55699Y613299D01*
X55584Y613268D01*
X55470Y613233D01*
X55357Y613194D01*
X55245Y613152D01*
X55135Y613106D01*
X55027Y613056D01*
X54920Y613003D01*
X54815Y612946D01*
X54711Y612886D01*
X54610Y612822D01*
X54512Y612755D01*
X54415Y612685D01*
X54321Y612611D01*
X54229Y612535D01*
X54140Y612455D01*
X54053Y612373D01*
X53969Y612288D01*
X53888Y612200D01*
X53811Y612110D01*
X53736Y612017D01*
X53664Y611921D01*
X53595Y611823D01*
X53530Y611723D01*
X53468Y611621D01*
X53409Y611517D01*
X53354Y611411D01*
X53303Y611303D01*
X53255Y611194D01*
X53210Y611083D01*
X53170Y610971D01*
X53133Y610857D01*
X53100Y610742D01*
X53070Y610627D01*
X53045Y610510D01*
X53023Y610393D01*
X53006Y610274D01*
X52992Y610156D01*
X52982Y610037D01*
X52976Y609917D01*
X52974Y609798D01*
X56586Y620181D02*
X60198Y624697D01*
X43942Y624697D01*
X43942Y629212D02*
X43942Y620181D01*
X52070Y635813D02*
X52390Y635817D01*
X52709Y635828D01*
X53029Y635847D01*
X53347Y635874D01*
X53665Y635908D01*
X53982Y635950D01*
X54298Y636000D01*
X54613Y636057D01*
X54926Y636121D01*
X55238Y636193D01*
X55548Y636272D01*
X55855Y636359D01*
X56161Y636453D01*
X56464Y636554D01*
X56765Y636663D01*
X57063Y636778D01*
X57359Y636901D01*
X57651Y637031D01*
X57940Y637168D01*
X57941Y637167D02*
X58049Y637206D01*
X58156Y637249D01*
X58261Y637295D01*
X58365Y637346D01*
X58467Y637399D01*
X58567Y637456D01*
X58665Y637517D01*
X58760Y637581D01*
X58854Y637648D01*
X58945Y637719D01*
X59034Y637792D01*
X59120Y637869D01*
X59203Y637948D01*
X59284Y638030D01*
X59362Y638115D01*
X59436Y638203D01*
X59508Y638293D01*
X59576Y638385D01*
X59642Y638480D01*
X59704Y638577D01*
X59762Y638676D01*
X59818Y638778D01*
X59869Y638880D01*
X59917Y638985D01*
X59962Y639091D01*
X60003Y639199D01*
X60040Y639308D01*
X60073Y639418D01*
X60102Y639530D01*
X60128Y639642D01*
X60150Y639755D01*
X60167Y639869D01*
X60181Y639983D01*
X60191Y640098D01*
X60197Y640213D01*
X60199Y640328D01*
X60198Y640328D02*
X60196Y640443D01*
X60190Y640558D01*
X60180Y640673D01*
X60166Y640787D01*
X60149Y640901D01*
X60127Y641014D01*
X60101Y641126D01*
X60072Y641238D01*
X60039Y641348D01*
X60002Y641457D01*
X59961Y641565D01*
X59916Y641671D01*
X59868Y641776D01*
X59817Y641878D01*
X59761Y641979D01*
X59703Y642079D01*
X59641Y642176D01*
X59576Y642270D01*
X59507Y642363D01*
X59435Y642453D01*
X59361Y642541D01*
X59283Y642626D01*
X59202Y642708D01*
X59119Y642787D01*
X59033Y642864D01*
X58944Y642937D01*
X58853Y643008D01*
X58759Y643075D01*
X58664Y643139D01*
X58566Y643200D01*
X58466Y643257D01*
X58364Y643310D01*
X58260Y643361D01*
X58155Y643407D01*
X58048Y643450D01*
X57940Y643489D01*
X57940Y643488D02*
X57651Y643625D01*
X57359Y643755D01*
X57063Y643878D01*
X56765Y643993D01*
X56464Y644102D01*
X56161Y644203D01*
X55855Y644297D01*
X55548Y644384D01*
X55238Y644463D01*
X54926Y644535D01*
X54613Y644599D01*
X54298Y644656D01*
X53982Y644706D01*
X53665Y644748D01*
X53347Y644782D01*
X53029Y644809D01*
X52709Y644828D01*
X52390Y644839D01*
X52070Y644843D01*
X52070Y635813D02*
X51750Y635817D01*
X51431Y635828D01*
X51111Y635847D01*
X50793Y635874D01*
X50475Y635908D01*
X50158Y635950D01*
X49842Y636000D01*
X49527Y636057D01*
X49214Y636121D01*
X48902Y636193D01*
X48592Y636272D01*
X48285Y636359D01*
X47979Y636453D01*
X47676Y636554D01*
X47375Y636663D01*
X47077Y636778D01*
X46781Y636901D01*
X46489Y637031D01*
X46200Y637168D01*
X46200Y637167D02*
X46092Y637206D01*
X45985Y637249D01*
X45880Y637295D01*
X45776Y637346D01*
X45674Y637399D01*
X45574Y637456D01*
X45476Y637517D01*
X45381Y637581D01*
X45287Y637648D01*
X45196Y637719D01*
X45107Y637792D01*
X45021Y637869D01*
X44938Y637948D01*
X44857Y638030D01*
X44779Y638115D01*
X44705Y638203D01*
X44633Y638293D01*
X44564Y638386D01*
X44499Y638480D01*
X44437Y638577D01*
X44379Y638677D01*
X44323Y638778D01*
X44272Y638880D01*
X44224Y638985D01*
X44179Y639091D01*
X44138Y639199D01*
X44101Y639308D01*
X44068Y639418D01*
X44039Y639530D01*
X44013Y639642D01*
X43991Y639755D01*
X43974Y639869D01*
X43960Y639983D01*
X43950Y640098D01*
X43944Y640213D01*
X43942Y640328D01*
X46200Y643488D02*
X46489Y643625D01*
X46781Y643755D01*
X47077Y643878D01*
X47375Y643993D01*
X47676Y644102D01*
X47979Y644203D01*
X48285Y644297D01*
X48592Y644384D01*
X48902Y644463D01*
X49214Y644535D01*
X49527Y644599D01*
X49842Y644656D01*
X50158Y644706D01*
X50475Y644748D01*
X50793Y644782D01*
X51111Y644809D01*
X51431Y644828D01*
X51750Y644839D01*
X52070Y644843D01*
X46200Y643489D02*
X46092Y643450D01*
X45985Y643407D01*
X45880Y643361D01*
X45776Y643310D01*
X45674Y643257D01*
X45574Y643200D01*
X45476Y643139D01*
X45381Y643075D01*
X45287Y643008D01*
X45196Y642937D01*
X45107Y642864D01*
X45021Y642787D01*
X44938Y642708D01*
X44857Y642626D01*
X44779Y642541D01*
X44705Y642453D01*
X44633Y642363D01*
X44564Y642270D01*
X44499Y642176D01*
X44437Y642079D01*
X44379Y641979D01*
X44323Y641878D01*
X44272Y641775D01*
X44224Y641671D01*
X44179Y641565D01*
X44138Y641457D01*
X44101Y641348D01*
X44068Y641238D01*
X44039Y641126D01*
X44013Y641014D01*
X43991Y640901D01*
X43974Y640787D01*
X43960Y640673D01*
X43950Y640558D01*
X43944Y640443D01*
X43942Y640328D01*
X47554Y636716D02*
X56586Y643940D01*
X78373Y607258D02*
X78373Y602742D01*
X78374Y607258D02*
X78372Y607391D01*
X78366Y607523D01*
X78356Y607655D01*
X78343Y607787D01*
X78325Y607919D01*
X78304Y608049D01*
X78279Y608180D01*
X78250Y608309D01*
X78217Y608437D01*
X78181Y608565D01*
X78141Y608691D01*
X78097Y608816D01*
X78049Y608940D01*
X77998Y609062D01*
X77943Y609183D01*
X77885Y609302D01*
X77823Y609420D01*
X77758Y609535D01*
X77689Y609649D01*
X77618Y609760D01*
X77542Y609869D01*
X77464Y609976D01*
X77383Y610081D01*
X77298Y610183D01*
X77211Y610283D01*
X77121Y610380D01*
X77028Y610475D01*
X76932Y610566D01*
X76834Y610655D01*
X76733Y610741D01*
X76629Y610824D01*
X76523Y610904D01*
X76415Y610980D01*
X76305Y611054D01*
X76192Y611124D01*
X76078Y611191D01*
X75961Y611254D01*
X75843Y611314D01*
X75723Y611371D01*
X75601Y611424D01*
X75478Y611473D01*
X75354Y611519D01*
X75228Y611561D01*
X75101Y611599D01*
X74973Y611634D01*
X74844Y611665D01*
X74715Y611692D01*
X74584Y611715D01*
X74453Y611735D01*
X74321Y611750D01*
X74189Y611762D01*
X74057Y611770D01*
X73924Y611774D01*
X73792Y611774D01*
X73659Y611770D01*
X73527Y611762D01*
X73395Y611750D01*
X73263Y611735D01*
X73132Y611715D01*
X73001Y611692D01*
X72872Y611665D01*
X72743Y611634D01*
X72615Y611599D01*
X72488Y611561D01*
X72362Y611519D01*
X72238Y611473D01*
X72115Y611424D01*
X71993Y611371D01*
X71873Y611314D01*
X71755Y611254D01*
X71638Y611191D01*
X71524Y611124D01*
X71411Y611054D01*
X71301Y610980D01*
X71193Y610904D01*
X71087Y610824D01*
X70983Y610741D01*
X70882Y610655D01*
X70784Y610566D01*
X70688Y610475D01*
X70595Y610380D01*
X70505Y610283D01*
X70418Y610183D01*
X70333Y610081D01*
X70252Y609976D01*
X70174Y609869D01*
X70098Y609760D01*
X70027Y609649D01*
X69958Y609535D01*
X69893Y609420D01*
X69831Y609302D01*
X69773Y609183D01*
X69718Y609062D01*
X69667Y608940D01*
X69619Y608816D01*
X69575Y608691D01*
X69535Y608565D01*
X69499Y608437D01*
X69466Y608309D01*
X69437Y608180D01*
X69412Y608049D01*
X69391Y607919D01*
X69373Y607787D01*
X69360Y607655D01*
X69350Y607523D01*
X69344Y607391D01*
X69342Y607258D01*
X69342Y602742D01*
X85598Y602742D01*
X85598Y607258D01*
X85596Y607377D01*
X85590Y607497D01*
X85580Y607616D01*
X85566Y607734D01*
X85549Y607853D01*
X85527Y607970D01*
X85502Y608087D01*
X85472Y608202D01*
X85439Y608317D01*
X85402Y608431D01*
X85362Y608543D01*
X85317Y608654D01*
X85269Y608763D01*
X85218Y608871D01*
X85163Y608977D01*
X85104Y609081D01*
X85042Y609183D01*
X84977Y609283D01*
X84908Y609381D01*
X84836Y609477D01*
X84761Y609570D01*
X84684Y609660D01*
X84603Y609748D01*
X84519Y609833D01*
X84432Y609915D01*
X84343Y609995D01*
X84251Y610071D01*
X84157Y610145D01*
X84060Y610215D01*
X83962Y610282D01*
X83861Y610346D01*
X83757Y610406D01*
X83652Y610463D01*
X83545Y610516D01*
X83437Y610566D01*
X83327Y610612D01*
X83215Y610654D01*
X83102Y610693D01*
X82988Y610728D01*
X82873Y610759D01*
X82756Y610787D01*
X82639Y610810D01*
X82522Y610830D01*
X82403Y610846D01*
X82284Y610858D01*
X82165Y610866D01*
X82046Y610870D01*
X81926Y610870D01*
X81807Y610866D01*
X81688Y610858D01*
X81569Y610846D01*
X81450Y610830D01*
X81333Y610810D01*
X81216Y610787D01*
X81099Y610759D01*
X80984Y610728D01*
X80870Y610693D01*
X80757Y610654D01*
X80645Y610612D01*
X80535Y610566D01*
X80427Y610516D01*
X80320Y610463D01*
X80215Y610406D01*
X80111Y610346D01*
X80010Y610282D01*
X79912Y610215D01*
X79815Y610145D01*
X79721Y610071D01*
X79629Y609995D01*
X79540Y609915D01*
X79453Y609833D01*
X79369Y609748D01*
X79288Y609660D01*
X79211Y609570D01*
X79136Y609477D01*
X79064Y609381D01*
X78995Y609283D01*
X78930Y609183D01*
X78868Y609081D01*
X78809Y608977D01*
X78754Y608871D01*
X78703Y608763D01*
X78655Y608654D01*
X78610Y608543D01*
X78570Y608431D01*
X78533Y608317D01*
X78500Y608202D01*
X78470Y608087D01*
X78445Y607970D01*
X78423Y607853D01*
X78406Y607734D01*
X78392Y607616D01*
X78382Y607497D01*
X78376Y607377D01*
X78374Y607258D01*
X73858Y617641D02*
X73991Y617643D01*
X74123Y617649D01*
X74255Y617659D01*
X74387Y617672D01*
X74519Y617690D01*
X74649Y617711D01*
X74780Y617736D01*
X74909Y617765D01*
X75037Y617798D01*
X75165Y617834D01*
X75291Y617874D01*
X75416Y617918D01*
X75540Y617966D01*
X75662Y618017D01*
X75783Y618072D01*
X75902Y618130D01*
X76020Y618192D01*
X76135Y618257D01*
X76249Y618326D01*
X76360Y618397D01*
X76469Y618473D01*
X76576Y618551D01*
X76681Y618632D01*
X76783Y618717D01*
X76883Y618804D01*
X76980Y618894D01*
X77075Y618987D01*
X77166Y619083D01*
X77255Y619181D01*
X77341Y619282D01*
X77424Y619386D01*
X77504Y619492D01*
X77580Y619600D01*
X77654Y619710D01*
X77724Y619823D01*
X77791Y619937D01*
X77854Y620054D01*
X77914Y620172D01*
X77971Y620292D01*
X78024Y620414D01*
X78073Y620537D01*
X78119Y620661D01*
X78161Y620787D01*
X78199Y620914D01*
X78234Y621042D01*
X78265Y621171D01*
X78292Y621300D01*
X78315Y621431D01*
X78335Y621562D01*
X78350Y621694D01*
X78362Y621826D01*
X78370Y621958D01*
X78374Y622091D01*
X78374Y622223D01*
X78370Y622356D01*
X78362Y622488D01*
X78350Y622620D01*
X78335Y622752D01*
X78315Y622883D01*
X78292Y623014D01*
X78265Y623143D01*
X78234Y623272D01*
X78199Y623400D01*
X78161Y623527D01*
X78119Y623653D01*
X78073Y623777D01*
X78024Y623900D01*
X77971Y624022D01*
X77914Y624142D01*
X77854Y624260D01*
X77791Y624377D01*
X77724Y624491D01*
X77654Y624604D01*
X77580Y624714D01*
X77504Y624822D01*
X77424Y624928D01*
X77341Y625032D01*
X77255Y625133D01*
X77166Y625231D01*
X77075Y625327D01*
X76980Y625420D01*
X76883Y625510D01*
X76783Y625597D01*
X76681Y625682D01*
X76576Y625763D01*
X76469Y625841D01*
X76360Y625917D01*
X76249Y625988D01*
X76135Y626057D01*
X76020Y626122D01*
X75902Y626184D01*
X75783Y626242D01*
X75662Y626297D01*
X75540Y626348D01*
X75416Y626396D01*
X75291Y626440D01*
X75165Y626480D01*
X75037Y626516D01*
X74909Y626549D01*
X74780Y626578D01*
X74649Y626603D01*
X74519Y626624D01*
X74387Y626642D01*
X74255Y626655D01*
X74123Y626665D01*
X73991Y626671D01*
X73858Y626673D01*
X73725Y626671D01*
X73593Y626665D01*
X73461Y626655D01*
X73329Y626642D01*
X73197Y626624D01*
X73067Y626603D01*
X72936Y626578D01*
X72807Y626549D01*
X72679Y626516D01*
X72551Y626480D01*
X72425Y626440D01*
X72300Y626396D01*
X72176Y626348D01*
X72054Y626297D01*
X71933Y626242D01*
X71814Y626184D01*
X71696Y626122D01*
X71581Y626057D01*
X71467Y625988D01*
X71356Y625917D01*
X71247Y625841D01*
X71140Y625763D01*
X71035Y625682D01*
X70933Y625597D01*
X70833Y625510D01*
X70736Y625420D01*
X70641Y625327D01*
X70550Y625231D01*
X70461Y625133D01*
X70375Y625032D01*
X70292Y624928D01*
X70212Y624822D01*
X70136Y624714D01*
X70062Y624604D01*
X69992Y624491D01*
X69925Y624377D01*
X69862Y624260D01*
X69802Y624142D01*
X69745Y624022D01*
X69692Y623900D01*
X69643Y623777D01*
X69597Y623653D01*
X69555Y623527D01*
X69517Y623400D01*
X69482Y623272D01*
X69451Y623143D01*
X69424Y623014D01*
X69401Y622883D01*
X69381Y622752D01*
X69366Y622620D01*
X69354Y622488D01*
X69346Y622356D01*
X69342Y622223D01*
X69342Y622091D01*
X69346Y621958D01*
X69354Y621826D01*
X69366Y621694D01*
X69381Y621562D01*
X69401Y621431D01*
X69424Y621300D01*
X69451Y621171D01*
X69482Y621042D01*
X69517Y620914D01*
X69555Y620787D01*
X69597Y620661D01*
X69643Y620537D01*
X69692Y620414D01*
X69745Y620292D01*
X69802Y620172D01*
X69862Y620054D01*
X69925Y619937D01*
X69992Y619823D01*
X70062Y619710D01*
X70136Y619600D01*
X70212Y619492D01*
X70292Y619386D01*
X70375Y619282D01*
X70461Y619181D01*
X70550Y619083D01*
X70641Y618987D01*
X70736Y618894D01*
X70833Y618804D01*
X70933Y618717D01*
X71035Y618632D01*
X71140Y618551D01*
X71247Y618473D01*
X71356Y618397D01*
X71467Y618326D01*
X71581Y618257D01*
X71696Y618192D01*
X71814Y618130D01*
X71933Y618072D01*
X72054Y618017D01*
X72176Y617966D01*
X72300Y617918D01*
X72425Y617874D01*
X72551Y617834D01*
X72679Y617798D01*
X72807Y617765D01*
X72936Y617736D01*
X73067Y617711D01*
X73197Y617690D01*
X73329Y617672D01*
X73461Y617659D01*
X73593Y617649D01*
X73725Y617643D01*
X73858Y617641D01*
X81986Y618545D02*
X82105Y618547D01*
X82225Y618553D01*
X82344Y618563D01*
X82462Y618577D01*
X82581Y618594D01*
X82698Y618616D01*
X82815Y618641D01*
X82930Y618671D01*
X83045Y618704D01*
X83159Y618741D01*
X83271Y618781D01*
X83382Y618826D01*
X83491Y618874D01*
X83599Y618925D01*
X83705Y618980D01*
X83809Y619039D01*
X83911Y619101D01*
X84011Y619166D01*
X84109Y619235D01*
X84205Y619307D01*
X84298Y619382D01*
X84388Y619459D01*
X84476Y619540D01*
X84561Y619624D01*
X84643Y619711D01*
X84723Y619800D01*
X84799Y619892D01*
X84873Y619986D01*
X84943Y620083D01*
X85010Y620181D01*
X85074Y620282D01*
X85134Y620386D01*
X85191Y620491D01*
X85244Y620598D01*
X85294Y620706D01*
X85340Y620816D01*
X85382Y620928D01*
X85421Y621041D01*
X85456Y621155D01*
X85487Y621270D01*
X85515Y621387D01*
X85538Y621504D01*
X85558Y621621D01*
X85574Y621740D01*
X85586Y621859D01*
X85594Y621978D01*
X85598Y622097D01*
X85598Y622217D01*
X85594Y622336D01*
X85586Y622455D01*
X85574Y622574D01*
X85558Y622693D01*
X85538Y622810D01*
X85515Y622927D01*
X85487Y623044D01*
X85456Y623159D01*
X85421Y623273D01*
X85382Y623386D01*
X85340Y623498D01*
X85294Y623608D01*
X85244Y623716D01*
X85191Y623823D01*
X85134Y623928D01*
X85074Y624032D01*
X85010Y624133D01*
X84943Y624231D01*
X84873Y624328D01*
X84799Y624422D01*
X84723Y624514D01*
X84643Y624603D01*
X84561Y624690D01*
X84476Y624774D01*
X84388Y624855D01*
X84298Y624932D01*
X84205Y625007D01*
X84109Y625079D01*
X84011Y625148D01*
X83911Y625213D01*
X83809Y625275D01*
X83705Y625334D01*
X83599Y625389D01*
X83491Y625440D01*
X83382Y625488D01*
X83271Y625533D01*
X83159Y625573D01*
X83045Y625610D01*
X82930Y625643D01*
X82815Y625673D01*
X82698Y625698D01*
X82581Y625720D01*
X82462Y625737D01*
X82344Y625751D01*
X82225Y625761D01*
X82105Y625767D01*
X81986Y625769D01*
X81867Y625767D01*
X81747Y625761D01*
X81628Y625751D01*
X81510Y625737D01*
X81391Y625720D01*
X81274Y625698D01*
X81157Y625673D01*
X81042Y625643D01*
X80927Y625610D01*
X80813Y625573D01*
X80701Y625533D01*
X80590Y625488D01*
X80481Y625440D01*
X80373Y625389D01*
X80267Y625334D01*
X80163Y625275D01*
X80061Y625213D01*
X79961Y625148D01*
X79863Y625079D01*
X79767Y625007D01*
X79674Y624932D01*
X79584Y624855D01*
X79496Y624774D01*
X79411Y624690D01*
X79329Y624603D01*
X79249Y624514D01*
X79173Y624422D01*
X79099Y624328D01*
X79029Y624231D01*
X78962Y624133D01*
X78898Y624032D01*
X78838Y623928D01*
X78781Y623823D01*
X78728Y623716D01*
X78678Y623608D01*
X78632Y623498D01*
X78590Y623386D01*
X78551Y623273D01*
X78516Y623159D01*
X78485Y623044D01*
X78457Y622927D01*
X78434Y622810D01*
X78414Y622693D01*
X78398Y622574D01*
X78386Y622455D01*
X78378Y622336D01*
X78374Y622217D01*
X78374Y622097D01*
X78378Y621978D01*
X78386Y621859D01*
X78398Y621740D01*
X78414Y621621D01*
X78434Y621504D01*
X78457Y621387D01*
X78485Y621270D01*
X78516Y621155D01*
X78551Y621041D01*
X78590Y620928D01*
X78632Y620816D01*
X78678Y620706D01*
X78728Y620598D01*
X78781Y620491D01*
X78838Y620386D01*
X78898Y620282D01*
X78962Y620181D01*
X79029Y620083D01*
X79099Y619986D01*
X79173Y619892D01*
X79249Y619800D01*
X79329Y619711D01*
X79411Y619624D01*
X79496Y619540D01*
X79584Y619459D01*
X79674Y619382D01*
X79767Y619307D01*
X79863Y619235D01*
X79961Y619166D01*
X80061Y619101D01*
X80163Y619039D01*
X80267Y618980D01*
X80373Y618925D01*
X80481Y618874D01*
X80590Y618826D01*
X80701Y618781D01*
X80813Y618741D01*
X80927Y618704D01*
X81042Y618671D01*
X81157Y618641D01*
X81274Y618616D01*
X81391Y618594D01*
X81510Y618577D01*
X81628Y618563D01*
X81747Y618553D01*
X81867Y618547D01*
X81986Y618545D01*
X103773Y607258D02*
X103773Y602742D01*
X103774Y607258D02*
X103772Y607391D01*
X103766Y607523D01*
X103756Y607655D01*
X103743Y607787D01*
X103725Y607919D01*
X103704Y608049D01*
X103679Y608180D01*
X103650Y608309D01*
X103617Y608437D01*
X103581Y608565D01*
X103541Y608691D01*
X103497Y608816D01*
X103449Y608940D01*
X103398Y609062D01*
X103343Y609183D01*
X103285Y609302D01*
X103223Y609420D01*
X103158Y609535D01*
X103089Y609649D01*
X103018Y609760D01*
X102942Y609869D01*
X102864Y609976D01*
X102783Y610081D01*
X102698Y610183D01*
X102611Y610283D01*
X102521Y610380D01*
X102428Y610475D01*
X102332Y610566D01*
X102234Y610655D01*
X102133Y610741D01*
X102029Y610824D01*
X101923Y610904D01*
X101815Y610980D01*
X101705Y611054D01*
X101592Y611124D01*
X101478Y611191D01*
X101361Y611254D01*
X101243Y611314D01*
X101123Y611371D01*
X101001Y611424D01*
X100878Y611473D01*
X100754Y611519D01*
X100628Y611561D01*
X100501Y611599D01*
X100373Y611634D01*
X100244Y611665D01*
X100115Y611692D01*
X99984Y611715D01*
X99853Y611735D01*
X99721Y611750D01*
X99589Y611762D01*
X99457Y611770D01*
X99324Y611774D01*
X99192Y611774D01*
X99059Y611770D01*
X98927Y611762D01*
X98795Y611750D01*
X98663Y611735D01*
X98532Y611715D01*
X98401Y611692D01*
X98272Y611665D01*
X98143Y611634D01*
X98015Y611599D01*
X97888Y611561D01*
X97762Y611519D01*
X97638Y611473D01*
X97515Y611424D01*
X97393Y611371D01*
X97273Y611314D01*
X97155Y611254D01*
X97038Y611191D01*
X96924Y611124D01*
X96811Y611054D01*
X96701Y610980D01*
X96593Y610904D01*
X96487Y610824D01*
X96383Y610741D01*
X96282Y610655D01*
X96184Y610566D01*
X96088Y610475D01*
X95995Y610380D01*
X95905Y610283D01*
X95818Y610183D01*
X95733Y610081D01*
X95652Y609976D01*
X95574Y609869D01*
X95498Y609760D01*
X95427Y609649D01*
X95358Y609535D01*
X95293Y609420D01*
X95231Y609302D01*
X95173Y609183D01*
X95118Y609062D01*
X95067Y608940D01*
X95019Y608816D01*
X94975Y608691D01*
X94935Y608565D01*
X94899Y608437D01*
X94866Y608309D01*
X94837Y608180D01*
X94812Y608049D01*
X94791Y607919D01*
X94773Y607787D01*
X94760Y607655D01*
X94750Y607523D01*
X94744Y607391D01*
X94742Y607258D01*
X94742Y602742D01*
X110998Y602742D01*
X110998Y607258D01*
X110996Y607377D01*
X110990Y607497D01*
X110980Y607616D01*
X110966Y607734D01*
X110949Y607853D01*
X110927Y607970D01*
X110902Y608087D01*
X110872Y608202D01*
X110839Y608317D01*
X110802Y608431D01*
X110762Y608543D01*
X110717Y608654D01*
X110669Y608763D01*
X110618Y608871D01*
X110563Y608977D01*
X110504Y609081D01*
X110442Y609183D01*
X110377Y609283D01*
X110308Y609381D01*
X110236Y609477D01*
X110161Y609570D01*
X110084Y609660D01*
X110003Y609748D01*
X109919Y609833D01*
X109832Y609915D01*
X109743Y609995D01*
X109651Y610071D01*
X109557Y610145D01*
X109460Y610215D01*
X109362Y610282D01*
X109261Y610346D01*
X109157Y610406D01*
X109052Y610463D01*
X108945Y610516D01*
X108837Y610566D01*
X108727Y610612D01*
X108615Y610654D01*
X108502Y610693D01*
X108388Y610728D01*
X108273Y610759D01*
X108156Y610787D01*
X108039Y610810D01*
X107922Y610830D01*
X107803Y610846D01*
X107684Y610858D01*
X107565Y610866D01*
X107446Y610870D01*
X107326Y610870D01*
X107207Y610866D01*
X107088Y610858D01*
X106969Y610846D01*
X106850Y610830D01*
X106733Y610810D01*
X106616Y610787D01*
X106499Y610759D01*
X106384Y610728D01*
X106270Y610693D01*
X106157Y610654D01*
X106045Y610612D01*
X105935Y610566D01*
X105827Y610516D01*
X105720Y610463D01*
X105615Y610406D01*
X105511Y610346D01*
X105410Y610282D01*
X105312Y610215D01*
X105215Y610145D01*
X105121Y610071D01*
X105029Y609995D01*
X104940Y609915D01*
X104853Y609833D01*
X104769Y609748D01*
X104688Y609660D01*
X104611Y609570D01*
X104536Y609477D01*
X104464Y609381D01*
X104395Y609283D01*
X104330Y609183D01*
X104268Y609081D01*
X104209Y608977D01*
X104154Y608871D01*
X104103Y608763D01*
X104055Y608654D01*
X104010Y608543D01*
X103970Y608431D01*
X103933Y608317D01*
X103900Y608202D01*
X103870Y608087D01*
X103845Y607970D01*
X103823Y607853D01*
X103806Y607734D01*
X103792Y607616D01*
X103782Y607497D01*
X103776Y607377D01*
X103774Y607258D01*
X103773Y617641D02*
X103773Y623060D01*
X103771Y623178D01*
X103765Y623296D01*
X103756Y623414D01*
X103742Y623531D01*
X103725Y623648D01*
X103704Y623765D01*
X103679Y623880D01*
X103650Y623995D01*
X103617Y624109D01*
X103581Y624221D01*
X103541Y624332D01*
X103498Y624442D01*
X103451Y624551D01*
X103401Y624658D01*
X103346Y624763D01*
X103289Y624866D01*
X103228Y624967D01*
X103164Y625067D01*
X103097Y625164D01*
X103027Y625259D01*
X102953Y625351D01*
X102877Y625442D01*
X102797Y625529D01*
X102715Y625614D01*
X102630Y625696D01*
X102543Y625776D01*
X102452Y625852D01*
X102360Y625926D01*
X102265Y625996D01*
X102168Y626063D01*
X102068Y626127D01*
X101967Y626188D01*
X101864Y626245D01*
X101759Y626300D01*
X101652Y626350D01*
X101543Y626397D01*
X101433Y626440D01*
X101322Y626480D01*
X101210Y626516D01*
X101096Y626549D01*
X100981Y626578D01*
X100866Y626603D01*
X100749Y626624D01*
X100632Y626641D01*
X100515Y626655D01*
X100397Y626664D01*
X100279Y626670D01*
X100161Y626672D01*
X99258Y626672D01*
X99258Y626673D02*
X99125Y626671D01*
X98993Y626665D01*
X98861Y626655D01*
X98729Y626642D01*
X98597Y626624D01*
X98467Y626603D01*
X98336Y626578D01*
X98207Y626549D01*
X98079Y626516D01*
X97951Y626480D01*
X97825Y626440D01*
X97700Y626396D01*
X97576Y626348D01*
X97454Y626297D01*
X97333Y626242D01*
X97214Y626184D01*
X97096Y626122D01*
X96981Y626057D01*
X96867Y625988D01*
X96756Y625917D01*
X96647Y625841D01*
X96540Y625763D01*
X96435Y625682D01*
X96333Y625597D01*
X96233Y625510D01*
X96136Y625420D01*
X96041Y625327D01*
X95950Y625231D01*
X95861Y625133D01*
X95775Y625032D01*
X95692Y624928D01*
X95612Y624822D01*
X95536Y624714D01*
X95462Y624604D01*
X95392Y624491D01*
X95325Y624377D01*
X95262Y624260D01*
X95202Y624142D01*
X95145Y624022D01*
X95092Y623900D01*
X95043Y623777D01*
X94997Y623653D01*
X94955Y623527D01*
X94917Y623400D01*
X94882Y623272D01*
X94851Y623143D01*
X94824Y623014D01*
X94801Y622883D01*
X94781Y622752D01*
X94766Y622620D01*
X94754Y622488D01*
X94746Y622356D01*
X94742Y622223D01*
X94742Y622091D01*
X94746Y621958D01*
X94754Y621826D01*
X94766Y621694D01*
X94781Y621562D01*
X94801Y621431D01*
X94824Y621300D01*
X94851Y621171D01*
X94882Y621042D01*
X94917Y620914D01*
X94955Y620787D01*
X94997Y620661D01*
X95043Y620537D01*
X95092Y620414D01*
X95145Y620292D01*
X95202Y620172D01*
X95262Y620054D01*
X95325Y619937D01*
X95392Y619823D01*
X95462Y619710D01*
X95536Y619600D01*
X95612Y619492D01*
X95692Y619386D01*
X95775Y619282D01*
X95861Y619181D01*
X95950Y619083D01*
X96041Y618987D01*
X96136Y618894D01*
X96233Y618804D01*
X96333Y618717D01*
X96435Y618632D01*
X96540Y618551D01*
X96647Y618473D01*
X96756Y618397D01*
X96867Y618326D01*
X96981Y618257D01*
X97096Y618192D01*
X97214Y618130D01*
X97333Y618072D01*
X97454Y618017D01*
X97576Y617966D01*
X97700Y617918D01*
X97825Y617874D01*
X97951Y617834D01*
X98079Y617798D01*
X98207Y617765D01*
X98336Y617736D01*
X98467Y617711D01*
X98597Y617690D01*
X98729Y617672D01*
X98861Y617659D01*
X98993Y617649D01*
X99125Y617643D01*
X99258Y617641D01*
X103773Y617641D01*
X103948Y617643D01*
X104122Y617649D01*
X104296Y617660D01*
X104470Y617675D01*
X104644Y617694D01*
X104817Y617717D01*
X104989Y617744D01*
X105161Y617776D01*
X105332Y617811D01*
X105502Y617851D01*
X105671Y617895D01*
X105839Y617943D01*
X106006Y617995D01*
X106171Y618051D01*
X106335Y618111D01*
X106498Y618174D01*
X106658Y618242D01*
X106818Y618314D01*
X106975Y618389D01*
X107131Y618469D01*
X107284Y618552D01*
X107436Y618638D01*
X107585Y618729D01*
X107732Y618823D01*
X107877Y618920D01*
X108020Y619021D01*
X108160Y619125D01*
X108297Y619233D01*
X108432Y619344D01*
X108564Y619458D01*
X108693Y619575D01*
X108820Y619696D01*
X108943Y619819D01*
X109064Y619946D01*
X109181Y620075D01*
X109295Y620207D01*
X109406Y620342D01*
X109514Y620479D01*
X109618Y620619D01*
X109719Y620762D01*
X109816Y620907D01*
X109910Y621054D01*
X110001Y621203D01*
X110087Y621355D01*
X110170Y621508D01*
X110250Y621664D01*
X110325Y621821D01*
X110397Y621981D01*
X110465Y622141D01*
X110528Y622304D01*
X110588Y622468D01*
X110644Y622633D01*
X110696Y622800D01*
X110744Y622968D01*
X110788Y623137D01*
X110828Y623307D01*
X110863Y623478D01*
X110895Y623650D01*
X110922Y623822D01*
X110945Y623995D01*
X110964Y624169D01*
X110979Y624343D01*
X110990Y624517D01*
X110996Y624691D01*
X110998Y624866D01*
X129173Y607258D02*
X129173Y602742D01*
X129174Y607258D02*
X129172Y607391D01*
X129166Y607523D01*
X129156Y607655D01*
X129143Y607787D01*
X129125Y607919D01*
X129104Y608049D01*
X129079Y608180D01*
X129050Y608309D01*
X129017Y608437D01*
X128981Y608565D01*
X128941Y608691D01*
X128897Y608816D01*
X128849Y608940D01*
X128798Y609062D01*
X128743Y609183D01*
X128685Y609302D01*
X128623Y609420D01*
X128558Y609535D01*
X128489Y609649D01*
X128418Y609760D01*
X128342Y609869D01*
X128264Y609976D01*
X128183Y610081D01*
X128098Y610183D01*
X128011Y610283D01*
X127921Y610380D01*
X127828Y610475D01*
X127732Y610566D01*
X127634Y610655D01*
X127533Y610741D01*
X127429Y610824D01*
X127323Y610904D01*
X127215Y610980D01*
X127105Y611054D01*
X126992Y611124D01*
X126878Y611191D01*
X126761Y611254D01*
X126643Y611314D01*
X126523Y611371D01*
X126401Y611424D01*
X126278Y611473D01*
X126154Y611519D01*
X126028Y611561D01*
X125901Y611599D01*
X125773Y611634D01*
X125644Y611665D01*
X125515Y611692D01*
X125384Y611715D01*
X125253Y611735D01*
X125121Y611750D01*
X124989Y611762D01*
X124857Y611770D01*
X124724Y611774D01*
X124592Y611774D01*
X124459Y611770D01*
X124327Y611762D01*
X124195Y611750D01*
X124063Y611735D01*
X123932Y611715D01*
X123801Y611692D01*
X123672Y611665D01*
X123543Y611634D01*
X123415Y611599D01*
X123288Y611561D01*
X123162Y611519D01*
X123038Y611473D01*
X122915Y611424D01*
X122793Y611371D01*
X122673Y611314D01*
X122555Y611254D01*
X122438Y611191D01*
X122324Y611124D01*
X122211Y611054D01*
X122101Y610980D01*
X121993Y610904D01*
X121887Y610824D01*
X121783Y610741D01*
X121682Y610655D01*
X121584Y610566D01*
X121488Y610475D01*
X121395Y610380D01*
X121305Y610283D01*
X121218Y610183D01*
X121133Y610081D01*
X121052Y609976D01*
X120974Y609869D01*
X120898Y609760D01*
X120827Y609649D01*
X120758Y609535D01*
X120693Y609420D01*
X120631Y609302D01*
X120573Y609183D01*
X120518Y609062D01*
X120467Y608940D01*
X120419Y608816D01*
X120375Y608691D01*
X120335Y608565D01*
X120299Y608437D01*
X120266Y608309D01*
X120237Y608180D01*
X120212Y608049D01*
X120191Y607919D01*
X120173Y607787D01*
X120160Y607655D01*
X120150Y607523D01*
X120144Y607391D01*
X120142Y607258D01*
X120142Y602742D01*
X136398Y602742D01*
X136398Y607258D01*
X136396Y607377D01*
X136390Y607497D01*
X136380Y607616D01*
X136366Y607734D01*
X136349Y607853D01*
X136327Y607970D01*
X136302Y608087D01*
X136272Y608202D01*
X136239Y608317D01*
X136202Y608431D01*
X136162Y608543D01*
X136117Y608654D01*
X136069Y608763D01*
X136018Y608871D01*
X135963Y608977D01*
X135904Y609081D01*
X135842Y609183D01*
X135777Y609283D01*
X135708Y609381D01*
X135636Y609477D01*
X135561Y609570D01*
X135484Y609660D01*
X135403Y609748D01*
X135319Y609833D01*
X135232Y609915D01*
X135143Y609995D01*
X135051Y610071D01*
X134957Y610145D01*
X134860Y610215D01*
X134762Y610282D01*
X134661Y610346D01*
X134557Y610406D01*
X134452Y610463D01*
X134345Y610516D01*
X134237Y610566D01*
X134127Y610612D01*
X134015Y610654D01*
X133902Y610693D01*
X133788Y610728D01*
X133673Y610759D01*
X133556Y610787D01*
X133439Y610810D01*
X133322Y610830D01*
X133203Y610846D01*
X133084Y610858D01*
X132965Y610866D01*
X132846Y610870D01*
X132726Y610870D01*
X132607Y610866D01*
X132488Y610858D01*
X132369Y610846D01*
X132250Y610830D01*
X132133Y610810D01*
X132016Y610787D01*
X131899Y610759D01*
X131784Y610728D01*
X131670Y610693D01*
X131557Y610654D01*
X131445Y610612D01*
X131335Y610566D01*
X131227Y610516D01*
X131120Y610463D01*
X131015Y610406D01*
X130911Y610346D01*
X130810Y610282D01*
X130712Y610215D01*
X130615Y610145D01*
X130521Y610071D01*
X130429Y609995D01*
X130340Y609915D01*
X130253Y609833D01*
X130169Y609748D01*
X130088Y609660D01*
X130011Y609570D01*
X129936Y609477D01*
X129864Y609381D01*
X129795Y609283D01*
X129730Y609183D01*
X129668Y609081D01*
X129609Y608977D01*
X129554Y608871D01*
X129503Y608763D01*
X129455Y608654D01*
X129410Y608543D01*
X129370Y608431D01*
X129333Y608317D01*
X129300Y608202D01*
X129270Y608087D01*
X129245Y607970D01*
X129223Y607853D01*
X129206Y607734D01*
X129192Y607616D01*
X129182Y607497D01*
X129176Y607377D01*
X129174Y607258D01*
X123754Y617641D02*
X136398Y621254D01*
X123754Y617641D02*
X123754Y626672D01*
X127367Y623963D02*
X120142Y623963D01*
X154573Y607258D02*
X154573Y602742D01*
X154574Y607258D02*
X154572Y607391D01*
X154566Y607523D01*
X154556Y607655D01*
X154543Y607787D01*
X154525Y607919D01*
X154504Y608049D01*
X154479Y608180D01*
X154450Y608309D01*
X154417Y608437D01*
X154381Y608565D01*
X154341Y608691D01*
X154297Y608816D01*
X154249Y608940D01*
X154198Y609062D01*
X154143Y609183D01*
X154085Y609302D01*
X154023Y609420D01*
X153958Y609535D01*
X153889Y609649D01*
X153818Y609760D01*
X153742Y609869D01*
X153664Y609976D01*
X153583Y610081D01*
X153498Y610183D01*
X153411Y610283D01*
X153321Y610380D01*
X153228Y610475D01*
X153132Y610566D01*
X153034Y610655D01*
X152933Y610741D01*
X152829Y610824D01*
X152723Y610904D01*
X152615Y610980D01*
X152505Y611054D01*
X152392Y611124D01*
X152278Y611191D01*
X152161Y611254D01*
X152043Y611314D01*
X151923Y611371D01*
X151801Y611424D01*
X151678Y611473D01*
X151554Y611519D01*
X151428Y611561D01*
X151301Y611599D01*
X151173Y611634D01*
X151044Y611665D01*
X150915Y611692D01*
X150784Y611715D01*
X150653Y611735D01*
X150521Y611750D01*
X150389Y611762D01*
X150257Y611770D01*
X150124Y611774D01*
X149992Y611774D01*
X149859Y611770D01*
X149727Y611762D01*
X149595Y611750D01*
X149463Y611735D01*
X149332Y611715D01*
X149201Y611692D01*
X149072Y611665D01*
X148943Y611634D01*
X148815Y611599D01*
X148688Y611561D01*
X148562Y611519D01*
X148438Y611473D01*
X148315Y611424D01*
X148193Y611371D01*
X148073Y611314D01*
X147955Y611254D01*
X147838Y611191D01*
X147724Y611124D01*
X147611Y611054D01*
X147501Y610980D01*
X147393Y610904D01*
X147287Y610824D01*
X147183Y610741D01*
X147082Y610655D01*
X146984Y610566D01*
X146888Y610475D01*
X146795Y610380D01*
X146705Y610283D01*
X146618Y610183D01*
X146533Y610081D01*
X146452Y609976D01*
X146374Y609869D01*
X146298Y609760D01*
X146227Y609649D01*
X146158Y609535D01*
X146093Y609420D01*
X146031Y609302D01*
X145973Y609183D01*
X145918Y609062D01*
X145867Y608940D01*
X145819Y608816D01*
X145775Y608691D01*
X145735Y608565D01*
X145699Y608437D01*
X145666Y608309D01*
X145637Y608180D01*
X145612Y608049D01*
X145591Y607919D01*
X145573Y607787D01*
X145560Y607655D01*
X145550Y607523D01*
X145544Y607391D01*
X145542Y607258D01*
X145542Y602742D01*
X161798Y602742D01*
X161798Y607258D01*
X161796Y607377D01*
X161790Y607497D01*
X161780Y607616D01*
X161766Y607734D01*
X161749Y607853D01*
X161727Y607970D01*
X161702Y608087D01*
X161672Y608202D01*
X161639Y608317D01*
X161602Y608431D01*
X161562Y608543D01*
X161517Y608654D01*
X161469Y608763D01*
X161418Y608871D01*
X161363Y608977D01*
X161304Y609081D01*
X161242Y609183D01*
X161177Y609283D01*
X161108Y609381D01*
X161036Y609477D01*
X160961Y609570D01*
X160884Y609660D01*
X160803Y609748D01*
X160719Y609833D01*
X160632Y609915D01*
X160543Y609995D01*
X160451Y610071D01*
X160357Y610145D01*
X160260Y610215D01*
X160162Y610282D01*
X160061Y610346D01*
X159957Y610406D01*
X159852Y610463D01*
X159745Y610516D01*
X159637Y610566D01*
X159527Y610612D01*
X159415Y610654D01*
X159302Y610693D01*
X159188Y610728D01*
X159073Y610759D01*
X158956Y610787D01*
X158839Y610810D01*
X158722Y610830D01*
X158603Y610846D01*
X158484Y610858D01*
X158365Y610866D01*
X158246Y610870D01*
X158126Y610870D01*
X158007Y610866D01*
X157888Y610858D01*
X157769Y610846D01*
X157650Y610830D01*
X157533Y610810D01*
X157416Y610787D01*
X157299Y610759D01*
X157184Y610728D01*
X157070Y610693D01*
X156957Y610654D01*
X156845Y610612D01*
X156735Y610566D01*
X156627Y610516D01*
X156520Y610463D01*
X156415Y610406D01*
X156311Y610346D01*
X156210Y610282D01*
X156112Y610215D01*
X156015Y610145D01*
X155921Y610071D01*
X155829Y609995D01*
X155740Y609915D01*
X155653Y609833D01*
X155569Y609748D01*
X155488Y609660D01*
X155411Y609570D01*
X155336Y609477D01*
X155264Y609381D01*
X155195Y609283D01*
X155130Y609183D01*
X155068Y609081D01*
X155009Y608977D01*
X154954Y608871D01*
X154903Y608763D01*
X154855Y608654D01*
X154810Y608543D01*
X154770Y608431D01*
X154733Y608317D01*
X154700Y608202D01*
X154670Y608087D01*
X154645Y607970D01*
X154623Y607853D01*
X154606Y607734D01*
X154592Y607616D01*
X154582Y607497D01*
X154576Y607377D01*
X154574Y607258D01*
X161798Y622608D02*
X161796Y622733D01*
X161790Y622858D01*
X161781Y622983D01*
X161767Y623107D01*
X161750Y623231D01*
X161729Y623355D01*
X161704Y623477D01*
X161675Y623599D01*
X161643Y623720D01*
X161607Y623840D01*
X161567Y623959D01*
X161524Y624076D01*
X161477Y624192D01*
X161426Y624307D01*
X161372Y624419D01*
X161314Y624531D01*
X161254Y624640D01*
X161189Y624747D01*
X161122Y624853D01*
X161051Y624956D01*
X160977Y625057D01*
X160900Y625156D01*
X160820Y625252D01*
X160737Y625346D01*
X160652Y625437D01*
X160563Y625526D01*
X160472Y625611D01*
X160378Y625694D01*
X160282Y625774D01*
X160183Y625851D01*
X160082Y625925D01*
X159979Y625996D01*
X159873Y626063D01*
X159766Y626128D01*
X159657Y626188D01*
X159545Y626246D01*
X159433Y626300D01*
X159318Y626351D01*
X159202Y626398D01*
X159085Y626441D01*
X158966Y626481D01*
X158846Y626517D01*
X158725Y626549D01*
X158603Y626578D01*
X158481Y626603D01*
X158357Y626624D01*
X158233Y626641D01*
X158109Y626655D01*
X157984Y626664D01*
X157859Y626670D01*
X157734Y626672D01*
X161798Y622608D02*
X161796Y622465D01*
X161790Y622323D01*
X161780Y622180D01*
X161767Y622038D01*
X161749Y621897D01*
X161728Y621755D01*
X161703Y621615D01*
X161674Y621475D01*
X161641Y621336D01*
X161604Y621198D01*
X161564Y621061D01*
X161520Y620926D01*
X161472Y620791D01*
X161420Y620658D01*
X161365Y620526D01*
X161306Y620396D01*
X161244Y620268D01*
X161178Y620141D01*
X161109Y620016D01*
X161037Y619893D01*
X160961Y619773D01*
X160882Y619654D01*
X160799Y619537D01*
X160714Y619423D01*
X160625Y619311D01*
X160534Y619202D01*
X160439Y619095D01*
X160342Y618990D01*
X160241Y618889D01*
X160138Y618790D01*
X160033Y618694D01*
X159924Y618601D01*
X159813Y618511D01*
X159700Y618424D01*
X159585Y618340D01*
X159467Y618260D01*
X159347Y618182D01*
X159225Y618108D01*
X159101Y618038D01*
X158975Y617970D01*
X158847Y617907D01*
X158718Y617846D01*
X158587Y617789D01*
X158455Y617736D01*
X158321Y617687D01*
X158186Y617641D01*
X154573Y625317D02*
X154665Y625411D01*
X154759Y625501D01*
X154856Y625589D01*
X154956Y625674D01*
X155058Y625756D01*
X155163Y625835D01*
X155270Y625910D01*
X155379Y625982D01*
X155490Y626051D01*
X155604Y626117D01*
X155719Y626179D01*
X155836Y626238D01*
X155955Y626293D01*
X156075Y626344D01*
X156197Y626392D01*
X156320Y626437D01*
X156444Y626477D01*
X156570Y626514D01*
X156697Y626547D01*
X156824Y626576D01*
X156953Y626602D01*
X157082Y626623D01*
X157212Y626641D01*
X157342Y626654D01*
X157472Y626664D01*
X157603Y626670D01*
X157734Y626672D01*
X154573Y625318D02*
X145542Y617641D01*
X145542Y626672D01*
X179973Y607258D02*
X179973Y602742D01*
X179974Y607258D02*
X179972Y607391D01*
X179966Y607523D01*
X179956Y607655D01*
X179943Y607787D01*
X179925Y607919D01*
X179904Y608049D01*
X179879Y608180D01*
X179850Y608309D01*
X179817Y608437D01*
X179781Y608565D01*
X179741Y608691D01*
X179697Y608816D01*
X179649Y608940D01*
X179598Y609062D01*
X179543Y609183D01*
X179485Y609302D01*
X179423Y609420D01*
X179358Y609535D01*
X179289Y609649D01*
X179218Y609760D01*
X179142Y609869D01*
X179064Y609976D01*
X178983Y610081D01*
X178898Y610183D01*
X178811Y610283D01*
X178721Y610380D01*
X178628Y610475D01*
X178532Y610566D01*
X178434Y610655D01*
X178333Y610741D01*
X178229Y610824D01*
X178123Y610904D01*
X178015Y610980D01*
X177905Y611054D01*
X177792Y611124D01*
X177678Y611191D01*
X177561Y611254D01*
X177443Y611314D01*
X177323Y611371D01*
X177201Y611424D01*
X177078Y611473D01*
X176954Y611519D01*
X176828Y611561D01*
X176701Y611599D01*
X176573Y611634D01*
X176444Y611665D01*
X176315Y611692D01*
X176184Y611715D01*
X176053Y611735D01*
X175921Y611750D01*
X175789Y611762D01*
X175657Y611770D01*
X175524Y611774D01*
X175392Y611774D01*
X175259Y611770D01*
X175127Y611762D01*
X174995Y611750D01*
X174863Y611735D01*
X174732Y611715D01*
X174601Y611692D01*
X174472Y611665D01*
X174343Y611634D01*
X174215Y611599D01*
X174088Y611561D01*
X173962Y611519D01*
X173838Y611473D01*
X173715Y611424D01*
X173593Y611371D01*
X173473Y611314D01*
X173355Y611254D01*
X173238Y611191D01*
X173124Y611124D01*
X173011Y611054D01*
X172901Y610980D01*
X172793Y610904D01*
X172687Y610824D01*
X172583Y610741D01*
X172482Y610655D01*
X172384Y610566D01*
X172288Y610475D01*
X172195Y610380D01*
X172105Y610283D01*
X172018Y610183D01*
X171933Y610081D01*
X171852Y609976D01*
X171774Y609869D01*
X171698Y609760D01*
X171627Y609649D01*
X171558Y609535D01*
X171493Y609420D01*
X171431Y609302D01*
X171373Y609183D01*
X171318Y609062D01*
X171267Y608940D01*
X171219Y608816D01*
X171175Y608691D01*
X171135Y608565D01*
X171099Y608437D01*
X171066Y608309D01*
X171037Y608180D01*
X171012Y608049D01*
X170991Y607919D01*
X170973Y607787D01*
X170960Y607655D01*
X170950Y607523D01*
X170944Y607391D01*
X170942Y607258D01*
X170942Y602742D01*
X187198Y602742D01*
X187198Y607258D01*
X187196Y607377D01*
X187190Y607497D01*
X187180Y607616D01*
X187166Y607734D01*
X187149Y607853D01*
X187127Y607970D01*
X187102Y608087D01*
X187072Y608202D01*
X187039Y608317D01*
X187002Y608431D01*
X186962Y608543D01*
X186917Y608654D01*
X186869Y608763D01*
X186818Y608871D01*
X186763Y608977D01*
X186704Y609081D01*
X186642Y609183D01*
X186577Y609283D01*
X186508Y609381D01*
X186436Y609477D01*
X186361Y609570D01*
X186284Y609660D01*
X186203Y609748D01*
X186119Y609833D01*
X186032Y609915D01*
X185943Y609995D01*
X185851Y610071D01*
X185757Y610145D01*
X185660Y610215D01*
X185562Y610282D01*
X185461Y610346D01*
X185357Y610406D01*
X185252Y610463D01*
X185145Y610516D01*
X185037Y610566D01*
X184927Y610612D01*
X184815Y610654D01*
X184702Y610693D01*
X184588Y610728D01*
X184473Y610759D01*
X184356Y610787D01*
X184239Y610810D01*
X184122Y610830D01*
X184003Y610846D01*
X183884Y610858D01*
X183765Y610866D01*
X183646Y610870D01*
X183526Y610870D01*
X183407Y610866D01*
X183288Y610858D01*
X183169Y610846D01*
X183050Y610830D01*
X182933Y610810D01*
X182816Y610787D01*
X182699Y610759D01*
X182584Y610728D01*
X182470Y610693D01*
X182357Y610654D01*
X182245Y610612D01*
X182135Y610566D01*
X182027Y610516D01*
X181920Y610463D01*
X181815Y610406D01*
X181711Y610346D01*
X181610Y610282D01*
X181512Y610215D01*
X181415Y610145D01*
X181321Y610071D01*
X181229Y609995D01*
X181140Y609915D01*
X181053Y609833D01*
X180969Y609748D01*
X180888Y609660D01*
X180811Y609570D01*
X180736Y609477D01*
X180664Y609381D01*
X180595Y609283D01*
X180530Y609183D01*
X180468Y609081D01*
X180409Y608977D01*
X180354Y608871D01*
X180303Y608763D01*
X180255Y608654D01*
X180210Y608543D01*
X180170Y608431D01*
X180133Y608317D01*
X180100Y608202D01*
X180070Y608087D01*
X180045Y607970D01*
X180023Y607853D01*
X180006Y607734D01*
X179992Y607616D01*
X179982Y607497D01*
X179976Y607377D01*
X179974Y607258D01*
X177264Y617780D02*
X177264Y628618D01*
X205373Y607258D02*
X205373Y602742D01*
X205374Y607258D02*
X205372Y607391D01*
X205366Y607523D01*
X205356Y607655D01*
X205343Y607787D01*
X205325Y607919D01*
X205304Y608049D01*
X205279Y608180D01*
X205250Y608309D01*
X205217Y608437D01*
X205181Y608565D01*
X205141Y608691D01*
X205097Y608816D01*
X205049Y608940D01*
X204998Y609062D01*
X204943Y609183D01*
X204885Y609302D01*
X204823Y609420D01*
X204758Y609535D01*
X204689Y609649D01*
X204618Y609760D01*
X204542Y609869D01*
X204464Y609976D01*
X204383Y610081D01*
X204298Y610183D01*
X204211Y610283D01*
X204121Y610380D01*
X204028Y610475D01*
X203932Y610566D01*
X203834Y610655D01*
X203733Y610741D01*
X203629Y610824D01*
X203523Y610904D01*
X203415Y610980D01*
X203305Y611054D01*
X203192Y611124D01*
X203078Y611191D01*
X202961Y611254D01*
X202843Y611314D01*
X202723Y611371D01*
X202601Y611424D01*
X202478Y611473D01*
X202354Y611519D01*
X202228Y611561D01*
X202101Y611599D01*
X201973Y611634D01*
X201844Y611665D01*
X201715Y611692D01*
X201584Y611715D01*
X201453Y611735D01*
X201321Y611750D01*
X201189Y611762D01*
X201057Y611770D01*
X200924Y611774D01*
X200792Y611774D01*
X200659Y611770D01*
X200527Y611762D01*
X200395Y611750D01*
X200263Y611735D01*
X200132Y611715D01*
X200001Y611692D01*
X199872Y611665D01*
X199743Y611634D01*
X199615Y611599D01*
X199488Y611561D01*
X199362Y611519D01*
X199238Y611473D01*
X199115Y611424D01*
X198993Y611371D01*
X198873Y611314D01*
X198755Y611254D01*
X198638Y611191D01*
X198524Y611124D01*
X198411Y611054D01*
X198301Y610980D01*
X198193Y610904D01*
X198087Y610824D01*
X197983Y610741D01*
X197882Y610655D01*
X197784Y610566D01*
X197688Y610475D01*
X197595Y610380D01*
X197505Y610283D01*
X197418Y610183D01*
X197333Y610081D01*
X197252Y609976D01*
X197174Y609869D01*
X197098Y609760D01*
X197027Y609649D01*
X196958Y609535D01*
X196893Y609420D01*
X196831Y609302D01*
X196773Y609183D01*
X196718Y609062D01*
X196667Y608940D01*
X196619Y608816D01*
X196575Y608691D01*
X196535Y608565D01*
X196499Y608437D01*
X196466Y608309D01*
X196437Y608180D01*
X196412Y608049D01*
X196391Y607919D01*
X196373Y607787D01*
X196360Y607655D01*
X196350Y607523D01*
X196344Y607391D01*
X196342Y607258D01*
X196342Y602742D01*
X212598Y602742D01*
X212598Y607258D01*
X212596Y607377D01*
X212590Y607497D01*
X212580Y607616D01*
X212566Y607734D01*
X212549Y607853D01*
X212527Y607970D01*
X212502Y608087D01*
X212472Y608202D01*
X212439Y608317D01*
X212402Y608431D01*
X212362Y608543D01*
X212317Y608654D01*
X212269Y608763D01*
X212218Y608871D01*
X212163Y608977D01*
X212104Y609081D01*
X212042Y609183D01*
X211977Y609283D01*
X211908Y609381D01*
X211836Y609477D01*
X211761Y609570D01*
X211684Y609660D01*
X211603Y609748D01*
X211519Y609833D01*
X211432Y609915D01*
X211343Y609995D01*
X211251Y610071D01*
X211157Y610145D01*
X211060Y610215D01*
X210962Y610282D01*
X210861Y610346D01*
X210757Y610406D01*
X210652Y610463D01*
X210545Y610516D01*
X210437Y610566D01*
X210327Y610612D01*
X210215Y610654D01*
X210102Y610693D01*
X209988Y610728D01*
X209873Y610759D01*
X209756Y610787D01*
X209639Y610810D01*
X209522Y610830D01*
X209403Y610846D01*
X209284Y610858D01*
X209165Y610866D01*
X209046Y610870D01*
X208926Y610870D01*
X208807Y610866D01*
X208688Y610858D01*
X208569Y610846D01*
X208450Y610830D01*
X208333Y610810D01*
X208216Y610787D01*
X208099Y610759D01*
X207984Y610728D01*
X207870Y610693D01*
X207757Y610654D01*
X207645Y610612D01*
X207535Y610566D01*
X207427Y610516D01*
X207320Y610463D01*
X207215Y610406D01*
X207111Y610346D01*
X207010Y610282D01*
X206912Y610215D01*
X206815Y610145D01*
X206721Y610071D01*
X206629Y609995D01*
X206540Y609915D01*
X206453Y609833D01*
X206369Y609748D01*
X206288Y609660D01*
X206211Y609570D01*
X206136Y609477D01*
X206064Y609381D01*
X205995Y609283D01*
X205930Y609183D01*
X205868Y609081D01*
X205809Y608977D01*
X205754Y608871D01*
X205703Y608763D01*
X205655Y608654D01*
X205610Y608543D01*
X205570Y608431D01*
X205533Y608317D01*
X205500Y608202D01*
X205470Y608087D01*
X205445Y607970D01*
X205423Y607853D01*
X205406Y607734D01*
X205392Y607616D01*
X205382Y607497D01*
X205376Y607377D01*
X205374Y607258D01*
X208986Y617641D02*
X212598Y622157D01*
X196342Y622157D01*
X196342Y626672D02*
X196342Y617641D01*
X230773Y607258D02*
X230773Y602742D01*
X230774Y607258D02*
X230772Y607391D01*
X230766Y607523D01*
X230756Y607655D01*
X230743Y607787D01*
X230725Y607919D01*
X230704Y608049D01*
X230679Y608180D01*
X230650Y608309D01*
X230617Y608437D01*
X230581Y608565D01*
X230541Y608691D01*
X230497Y608816D01*
X230449Y608940D01*
X230398Y609062D01*
X230343Y609183D01*
X230285Y609302D01*
X230223Y609420D01*
X230158Y609535D01*
X230089Y609649D01*
X230018Y609760D01*
X229942Y609869D01*
X229864Y609976D01*
X229783Y610081D01*
X229698Y610183D01*
X229611Y610283D01*
X229521Y610380D01*
X229428Y610475D01*
X229332Y610566D01*
X229234Y610655D01*
X229133Y610741D01*
X229029Y610824D01*
X228923Y610904D01*
X228815Y610980D01*
X228705Y611054D01*
X228592Y611124D01*
X228478Y611191D01*
X228361Y611254D01*
X228243Y611314D01*
X228123Y611371D01*
X228001Y611424D01*
X227878Y611473D01*
X227754Y611519D01*
X227628Y611561D01*
X227501Y611599D01*
X227373Y611634D01*
X227244Y611665D01*
X227115Y611692D01*
X226984Y611715D01*
X226853Y611735D01*
X226721Y611750D01*
X226589Y611762D01*
X226457Y611770D01*
X226324Y611774D01*
X226192Y611774D01*
X226059Y611770D01*
X225927Y611762D01*
X225795Y611750D01*
X225663Y611735D01*
X225532Y611715D01*
X225401Y611692D01*
X225272Y611665D01*
X225143Y611634D01*
X225015Y611599D01*
X224888Y611561D01*
X224762Y611519D01*
X224638Y611473D01*
X224515Y611424D01*
X224393Y611371D01*
X224273Y611314D01*
X224155Y611254D01*
X224038Y611191D01*
X223924Y611124D01*
X223811Y611054D01*
X223701Y610980D01*
X223593Y610904D01*
X223487Y610824D01*
X223383Y610741D01*
X223282Y610655D01*
X223184Y610566D01*
X223088Y610475D01*
X222995Y610380D01*
X222905Y610283D01*
X222818Y610183D01*
X222733Y610081D01*
X222652Y609976D01*
X222574Y609869D01*
X222498Y609760D01*
X222427Y609649D01*
X222358Y609535D01*
X222293Y609420D01*
X222231Y609302D01*
X222173Y609183D01*
X222118Y609062D01*
X222067Y608940D01*
X222019Y608816D01*
X221975Y608691D01*
X221935Y608565D01*
X221899Y608437D01*
X221866Y608309D01*
X221837Y608180D01*
X221812Y608049D01*
X221791Y607919D01*
X221773Y607787D01*
X221760Y607655D01*
X221750Y607523D01*
X221744Y607391D01*
X221742Y607258D01*
X221742Y602742D01*
X237998Y602742D01*
X237998Y607258D01*
X237996Y607377D01*
X237990Y607497D01*
X237980Y607616D01*
X237966Y607734D01*
X237949Y607853D01*
X237927Y607970D01*
X237902Y608087D01*
X237872Y608202D01*
X237839Y608317D01*
X237802Y608431D01*
X237762Y608543D01*
X237717Y608654D01*
X237669Y608763D01*
X237618Y608871D01*
X237563Y608977D01*
X237504Y609081D01*
X237442Y609183D01*
X237377Y609283D01*
X237308Y609381D01*
X237236Y609477D01*
X237161Y609570D01*
X237084Y609660D01*
X237003Y609748D01*
X236919Y609833D01*
X236832Y609915D01*
X236743Y609995D01*
X236651Y610071D01*
X236557Y610145D01*
X236460Y610215D01*
X236362Y610282D01*
X236261Y610346D01*
X236157Y610406D01*
X236052Y610463D01*
X235945Y610516D01*
X235837Y610566D01*
X235727Y610612D01*
X235615Y610654D01*
X235502Y610693D01*
X235388Y610728D01*
X235273Y610759D01*
X235156Y610787D01*
X235039Y610810D01*
X234922Y610830D01*
X234803Y610846D01*
X234684Y610858D01*
X234565Y610866D01*
X234446Y610870D01*
X234326Y610870D01*
X234207Y610866D01*
X234088Y610858D01*
X233969Y610846D01*
X233850Y610830D01*
X233733Y610810D01*
X233616Y610787D01*
X233499Y610759D01*
X233384Y610728D01*
X233270Y610693D01*
X233157Y610654D01*
X233045Y610612D01*
X232935Y610566D01*
X232827Y610516D01*
X232720Y610463D01*
X232615Y610406D01*
X232511Y610346D01*
X232410Y610282D01*
X232312Y610215D01*
X232215Y610145D01*
X232121Y610071D01*
X232029Y609995D01*
X231940Y609915D01*
X231853Y609833D01*
X231769Y609748D01*
X231688Y609660D01*
X231611Y609570D01*
X231536Y609477D01*
X231464Y609381D01*
X231395Y609283D01*
X231330Y609183D01*
X231268Y609081D01*
X231209Y608977D01*
X231154Y608871D01*
X231103Y608763D01*
X231055Y608654D01*
X231010Y608543D01*
X230970Y608431D01*
X230933Y608317D01*
X230900Y608202D01*
X230870Y608087D01*
X230845Y607970D01*
X230823Y607853D01*
X230806Y607734D01*
X230792Y607616D01*
X230782Y607497D01*
X230776Y607377D01*
X230774Y607258D01*
X221742Y617641D02*
X221742Y622157D01*
X221744Y622290D01*
X221750Y622422D01*
X221760Y622554D01*
X221773Y622686D01*
X221791Y622818D01*
X221812Y622948D01*
X221837Y623079D01*
X221866Y623208D01*
X221899Y623336D01*
X221935Y623464D01*
X221975Y623590D01*
X222019Y623715D01*
X222067Y623839D01*
X222118Y623961D01*
X222173Y624082D01*
X222231Y624201D01*
X222293Y624319D01*
X222358Y624434D01*
X222427Y624548D01*
X222498Y624659D01*
X222574Y624768D01*
X222652Y624875D01*
X222733Y624980D01*
X222818Y625082D01*
X222905Y625182D01*
X222995Y625279D01*
X223088Y625374D01*
X223184Y625465D01*
X223282Y625554D01*
X223383Y625640D01*
X223487Y625723D01*
X223593Y625803D01*
X223701Y625879D01*
X223811Y625953D01*
X223924Y626023D01*
X224038Y626090D01*
X224155Y626153D01*
X224273Y626213D01*
X224393Y626270D01*
X224515Y626323D01*
X224638Y626372D01*
X224762Y626418D01*
X224888Y626460D01*
X225015Y626498D01*
X225143Y626533D01*
X225272Y626564D01*
X225401Y626591D01*
X225532Y626614D01*
X225663Y626634D01*
X225795Y626649D01*
X225927Y626661D01*
X226059Y626669D01*
X226192Y626673D01*
X226324Y626673D01*
X226457Y626669D01*
X226589Y626661D01*
X226721Y626649D01*
X226853Y626634D01*
X226984Y626614D01*
X227115Y626591D01*
X227244Y626564D01*
X227373Y626533D01*
X227501Y626498D01*
X227628Y626460D01*
X227754Y626418D01*
X227878Y626372D01*
X228001Y626323D01*
X228123Y626270D01*
X228243Y626213D01*
X228361Y626153D01*
X228478Y626090D01*
X228592Y626023D01*
X228705Y625953D01*
X228815Y625879D01*
X228923Y625803D01*
X229029Y625723D01*
X229133Y625640D01*
X229234Y625554D01*
X229332Y625465D01*
X229428Y625374D01*
X229521Y625279D01*
X229611Y625182D01*
X229698Y625082D01*
X229783Y624980D01*
X229864Y624875D01*
X229942Y624768D01*
X230018Y624659D01*
X230089Y624548D01*
X230158Y624434D01*
X230223Y624319D01*
X230285Y624201D01*
X230343Y624082D01*
X230398Y623961D01*
X230449Y623839D01*
X230497Y623715D01*
X230541Y623590D01*
X230581Y623464D01*
X230617Y623336D01*
X230650Y623208D01*
X230679Y623079D01*
X230704Y622948D01*
X230725Y622818D01*
X230743Y622686D01*
X230756Y622554D01*
X230766Y622422D01*
X230772Y622290D01*
X230774Y622157D01*
X237998Y623060D02*
X237998Y617641D01*
X237998Y623060D02*
X237996Y623179D01*
X237990Y623299D01*
X237980Y623418D01*
X237966Y623536D01*
X237949Y623655D01*
X237927Y623772D01*
X237902Y623889D01*
X237872Y624004D01*
X237839Y624119D01*
X237802Y624233D01*
X237762Y624345D01*
X237717Y624456D01*
X237669Y624565D01*
X237618Y624673D01*
X237563Y624779D01*
X237504Y624883D01*
X237442Y624985D01*
X237377Y625085D01*
X237308Y625183D01*
X237236Y625279D01*
X237161Y625372D01*
X237084Y625462D01*
X237003Y625550D01*
X236919Y625635D01*
X236832Y625717D01*
X236743Y625797D01*
X236651Y625873D01*
X236557Y625947D01*
X236460Y626017D01*
X236362Y626084D01*
X236261Y626148D01*
X236157Y626208D01*
X236052Y626265D01*
X235945Y626318D01*
X235837Y626368D01*
X235727Y626414D01*
X235615Y626456D01*
X235502Y626495D01*
X235388Y626530D01*
X235273Y626561D01*
X235156Y626589D01*
X235039Y626612D01*
X234922Y626632D01*
X234803Y626648D01*
X234684Y626660D01*
X234565Y626668D01*
X234446Y626672D01*
X234326Y626672D01*
X234207Y626668D01*
X234088Y626660D01*
X233969Y626648D01*
X233850Y626632D01*
X233733Y626612D01*
X233616Y626589D01*
X233499Y626561D01*
X233384Y626530D01*
X233270Y626495D01*
X233157Y626456D01*
X233045Y626414D01*
X232935Y626368D01*
X232827Y626318D01*
X232720Y626265D01*
X232615Y626208D01*
X232511Y626148D01*
X232410Y626084D01*
X232312Y626017D01*
X232215Y625947D01*
X232121Y625873D01*
X232029Y625797D01*
X231940Y625717D01*
X231853Y625635D01*
X231769Y625550D01*
X231688Y625462D01*
X231611Y625372D01*
X231536Y625279D01*
X231464Y625183D01*
X231395Y625085D01*
X231330Y624985D01*
X231268Y624883D01*
X231209Y624779D01*
X231154Y624673D01*
X231103Y624565D01*
X231055Y624456D01*
X231010Y624345D01*
X230970Y624233D01*
X230933Y624119D01*
X230900Y624004D01*
X230870Y623889D01*
X230845Y623772D01*
X230823Y623655D01*
X230806Y623536D01*
X230792Y623418D01*
X230782Y623299D01*
X230776Y623179D01*
X230774Y623060D01*
X230773Y623060D02*
X230773Y619447D01*
X256173Y607258D02*
X256173Y602742D01*
X256174Y607258D02*
X256172Y607391D01*
X256166Y607523D01*
X256156Y607655D01*
X256143Y607787D01*
X256125Y607919D01*
X256104Y608049D01*
X256079Y608180D01*
X256050Y608309D01*
X256017Y608437D01*
X255981Y608565D01*
X255941Y608691D01*
X255897Y608816D01*
X255849Y608940D01*
X255798Y609062D01*
X255743Y609183D01*
X255685Y609302D01*
X255623Y609420D01*
X255558Y609535D01*
X255489Y609649D01*
X255418Y609760D01*
X255342Y609869D01*
X255264Y609976D01*
X255183Y610081D01*
X255098Y610183D01*
X255011Y610283D01*
X254921Y610380D01*
X254828Y610475D01*
X254732Y610566D01*
X254634Y610655D01*
X254533Y610741D01*
X254429Y610824D01*
X254323Y610904D01*
X254215Y610980D01*
X254105Y611054D01*
X253992Y611124D01*
X253878Y611191D01*
X253761Y611254D01*
X253643Y611314D01*
X253523Y611371D01*
X253401Y611424D01*
X253278Y611473D01*
X253154Y611519D01*
X253028Y611561D01*
X252901Y611599D01*
X252773Y611634D01*
X252644Y611665D01*
X252515Y611692D01*
X252384Y611715D01*
X252253Y611735D01*
X252121Y611750D01*
X251989Y611762D01*
X251857Y611770D01*
X251724Y611774D01*
X251592Y611774D01*
X251459Y611770D01*
X251327Y611762D01*
X251195Y611750D01*
X251063Y611735D01*
X250932Y611715D01*
X250801Y611692D01*
X250672Y611665D01*
X250543Y611634D01*
X250415Y611599D01*
X250288Y611561D01*
X250162Y611519D01*
X250038Y611473D01*
X249915Y611424D01*
X249793Y611371D01*
X249673Y611314D01*
X249555Y611254D01*
X249438Y611191D01*
X249324Y611124D01*
X249211Y611054D01*
X249101Y610980D01*
X248993Y610904D01*
X248887Y610824D01*
X248783Y610741D01*
X248682Y610655D01*
X248584Y610566D01*
X248488Y610475D01*
X248395Y610380D01*
X248305Y610283D01*
X248218Y610183D01*
X248133Y610081D01*
X248052Y609976D01*
X247974Y609869D01*
X247898Y609760D01*
X247827Y609649D01*
X247758Y609535D01*
X247693Y609420D01*
X247631Y609302D01*
X247573Y609183D01*
X247518Y609062D01*
X247467Y608940D01*
X247419Y608816D01*
X247375Y608691D01*
X247335Y608565D01*
X247299Y608437D01*
X247266Y608309D01*
X247237Y608180D01*
X247212Y608049D01*
X247191Y607919D01*
X247173Y607787D01*
X247160Y607655D01*
X247150Y607523D01*
X247144Y607391D01*
X247142Y607258D01*
X247142Y602742D01*
X263398Y602742D01*
X263398Y607258D01*
X263396Y607377D01*
X263390Y607497D01*
X263380Y607616D01*
X263366Y607734D01*
X263349Y607853D01*
X263327Y607970D01*
X263302Y608087D01*
X263272Y608202D01*
X263239Y608317D01*
X263202Y608431D01*
X263162Y608543D01*
X263117Y608654D01*
X263069Y608763D01*
X263018Y608871D01*
X262963Y608977D01*
X262904Y609081D01*
X262842Y609183D01*
X262777Y609283D01*
X262708Y609381D01*
X262636Y609477D01*
X262561Y609570D01*
X262484Y609660D01*
X262403Y609748D01*
X262319Y609833D01*
X262232Y609915D01*
X262143Y609995D01*
X262051Y610071D01*
X261957Y610145D01*
X261860Y610215D01*
X261762Y610282D01*
X261661Y610346D01*
X261557Y610406D01*
X261452Y610463D01*
X261345Y610516D01*
X261237Y610566D01*
X261127Y610612D01*
X261015Y610654D01*
X260902Y610693D01*
X260788Y610728D01*
X260673Y610759D01*
X260556Y610787D01*
X260439Y610810D01*
X260322Y610830D01*
X260203Y610846D01*
X260084Y610858D01*
X259965Y610866D01*
X259846Y610870D01*
X259726Y610870D01*
X259607Y610866D01*
X259488Y610858D01*
X259369Y610846D01*
X259250Y610830D01*
X259133Y610810D01*
X259016Y610787D01*
X258899Y610759D01*
X258784Y610728D01*
X258670Y610693D01*
X258557Y610654D01*
X258445Y610612D01*
X258335Y610566D01*
X258227Y610516D01*
X258120Y610463D01*
X258015Y610406D01*
X257911Y610346D01*
X257810Y610282D01*
X257712Y610215D01*
X257615Y610145D01*
X257521Y610071D01*
X257429Y609995D01*
X257340Y609915D01*
X257253Y609833D01*
X257169Y609748D01*
X257088Y609660D01*
X257011Y609570D01*
X256936Y609477D01*
X256864Y609381D01*
X256795Y609283D01*
X256730Y609183D01*
X256668Y609081D01*
X256609Y608977D01*
X256554Y608871D01*
X256503Y608763D01*
X256455Y608654D01*
X256410Y608543D01*
X256370Y608431D01*
X256333Y608317D01*
X256300Y608202D01*
X256270Y608087D01*
X256245Y607970D01*
X256223Y607853D01*
X256206Y607734D01*
X256192Y607616D01*
X256182Y607497D01*
X256176Y607377D01*
X256174Y607258D01*
X247142Y617641D02*
X247142Y623060D01*
X247144Y623178D01*
X247150Y623296D01*
X247159Y623414D01*
X247173Y623531D01*
X247190Y623648D01*
X247211Y623765D01*
X247236Y623880D01*
X247265Y623995D01*
X247298Y624109D01*
X247334Y624221D01*
X247374Y624332D01*
X247417Y624442D01*
X247464Y624551D01*
X247514Y624658D01*
X247569Y624763D01*
X247626Y624866D01*
X247687Y624967D01*
X247751Y625067D01*
X247818Y625164D01*
X247888Y625259D01*
X247962Y625351D01*
X248038Y625442D01*
X248118Y625529D01*
X248200Y625614D01*
X248285Y625696D01*
X248372Y625776D01*
X248463Y625852D01*
X248555Y625926D01*
X248650Y625996D01*
X248747Y626063D01*
X248847Y626127D01*
X248948Y626188D01*
X249051Y626245D01*
X249156Y626300D01*
X249263Y626350D01*
X249372Y626397D01*
X249482Y626440D01*
X249593Y626480D01*
X249705Y626516D01*
X249819Y626549D01*
X249934Y626578D01*
X250049Y626603D01*
X250166Y626624D01*
X250283Y626641D01*
X250400Y626655D01*
X250518Y626664D01*
X250636Y626670D01*
X250754Y626672D01*
X252561Y626672D01*
X252679Y626670D01*
X252797Y626664D01*
X252915Y626655D01*
X253032Y626641D01*
X253149Y626624D01*
X253266Y626603D01*
X253381Y626578D01*
X253496Y626549D01*
X253610Y626516D01*
X253722Y626480D01*
X253833Y626440D01*
X253943Y626397D01*
X254052Y626350D01*
X254159Y626300D01*
X254264Y626245D01*
X254367Y626188D01*
X254468Y626127D01*
X254568Y626063D01*
X254665Y625996D01*
X254760Y625926D01*
X254852Y625852D01*
X254943Y625776D01*
X255030Y625696D01*
X255115Y625614D01*
X255197Y625529D01*
X255277Y625442D01*
X255353Y625351D01*
X255427Y625259D01*
X255497Y625164D01*
X255564Y625067D01*
X255628Y624967D01*
X255689Y624866D01*
X255746Y624763D01*
X255801Y624658D01*
X255851Y624551D01*
X255898Y624442D01*
X255941Y624332D01*
X255981Y624221D01*
X256017Y624109D01*
X256050Y623995D01*
X256079Y623880D01*
X256104Y623765D01*
X256125Y623648D01*
X256142Y623531D01*
X256156Y623414D01*
X256165Y623296D01*
X256171Y623178D01*
X256173Y623060D01*
X256173Y617641D01*
X263398Y617641D01*
X263398Y626672D01*
X281573Y607258D02*
X281573Y602742D01*
X281574Y607258D02*
X281572Y607391D01*
X281566Y607523D01*
X281556Y607655D01*
X281543Y607787D01*
X281525Y607919D01*
X281504Y608049D01*
X281479Y608180D01*
X281450Y608309D01*
X281417Y608437D01*
X281381Y608565D01*
X281341Y608691D01*
X281297Y608816D01*
X281249Y608940D01*
X281198Y609062D01*
X281143Y609183D01*
X281085Y609302D01*
X281023Y609420D01*
X280958Y609535D01*
X280889Y609649D01*
X280818Y609760D01*
X280742Y609869D01*
X280664Y609976D01*
X280583Y610081D01*
X280498Y610183D01*
X280411Y610283D01*
X280321Y610380D01*
X280228Y610475D01*
X280132Y610566D01*
X280034Y610655D01*
X279933Y610741D01*
X279829Y610824D01*
X279723Y610904D01*
X279615Y610980D01*
X279505Y611054D01*
X279392Y611124D01*
X279278Y611191D01*
X279161Y611254D01*
X279043Y611314D01*
X278923Y611371D01*
X278801Y611424D01*
X278678Y611473D01*
X278554Y611519D01*
X278428Y611561D01*
X278301Y611599D01*
X278173Y611634D01*
X278044Y611665D01*
X277915Y611692D01*
X277784Y611715D01*
X277653Y611735D01*
X277521Y611750D01*
X277389Y611762D01*
X277257Y611770D01*
X277124Y611774D01*
X276992Y611774D01*
X276859Y611770D01*
X276727Y611762D01*
X276595Y611750D01*
X276463Y611735D01*
X276332Y611715D01*
X276201Y611692D01*
X276072Y611665D01*
X275943Y611634D01*
X275815Y611599D01*
X275688Y611561D01*
X275562Y611519D01*
X275438Y611473D01*
X275315Y611424D01*
X275193Y611371D01*
X275073Y611314D01*
X274955Y611254D01*
X274838Y611191D01*
X274724Y611124D01*
X274611Y611054D01*
X274501Y610980D01*
X274393Y610904D01*
X274287Y610824D01*
X274183Y610741D01*
X274082Y610655D01*
X273984Y610566D01*
X273888Y610475D01*
X273795Y610380D01*
X273705Y610283D01*
X273618Y610183D01*
X273533Y610081D01*
X273452Y609976D01*
X273374Y609869D01*
X273298Y609760D01*
X273227Y609649D01*
X273158Y609535D01*
X273093Y609420D01*
X273031Y609302D01*
X272973Y609183D01*
X272918Y609062D01*
X272867Y608940D01*
X272819Y608816D01*
X272775Y608691D01*
X272735Y608565D01*
X272699Y608437D01*
X272666Y608309D01*
X272637Y608180D01*
X272612Y608049D01*
X272591Y607919D01*
X272573Y607787D01*
X272560Y607655D01*
X272550Y607523D01*
X272544Y607391D01*
X272542Y607258D01*
X272542Y602742D01*
X288798Y602742D01*
X288798Y607258D01*
X288796Y607377D01*
X288790Y607497D01*
X288780Y607616D01*
X288766Y607734D01*
X288749Y607853D01*
X288727Y607970D01*
X288702Y608087D01*
X288672Y608202D01*
X288639Y608317D01*
X288602Y608431D01*
X288562Y608543D01*
X288517Y608654D01*
X288469Y608763D01*
X288418Y608871D01*
X288363Y608977D01*
X288304Y609081D01*
X288242Y609183D01*
X288177Y609283D01*
X288108Y609381D01*
X288036Y609477D01*
X287961Y609570D01*
X287884Y609660D01*
X287803Y609748D01*
X287719Y609833D01*
X287632Y609915D01*
X287543Y609995D01*
X287451Y610071D01*
X287357Y610145D01*
X287260Y610215D01*
X287162Y610282D01*
X287061Y610346D01*
X286957Y610406D01*
X286852Y610463D01*
X286745Y610516D01*
X286637Y610566D01*
X286527Y610612D01*
X286415Y610654D01*
X286302Y610693D01*
X286188Y610728D01*
X286073Y610759D01*
X285956Y610787D01*
X285839Y610810D01*
X285722Y610830D01*
X285603Y610846D01*
X285484Y610858D01*
X285365Y610866D01*
X285246Y610870D01*
X285126Y610870D01*
X285007Y610866D01*
X284888Y610858D01*
X284769Y610846D01*
X284650Y610830D01*
X284533Y610810D01*
X284416Y610787D01*
X284299Y610759D01*
X284184Y610728D01*
X284070Y610693D01*
X283957Y610654D01*
X283845Y610612D01*
X283735Y610566D01*
X283627Y610516D01*
X283520Y610463D01*
X283415Y610406D01*
X283311Y610346D01*
X283210Y610282D01*
X283112Y610215D01*
X283015Y610145D01*
X282921Y610071D01*
X282829Y609995D01*
X282740Y609915D01*
X282653Y609833D01*
X282569Y609748D01*
X282488Y609660D01*
X282411Y609570D01*
X282336Y609477D01*
X282264Y609381D01*
X282195Y609283D01*
X282130Y609183D01*
X282068Y609081D01*
X282009Y608977D01*
X281954Y608871D01*
X281903Y608763D01*
X281855Y608654D01*
X281810Y608543D01*
X281770Y608431D01*
X281733Y608317D01*
X281700Y608202D01*
X281670Y608087D01*
X281645Y607970D01*
X281623Y607853D01*
X281606Y607734D01*
X281592Y607616D01*
X281582Y607497D01*
X281576Y607377D01*
X281574Y607258D01*
X286992Y617641D02*
X288798Y617641D01*
X288798Y626672D01*
X272542Y622157D01*
X306973Y607258D02*
X306973Y602742D01*
X306974Y607258D02*
X306972Y607391D01*
X306966Y607523D01*
X306956Y607655D01*
X306943Y607787D01*
X306925Y607919D01*
X306904Y608049D01*
X306879Y608180D01*
X306850Y608309D01*
X306817Y608437D01*
X306781Y608565D01*
X306741Y608691D01*
X306697Y608816D01*
X306649Y608940D01*
X306598Y609062D01*
X306543Y609183D01*
X306485Y609302D01*
X306423Y609420D01*
X306358Y609535D01*
X306289Y609649D01*
X306218Y609760D01*
X306142Y609869D01*
X306064Y609976D01*
X305983Y610081D01*
X305898Y610183D01*
X305811Y610283D01*
X305721Y610380D01*
X305628Y610475D01*
X305532Y610566D01*
X305434Y610655D01*
X305333Y610741D01*
X305229Y610824D01*
X305123Y610904D01*
X305015Y610980D01*
X304905Y611054D01*
X304792Y611124D01*
X304678Y611191D01*
X304561Y611254D01*
X304443Y611314D01*
X304323Y611371D01*
X304201Y611424D01*
X304078Y611473D01*
X303954Y611519D01*
X303828Y611561D01*
X303701Y611599D01*
X303573Y611634D01*
X303444Y611665D01*
X303315Y611692D01*
X303184Y611715D01*
X303053Y611735D01*
X302921Y611750D01*
X302789Y611762D01*
X302657Y611770D01*
X302524Y611774D01*
X302392Y611774D01*
X302259Y611770D01*
X302127Y611762D01*
X301995Y611750D01*
X301863Y611735D01*
X301732Y611715D01*
X301601Y611692D01*
X301472Y611665D01*
X301343Y611634D01*
X301215Y611599D01*
X301088Y611561D01*
X300962Y611519D01*
X300838Y611473D01*
X300715Y611424D01*
X300593Y611371D01*
X300473Y611314D01*
X300355Y611254D01*
X300238Y611191D01*
X300124Y611124D01*
X300011Y611054D01*
X299901Y610980D01*
X299793Y610904D01*
X299687Y610824D01*
X299583Y610741D01*
X299482Y610655D01*
X299384Y610566D01*
X299288Y610475D01*
X299195Y610380D01*
X299105Y610283D01*
X299018Y610183D01*
X298933Y610081D01*
X298852Y609976D01*
X298774Y609869D01*
X298698Y609760D01*
X298627Y609649D01*
X298558Y609535D01*
X298493Y609420D01*
X298431Y609302D01*
X298373Y609183D01*
X298318Y609062D01*
X298267Y608940D01*
X298219Y608816D01*
X298175Y608691D01*
X298135Y608565D01*
X298099Y608437D01*
X298066Y608309D01*
X298037Y608180D01*
X298012Y608049D01*
X297991Y607919D01*
X297973Y607787D01*
X297960Y607655D01*
X297950Y607523D01*
X297944Y607391D01*
X297942Y607258D01*
X297942Y602742D01*
X314198Y602742D01*
X314198Y607258D01*
X314196Y607377D01*
X314190Y607497D01*
X314180Y607616D01*
X314166Y607734D01*
X314149Y607853D01*
X314127Y607970D01*
X314102Y608087D01*
X314072Y608202D01*
X314039Y608317D01*
X314002Y608431D01*
X313962Y608543D01*
X313917Y608654D01*
X313869Y608763D01*
X313818Y608871D01*
X313763Y608977D01*
X313704Y609081D01*
X313642Y609183D01*
X313577Y609283D01*
X313508Y609381D01*
X313436Y609477D01*
X313361Y609570D01*
X313284Y609660D01*
X313203Y609748D01*
X313119Y609833D01*
X313032Y609915D01*
X312943Y609995D01*
X312851Y610071D01*
X312757Y610145D01*
X312660Y610215D01*
X312562Y610282D01*
X312461Y610346D01*
X312357Y610406D01*
X312252Y610463D01*
X312145Y610516D01*
X312037Y610566D01*
X311927Y610612D01*
X311815Y610654D01*
X311702Y610693D01*
X311588Y610728D01*
X311473Y610759D01*
X311356Y610787D01*
X311239Y610810D01*
X311122Y610830D01*
X311003Y610846D01*
X310884Y610858D01*
X310765Y610866D01*
X310646Y610870D01*
X310526Y610870D01*
X310407Y610866D01*
X310288Y610858D01*
X310169Y610846D01*
X310050Y610830D01*
X309933Y610810D01*
X309816Y610787D01*
X309699Y610759D01*
X309584Y610728D01*
X309470Y610693D01*
X309357Y610654D01*
X309245Y610612D01*
X309135Y610566D01*
X309027Y610516D01*
X308920Y610463D01*
X308815Y610406D01*
X308711Y610346D01*
X308610Y610282D01*
X308512Y610215D01*
X308415Y610145D01*
X308321Y610071D01*
X308229Y609995D01*
X308140Y609915D01*
X308053Y609833D01*
X307969Y609748D01*
X307888Y609660D01*
X307811Y609570D01*
X307736Y609477D01*
X307664Y609381D01*
X307595Y609283D01*
X307530Y609183D01*
X307468Y609081D01*
X307409Y608977D01*
X307354Y608871D01*
X307303Y608763D01*
X307255Y608654D01*
X307210Y608543D01*
X307170Y608431D01*
X307133Y608317D01*
X307100Y608202D01*
X307070Y608087D01*
X307045Y607970D01*
X307023Y607853D01*
X307006Y607734D01*
X306992Y607616D01*
X306982Y607497D01*
X306976Y607377D01*
X306974Y607258D01*
X305167Y621254D02*
X305167Y626672D01*
X305167Y621254D02*
X305169Y621136D01*
X305175Y621018D01*
X305184Y620900D01*
X305198Y620783D01*
X305215Y620666D01*
X305236Y620549D01*
X305261Y620434D01*
X305290Y620319D01*
X305323Y620205D01*
X305359Y620093D01*
X305399Y619982D01*
X305442Y619872D01*
X305489Y619763D01*
X305539Y619656D01*
X305594Y619551D01*
X305651Y619448D01*
X305712Y619347D01*
X305776Y619247D01*
X305843Y619150D01*
X305913Y619055D01*
X305987Y618963D01*
X306063Y618872D01*
X306143Y618785D01*
X306225Y618700D01*
X306310Y618618D01*
X306397Y618538D01*
X306488Y618462D01*
X306580Y618388D01*
X306675Y618318D01*
X306772Y618251D01*
X306872Y618187D01*
X306973Y618126D01*
X307076Y618069D01*
X307181Y618014D01*
X307288Y617964D01*
X307397Y617917D01*
X307507Y617874D01*
X307618Y617834D01*
X307730Y617798D01*
X307844Y617765D01*
X307959Y617736D01*
X308074Y617711D01*
X308191Y617690D01*
X308308Y617673D01*
X308425Y617659D01*
X308543Y617650D01*
X308661Y617644D01*
X308779Y617642D01*
X308779Y617641D02*
X309682Y617641D01*
X309815Y617643D01*
X309947Y617649D01*
X310079Y617659D01*
X310211Y617672D01*
X310343Y617690D01*
X310473Y617711D01*
X310604Y617736D01*
X310733Y617765D01*
X310861Y617798D01*
X310989Y617834D01*
X311115Y617874D01*
X311240Y617918D01*
X311364Y617966D01*
X311486Y618017D01*
X311607Y618072D01*
X311726Y618130D01*
X311844Y618192D01*
X311959Y618257D01*
X312073Y618326D01*
X312184Y618397D01*
X312293Y618473D01*
X312400Y618551D01*
X312505Y618632D01*
X312607Y618717D01*
X312707Y618804D01*
X312804Y618894D01*
X312899Y618987D01*
X312990Y619083D01*
X313079Y619181D01*
X313165Y619282D01*
X313248Y619386D01*
X313328Y619492D01*
X313404Y619600D01*
X313478Y619710D01*
X313548Y619823D01*
X313615Y619937D01*
X313678Y620054D01*
X313738Y620172D01*
X313795Y620292D01*
X313848Y620414D01*
X313897Y620537D01*
X313943Y620661D01*
X313985Y620787D01*
X314023Y620914D01*
X314058Y621042D01*
X314089Y621171D01*
X314116Y621300D01*
X314139Y621431D01*
X314159Y621562D01*
X314174Y621694D01*
X314186Y621826D01*
X314194Y621958D01*
X314198Y622091D01*
X314198Y622223D01*
X314194Y622356D01*
X314186Y622488D01*
X314174Y622620D01*
X314159Y622752D01*
X314139Y622883D01*
X314116Y623014D01*
X314089Y623143D01*
X314058Y623272D01*
X314023Y623400D01*
X313985Y623527D01*
X313943Y623653D01*
X313897Y623777D01*
X313848Y623900D01*
X313795Y624022D01*
X313738Y624142D01*
X313678Y624260D01*
X313615Y624377D01*
X313548Y624491D01*
X313478Y624604D01*
X313404Y624714D01*
X313328Y624822D01*
X313248Y624928D01*
X313165Y625032D01*
X313079Y625133D01*
X312990Y625231D01*
X312899Y625327D01*
X312804Y625420D01*
X312707Y625510D01*
X312607Y625597D01*
X312505Y625682D01*
X312400Y625763D01*
X312293Y625841D01*
X312184Y625917D01*
X312073Y625988D01*
X311959Y626057D01*
X311844Y626122D01*
X311726Y626184D01*
X311607Y626242D01*
X311486Y626297D01*
X311364Y626348D01*
X311240Y626396D01*
X311115Y626440D01*
X310989Y626480D01*
X310861Y626516D01*
X310733Y626549D01*
X310604Y626578D01*
X310473Y626603D01*
X310343Y626624D01*
X310211Y626642D01*
X310079Y626655D01*
X309947Y626665D01*
X309815Y626671D01*
X309682Y626673D01*
X309682Y626672D02*
X305167Y626672D01*
X304992Y626670D01*
X304818Y626664D01*
X304644Y626653D01*
X304470Y626638D01*
X304296Y626619D01*
X304123Y626596D01*
X303951Y626569D01*
X303779Y626537D01*
X303608Y626502D01*
X303438Y626462D01*
X303269Y626418D01*
X303101Y626370D01*
X302934Y626318D01*
X302769Y626262D01*
X302605Y626202D01*
X302442Y626139D01*
X302282Y626071D01*
X302122Y625999D01*
X301965Y625924D01*
X301809Y625844D01*
X301656Y625761D01*
X301504Y625675D01*
X301355Y625584D01*
X301208Y625490D01*
X301063Y625393D01*
X300920Y625292D01*
X300780Y625188D01*
X300643Y625080D01*
X300508Y624969D01*
X300376Y624855D01*
X300247Y624738D01*
X300120Y624617D01*
X299997Y624494D01*
X299876Y624367D01*
X299759Y624238D01*
X299645Y624106D01*
X299534Y623971D01*
X299426Y623834D01*
X299322Y623694D01*
X299221Y623551D01*
X299124Y623406D01*
X299030Y623259D01*
X298939Y623110D01*
X298853Y622958D01*
X298770Y622805D01*
X298690Y622649D01*
X298615Y622492D01*
X298543Y622332D01*
X298475Y622172D01*
X298412Y622009D01*
X298352Y621845D01*
X298296Y621680D01*
X298244Y621513D01*
X298196Y621345D01*
X298152Y621176D01*
X298112Y621006D01*
X298077Y620835D01*
X298045Y620663D01*
X298018Y620491D01*
X297995Y620318D01*
X297976Y620144D01*
X297961Y619970D01*
X297950Y619796D01*
X297944Y619622D01*
X297942Y619447D01*
X332373Y607258D02*
X332373Y602742D01*
X332374Y607258D02*
X332372Y607391D01*
X332366Y607523D01*
X332356Y607655D01*
X332343Y607787D01*
X332325Y607919D01*
X332304Y608049D01*
X332279Y608180D01*
X332250Y608309D01*
X332217Y608437D01*
X332181Y608565D01*
X332141Y608691D01*
X332097Y608816D01*
X332049Y608940D01*
X331998Y609062D01*
X331943Y609183D01*
X331885Y609302D01*
X331823Y609420D01*
X331758Y609535D01*
X331689Y609649D01*
X331618Y609760D01*
X331542Y609869D01*
X331464Y609976D01*
X331383Y610081D01*
X331298Y610183D01*
X331211Y610283D01*
X331121Y610380D01*
X331028Y610475D01*
X330932Y610566D01*
X330834Y610655D01*
X330733Y610741D01*
X330629Y610824D01*
X330523Y610904D01*
X330415Y610980D01*
X330305Y611054D01*
X330192Y611124D01*
X330078Y611191D01*
X329961Y611254D01*
X329843Y611314D01*
X329723Y611371D01*
X329601Y611424D01*
X329478Y611473D01*
X329354Y611519D01*
X329228Y611561D01*
X329101Y611599D01*
X328973Y611634D01*
X328844Y611665D01*
X328715Y611692D01*
X328584Y611715D01*
X328453Y611735D01*
X328321Y611750D01*
X328189Y611762D01*
X328057Y611770D01*
X327924Y611774D01*
X327792Y611774D01*
X327659Y611770D01*
X327527Y611762D01*
X327395Y611750D01*
X327263Y611735D01*
X327132Y611715D01*
X327001Y611692D01*
X326872Y611665D01*
X326743Y611634D01*
X326615Y611599D01*
X326488Y611561D01*
X326362Y611519D01*
X326238Y611473D01*
X326115Y611424D01*
X325993Y611371D01*
X325873Y611314D01*
X325755Y611254D01*
X325638Y611191D01*
X325524Y611124D01*
X325411Y611054D01*
X325301Y610980D01*
X325193Y610904D01*
X325087Y610824D01*
X324983Y610741D01*
X324882Y610655D01*
X324784Y610566D01*
X324688Y610475D01*
X324595Y610380D01*
X324505Y610283D01*
X324418Y610183D01*
X324333Y610081D01*
X324252Y609976D01*
X324174Y609869D01*
X324098Y609760D01*
X324027Y609649D01*
X323958Y609535D01*
X323893Y609420D01*
X323831Y609302D01*
X323773Y609183D01*
X323718Y609062D01*
X323667Y608940D01*
X323619Y608816D01*
X323575Y608691D01*
X323535Y608565D01*
X323499Y608437D01*
X323466Y608309D01*
X323437Y608180D01*
X323412Y608049D01*
X323391Y607919D01*
X323373Y607787D01*
X323360Y607655D01*
X323350Y607523D01*
X323344Y607391D01*
X323342Y607258D01*
X323342Y602742D01*
X339598Y602742D01*
X339598Y607258D01*
X339596Y607377D01*
X339590Y607497D01*
X339580Y607616D01*
X339566Y607734D01*
X339549Y607853D01*
X339527Y607970D01*
X339502Y608087D01*
X339472Y608202D01*
X339439Y608317D01*
X339402Y608431D01*
X339362Y608543D01*
X339317Y608654D01*
X339269Y608763D01*
X339218Y608871D01*
X339163Y608977D01*
X339104Y609081D01*
X339042Y609183D01*
X338977Y609283D01*
X338908Y609381D01*
X338836Y609477D01*
X338761Y609570D01*
X338684Y609660D01*
X338603Y609748D01*
X338519Y609833D01*
X338432Y609915D01*
X338343Y609995D01*
X338251Y610071D01*
X338157Y610145D01*
X338060Y610215D01*
X337962Y610282D01*
X337861Y610346D01*
X337757Y610406D01*
X337652Y610463D01*
X337545Y610516D01*
X337437Y610566D01*
X337327Y610612D01*
X337215Y610654D01*
X337102Y610693D01*
X336988Y610728D01*
X336873Y610759D01*
X336756Y610787D01*
X336639Y610810D01*
X336522Y610830D01*
X336403Y610846D01*
X336284Y610858D01*
X336165Y610866D01*
X336046Y610870D01*
X335926Y610870D01*
X335807Y610866D01*
X335688Y610858D01*
X335569Y610846D01*
X335450Y610830D01*
X335333Y610810D01*
X335216Y610787D01*
X335099Y610759D01*
X334984Y610728D01*
X334870Y610693D01*
X334757Y610654D01*
X334645Y610612D01*
X334535Y610566D01*
X334427Y610516D01*
X334320Y610463D01*
X334215Y610406D01*
X334111Y610346D01*
X334010Y610282D01*
X333912Y610215D01*
X333815Y610145D01*
X333721Y610071D01*
X333629Y609995D01*
X333540Y609915D01*
X333453Y609833D01*
X333369Y609748D01*
X333288Y609660D01*
X333211Y609570D01*
X333136Y609477D01*
X333064Y609381D01*
X332995Y609283D01*
X332930Y609183D01*
X332868Y609081D01*
X332809Y608977D01*
X332754Y608871D01*
X332703Y608763D01*
X332655Y608654D01*
X332610Y608543D01*
X332570Y608431D01*
X332533Y608317D01*
X332500Y608202D01*
X332470Y608087D01*
X332445Y607970D01*
X332423Y607853D01*
X332406Y607734D01*
X332392Y607616D01*
X332382Y607497D01*
X332376Y607377D01*
X332374Y607258D01*
X335986Y617641D02*
X339598Y622157D01*
X323342Y622157D01*
X323342Y626672D02*
X323342Y617641D01*
X335986Y633272D02*
X339598Y637788D01*
X323342Y637788D01*
X323342Y633272D02*
X323342Y642304D01*
M02*
