G04 EAGLE Gerber RS-274X export*
G75*
%MOMM*%
%FSLAX34Y34*%
%LPD*%
%INSoldermask Top*%
%IPPOS*%
%AMOC8*
5,1,8,0,0,1.08239X$1,22.5*%
G01*
%ADD10C,1.727200*%
%ADD11R,1.403200X1.403200*%
%ADD12R,2.003200X3.403200*%
%ADD13R,1.703200X1.503200*%
%ADD14R,1.503200X1.703200*%
%ADD15R,1.371600X1.803400*%
%ADD16R,1.403200X0.753200*%


D10*
X25400Y589280D02*
X25400Y604520D01*
X50800Y604520D02*
X50800Y589280D01*
X76200Y589280D02*
X76200Y604520D01*
X101600Y604520D02*
X101600Y589280D01*
X127000Y589280D02*
X127000Y604520D01*
X152400Y604520D02*
X152400Y589280D01*
X177800Y589280D02*
X177800Y604520D01*
X203200Y604520D02*
X203200Y589280D01*
X228600Y589280D02*
X228600Y604520D01*
X254000Y604520D02*
X254000Y589280D01*
X279400Y589280D02*
X279400Y604520D01*
X304800Y604520D02*
X304800Y589280D01*
X330200Y589280D02*
X330200Y604520D01*
D11*
X246720Y33020D03*
X225720Y33020D03*
D12*
X274260Y33020D03*
X330260Y33020D03*
D13*
X83820Y52680D03*
X83820Y33680D03*
D14*
X186080Y33020D03*
X205080Y33020D03*
D15*
X22860Y33020D03*
X38100Y33020D03*
X53340Y33020D03*
D16*
X139400Y42520D03*
X139400Y33020D03*
X139400Y23520D03*
X165400Y23520D03*
X165400Y42520D03*
D13*
X111760Y52680D03*
X111760Y33680D03*
D11*
X246720Y78740D03*
X225720Y78740D03*
D12*
X274260Y78740D03*
X330260Y78740D03*
D13*
X83820Y98400D03*
X83820Y79400D03*
D14*
X186080Y78740D03*
X205080Y78740D03*
D15*
X22860Y78740D03*
X38100Y78740D03*
X53340Y78740D03*
D16*
X139400Y88240D03*
X139400Y78740D03*
X139400Y69240D03*
X165400Y69240D03*
X165400Y88240D03*
D13*
X111760Y98400D03*
X111760Y79400D03*
D11*
X246720Y124460D03*
X225720Y124460D03*
D12*
X274260Y124460D03*
X330260Y124460D03*
D13*
X83820Y144120D03*
X83820Y125120D03*
D14*
X186080Y124460D03*
X205080Y124460D03*
D15*
X22860Y124460D03*
X38100Y124460D03*
X53340Y124460D03*
D16*
X139400Y133960D03*
X139400Y124460D03*
X139400Y114960D03*
X165400Y114960D03*
X165400Y133960D03*
D13*
X111760Y144120D03*
X111760Y125120D03*
D11*
X246720Y170180D03*
X225720Y170180D03*
D12*
X274260Y170180D03*
X330260Y170180D03*
D13*
X83820Y189840D03*
X83820Y170840D03*
D14*
X186080Y170180D03*
X205080Y170180D03*
D15*
X22860Y170180D03*
X38100Y170180D03*
X53340Y170180D03*
D16*
X139400Y179680D03*
X139400Y170180D03*
X139400Y160680D03*
X165400Y160680D03*
X165400Y179680D03*
D13*
X111760Y189840D03*
X111760Y170840D03*
D11*
X246720Y215900D03*
X225720Y215900D03*
D12*
X274260Y215900D03*
X330260Y215900D03*
D13*
X83820Y235560D03*
X83820Y216560D03*
D14*
X186080Y215900D03*
X205080Y215900D03*
D15*
X22860Y215900D03*
X38100Y215900D03*
X53340Y215900D03*
D16*
X139400Y225400D03*
X139400Y215900D03*
X139400Y206400D03*
X165400Y206400D03*
X165400Y225400D03*
D13*
X111760Y235560D03*
X111760Y216560D03*
D11*
X246720Y261620D03*
X225720Y261620D03*
D12*
X274260Y261620D03*
X330260Y261620D03*
D13*
X83820Y281280D03*
X83820Y262280D03*
D14*
X186080Y261620D03*
X205080Y261620D03*
D15*
X22860Y261620D03*
X38100Y261620D03*
X53340Y261620D03*
D16*
X139400Y271120D03*
X139400Y261620D03*
X139400Y252120D03*
X165400Y252120D03*
X165400Y271120D03*
D13*
X111760Y281280D03*
X111760Y262280D03*
D11*
X246720Y307340D03*
X225720Y307340D03*
D12*
X274260Y307340D03*
X330260Y307340D03*
D13*
X83820Y327000D03*
X83820Y308000D03*
D14*
X186080Y307340D03*
X205080Y307340D03*
D15*
X22860Y307340D03*
X38100Y307340D03*
X53340Y307340D03*
D16*
X139400Y316840D03*
X139400Y307340D03*
X139400Y297840D03*
X165400Y297840D03*
X165400Y316840D03*
D13*
X111760Y327000D03*
X111760Y308000D03*
D11*
X246720Y353060D03*
X225720Y353060D03*
D12*
X274260Y353060D03*
X330260Y353060D03*
D13*
X83820Y372720D03*
X83820Y353720D03*
D14*
X186080Y353060D03*
X205080Y353060D03*
D15*
X22860Y353060D03*
X38100Y353060D03*
X53340Y353060D03*
D16*
X139400Y362560D03*
X139400Y353060D03*
X139400Y343560D03*
X165400Y343560D03*
X165400Y362560D03*
D13*
X111760Y372720D03*
X111760Y353720D03*
D11*
X246720Y398780D03*
X225720Y398780D03*
D12*
X274260Y398780D03*
X330260Y398780D03*
D13*
X83820Y418440D03*
X83820Y399440D03*
D14*
X186080Y398780D03*
X205080Y398780D03*
D15*
X22860Y398780D03*
X38100Y398780D03*
X53340Y398780D03*
D16*
X139400Y408280D03*
X139400Y398780D03*
X139400Y389280D03*
X165400Y389280D03*
X165400Y408280D03*
D13*
X111760Y418440D03*
X111760Y399440D03*
D11*
X246720Y444500D03*
X225720Y444500D03*
D12*
X274260Y444500D03*
X330260Y444500D03*
D13*
X83820Y464160D03*
X83820Y445160D03*
D14*
X186080Y444500D03*
X205080Y444500D03*
D15*
X22860Y444500D03*
X38100Y444500D03*
X53340Y444500D03*
D16*
X139400Y454000D03*
X139400Y444500D03*
X139400Y435000D03*
X165400Y435000D03*
X165400Y454000D03*
D13*
X111760Y464160D03*
X111760Y445160D03*
D11*
X246720Y490220D03*
X225720Y490220D03*
D12*
X274260Y490220D03*
X330260Y490220D03*
D13*
X83820Y509880D03*
X83820Y490880D03*
D14*
X186080Y490220D03*
X205080Y490220D03*
D15*
X22860Y490220D03*
X38100Y490220D03*
X53340Y490220D03*
D16*
X139400Y499720D03*
X139400Y490220D03*
X139400Y480720D03*
X165400Y480720D03*
X165400Y499720D03*
D13*
X111760Y509880D03*
X111760Y490880D03*
D11*
X246720Y535940D03*
X225720Y535940D03*
D12*
X274260Y535940D03*
X330260Y535940D03*
D13*
X83820Y555600D03*
X83820Y536600D03*
D14*
X186080Y535940D03*
X205080Y535940D03*
D15*
X22860Y535940D03*
X38100Y535940D03*
X53340Y535940D03*
D16*
X139400Y545440D03*
X139400Y535940D03*
X139400Y526440D03*
X165400Y526440D03*
X165400Y545440D03*
D13*
X111760Y555600D03*
X111760Y536600D03*
M02*
