G04 EAGLE Gerber RS-274X export*
G75*
%MOMM*%
%FSLAX34Y34*%
%LPD*%
%INSoldermask Top*%
%IPPOS*%
%AMOC8*
5,1,8,0,0,1.08239X$1,22.5*%
G01*
%ADD10C,1.727200*%
%ADD11C,0.505344*%
%ADD12R,2.003200X3.403200*%
%ADD13R,1.203200X1.303200*%
%ADD14R,1.803400X1.371600*%
%ADD15R,1.403200X0.753200*%
%ADD16R,1.303200X1.203200*%


D10*
X25400Y665480D02*
X25400Y680720D01*
X50800Y680720D02*
X50800Y665480D01*
X76200Y665480D02*
X76200Y680720D01*
X101600Y680720D02*
X101600Y665480D01*
X127000Y665480D02*
X127000Y680720D01*
X152400Y680720D02*
X152400Y665480D01*
X177800Y665480D02*
X177800Y680720D01*
X203200Y680720D02*
X203200Y665480D01*
X228600Y665480D02*
X228600Y680720D01*
X254000Y680720D02*
X254000Y665480D01*
X279400Y665480D02*
X279400Y680720D01*
X304800Y680720D02*
X304800Y665480D01*
X330200Y665480D02*
X330200Y680720D01*
D11*
X233880Y28890D02*
X233880Y21910D01*
X233880Y28890D02*
X240860Y28890D01*
X240860Y21910D01*
X233880Y21910D01*
X233880Y26710D02*
X240860Y26710D01*
X216340Y28890D02*
X216340Y21910D01*
X216340Y28890D02*
X223320Y28890D01*
X223320Y21910D01*
X216340Y21910D01*
X216340Y26710D02*
X223320Y26710D01*
D12*
X276800Y35560D03*
X332800Y35560D03*
D13*
X67700Y25400D03*
X84700Y25400D03*
X169300Y25400D03*
X186300Y25400D03*
D14*
X20320Y17780D03*
X20320Y33020D03*
X20320Y48260D03*
D15*
X114000Y45060D03*
X114000Y35560D03*
X114000Y26060D03*
X140000Y26060D03*
X140000Y45060D03*
D16*
X84700Y45720D03*
X67700Y45720D03*
D11*
X233880Y72710D02*
X233880Y79690D01*
X240860Y79690D01*
X240860Y72710D01*
X233880Y72710D01*
X233880Y77510D02*
X240860Y77510D01*
X216340Y79690D02*
X216340Y72710D01*
X216340Y79690D02*
X223320Y79690D01*
X223320Y72710D01*
X216340Y72710D01*
X216340Y77510D02*
X223320Y77510D01*
D12*
X276800Y86360D03*
X332800Y86360D03*
D13*
X67700Y76200D03*
X84700Y76200D03*
X169300Y76200D03*
X186300Y76200D03*
D14*
X20320Y68580D03*
X20320Y83820D03*
X20320Y99060D03*
D15*
X114000Y95860D03*
X114000Y86360D03*
X114000Y76860D03*
X140000Y76860D03*
X140000Y95860D03*
D16*
X84700Y96520D03*
X67700Y96520D03*
D11*
X233880Y123510D02*
X233880Y130490D01*
X240860Y130490D01*
X240860Y123510D01*
X233880Y123510D01*
X233880Y128310D02*
X240860Y128310D01*
X216340Y130490D02*
X216340Y123510D01*
X216340Y130490D02*
X223320Y130490D01*
X223320Y123510D01*
X216340Y123510D01*
X216340Y128310D02*
X223320Y128310D01*
D12*
X276800Y137160D03*
X332800Y137160D03*
D13*
X67700Y127000D03*
X84700Y127000D03*
X169300Y127000D03*
X186300Y127000D03*
D14*
X20320Y119380D03*
X20320Y134620D03*
X20320Y149860D03*
D15*
X114000Y146660D03*
X114000Y137160D03*
X114000Y127660D03*
X140000Y127660D03*
X140000Y146660D03*
D16*
X84700Y147320D03*
X67700Y147320D03*
D11*
X233880Y174310D02*
X233880Y181290D01*
X240860Y181290D01*
X240860Y174310D01*
X233880Y174310D01*
X233880Y179110D02*
X240860Y179110D01*
X216340Y181290D02*
X216340Y174310D01*
X216340Y181290D02*
X223320Y181290D01*
X223320Y174310D01*
X216340Y174310D01*
X216340Y179110D02*
X223320Y179110D01*
D12*
X276800Y187960D03*
X332800Y187960D03*
D13*
X67700Y177800D03*
X84700Y177800D03*
X169300Y177800D03*
X186300Y177800D03*
D14*
X20320Y170180D03*
X20320Y185420D03*
X20320Y200660D03*
D15*
X114000Y197460D03*
X114000Y187960D03*
X114000Y178460D03*
X140000Y178460D03*
X140000Y197460D03*
D16*
X84700Y198120D03*
X67700Y198120D03*
D11*
X233880Y225110D02*
X233880Y232090D01*
X240860Y232090D01*
X240860Y225110D01*
X233880Y225110D01*
X233880Y229910D02*
X240860Y229910D01*
X216340Y232090D02*
X216340Y225110D01*
X216340Y232090D02*
X223320Y232090D01*
X223320Y225110D01*
X216340Y225110D01*
X216340Y229910D02*
X223320Y229910D01*
D12*
X276800Y238760D03*
X332800Y238760D03*
D13*
X67700Y228600D03*
X84700Y228600D03*
X169300Y228600D03*
X186300Y228600D03*
D14*
X20320Y220980D03*
X20320Y236220D03*
X20320Y251460D03*
D15*
X114000Y248260D03*
X114000Y238760D03*
X114000Y229260D03*
X140000Y229260D03*
X140000Y248260D03*
D16*
X84700Y248920D03*
X67700Y248920D03*
D11*
X233880Y275910D02*
X233880Y282890D01*
X240860Y282890D01*
X240860Y275910D01*
X233880Y275910D01*
X233880Y280710D02*
X240860Y280710D01*
X216340Y282890D02*
X216340Y275910D01*
X216340Y282890D02*
X223320Y282890D01*
X223320Y275910D01*
X216340Y275910D01*
X216340Y280710D02*
X223320Y280710D01*
D12*
X276800Y289560D03*
X332800Y289560D03*
D13*
X67700Y279400D03*
X84700Y279400D03*
X169300Y279400D03*
X186300Y279400D03*
D14*
X20320Y271780D03*
X20320Y287020D03*
X20320Y302260D03*
D15*
X114000Y299060D03*
X114000Y289560D03*
X114000Y280060D03*
X140000Y280060D03*
X140000Y299060D03*
D16*
X84700Y299720D03*
X67700Y299720D03*
D11*
X233880Y326710D02*
X233880Y333690D01*
X240860Y333690D01*
X240860Y326710D01*
X233880Y326710D01*
X233880Y331510D02*
X240860Y331510D01*
X216340Y333690D02*
X216340Y326710D01*
X216340Y333690D02*
X223320Y333690D01*
X223320Y326710D01*
X216340Y326710D01*
X216340Y331510D02*
X223320Y331510D01*
D12*
X276800Y340360D03*
X332800Y340360D03*
D13*
X67700Y330200D03*
X84700Y330200D03*
X169300Y330200D03*
X186300Y330200D03*
D14*
X20320Y322580D03*
X20320Y337820D03*
X20320Y353060D03*
D15*
X114000Y349860D03*
X114000Y340360D03*
X114000Y330860D03*
X140000Y330860D03*
X140000Y349860D03*
D16*
X84700Y350520D03*
X67700Y350520D03*
D11*
X233880Y377510D02*
X233880Y384490D01*
X240860Y384490D01*
X240860Y377510D01*
X233880Y377510D01*
X233880Y382310D02*
X240860Y382310D01*
X216340Y384490D02*
X216340Y377510D01*
X216340Y384490D02*
X223320Y384490D01*
X223320Y377510D01*
X216340Y377510D01*
X216340Y382310D02*
X223320Y382310D01*
D12*
X276800Y391160D03*
X332800Y391160D03*
D13*
X67700Y381000D03*
X84700Y381000D03*
X169300Y381000D03*
X186300Y381000D03*
D14*
X20320Y373380D03*
X20320Y388620D03*
X20320Y403860D03*
D15*
X114000Y400660D03*
X114000Y391160D03*
X114000Y381660D03*
X140000Y381660D03*
X140000Y400660D03*
D16*
X84700Y401320D03*
X67700Y401320D03*
D11*
X233880Y428310D02*
X233880Y435290D01*
X240860Y435290D01*
X240860Y428310D01*
X233880Y428310D01*
X233880Y433110D02*
X240860Y433110D01*
X216340Y435290D02*
X216340Y428310D01*
X216340Y435290D02*
X223320Y435290D01*
X223320Y428310D01*
X216340Y428310D01*
X216340Y433110D02*
X223320Y433110D01*
D12*
X276800Y441960D03*
X332800Y441960D03*
D13*
X67700Y431800D03*
X84700Y431800D03*
X169300Y431800D03*
X186300Y431800D03*
D14*
X20320Y424180D03*
X20320Y439420D03*
X20320Y454660D03*
D15*
X114000Y451460D03*
X114000Y441960D03*
X114000Y432460D03*
X140000Y432460D03*
X140000Y451460D03*
D16*
X84700Y452120D03*
X67700Y452120D03*
D11*
X233880Y479110D02*
X233880Y486090D01*
X240860Y486090D01*
X240860Y479110D01*
X233880Y479110D01*
X233880Y483910D02*
X240860Y483910D01*
X216340Y486090D02*
X216340Y479110D01*
X216340Y486090D02*
X223320Y486090D01*
X223320Y479110D01*
X216340Y479110D01*
X216340Y483910D02*
X223320Y483910D01*
D12*
X276800Y492760D03*
X332800Y492760D03*
D13*
X67700Y482600D03*
X84700Y482600D03*
X169300Y482600D03*
X186300Y482600D03*
D14*
X20320Y474980D03*
X20320Y490220D03*
X20320Y505460D03*
D15*
X114000Y502260D03*
X114000Y492760D03*
X114000Y483260D03*
X140000Y483260D03*
X140000Y502260D03*
D16*
X84700Y502920D03*
X67700Y502920D03*
D11*
X233880Y529910D02*
X233880Y536890D01*
X240860Y536890D01*
X240860Y529910D01*
X233880Y529910D01*
X233880Y534710D02*
X240860Y534710D01*
X216340Y536890D02*
X216340Y529910D01*
X216340Y536890D02*
X223320Y536890D01*
X223320Y529910D01*
X216340Y529910D01*
X216340Y534710D02*
X223320Y534710D01*
D12*
X276800Y543560D03*
X332800Y543560D03*
D13*
X67700Y533400D03*
X84700Y533400D03*
X169300Y533400D03*
X186300Y533400D03*
D14*
X20320Y525780D03*
X20320Y541020D03*
X20320Y556260D03*
D15*
X114000Y553060D03*
X114000Y543560D03*
X114000Y534060D03*
X140000Y534060D03*
X140000Y553060D03*
D16*
X84700Y553720D03*
X67700Y553720D03*
D11*
X233880Y580710D02*
X233880Y587690D01*
X240860Y587690D01*
X240860Y580710D01*
X233880Y580710D01*
X233880Y585510D02*
X240860Y585510D01*
X216340Y587690D02*
X216340Y580710D01*
X216340Y587690D02*
X223320Y587690D01*
X223320Y580710D01*
X216340Y580710D01*
X216340Y585510D02*
X223320Y585510D01*
D12*
X276800Y594360D03*
X332800Y594360D03*
D13*
X67700Y584200D03*
X84700Y584200D03*
X169300Y584200D03*
X186300Y584200D03*
D14*
X20320Y576580D03*
X20320Y591820D03*
X20320Y607060D03*
D15*
X114000Y603860D03*
X114000Y594360D03*
X114000Y584860D03*
X140000Y584860D03*
X140000Y603860D03*
D16*
X84700Y604520D03*
X67700Y604520D03*
D13*
X169300Y45720D03*
X186300Y45720D03*
D11*
X233880Y42230D02*
X233880Y49210D01*
X240860Y49210D01*
X240860Y42230D01*
X233880Y42230D01*
X233880Y47030D02*
X240860Y47030D01*
X216340Y49210D02*
X216340Y42230D01*
X216340Y49210D02*
X223320Y49210D01*
X223320Y42230D01*
X216340Y42230D01*
X216340Y47030D02*
X223320Y47030D01*
D13*
X169300Y96520D03*
X186300Y96520D03*
D11*
X233880Y93030D02*
X233880Y100010D01*
X240860Y100010D01*
X240860Y93030D01*
X233880Y93030D01*
X233880Y97830D02*
X240860Y97830D01*
X216340Y100010D02*
X216340Y93030D01*
X216340Y100010D02*
X223320Y100010D01*
X223320Y93030D01*
X216340Y93030D01*
X216340Y97830D02*
X223320Y97830D01*
D13*
X169300Y147320D03*
X186300Y147320D03*
X169300Y198120D03*
X186300Y198120D03*
X169300Y248920D03*
X186300Y248920D03*
X169300Y299720D03*
X186300Y299720D03*
X169300Y604520D03*
X186300Y604520D03*
X169300Y553720D03*
X186300Y553720D03*
X169300Y502920D03*
X186300Y502920D03*
X169300Y452120D03*
X186300Y452120D03*
X169300Y401320D03*
X186300Y401320D03*
X169300Y350520D03*
X186300Y350520D03*
D11*
X233880Y150810D02*
X233880Y143830D01*
X233880Y150810D02*
X240860Y150810D01*
X240860Y143830D01*
X233880Y143830D01*
X233880Y148630D02*
X240860Y148630D01*
X216340Y150810D02*
X216340Y143830D01*
X216340Y150810D02*
X223320Y150810D01*
X223320Y143830D01*
X216340Y143830D01*
X216340Y148630D02*
X223320Y148630D01*
X233880Y194630D02*
X233880Y201610D01*
X240860Y201610D01*
X240860Y194630D01*
X233880Y194630D01*
X233880Y199430D02*
X240860Y199430D01*
X216340Y201610D02*
X216340Y194630D01*
X216340Y201610D02*
X223320Y201610D01*
X223320Y194630D01*
X216340Y194630D01*
X216340Y199430D02*
X223320Y199430D01*
X233880Y245430D02*
X233880Y252410D01*
X240860Y252410D01*
X240860Y245430D01*
X233880Y245430D01*
X233880Y250230D02*
X240860Y250230D01*
X216340Y252410D02*
X216340Y245430D01*
X216340Y252410D02*
X223320Y252410D01*
X223320Y245430D01*
X216340Y245430D01*
X216340Y250230D02*
X223320Y250230D01*
X233880Y296230D02*
X233880Y303210D01*
X240860Y303210D01*
X240860Y296230D01*
X233880Y296230D01*
X233880Y301030D02*
X240860Y301030D01*
X216340Y303210D02*
X216340Y296230D01*
X216340Y303210D02*
X223320Y303210D01*
X223320Y296230D01*
X216340Y296230D01*
X216340Y301030D02*
X223320Y301030D01*
X233880Y601030D02*
X233880Y608010D01*
X240860Y608010D01*
X240860Y601030D01*
X233880Y601030D01*
X233880Y605830D02*
X240860Y605830D01*
X216340Y608010D02*
X216340Y601030D01*
X216340Y608010D02*
X223320Y608010D01*
X223320Y601030D01*
X216340Y601030D01*
X216340Y605830D02*
X223320Y605830D01*
X233880Y557210D02*
X233880Y550230D01*
X233880Y557210D02*
X240860Y557210D01*
X240860Y550230D01*
X233880Y550230D01*
X233880Y555030D02*
X240860Y555030D01*
X216340Y557210D02*
X216340Y550230D01*
X216340Y557210D02*
X223320Y557210D01*
X223320Y550230D01*
X216340Y550230D01*
X216340Y555030D02*
X223320Y555030D01*
X233880Y506410D02*
X233880Y499430D01*
X233880Y506410D02*
X240860Y506410D01*
X240860Y499430D01*
X233880Y499430D01*
X233880Y504230D02*
X240860Y504230D01*
X216340Y506410D02*
X216340Y499430D01*
X216340Y506410D02*
X223320Y506410D01*
X223320Y499430D01*
X216340Y499430D01*
X216340Y504230D02*
X223320Y504230D01*
X233880Y455610D02*
X233880Y448630D01*
X233880Y455610D02*
X240860Y455610D01*
X240860Y448630D01*
X233880Y448630D01*
X233880Y453430D02*
X240860Y453430D01*
X216340Y455610D02*
X216340Y448630D01*
X216340Y455610D02*
X223320Y455610D01*
X223320Y448630D01*
X216340Y448630D01*
X216340Y453430D02*
X223320Y453430D01*
X233880Y404810D02*
X233880Y397830D01*
X233880Y404810D02*
X240860Y404810D01*
X240860Y397830D01*
X233880Y397830D01*
X233880Y402630D02*
X240860Y402630D01*
X216340Y404810D02*
X216340Y397830D01*
X216340Y404810D02*
X223320Y404810D01*
X223320Y397830D01*
X216340Y397830D01*
X216340Y402630D02*
X223320Y402630D01*
X233880Y354010D02*
X233880Y347030D01*
X233880Y354010D02*
X240860Y354010D01*
X240860Y347030D01*
X233880Y347030D01*
X233880Y351830D02*
X240860Y351830D01*
X216340Y354010D02*
X216340Y347030D01*
X216340Y354010D02*
X223320Y354010D01*
X223320Y347030D01*
X216340Y347030D01*
X216340Y351830D02*
X223320Y351830D01*
M02*
