G04 EAGLE Gerber RS-274X export*
G75*
%MOMM*%
%FSLAX34Y34*%
%LPD*%
%INSolderpaste Top*%
%IPPOS*%
%AMOC8*
5,1,8,0,0,1.08239X$1,22.5*%
G01*
%ADD10R,1.200000X1.200000*%
%ADD11R,1.800000X3.200000*%
%ADD12R,1.300000X1.500000*%
%ADD13R,1.000000X1.100000*%
%ADD14R,1.600200X1.168400*%
%ADD15R,1.200000X0.550000*%
%ADD16R,1.100000X1.000000*%


D10*
X249260Y25400D03*
X228260Y25400D03*
D11*
X279340Y35560D03*
X335340Y35560D03*
D12*
X46380Y33020D03*
X65380Y33020D03*
D13*
X184540Y25400D03*
X201540Y25400D03*
D14*
X20320Y17780D03*
X20320Y33020D03*
X20320Y48260D03*
D15*
X131780Y45060D03*
X131780Y35560D03*
X131780Y26060D03*
X157780Y26060D03*
X157780Y45060D03*
D16*
X90560Y35560D03*
X107560Y35560D03*
D10*
X249260Y76200D03*
X228260Y76200D03*
D11*
X279340Y86360D03*
X335340Y86360D03*
D12*
X46380Y83820D03*
X65380Y83820D03*
D13*
X184540Y76200D03*
X201540Y76200D03*
D14*
X20320Y68580D03*
X20320Y83820D03*
X20320Y99060D03*
D15*
X131780Y95860D03*
X131780Y86360D03*
X131780Y76860D03*
X157780Y76860D03*
X157780Y95860D03*
D16*
X90560Y86360D03*
X107560Y86360D03*
D10*
X249260Y127000D03*
X228260Y127000D03*
D11*
X279340Y137160D03*
X335340Y137160D03*
D12*
X46380Y134620D03*
X65380Y134620D03*
D13*
X184540Y127000D03*
X201540Y127000D03*
D14*
X20320Y119380D03*
X20320Y134620D03*
X20320Y149860D03*
D15*
X131780Y146660D03*
X131780Y137160D03*
X131780Y127660D03*
X157780Y127660D03*
X157780Y146660D03*
D16*
X90560Y137160D03*
X107560Y137160D03*
D10*
X249260Y177800D03*
X228260Y177800D03*
D11*
X279340Y187960D03*
X335340Y187960D03*
D12*
X46380Y185420D03*
X65380Y185420D03*
D13*
X184540Y177800D03*
X201540Y177800D03*
D14*
X20320Y170180D03*
X20320Y185420D03*
X20320Y200660D03*
D15*
X131780Y197460D03*
X131780Y187960D03*
X131780Y178460D03*
X157780Y178460D03*
X157780Y197460D03*
D16*
X90560Y187960D03*
X107560Y187960D03*
D10*
X249260Y228600D03*
X228260Y228600D03*
D11*
X279340Y238760D03*
X335340Y238760D03*
D12*
X46380Y236220D03*
X65380Y236220D03*
D13*
X184540Y228600D03*
X201540Y228600D03*
D14*
X20320Y220980D03*
X20320Y236220D03*
X20320Y251460D03*
D15*
X131780Y248260D03*
X131780Y238760D03*
X131780Y229260D03*
X157780Y229260D03*
X157780Y248260D03*
D16*
X90560Y238760D03*
X107560Y238760D03*
D10*
X249260Y279400D03*
X228260Y279400D03*
D11*
X279340Y289560D03*
X335340Y289560D03*
D12*
X46380Y287020D03*
X65380Y287020D03*
D13*
X184540Y279400D03*
X201540Y279400D03*
D14*
X20320Y271780D03*
X20320Y287020D03*
X20320Y302260D03*
D15*
X131780Y299060D03*
X131780Y289560D03*
X131780Y280060D03*
X157780Y280060D03*
X157780Y299060D03*
D16*
X90560Y289560D03*
X107560Y289560D03*
D10*
X249260Y330200D03*
X228260Y330200D03*
D11*
X279340Y340360D03*
X335340Y340360D03*
D12*
X46380Y337820D03*
X65380Y337820D03*
D13*
X184540Y330200D03*
X201540Y330200D03*
D14*
X20320Y322580D03*
X20320Y337820D03*
X20320Y353060D03*
D15*
X131780Y349860D03*
X131780Y340360D03*
X131780Y330860D03*
X157780Y330860D03*
X157780Y349860D03*
D16*
X90560Y340360D03*
X107560Y340360D03*
D10*
X249260Y381000D03*
X228260Y381000D03*
D11*
X279340Y391160D03*
X335340Y391160D03*
D12*
X46380Y388620D03*
X65380Y388620D03*
D13*
X184540Y381000D03*
X201540Y381000D03*
D14*
X20320Y373380D03*
X20320Y388620D03*
X20320Y403860D03*
D15*
X131780Y400660D03*
X131780Y391160D03*
X131780Y381660D03*
X157780Y381660D03*
X157780Y400660D03*
D16*
X90560Y391160D03*
X107560Y391160D03*
D10*
X249260Y431800D03*
X228260Y431800D03*
D11*
X279340Y441960D03*
X335340Y441960D03*
D12*
X46380Y439420D03*
X65380Y439420D03*
D13*
X184540Y431800D03*
X201540Y431800D03*
D14*
X20320Y424180D03*
X20320Y439420D03*
X20320Y454660D03*
D15*
X131780Y451460D03*
X131780Y441960D03*
X131780Y432460D03*
X157780Y432460D03*
X157780Y451460D03*
D16*
X90560Y441960D03*
X107560Y441960D03*
D10*
X249260Y482600D03*
X228260Y482600D03*
D11*
X279340Y492760D03*
X335340Y492760D03*
D12*
X46380Y490220D03*
X65380Y490220D03*
D13*
X184540Y482600D03*
X201540Y482600D03*
D14*
X20320Y474980D03*
X20320Y490220D03*
X20320Y505460D03*
D15*
X131780Y502260D03*
X131780Y492760D03*
X131780Y483260D03*
X157780Y483260D03*
X157780Y502260D03*
D16*
X90560Y492760D03*
X107560Y492760D03*
D10*
X249260Y533400D03*
X228260Y533400D03*
D11*
X279340Y543560D03*
X335340Y543560D03*
D12*
X46380Y541020D03*
X65380Y541020D03*
D13*
X184540Y533400D03*
X201540Y533400D03*
D14*
X20320Y525780D03*
X20320Y541020D03*
X20320Y556260D03*
D15*
X131780Y553060D03*
X131780Y543560D03*
X131780Y534060D03*
X157780Y534060D03*
X157780Y553060D03*
D16*
X90560Y543560D03*
X107560Y543560D03*
D10*
X249260Y584200D03*
X228260Y584200D03*
D11*
X279340Y594360D03*
X335340Y594360D03*
D12*
X46380Y591820D03*
X65380Y591820D03*
D13*
X184540Y584200D03*
X201540Y584200D03*
D14*
X20320Y576580D03*
X20320Y591820D03*
X20320Y607060D03*
D15*
X131780Y603860D03*
X131780Y594360D03*
X131780Y584860D03*
X157780Y584860D03*
X157780Y603860D03*
D16*
X90560Y594360D03*
X107560Y594360D03*
D13*
X184540Y45720D03*
X201540Y45720D03*
D10*
X249260Y45720D03*
X228260Y45720D03*
D13*
X184540Y96520D03*
X201540Y96520D03*
D10*
X249260Y96520D03*
X228260Y96520D03*
D13*
X184540Y147320D03*
X201540Y147320D03*
X184540Y198120D03*
X201540Y198120D03*
X184540Y248920D03*
X201540Y248920D03*
X184540Y299720D03*
X201540Y299720D03*
X184540Y604520D03*
X201540Y604520D03*
X184540Y553720D03*
X201540Y553720D03*
X184540Y502920D03*
X201540Y502920D03*
X184540Y452120D03*
X201540Y452120D03*
X184540Y401320D03*
X201540Y401320D03*
X184540Y350520D03*
X201540Y350520D03*
D10*
X249260Y147320D03*
X228260Y147320D03*
X249260Y198120D03*
X228260Y198120D03*
X249260Y248920D03*
X228260Y248920D03*
X249260Y299720D03*
X228260Y299720D03*
X249260Y604520D03*
X228260Y604520D03*
X249260Y553720D03*
X228260Y553720D03*
X249260Y502920D03*
X228260Y502920D03*
X249260Y452120D03*
X228260Y452120D03*
X249260Y401320D03*
X228260Y401320D03*
X249260Y350520D03*
X228260Y350520D03*
M02*
