G04 EAGLE Gerber RS-274X export*
G75*
%MOMM*%
%FSLAX34Y34*%
%LPD*%
%INSolderpaste Top*%
%IPPOS*%
%AMOC8*
5,1,8,0,0,1.08239X$1,22.5*%
G01*
%ADD10R,1.200000X1.200000*%
%ADD11R,1.800000X1.200000*%
%ADD12R,1.500000X1.300000*%
%ADD13R,1.300000X1.500000*%
%ADD14R,1.168400X1.600200*%
%ADD15R,1.200000X0.550000*%


D10*
X264500Y33020D03*
X243500Y33020D03*
D11*
X294890Y33020D03*
X324870Y33020D03*
D12*
X83820Y52680D03*
X83820Y33680D03*
D13*
X193700Y33020D03*
X212700Y33020D03*
D14*
X22860Y33020D03*
X38100Y33020D03*
X53340Y33020D03*
D15*
X139400Y42520D03*
X139400Y33020D03*
X139400Y23520D03*
X165400Y23520D03*
X165400Y42520D03*
D12*
X111760Y52680D03*
X111760Y33680D03*
D10*
X264500Y78740D03*
X243500Y78740D03*
D11*
X294890Y78740D03*
X324870Y78740D03*
D12*
X83820Y98400D03*
X83820Y79400D03*
D13*
X193700Y78740D03*
X212700Y78740D03*
D14*
X22860Y78740D03*
X38100Y78740D03*
X53340Y78740D03*
D15*
X139400Y88240D03*
X139400Y78740D03*
X139400Y69240D03*
X165400Y69240D03*
X165400Y88240D03*
D12*
X111760Y98400D03*
X111760Y79400D03*
D10*
X264500Y124460D03*
X243500Y124460D03*
D11*
X294890Y124460D03*
X324870Y124460D03*
D12*
X83820Y144120D03*
X83820Y125120D03*
D13*
X193700Y124460D03*
X212700Y124460D03*
D14*
X22860Y124460D03*
X38100Y124460D03*
X53340Y124460D03*
D15*
X139400Y133960D03*
X139400Y124460D03*
X139400Y114960D03*
X165400Y114960D03*
X165400Y133960D03*
D12*
X111760Y144120D03*
X111760Y125120D03*
D10*
X264500Y170180D03*
X243500Y170180D03*
D11*
X294890Y170180D03*
X324870Y170180D03*
D12*
X83820Y189840D03*
X83820Y170840D03*
D13*
X193700Y170180D03*
X212700Y170180D03*
D14*
X22860Y170180D03*
X38100Y170180D03*
X53340Y170180D03*
D15*
X139400Y179680D03*
X139400Y170180D03*
X139400Y160680D03*
X165400Y160680D03*
X165400Y179680D03*
D12*
X111760Y189840D03*
X111760Y170840D03*
D10*
X264500Y215900D03*
X243500Y215900D03*
D11*
X294890Y215900D03*
X324870Y215900D03*
D12*
X83820Y235560D03*
X83820Y216560D03*
D13*
X193700Y215900D03*
X212700Y215900D03*
D14*
X22860Y215900D03*
X38100Y215900D03*
X53340Y215900D03*
D15*
X139400Y225400D03*
X139400Y215900D03*
X139400Y206400D03*
X165400Y206400D03*
X165400Y225400D03*
D12*
X111760Y235560D03*
X111760Y216560D03*
D10*
X264500Y261620D03*
X243500Y261620D03*
D11*
X294890Y261620D03*
X324870Y261620D03*
D12*
X83820Y281280D03*
X83820Y262280D03*
D13*
X193700Y261620D03*
X212700Y261620D03*
D14*
X22860Y261620D03*
X38100Y261620D03*
X53340Y261620D03*
D15*
X139400Y271120D03*
X139400Y261620D03*
X139400Y252120D03*
X165400Y252120D03*
X165400Y271120D03*
D12*
X111760Y281280D03*
X111760Y262280D03*
D10*
X264500Y307340D03*
X243500Y307340D03*
D11*
X294890Y307340D03*
X324870Y307340D03*
D12*
X83820Y327000D03*
X83820Y308000D03*
D13*
X193700Y307340D03*
X212700Y307340D03*
D14*
X22860Y307340D03*
X38100Y307340D03*
X53340Y307340D03*
D15*
X139400Y316840D03*
X139400Y307340D03*
X139400Y297840D03*
X165400Y297840D03*
X165400Y316840D03*
D12*
X111760Y327000D03*
X111760Y308000D03*
D10*
X264500Y353060D03*
X243500Y353060D03*
D11*
X294890Y353060D03*
X324870Y353060D03*
D12*
X83820Y372720D03*
X83820Y353720D03*
D13*
X193700Y353060D03*
X212700Y353060D03*
D14*
X22860Y353060D03*
X38100Y353060D03*
X53340Y353060D03*
D15*
X139400Y362560D03*
X139400Y353060D03*
X139400Y343560D03*
X165400Y343560D03*
X165400Y362560D03*
D12*
X111760Y372720D03*
X111760Y353720D03*
D10*
X264500Y398780D03*
X243500Y398780D03*
D11*
X294890Y398780D03*
X324870Y398780D03*
D12*
X83820Y418440D03*
X83820Y399440D03*
D13*
X193700Y398780D03*
X212700Y398780D03*
D14*
X22860Y398780D03*
X38100Y398780D03*
X53340Y398780D03*
D15*
X139400Y408280D03*
X139400Y398780D03*
X139400Y389280D03*
X165400Y389280D03*
X165400Y408280D03*
D12*
X111760Y418440D03*
X111760Y399440D03*
D10*
X264500Y444500D03*
X243500Y444500D03*
D11*
X294890Y444500D03*
X324870Y444500D03*
D12*
X83820Y464160D03*
X83820Y445160D03*
D13*
X193700Y444500D03*
X212700Y444500D03*
D14*
X22860Y444500D03*
X38100Y444500D03*
X53340Y444500D03*
D15*
X139400Y454000D03*
X139400Y444500D03*
X139400Y435000D03*
X165400Y435000D03*
X165400Y454000D03*
D12*
X111760Y464160D03*
X111760Y445160D03*
D10*
X264500Y490220D03*
X243500Y490220D03*
D11*
X294890Y490220D03*
X324870Y490220D03*
D12*
X83820Y509880D03*
X83820Y490880D03*
D13*
X193700Y490220D03*
X212700Y490220D03*
D14*
X22860Y490220D03*
X38100Y490220D03*
X53340Y490220D03*
D15*
X139400Y499720D03*
X139400Y490220D03*
X139400Y480720D03*
X165400Y480720D03*
X165400Y499720D03*
D12*
X111760Y509880D03*
X111760Y490880D03*
D10*
X264500Y535940D03*
X243500Y535940D03*
D11*
X294890Y535940D03*
X324870Y535940D03*
D12*
X83820Y555600D03*
X83820Y536600D03*
D13*
X193700Y535940D03*
X212700Y535940D03*
D14*
X22860Y535940D03*
X38100Y535940D03*
X53340Y535940D03*
D15*
X139400Y545440D03*
X139400Y535940D03*
X139400Y526440D03*
X165400Y526440D03*
X165400Y545440D03*
D12*
X111760Y555600D03*
X111760Y536600D03*
M02*
