M48
;GenerationSoftware,Autodesk,EAGLE,9.6.2*%
;CreationDate,2020-08-20T09:14:10Z*%
FMAT,2
ICI,OFF
METRIC,TZ,000.000
T1C1.016
%
G90
M71
T1
X8668Y2096
X8668Y4636
X8668Y7175
X8668Y9716
X8668Y12255
X8668Y14795
X8668Y17336
X8668Y19876
X8668Y22415
X8668Y24955
X8668Y27495
X8668Y30035
X8668Y32575
X5334Y8001
X5334Y5334
X2667Y6667
X2667Y9335
X2667Y12001
X2667Y14668
X2667Y17336
X2667Y20003
X2667Y22669
X2667Y25336
X2667Y28003
X5334Y29337
X5334Y26670
M30