M48
;GenerationSoftware,Autodesk,EAGLE,9.6.2*%
;CreationDate,2020-08-19T22:56:00Z*%
FMAT,2
ICI,OFF
METRIC,TZ,000.000
T2C0.350
T1C1.016
%
G90
M71
T1
X33020Y67310
X30480Y67310
X27940Y67310
X25400Y67310
X22860Y67310
X20320Y67310
X17780Y67310
X15240Y67310
X12700Y67310
X10160Y67310
X7620Y67310
X5080Y67310
X2540Y67310
T2
X31750Y2286
X30480Y2286
X29210Y2286
X31750Y3556
X29210Y3556
X30480Y13716
X30480Y14986
X29210Y14986
X31750Y14986
X31750Y12446
X30480Y12446
X29210Y12446
X31750Y13716
X29210Y13716
X15240Y11430
X30480Y18796
X30480Y20066
X29210Y20066
X31750Y20066
X31750Y17526
X30480Y17526
X29210Y17526
X31750Y18796
X29210Y18796
X30480Y23876
X30480Y25146
X29210Y25146
X31750Y25146
X31750Y22606
X30480Y22606
X29210Y22606
X31750Y23876
X29210Y23876
X12700Y21590
X30480Y28956
X30480Y30226
X29210Y30226
X31750Y30226
X31750Y27686
X30480Y27686
X29210Y27686
X31750Y28956
X29210Y28956
X30480Y34036
X30480Y35306
X29210Y35306
X31750Y35306
X31750Y32766
X30480Y32766
X29210Y32766
X30480Y8636
X29210Y34036
X10160Y31750
X30480Y39116
X30480Y40386
X29210Y40386
X31750Y40386
X31750Y37846
X30480Y37846
X29210Y37846
X31750Y39116
X29210Y39116
X30480Y44196
X30480Y45466
X29210Y45466
X31750Y45466
X31750Y42926
X30480Y42926
X29210Y42926
X31750Y44196
X29210Y44196
X7620Y41910
X30480Y49276
X30480Y50546
X29210Y50546
X31750Y50546
X31750Y48006
X30480Y48006
X29210Y48006
X31750Y49276
X29210Y49276
X30480Y54356
X30480Y55626
X29210Y55626
X31750Y55626
X31750Y53086
X30480Y53086
X29210Y53086
X31750Y54356
X29210Y54356
X5080Y52070
X30480Y59436
X30480Y60706
X29210Y60706
X31750Y60706
X31750Y58166
X30480Y58166
X29210Y58166
X31750Y59436
X29210Y59436
X31750Y4826
X29210Y4826
X30480Y4826
X30480Y3556
X29210Y8636
X31750Y8636
X29210Y7366
X30480Y7366
X31750Y7366
X31750Y9906
X29210Y9906
X30480Y9906
X31750Y34036
M30